<?xml version="1.0" encoding="UTF-8"?>
<svg id="_莲花" data-name="莲花" xmlns="http://www.w3.org/2000/svg" viewBox="0 0 595.28 841.89">
  <defs>
    <style>
      .cls-1, .cls-2 {
        fill: #221714;
      }

      .cls-1, .cls-3, .cls-4 {
        stroke: #221714;
        stroke-miterlimit: 10;
      }

      .cls-1, .cls-4 {
        stroke-width: 4.37px;
      }

      .cls-5 {
        fill: #231815;
      }

      .cls-3 {
        stroke-width: .4px;
      }

      .cls-3, .cls-4 {
        fill: none;
      }
    </style>
  </defs>
  <g>
    <path class="cls-5" d="M345.17,225.31c-5.53-10.79-17.23-18.48-29.47-24.58-5.7-2.86-11.27-5.69-15.92-9.53-.62-.54-1.4-1.23-1.75-1.91.02-.24,0-.48-.08-.72l-.31.14-.31-.14c-.09.25-.1.49-.08.72-.35.68-1.12,1.37-1.75,1.91-4.64,3.84-10.22,6.66-15.92,9.53-12.25,6.1-23.94,13.79-29.47,24.58-4.44,8.77-3.71,18.55.07,27.36,2.72,6.54,8.45,13.16,17.28,15.52,2.63.83,5.53.81,8.19,1.29h.02s.1.01.1.01c.54-.91,7.31-11.84,20.5-12.57,9.39-.52,18.38,4.33,23.32,12.54h.04s.24-.02.24-.02h.02s0,0,0,0c2.59-.43,5.39-.45,7.93-1.25,8.83-2.36,14.56-8.98,17.28-15.52,3.77-8.81,4.51-18.58.07-27.36ZM340.4,251.73c-2.42,7.82-8.62,14.77-19.31,16.75-.46.14-.9.2-1.3.36,5.12-8.07,5.51-18.18.99-26.29-6.95-12.5-21.43-12.9-23.15-12.92-10.99-.12-22.1,6.48-25.19,15.28-3.35,9.54,2.08,23.51,1.74,23.58,0,0,0,0,0,0-10.69-1.98-16.89-8.93-19.31-16.75-6.23-18.72,1.98-32.4,20.94-44.47,7.29-4.84,15.64-9.13,20.9-15.49.3-.44.65-.89.92-1.36.27.47.63.92.92,1.36,5.25,6.36,13.61,10.65,20.9,15.49,18.96,12.08,27.17,25.75,20.94,44.47Z"/>
    <path class="cls-5" d="M163.74,311.99c-10.79,5.53-18.48,17.23-24.58,29.47-2.86,5.7-5.69,11.27-9.53,15.92-.54.62-1.23,1.4-1.91,1.75-.24-.02-.48,0-.72.08l.14.31-.14.31c.25.09.49.1.72.08.68.35,1.37,1.12,1.91,1.75,3.84,4.64,6.66,10.22,9.53,15.92,6.1,12.25,13.79,23.94,24.58,29.47,8.77,4.44,18.55,3.71,27.36-.07,6.54-2.72,13.16-8.45,15.52-17.28.83-2.63.81-5.53,1.29-8.19v-.02s.01-.1.01-.1c-.91-.54-11.84-7.31-12.57-20.5-.52-9.39,4.33-18.38,12.54-23.32v-.04s-.02-.24-.02-.24v-.02s0,0,0,0c-.43-2.59-.45-5.39-1.25-7.93-2.36-8.83-8.98-14.56-15.52-17.28-8.81-3.77-18.58-4.51-27.36-.07ZM190.15,316.76c7.82,2.42,14.77,8.62,16.75,19.31.14.46.2.9.36,1.3-8.07-5.12-18.18-5.51-26.29-.99-12.5,6.95-12.9,21.43-12.92,23.15-.12,10.99,6.48,22.1,15.28,25.19,9.54,3.35,23.51-2.08,23.58-1.74,0,0,0,0,0,0-1.98,10.69-8.93,16.89-16.75,19.31-18.72,6.23-32.4-1.98-44.47-20.94-4.84-7.29-9.13-15.64-15.49-20.9-.44-.3-.89-.65-1.36-.92.47-.27.92-.63,1.36-.92,6.36-5.25,10.65-13.61,15.49-20.9,12.08-18.96,25.75-27.17,44.47-20.94Z"/>
    <path class="cls-5" d="M230.54,227.5c-11.54-3.72-25.25-.89-38.22,3.46-6.06,2-11.99,3.95-17.99,4.52-.82.06-1.86.12-2.59-.12-.15-.18-.33-.34-.57-.45l-.12.32-.32.12c.11.24.27.42.45.57.24.73.18,1.76.12,2.59-.57,6-2.51,11.94-4.52,17.99-4.35,12.97-7.18,26.68-3.46,38.22,3.07,9.34,10.5,15.74,19.39,19.3,6.55,2.7,15.28,3.33,23.19-1.24,2.45-1.27,4.49-3.34,6.71-4.88h0s.08-.08.08-.08c-.26-1.02-3.2-13.54,5.61-23.38,6.27-7,16.06-9.93,25.36-7.62l.04-.02.14-.2h.01s0-.02,0-.02c1.52-2.14,3.49-4.13,4.73-6.49,4.57-7.91,3.94-16.64,1.24-23.19-3.56-8.89-9.95-16.33-19.3-19.39ZM245.85,249.56c3.82,7.24,4.35,16.54-1.81,25.5-.23.43-.49.78-.67,1.17-2.09-9.32-8.96-16.75-17.89-19.29-13.75-3.92-24.28,6.03-25.5,7.23-7.86,7.69-11.04,20.21-7.01,28.61,4.38,9.11,18.1,15.15,17.9,15.44,0,0,0,0,0,0-8.96,6.16-18.25,5.63-25.5,1.81-17.65-8.83-21.51-24.31-16.64-46.25,1.73-8.57,4.61-17.52,3.83-25.73-.1-.52-.17-1.09-.31-1.61.52.14,1.09.21,1.61.31,8.21.78,17.16-2.09,25.73-3.83,21.95-4.87,37.42-1,46.25,16.64Z"/>
    <path class="cls-5" d="M249.58,498.89c5.53,10.79,17.23,18.48,29.47,24.58,5.7,2.86,11.27,5.69,15.92,9.53.62.54,1.4,1.23,1.75,1.91-.02.24,0,.48.08.72l.31-.14.31.14c.09-.25.1-.49.08-.72.35-.68,1.12-1.37,1.75-1.91,4.64-3.84,10.22-6.66,15.92-9.53,12.25-6.1,23.94-13.79,29.47-24.58,4.44-8.77,3.71-18.55-.07-27.36-2.72-6.54-8.45-13.16-17.28-15.52-2.63-.83-5.53-.81-8.19-1.29h-.02s-.1-.01-.1-.01c-.54.91-7.31,11.84-20.5,12.57-9.39.52-18.38-4.33-23.32-12.54h-.04s-.24.02-.24.02h-.02s0,0,0,0c-2.59.43-5.39.45-7.93,1.25-8.83,2.36-14.56,8.98-17.28,15.52-3.77,8.81-4.51,18.58-.07,27.36ZM254.35,472.47c2.42-7.82,8.62-14.77,19.31-16.75.46-.14.9-.2,1.3-.36-5.12,8.07-5.51,18.18-.99,26.29,6.95,12.5,21.43,12.9,23.15,12.92,10.99.12,22.1-6.48,25.19-15.28,3.35-9.54-2.08-23.51-1.74-23.58,0,0,0,0,0,0,10.69,1.98,16.89,8.93,19.31,16.75,6.23,18.72-1.98,32.4-20.94,44.47-7.29,4.84-15.64,9.13-20.9,15.49-.3.44-.65.89-.92,1.36-.27-.47-.63-.92-.92-1.36-5.25-6.36-13.61-10.65-20.9-15.49-18.96-12.08-27.17-25.75-20.94-44.47Z"/>
    <path class="cls-5" d="M436.52,407.05c10.79-5.53,18.48-17.23,24.58-29.47,2.86-5.7,5.69-11.27,9.53-15.92.54-.62,1.23-1.4,1.91-1.75.24.02.48,0,.72-.08l-.14-.31.14-.31c-.25-.09-.49-.1-.72-.08-.68-.35-1.37-1.12-1.91-1.75-3.84-4.64-6.66-10.22-9.53-15.92-6.1-12.25-13.79-23.94-24.58-29.47-8.77-4.44-18.55-3.71-27.36.07-6.54,2.72-13.16,8.45-15.52,17.28-.83,2.63-.81,5.53-1.29,8.19v.02s-.01.1-.01.1c.91.54,11.84,7.31,12.57,20.5.52,9.39-4.33,18.38-12.54,23.32v.04s.02.24.02.24v.02s0,0,0,0c.43,2.59.45,5.39,1.25,7.93,2.36,8.83,8.98,14.56,15.52,17.28,8.81,3.77,18.58,4.51,27.36.07ZM410.1,402.28c-7.82-2.42-14.77-8.62-16.75-19.31-.14-.46-.2-.9-.36-1.3,8.07,5.12,18.18,5.51,26.29.99,12.5-6.95,12.9-21.43,12.92-23.15.12-10.99-6.48-22.1-15.28-25.19-9.54-3.35-23.51,2.08-23.58,1.74,0,0,0,0,0,0,1.98-10.69,8.93-16.89,16.75-19.31,18.72-6.23,32.4,1.98,44.47,20.94,4.84,7.29,9.13,15.64,15.49,20.9.44.3.89.65,1.36.92-.47.27-.92.63-1.36.92-6.36,5.25-10.65,13.61-15.49,20.9-12.08,18.96-25.75,27.17-44.47,20.94Z"/>
    <path class="cls-5" d="M431.08,297.97c3.72-11.54.89-25.25-3.46-38.22-2-6.06-3.95-11.99-4.52-17.99-.06-.82-.12-1.86.12-2.59.18-.15.34-.33.45-.57l-.32-.12-.12-.32c-.24.11-.42.27-.57.45-.73.24-1.76.18-2.59.12-6-.57-11.94-2.51-17.99-4.52-12.97-4.35-26.68-7.18-38.22-3.46-9.34,3.07-15.74,10.5-19.3,19.39-2.7,6.55-3.33,15.28,1.24,23.19,1.27,2.45,3.34,4.49,4.88,6.71h.01s.06.09.06.09c1.02-.26,13.54-3.2,23.38,5.61,7,6.27,9.93,16.06,7.62,25.36l.02.04.2.14h.01s0,.01,0,.01c2.14,1.52,4.13,3.49,6.49,4.73,7.91,4.57,16.64,3.94,23.19,1.24,8.89-3.56,16.33-9.95,19.39-19.3ZM409.03,313.28c-7.24,3.82-16.54,4.35-25.5-1.81-.43-.23-.78-.49-1.17-.67,9.32-2.09,16.75-8.96,19.29-17.89,3.92-13.75-6.03-24.28-7.23-25.5-7.69-7.86-20.21-11.04-28.61-7.01-9.11,4.38-15.15,18.1-15.44,17.9,0,0,0,0,0,0-6.16-8.96-5.63-18.25-1.81-25.5,8.83-17.65,24.31-21.51,46.25-16.64,8.57,1.73,17.52,4.61,25.73,3.83.52-.1,1.09-.17,1.61-.31-.14.52-.21,1.09-.31,1.61-.78,8.21,2.09,17.16,3.83,25.73,4.87,21.95,1,37.42-16.64,46.25Z"/>
    <path class="cls-5" d="M163.98,427.2c-3.72,11.54-.89,25.25,3.46,38.22,2,6.06,3.95,11.99,4.52,17.99.06.82.12,1.86-.12,2.59-.18.15-.34.33-.45.57l.32.12.12.32c.24-.11.42-.27.57-.45.73-.24,1.76-.18,2.59-.12,6,.57,11.94,2.51,17.99,4.52,12.97,4.35,26.68,7.18,38.22,3.46,9.34-3.07,15.74-10.5,19.3-19.39,2.7-6.55,3.33-15.28-1.24-23.19-1.27-2.45-3.34-4.49-4.88-6.71h-.01s-.06-.09-.06-.09c-1.02.26-13.54,3.2-23.38-5.61-7-6.27-9.93-16.06-7.62-25.36l-.02-.04-.2-.14h-.01s0-.01,0-.01c-2.14-1.52-4.13-3.49-6.49-4.73-7.91-4.57-16.64-3.94-23.19-1.24-8.89,3.56-16.33,9.95-19.39,19.3ZM186.03,411.9c7.24-3.82,16.54-4.35,25.5,1.81.43.23.78.49,1.17.67-9.32,2.09-16.75,8.96-19.29,17.89-3.92,13.75,6.03,24.28,7.23,25.5,7.69,7.86,20.21,11.04,28.61,7.01,9.11-4.38,15.15-18.1,15.44-17.9,0,0,0,0,0,0,6.16,8.96,5.63,18.25,1.81,25.5-8.83,17.65-24.31,21.51-46.25,16.64-8.57-1.73-17.52-4.61-25.73-3.83-.52.1-1.09.17-1.61.31.14-.52.21-1.09.31-1.61.78-8.21-2.09-17.16-3.83-25.73-4.87-21.95-1-37.42,16.64-46.25Z"/>
    <path class="cls-5" d="M431.08,426.23c3.72,11.54.89,25.25-3.46,38.22-2,6.06-3.95,11.99-4.52,17.99-.06.82-.12,1.86.12,2.59.18.15.34.33.45.57l-.32.12-.12.32c-.24-.11-.42-.27-.57-.45-.73-.24-1.76-.18-2.59-.12-6,.57-11.94,2.51-17.99,4.52-12.97,4.35-26.68,7.18-38.22,3.46-9.34-3.07-15.74-10.5-19.3-19.39-2.7-6.55-3.33-15.28,1.24-23.19,1.27-2.45,3.34-4.49,4.88-6.71h.01s.06-.09.06-.09c1.02.26,13.54,3.2,23.38-5.61,7-6.27,9.93-16.06,7.62-25.36l.02-.04.2-.14h.01s0-.01,0-.01c2.14-1.52,4.13-3.49,6.49-4.73,7.91-4.57,16.64-3.94,23.19-1.24,8.89,3.56,16.33,9.95,19.39,19.3ZM409.03,410.92c-7.24-3.82-16.54-4.35-25.5,1.81-.43.23-.78.49-1.17.67,9.32,2.09,16.75,8.96,19.29,17.89,3.92,13.75-6.03,24.28-7.23,25.5-7.69,7.86-20.21,11.04-28.61,7.01-9.11-4.38-15.15-18.1-15.44-17.9,0,0,0,0,0,0-6.16,8.96-5.63,18.25-1.81,25.5,8.83,17.65,24.31,21.51,46.25,16.64,8.57-1.73,17.52-4.61,25.73-3.83.52.1,1.09.17,1.61.31-.14-.52-.21-1.09-.31-1.61-.78-8.21,2.09-17.16,3.83-25.73,4.87-21.95,1-37.42-16.64-46.25Z"/>
  </g>
  <g>
    <path class="cls-5" d="M228.26,136.05c7.75-17.61,24.13-30.16,41.29-40.11,7.98-4.67,15.79-9.28,22.3-15.55.87-.89,1.96-2.01,2.45-3.12-.03-.39,0-.78.11-1.18l.44.23.44-.23c.12.4.14.8.11,1.18.49,1.12,1.57,2.24,2.45,3.12,6.5,6.27,14.31,10.88,22.3,15.55,17.16,9.95,33.54,22.5,41.29,40.11,6.22,14.32,5.19,30.28-.09,44.65-3.81,10.67-11.84,21.48-24.21,25.33-3.69,1.36-7.75,1.33-11.48,2.11h-.02s-.14.02-.14.02c-.76-1.48-10.24-19.32-28.72-20.51-13.15-.85-25.75,7.07-32.67,20.47l-.06.02-.34-.06h-.03s0,0,0,0c-3.63-.71-7.55-.73-11.12-2.04-12.37-3.85-20.4-14.66-24.21-25.33-5.29-14.37-6.31-30.33-.09-44.65ZM234.94,179.16c1.67,6.29,4.63,12.24,9,17.04,1.65,1.81,9.06,10.04,18.05,10.3,16.13.45,20.41-25.23,32.86-23.73,11.38,1.37,19.92,24.3,32.85,23.73,0,0,0,0,0,0,14.97-3.23,23.66-14.57,27.05-27.34,8.73-30.56-2.77-52.88-29.33-72.59-10.21-7.89-21.92-14.9-29.28-25.28-.41-.72-.91-1.45-1.29-2.22-.38.76-.88,1.5-1.29,2.22-7.36,10.37-19.07,17.38-29.28,25.28-26.56,19.71-38.06,42.03-29.33,72.59Z"/>
    <path class="cls-5" d="M244.75,147.74c5.83-13.25,18.15-22.69,31.06-30.18,6.01-3.52,11.88-6.98,16.77-11.7.66-.67,1.47-1.51,1.84-2.35-.02-.29,0-.58.09-.89l.33.17.33-.17c.09.3.11.6.09.89.37.84,1.18,1.68,1.84,2.35,4.89,4.72,10.77,8.18,16.77,11.7,12.91,7.49,25.23,16.93,31.06,30.18,4.68,10.77,3.91,22.78-.07,33.59-2.87,8.03-8.91,16.16-18.21,19.06-2.77,1.02-5.83,1-8.64,1.59h-.02s-.11.01-.11.01c-.57-1.12-7.71-14.53-21.6-15.43-9.89-.64-19.37,5.32-24.58,15.4l-.05.02-.25-.05h-.02s0,0,0,0c-2.73-.53-5.68-.55-8.36-1.54-9.3-2.89-15.34-11.03-18.21-19.06-3.98-10.81-4.75-22.82-.07-33.59ZM249.78,180.17c1.26,4.74,3.49,9.21,6.77,12.82,1.24,1.37,6.82,7.56,13.58,7.74,12.13.34,15.35-18.98,24.72-17.85,8.56,1.03,14.99,18.28,24.71,17.85,0,0,0,0,0,0,11.26-2.43,17.8-10.96,20.35-20.57,6.57-22.99-2.08-39.78-22.07-54.61-7.68-5.94-16.49-11.21-22.02-19.02-.31-.54-.69-1.09-.97-1.67-.29.57-.66,1.13-.97,1.67-5.54,7.8-14.34,13.08-22.03,19.02-19.98,14.83-28.63,31.62-22.07,54.61Z"/>
  </g>
  <g>
    <path class="cls-5" d="M228.26,590.26c7.75,17.61,24.13,30.16,41.29,40.11,7.98,4.67,15.79,9.28,22.3,15.55.87.89,1.96,2.01,2.45,3.12-.03.39,0,.78.11,1.18l.44-.23.44.23c.12-.4.14-.8.11-1.18.49-1.12,1.57-2.24,2.45-3.12,6.5-6.27,14.31-10.88,22.3-15.55,17.16-9.95,33.54-22.5,41.29-40.11,6.22-14.32,5.19-30.28-.09-44.65-3.81-10.67-11.84-21.48-24.21-25.33-3.69-1.36-7.75-1.33-11.48-2.11h-.02s-.14-.02-.14-.02c-.76,1.48-10.24,19.32-28.72,20.51-13.15.85-25.75-7.07-32.67-20.47l-.06-.02-.34.06h-.03s0,0,0,0c-3.63.71-7.55.73-11.12,2.04-12.37,3.85-20.4,14.66-24.21,25.33-5.29,14.37-6.31,30.33-.09,44.65ZM234.94,547.15c1.67-6.29,4.63-12.24,9-17.04,1.65-1.81,9.06-10.04,18.05-10.3,16.13-.45,20.41,25.23,32.86,23.73,11.38-1.37,19.92-24.3,32.85-23.73,0,0,0,0,0,0,14.97,3.23,23.66,14.57,27.05,27.34,8.73,30.56-2.77,52.88-29.33,72.59-10.21,7.89-21.92,14.9-29.28,25.28-.41.72-.91,1.45-1.29,2.22-.38-.76-.88-1.5-1.29-2.22-7.36-10.37-19.07-17.38-29.28-25.28-26.56-19.71-38.06-42.03-29.33-72.59Z"/>
    <path class="cls-5" d="M244.75,578.57c5.83,13.25,18.15,22.69,31.06,30.18,6.01,3.52,11.88,6.98,16.77,11.7.66.67,1.47,1.51,1.84,2.35-.02.29,0,.58.09.89l.33-.17.33.17c.09-.3.11-.6.09-.89.37-.84,1.18-1.68,1.84-2.35,4.89-4.72,10.77-8.18,16.77-11.7,12.91-7.49,25.23-16.93,31.06-30.18,4.68-10.77,3.91-22.78-.07-33.59-2.87-8.03-8.91-16.16-18.21-19.06-2.77-1.02-5.83-1-8.64-1.59h-.02s-.11-.01-.11-.01c-.57,1.12-7.71,14.53-21.6,15.43-9.89.64-19.37-5.32-24.58-15.4l-.05-.02-.25.05h-.02s0,0,0,0c-2.73.53-5.68.55-8.36,1.54-9.3,2.89-15.34,11.03-18.21,19.06-3.98,10.81-4.75,22.82-.07,33.59ZM249.78,546.14c1.26-4.74,3.49-9.21,6.77-12.82,1.24-1.37,6.82-7.56,13.58-7.74,12.13-.34,15.35,18.98,24.72,17.85,8.56-1.03,14.99-18.28,24.71-17.85,0,0,0,0,0,0,11.26,2.43,17.8,10.96,20.35,20.57,6.57,22.99-2.08,39.78-22.07,54.61-7.68,5.94-16.49,11.21-22.02,19.02-.31.54-.69,1.09-.97,1.67-.29-.57-.66-1.13-.97-1.67-5.54-7.8-14.34-13.08-22.03-19.02-19.98-14.83-28.63-31.62-22.07-54.61Z"/>
  </g>
  <g>
    <path class="cls-5" d="M70.53,293.44c-17.61,7.75-30.16,24.13-40.11,41.29-4.67,7.98-9.28,15.79-15.55,22.3-.89.87-2.01,1.96-3.12,2.45-.39-.03-.78,0-1.18.11l.23.44-.23.44c.4.12.8.14,1.18.11,1.12.49,2.24,1.57,3.12,2.45,6.27,6.5,10.88,14.31,15.55,22.3,9.95,17.16,22.5,33.54,40.11,41.29,14.32,6.22,30.28,5.19,44.65-.09,10.67-3.81,21.48-11.84,25.33-24.21,1.36-3.69,1.33-7.75,2.11-11.48v-.02s.02-.14.02-.14c-1.48-.76-19.32-10.24-20.51-28.72-.85-13.15,7.07-25.75,20.47-32.67l.02-.06-.06-.34v-.03s0,0,0,0c-.71-3.63-.73-7.55-2.04-11.12-3.85-12.37-14.66-20.4-25.33-24.21-14.37-5.29-30.33-6.31-44.65-.09ZM113.65,300.12c6.29,1.67,12.24,4.63,17.04,9,1.81,1.65,10.04,9.06,10.3,18.05.45,16.13-25.23,20.41-23.73,32.86,1.37,11.38,24.3,19.92,23.73,32.85,0,0,0,0,0,0-3.23,14.97-14.57,23.66-27.34,27.05-30.56,8.73-52.88-2.77-72.59-29.33-7.89-10.21-14.9-21.92-25.28-29.28-.72-.41-1.45-.91-2.22-1.29.76-.38,1.5-.88,2.22-1.29,10.37-7.36,17.38-19.07,25.28-29.28,19.71-26.56,42.03-38.06,72.59-29.33Z"/>
    <path class="cls-5" d="M82.22,309.94c-13.25,5.83-22.69,18.15-30.18,31.06-3.52,6.01-6.98,11.88-11.7,16.77-.67.66-1.51,1.47-2.35,1.84-.29-.02-.58,0-.89.09l.17.33-.17.33c.3.09.6.11.89.09.84.37,1.68,1.18,2.35,1.84,4.72,4.89,8.18,10.77,11.7,16.77,7.49,12.91,16.93,25.23,30.18,31.06,10.77,4.68,22.78,3.91,33.59-.07,8.03-2.87,16.16-8.91,19.06-18.21,1.02-2.77,1-5.83,1.59-8.64v-.02s.01-.11.01-.11c-1.12-.57-14.53-7.71-15.43-21.6-.64-9.89,5.32-19.37,15.4-24.58l.02-.05-.05-.25v-.02s0,0,0,0c-.53-2.73-.55-5.68-1.54-8.36-2.89-9.3-11.03-15.34-19.06-18.21-10.81-3.98-22.82-4.75-33.59-.07ZM114.65,314.96c4.74,1.26,9.21,3.49,12.82,6.77,1.37,1.24,7.56,6.82,7.74,13.58.34,12.13-18.98,15.35-17.85,24.72,1.03,8.56,18.28,14.99,17.85,24.71,0,0,0,0,0,0-2.43,11.26-10.96,17.8-20.57,20.35-22.99,6.57-39.78-2.08-54.61-22.07-5.94-7.68-11.21-16.49-19.02-22.02-.54-.31-1.09-.69-1.67-.97.57-.29,1.13-.66,1.67-.97,7.8-5.54,13.08-14.34,19.02-22.03,14.83-19.98,31.62-28.63,54.61-22.07Z"/>
  </g>
  <g>
    <path class="cls-5" d="M524.74,293.44c17.61,7.75,30.16,24.13,40.11,41.29,4.67,7.98,9.28,15.79,15.55,22.3.89.87,2.01,1.96,3.12,2.45.39-.03.78,0,1.18.11l-.23.44.23.44c-.4.12-.8.14-1.18.11-1.12.49-2.24,1.57-3.12,2.45-6.27,6.5-10.88,14.31-15.55,22.3-9.95,17.16-22.5,33.54-40.11,41.29-14.32,6.22-30.28,5.19-44.65-.09-10.67-3.81-21.48-11.84-25.33-24.21-1.36-3.69-1.33-7.75-2.11-11.48v-.02s-.02-.14-.02-.14c1.48-.76,19.32-10.24,20.51-28.72.85-13.15-7.07-25.75-20.47-32.67l-.02-.06.06-.34v-.03s0,0,0,0c.71-3.63.73-7.55,2.04-11.12,3.85-12.37,14.66-20.4,25.33-24.21,14.37-5.29,30.33-6.31,44.65-.09ZM481.63,300.12c-6.29,1.67-12.24,4.63-17.04,9-1.81,1.65-10.04,9.06-10.29,18.05-.45,16.13,25.23,20.41,23.73,32.86-1.37,11.38-24.3,19.92-23.73,32.85,0,0,0,0,0,0,3.23,14.97,14.57,23.66,27.34,27.05,30.56,8.73,52.88-2.77,72.59-29.33,7.89-10.21,14.9-21.92,25.28-29.28.72-.41,1.45-.91,2.22-1.29-.76-.38-1.5-.88-2.22-1.29-10.37-7.36-17.38-19.07-25.28-29.28-19.71-26.56-42.03-38.06-72.59-29.33Z"/>
    <path class="cls-5" d="M513.06,309.94c13.25,5.83,22.69,18.15,30.18,31.06,3.52,6.01,6.98,11.88,11.7,16.77.67.66,1.51,1.47,2.35,1.84.29-.02.58,0,.89.09l-.17.33.17.33c-.3.09-.6.11-.89.09-.84.37-1.68,1.18-2.35,1.84-4.72,4.89-8.18,10.77-11.7,16.77-7.49,12.91-16.93,25.23-30.18,31.06-10.77,4.68-22.78,3.91-33.59-.07-8.03-2.87-16.16-8.91-19.06-18.21-1.02-2.77-1-5.83-1.59-8.64v-.02s-.01-.11-.01-.11c1.12-.57,14.53-7.71,15.43-21.6.64-9.89-5.32-19.37-15.4-24.58l-.02-.05.05-.25v-.02s0,0,0,0c.53-2.73.55-5.68,1.54-8.36,2.89-9.3,11.03-15.34,19.06-18.21,10.81-3.98,22.82-4.75,33.59-.07ZM480.62,314.96c-4.74,1.26-9.21,3.49-12.82,6.77-1.37,1.24-7.56,6.82-7.74,13.58-.34,12.13,18.98,15.35,17.85,24.72-1.03,8.56-18.28,14.99-17.85,24.71,0,0,0,0,0,0,2.43,11.26,10.96,17.8,20.57,20.35,22.99,6.57,39.78-2.08,54.61-22.07,5.94-7.68,11.21-16.49,19.02-22.03.54-.31,1.09-.69,1.67-.97-.57-.29-1.13-.66-1.67-.97-7.8-5.54-13.08-14.34-19.02-22.03-14.83-19.98-31.62-28.63-54.61-22.07Z"/>
  </g>
  <g>
    <path class="cls-5" d="M90.08,244.67c-6.97-17.93-4.26-38.39.83-57.56,2.34-8.95,4.6-17.73,4.77-26.76,0-1.24-.04-2.81-.48-3.94-.29-.25-.56-.54-.75-.92l.47-.15.15-.47c.37.2.66.46.92.75,1.13.44,2.69.47,3.94.48,9.03-.17,17.81-2.43,26.76-4.77,19.17-5.1,39.63-7.81,57.56-.83,14.52,5.73,25.08,17.74,31.51,31.64,4.85,10.24,6.82,23.56.79,35.03-1.65,3.57-4.54,6.42-6.63,9.61h-.02s-.08.13-.08.13c-1.58-.51-20.9-6.42-34.81,5.8-9.9,8.7-13.21,23.2-8.63,37.57l-.03.06-.28.19-.02.02h0c-3.06,2.06-5.85,4.82-9.3,6.41-11.47,6.02-24.79,4.06-35.03-.79-13.9-6.43-25.91-16.98-31.64-31.51ZM125.3,270.44c5.63,3.27,11.93,5.38,18.41,5.69,2.45.12,13.51.69,20.04-5.48,11.72-11.09-3.41-32.27,6.45-40.01,9.01-7.08,31.27,3.1,40.01-6.44,0,0,0,0,0,0,8.3-12.87,6.42-27.03-.2-38.46-15.44-27.78-39.35-35.43-72.07-30.59-12.8,1.64-26.04,4.96-38.58,2.83-.8-.21-1.67-.38-2.48-.65.27.81.44,1.68.65,2.48,2.13,12.54-1.19,25.77-2.83,38.58-4.84,32.72,2.8,56.63,30.59,72.07Z"/>
    <path class="cls-5" d="M110.01,241.27c-5.25-13.49-3.21-28.88.63-43.3,1.76-6.73,3.46-13.34,3.59-20.13,0-.94-.03-2.11-.36-2.96-.22-.19-.42-.41-.57-.69l.35-.11.11-.35c.28.15.5.35.69.57.85.33,2.03.35,2.96.36,6.8-.12,13.4-1.83,20.13-3.59,14.42-3.83,29.81-5.87,43.3-.63,10.93,4.31,18.87,13.34,23.7,23.8,3.65,7.7,5.13,17.73.6,26.35-1.24,2.68-3.42,4.83-4.99,7.23h-.02s-.06.1-.06.1c-1.19-.39-15.73-4.83-26.19,4.37-7.44,6.54-9.94,17.46-6.49,28.27l-.02.05-.21.15h-.02s0,.01,0,.01c-2.3,1.55-4.4,3.63-7,4.83-8.63,4.53-18.65,3.05-26.35-.6-10.46-4.83-19.49-12.78-23.8-23.7ZM136.5,260.66c4.24,2.46,8.98,4.05,13.85,4.28,1.84.09,10.16.52,15.08-4.13,8.82-8.34-2.56-24.28,4.85-30.1,6.78-5.33,23.52,2.33,30.1-4.85,0,0,0,0,0,0,6.24-9.68,4.83-20.34-.15-28.93-11.61-20.9-29.6-26.65-54.22-23.01-9.63,1.23-19.59,3.73-29.02,2.13-.6-.16-1.26-.29-1.87-.49.2.61.33,1.27.49,1.87,1.6,9.43-.9,19.39-2.13,29.02-3.64,24.62,2.11,42.6,23.01,54.22Z"/>
  </g>
  <g>
    <path class="cls-5" d="M411.26,565.85c17.93,6.97,38.39,4.26,57.56-.83,8.95-2.34,17.73-4.6,26.76-4.77,1.24,0,2.81.04,3.94.48.25.29.54.56.92.75l.15-.47.47-.15c-.2-.37-.46-.66-.75-.92-.44-1.13-.47-2.69-.48-3.94.17-9.03,2.43-17.81,4.77-26.76,5.1-19.17,7.81-39.63.83-57.56-5.73-14.52-17.74-25.08-31.64-31.51-10.24-4.85-23.56-6.82-35.03-.79-3.57,1.65-6.42,4.54-9.61,6.63v.02s-.13.08-.13.08c.51,1.58,6.42,20.9-5.8,34.81-8.7,9.9-23.2,13.21-37.57,8.63l-.06.03-.19.28-.02.02h0c-2.07,3.07-4.82,5.85-6.42,9.3-6.02,11.47-4.06,24.79.79,35.03,6.43,13.9,16.98,25.91,31.51,31.64ZM385.5,530.64c-3.27-5.63-5.38-11.93-5.69-18.41-.12-2.45-.69-13.51,5.48-20.04,11.09-11.72,32.27,3.41,40.01-6.45,7.08-9.01-3.1-31.27,6.44-40.01,0,0,0,0,0,0,12.87-8.3,27.03-6.42,38.46.2,27.78,15.44,35.43,39.35,30.59,72.07-1.64,12.8-4.96,26.04-2.83,38.58.21.8.38,1.67.65,2.48-.81-.27-1.68-.44-2.48-.65-12.54-2.13-25.77,1.19-38.58,2.83-32.72,4.84-56.63-2.8-72.07-30.59Z"/>
    <path class="cls-5" d="M414.66,545.92c13.49,5.25,28.88,3.21,43.3-.63,6.73-1.76,13.34-3.46,20.13-3.59.94,0,2.11.03,2.96.36.19.22.41.42.69.57l.11-.35.35-.11c-.15-.28-.35-.5-.57-.69-.33-.85-.35-2.03-.36-2.96.12-6.8,1.83-13.4,3.59-20.13,3.83-14.42,5.87-29.81.63-43.3-4.31-10.93-13.34-18.87-23.8-23.7-7.7-3.65-17.73-5.13-26.35-.6-2.68,1.24-4.83,3.42-7.23,4.99v.02s-.1.06-.1.06c.39,1.19,4.83,15.73-4.37,26.19-6.54,7.44-17.46,9.94-28.27,6.49l-.05.02-.15.21v.02s-.01,0-.01,0c-1.55,2.3-3.63,4.4-4.83,7-4.53,8.63-3.05,18.65.6,26.35,4.83,10.46,12.78,19.49,23.7,23.8ZM395.28,519.44c-2.46-4.24-4.05-8.98-4.28-13.85-.09-1.84-.52-10.16,4.13-15.08,8.34-8.82,24.28,2.56,30.1-4.85,5.33-6.78-2.33-23.52,4.85-30.1,0,0,0,0,0,0,9.68-6.24,20.34-4.83,28.93.15,20.9,11.61,26.65,29.6,23.01,54.22-1.23,9.63-3.73,19.59-2.13,29.02.16.6.29,1.26.49,1.87-.61-.2-1.27-.33-1.87-.49-9.43-1.6-19.39.9-29.02,2.13-24.62,3.64-42.6-2.11-54.22-23.01Z"/>
  </g>
  <g>
    <path class="cls-5" d="M89.85,467.5c-6.97,17.93-4.26,38.39.83,57.56,2.34,8.95,4.6,17.73,4.77,26.76,0,1.24-.04,2.81-.48,3.94-.29.25-.56.54-.75.92l.47.15.15.47c.37-.2.66-.46.92-.75,1.13-.44,2.69-.47,3.94-.48,9.03.17,17.81,2.43,26.76,4.77,19.17,5.1,39.63,7.81,57.56.83,14.52-5.73,25.08-17.74,31.51-31.64,4.85-10.24,6.82-23.56.79-35.03-1.65-3.57-4.54-6.42-6.63-9.61h-.02s-.08-.13-.08-.13c-1.58.51-20.9,6.42-34.81-5.8-9.9-8.7-13.21-23.2-8.63-37.57l-.03-.06-.28-.19-.02-.02h0c-3.06-2.06-5.85-4.82-9.3-6.41-11.47-6.02-24.79-4.06-35.03.79-13.9,6.43-25.91,16.98-31.64,31.51ZM125.06,441.73c5.63-3.27,11.93-5.38,18.41-5.69,2.45-.12,13.51-.69,20.04,5.48,11.72,11.09-3.41,32.27,6.45,40.01,9.01,7.08,31.27-3.1,40.01,6.44,0,0,0,0,0,0,8.3,12.87,6.42,27.03-.2,38.46-15.44,27.78-39.35,35.43-72.07,30.59-12.8-1.64-26.04-4.96-38.58-2.83-.8.21-1.67.38-2.48.65.27-.81.44-1.68.65-2.48,2.13-12.54-1.19-25.77-2.83-38.58-4.84-32.72,2.8-56.63,30.59-72.07Z"/>
    <path class="cls-5" d="M109.78,470.9c-5.25,13.49-3.21,28.88.63,43.3,1.76,6.73,3.46,13.34,3.59,20.13,0,.94-.03,2.11-.36,2.96-.22.19-.42.41-.57.69l.35.11.11.35c.28-.15.5-.35.69-.57.85-.33,2.03-.35,2.96-.36,6.8.12,13.4,1.83,20.13,3.59,14.42,3.83,29.81,5.87,43.3.63,10.93-4.31,18.87-13.34,23.7-23.8,3.65-7.7,5.13-17.73.6-26.35-1.24-2.68-3.42-4.83-4.99-7.23h-.02s-.06-.1-.06-.1c-1.19.39-15.73,4.83-26.19-4.37-7.44-6.54-9.94-17.46-6.49-28.27l-.02-.05-.21-.15h-.02s0-.01,0-.01c-2.3-1.55-4.4-3.63-7-4.83-8.63-4.53-18.65-3.05-26.35.6-10.46,4.83-19.49,12.78-23.8,23.7ZM136.26,451.52c4.24-2.46,8.98-4.05,13.85-4.28,1.84-.09,10.16-.52,15.08,4.13,8.82,8.34-2.56,24.28,4.85,30.1,6.78,5.33,23.52-2.33,30.1,4.85,0,0,0,0,0,0,6.24,9.68,4.83,20.34-.15,28.93-11.61,20.9-29.6,26.65-54.22,23.01-9.63-1.23-19.59-3.73-29.02-2.13-.6.16-1.26.29-1.87.49.2-.61.33-1.27.49-1.87,1.6-9.43-.9-19.39-2.13-29.02-3.64-24.62,2.11-42.6,23.01-54.22Z"/>
  </g>
  <g>
    <path class="cls-5" d="M411.03,146.32c17.93-6.97,38.39-4.26,57.56.83,8.95,2.34,17.73,4.6,26.76,4.77,1.24,0,2.81-.04,3.94-.48.25-.29.54-.56.92-.75l.15.47.47.15c-.2.37-.46.66-.75.92-.44,1.13-.47,2.69-.48,3.94.17,9.03,2.43,17.81,4.77,26.76,5.1,19.17,7.81,39.63.83,57.56-5.73,14.52-17.74,25.08-31.64,31.51-10.24,4.85-23.56,6.82-35.03.79-3.57-1.65-6.42-4.54-9.61-6.63v-.02s-.13-.08-.13-.08c.51-1.58,6.42-20.9-5.8-34.81-8.7-9.9-23.2-13.21-37.57-8.63l-.06-.03-.19-.28-.02-.02h0c-2.07-3.07-4.82-5.85-6.42-9.3-6.02-11.47-4.06-24.79.79-35.03,6.43-13.9,16.98-25.91,31.51-31.64ZM385.26,181.53c-3.27,5.63-5.38,11.93-5.69,18.41-.12,2.45-.69,13.51,5.48,20.04,11.09,11.72,32.27-3.41,40.01,6.45,7.08,9.01-3.1,31.27,6.44,40.01,0,0,0,0,0,0,12.87,8.3,27.03,6.42,38.46-.2,27.78-15.44,35.43-39.35,30.59-72.07-1.64-12.8-4.96-26.04-2.83-38.58.21-.8.38-1.67.65-2.48-.81.27-1.68.44-2.48.65-12.54,2.13-25.77-1.19-38.58-2.83-32.72-4.84-56.63,2.8-72.07,30.59Z"/>
    <path class="cls-5" d="M414.43,166.25c13.49-5.25,28.88-3.21,43.3.63,6.73,1.76,13.34,3.46,20.13,3.59.94,0,2.11-.03,2.96-.36.19-.22.41-.42.69-.57l.11.35.35.11c-.15.28-.35.5-.57.69-.33.85-.35,2.03-.36,2.96.12,6.8,1.83,13.4,3.59,20.13,3.83,14.42,5.87,29.81.63,43.3-4.31,10.93-13.34,18.87-23.8,23.7-7.7,3.65-17.73,5.13-26.35.6-2.68-1.24-4.83-3.42-7.23-4.99v-.02s-.1-.06-.1-.06c.39-1.19,4.83-15.73-4.37-26.19-6.54-7.44-17.46-9.94-28.27-6.49l-.05-.02-.15-.21v-.02s-.01,0-.01,0c-1.55-2.3-3.63-4.4-4.83-7-4.53-8.63-3.05-18.65.6-26.35,4.83-10.46,12.78-19.49,23.7-23.8ZM395.04,192.74c-2.46,4.24-4.05,8.98-4.28,13.85-.09,1.84-.52,10.16,4.13,15.08,8.34,8.82,24.28-2.56,30.1,4.85,5.33,6.78-2.33,23.52,4.85,30.1,0,0,0,0,0,0,9.68,6.24,20.34,4.83,28.93-.15,20.9-11.61,26.65-29.6,23.01-54.22-1.23-9.63-3.73-19.59-2.13-29.02.16-.6.29-1.26.49-1.87-.61.2-1.27.33-1.87.49-9.43,1.6-19.39-.9-29.02-2.13-24.62-3.64-42.6,2.11-54.22,23.01Z"/>
  </g>
  <g>
    <g>
      <path class="cls-2" d="M279.29,411.95c3.68,6.45,13.72,8.68,18.98,3.06,2.2-2.57,2.32-7.33-.64-9.37-1.4-.91-3.63-.86-4.79.39-1.28,1.29-.5,4.29,1.69,3.47-.41.25-.94.32-1.43.15-1.52-.61-1.68-2.79-.75-4.02,2.12-2.57,6.69-1.55,7.92,1.43,2.54,5.08-.85,10.68-6.2,11.81-5.77,1.6-12.42-1.41-14.78-6.94h0Z"/>
      <path class="cls-2" d="M323.2,411.95c-2.36,5.52-9,8.54-14.78,6.94-5.35-1.13-8.74-6.73-6.2-11.81,1.23-2.98,5.8-4.01,7.92-1.43.92,1.23.77,3.41-.75,4.02-.48.16-1.02.1-1.43-.15,2.19.81,2.97-2.19,1.69-3.47-1.16-1.26-3.39-1.3-4.79-.39-2.96,2.04-2.84,6.8-.64,9.36,5.26,5.63,15.29,3.39,18.98-3.06h0Z"/>
    </g>
    <g>
      <path class="cls-2" d="M278.55,317.03c2.36-5.52,9-8.54,14.78-6.94,5.35,1.13,8.74,6.73,6.2,11.81-1.23,2.98-5.8,4.01-7.92,1.43-.92-1.23-.77-3.41.75-4.02.48-.16,1.02-.1,1.43.15-2.19-.81-2.97,2.19-1.69,3.47,1.16,1.26,3.39,1.3,4.79.39,2.96-2.04,2.84-6.8.64-9.36-5.26-5.63-15.29-3.39-18.98,3.06h0Z"/>
      <path class="cls-2" d="M322.45,317.03c-3.68-6.45-13.72-8.68-18.98-3.06-2.2,2.57-2.32,7.33.64,9.37,1.4.91,3.63.86,4.79-.39,1.28-1.29.5-4.29-1.69-3.47.41-.25.94-.32,1.43-.15,1.52.61,1.68,2.79.75,4.02-2.12,2.57-6.69,1.55-7.92-1.43-2.54-5.08.85-10.68,6.2-11.81,5.77-1.6,12.42,1.41,14.78,6.94h0Z"/>
    </g>
    <g>
      <path class="cls-2" d="M350.44,342.14c5.52,2.36,8.54,9,6.94,14.78-1.13,5.35-6.73,8.74-11.81,6.2-2.98-1.23-4.01-5.8-1.43-7.92,1.23-.92,3.41-.77,4.02.75.16.48.1,1.02-.15,1.43.81-2.19-2.19-2.97-3.47-1.69-1.26,1.16-1.3,3.39-.39,4.79,2.04,2.96,6.8,2.84,9.36.64,5.63-5.26,3.39-15.29-3.06-18.98h0Z"/>
      <path class="cls-2" d="M350.44,386.04c6.45-3.68,8.68-13.72,3.06-18.98-2.57-2.2-7.33-2.32-9.36.64-.91,1.4-.86,3.63.39,4.79,1.29,1.28,4.29.5,3.47-1.69.25.41.32.94.15,1.43-.61,1.52-2.79,1.68-4.02.75-2.57-2.12-1.55-6.69,1.43-7.92,5.08-2.54,10.68.85,11.81,6.2,1.6,5.77-1.41,12.42-6.94,14.78h0Z"/>
    </g>
    <g>
      <path class="cls-2" d="M250.63,340.1c-6.45,3.68-8.68,13.72-3.06,18.98,2.57,2.2,7.33,2.32,9.36-.64.91-1.4.86-3.63-.39-4.79-1.29-1.28-4.29-.5-3.47,1.69-.25-.41-.32-.94-.15-1.43.61-1.52,2.79-1.68,4.02-.75,2.57,2.12,1.55,6.69-1.43,7.92-5.08,2.54-10.68-.85-11.81-6.2-1.6-5.77,1.41-12.42,6.94-14.78h0Z"/>
      <path class="cls-2" d="M250.63,384c-5.52-2.36-8.54-9-6.94-14.78,1.13-5.35,6.73-8.74,11.81-6.2,2.98,1.23,4.01,5.8,1.43,7.92-1.23.92-3.41.77-4.02-.75-.16-.48-.1-1.02.15-1.43-.81,2.19,2.19,2.97,3.47,1.69,1.26-1.16,1.3-3.39.39-4.79-2.04-2.96-6.8-2.84-9.36-.64-5.63,5.26-3.39,15.29,3.06,18.98h0Z"/>
    </g>
    <g>
      <path class="cls-2" d="M282.53,412.12c-5.57,2.24-12.41-.33-15.35-5.54-2.98-4.58-1.42-10.94,3.97-12.74,2.98-1.24,6.93,1.27,6.61,4.59-.22,1.52-1.87,2.96-3.37,2.31-.46-.22-.79-.65-.9-1.12.95,2.12,3.66.54,3.65-1.26.07-1.71-1.48-3.32-3.11-3.66-3.54-.65-6.81,2.8-7.07,6.17-.26,7.69,8.42,13.21,15.58,11.26h0Z"/>
      <path class="cls-2" d="M251.49,381.07c-1.95,7.16,3.56,15.84,11.26,15.58,3.37-.26,6.82-3.54,6.17-7.07-.34-1.63-1.95-3.17-3.66-3.11-1.81-.01-3.38,2.7-1.26,3.65-.47-.11-.89-.44-1.12-.9-.65-1.51.79-3.16,2.31-3.37,3.32-.32,5.82,3.64,4.59,6.61-1.8,5.39-8.15,6.95-12.74,3.97-5.21-2.95-7.78-9.78-5.54-15.35h0Z"/>
    </g>
    <g>
      <path class="cls-2" d="M282.09,315.95c-7.16-1.95-15.84,3.56-15.58,11.26.26,3.37,3.54,6.82,7.07,6.17,1.63-.34,3.17-1.95,3.11-3.66.01-1.81-2.7-3.38-3.65-1.26.11-.47.44-.89.9-1.12,1.51-.65,3.16.79,3.37,2.31.32,3.32-3.64,5.82-6.61,4.59-5.39-1.8-6.95-8.15-3.97-12.74,2.95-5.21,9.78-7.78,15.35-5.54h0Z"/>
      <path class="cls-2" d="M251.05,347c-2.24-5.57.33-12.41,5.54-15.35,4.58-2.98,10.94-1.42,12.74,3.97,1.24,2.98-1.27,6.93-4.59,6.61-1.52-.22-2.96-1.87-2.31-3.37.22-.46.65-.79,1.12-.9-2.12.95-.54,3.66,1.26,3.65,1.71.07,3.32-1.48,3.66-3.11.65-3.54-2.8-6.81-6.17-7.07-7.69-.26-13.21,8.42-11.26,15.58h0Z"/>
    </g>
    <g>
      <path class="cls-2" d="M318.09,415.05c7.16,1.95,15.84-3.56,15.58-11.26-.26-3.37-3.54-6.82-7.07-6.17-1.63.34-3.17,1.95-3.11,3.66-.01,1.81,2.7,3.38,3.65,1.26-.11.47-.44.89-.9,1.12-1.51.65-3.16-.79-3.37-2.31-.32-3.32,3.64-5.82,6.61-4.59,5.39,1.8,6.95,8.15,3.97,12.74-2.95,5.21-9.78,7.78-15.35,5.54h0Z"/>
      <path class="cls-2" d="M349.13,384c2.24,5.57-.33,12.41-5.54,15.35-4.58,2.98-10.94,1.42-12.74-3.97-1.24-2.98,1.27-6.93,4.59-6.61,1.52.22,2.96,1.87,2.31,3.37-.22.46-.65.79-1.12.9,2.12-.95.54-3.66-1.26-3.65-1.71-.07-3.32,1.48-3.66,3.11-.65,3.54,2.8,6.81,6.17,7.07,7.69.26,13.21-8.42,11.26-15.58h0Z"/>
    </g>
    <g>
      <path class="cls-2" d="M319.91,317.19c5.57-2.24,12.41.33,15.35,5.54,2.98,4.58,1.42,10.94-3.97,12.74-2.98,1.24-6.93-1.27-6.61-4.59.22-1.52,1.87-2.96,3.37-2.31.46.22.79.65.9,1.12-.95-2.12-3.66-.54-3.65,1.26-.07,1.71,1.48,3.32,3.11,3.66,3.54.65,6.81-2.8,7.07-6.17.26-7.69-8.42-13.21-15.58-11.26h0Z"/>
      <path class="cls-2" d="M350.96,348.24c1.95-7.16-3.56-15.84-11.26-15.58-3.37.26-6.82,3.54-6.17,7.07.34,1.63,1.95,3.17,3.66,3.11,1.81.01,3.38-2.7,1.26-3.65.47.11.89.44,1.12.9.65,1.51-.79,3.16-2.31,3.37-3.32.32-5.82-3.64-4.59-6.61,1.8-5.39,8.15-6.95,12.74-3.97,5.21,2.95,7.78,9.78,5.54,15.35h0Z"/>
    </g>
  </g>
  <g>
    <g>
      <g>
        <path class="cls-2" d="M263.78,285.45c4.52,7.5,13.74,11.23,22.01,8.78,2.58-.8,5.18-1.97,6.89-4.13,3-3.53,3.38-9.29.48-12.99-2.02-2.52-6.42-3.07-8.74-.67-1.3,1.36-1.38,4.29.51,5.25.61.31,1.39.34,2.06.04-1.33.87-3.26.12-3.8-1.36-2.21-5.51,5.15-8.4,9.28-5.83,2.9,1.54,4.22,4.89,4.51,8,.79,10.59-10.64,15.73-19.74,13.69-5.87-1.17-11.07-5.34-13.45-10.78h0Z"/>
        <path class="cls-2" d="M330.64,285.45c-3.9,9.2-15.48,13.65-24.68,9.85-7-2.37-10.68-10.62-7.26-17.28,1.87-4.54,8.83-6.14,12.06-2.18,1.41,1.87,1.17,5.19-1.15,6.12-.73.25-1.55.15-2.17-.23.67.3,1.44.27,2.06-.04,1.89-.96,1.81-3.89.51-5.25-2.32-2.39-6.72-1.84-8.74.67-2.9,3.7-2.52,9.46.48,12.99,3.65,4.19,9.83,5.39,15.16,4.63,5.55-.85,10.69-4.29,13.73-9.28h0Z"/>
      </g>
      <g>
        <path class="cls-2" d="M264.91,440.86c3.9-9.2,15.48-13.65,24.68-9.85,7,2.37,10.68,10.62,7.26,17.28-1.87,4.54-8.83,6.14-12.06,2.18-1.41-1.87-1.17-5.19,1.15-6.12.73-.25,1.55-.15,2.17.23-.67-.3-1.44-.27-2.06.04-1.89.96-1.81,3.89-.51,5.25,2.32,2.39,6.72,1.84,8.74-.67,2.9-3.7,2.52-9.46-.48-12.99-3.65-4.19-9.83-5.39-15.16-4.63-5.55.85-10.69,4.29-13.73,9.28h0Z"/>
        <path class="cls-2" d="M331.77,440.86c-4.52-7.5-13.74-11.23-22.01-8.78-2.58.8-5.18,1.97-6.89,4.13-3,3.53-3.38,9.29-.48,12.99,2.02,2.52,6.42,3.07,8.74.67,1.3-1.36,1.38-4.29-.51-5.25-.61-.31-1.39-.34-2.06-.04,1.33-.87,3.26-.12,3.8,1.36,2.21,5.51-5.15,8.4-9.28,5.83-2.9-1.54-4.22-4.89-4.51-8-.79-10.59,10.64-15.73,19.74-13.69,5.87,1.17,11.07,5.34,13.45,10.78h0Z"/>
      </g>
    </g>
    <g>
      <g>
        <path class="cls-2" d="M219.93,396.79c7.5-4.52,11.23-13.74,8.78-22.01-.8-2.58-1.97-5.18-4.13-6.89-3.53-3-9.29-3.38-12.99-.48-2.52,2.02-3.07,6.42-.67,8.74,1.36,1.3,4.29,1.38,5.25-.51.31-.61.34-1.39.04-2.06.87,1.33.12,3.26-1.36,3.8-5.51,2.21-8.4-5.15-5.83-9.28,1.54-2.9,4.89-4.22,8-4.51,10.59-.79,15.73,10.64,13.69,19.74-1.17,5.87-5.34,11.07-10.78,13.45h0Z"/>
        <path class="cls-2" d="M219.93,329.93c9.2,3.9,13.65,15.48,9.85,24.68-2.37,7-10.62,10.68-17.28,7.26-4.54-1.87-6.14-8.83-2.18-12.06,1.87-1.41,5.19-1.17,6.12,1.15.25.73.15,1.55-.23,2.17.3-.67.27-1.44-.04-2.06-.96-1.89-3.89-1.81-5.25-.51-2.39,2.32-1.84,6.72.67,8.74,3.7,2.9,9.46,2.52,12.99-.48,4.19-3.65,5.39-9.83,4.63-15.16-.85-5.55-4.29-10.69-9.28-13.73h0Z"/>
      </g>
      <g>
        <path class="cls-2" d="M375.35,395.66c-9.2-3.9-13.65-15.48-9.85-24.68,2.37-7,10.62-10.68,17.28-7.26,4.54,1.87,6.14,8.83,2.18,12.06-1.87,1.41-5.19,1.17-6.12-1.15-.25-.73-.15-1.55.23-2.17-.3.67-.27,1.44.04,2.06.96,1.89,3.89,1.81,5.25.51,2.39-2.32,1.84-6.72-.67-8.74-3.7-2.9-9.46-2.52-12.99.48-4.19,3.65-5.39,9.83-4.63,15.16.85,5.55,4.29,10.69,9.28,13.73h0Z"/>
        <path class="cls-2" d="M375.35,328.8c-7.5,4.52-11.23,13.74-8.78,22.01.8,2.58,1.97,5.18,4.13,6.89,3.53,3,9.29,3.38,12.99.48,2.52-2.02,3.07-6.42.67-8.74-1.36-1.3-4.29-1.38-5.25.51-.31.61-.34,1.39-.04,2.06-.87-1.33-.12-3.26,1.36-3.8,5.51-2.21,8.4,5.15,5.83,9.28-1.54,2.9-4.89,4.22-8,4.51-10.59.79-15.73-10.64-13.69-19.74,1.17-5.87,5.34-11.07,10.78-13.45h0Z"/>
      </g>
    </g>
    <g>
      <g>
        <path class="cls-2" d="M267.01,441.78c2.11-8.5-1.78-17.65-9.35-21.77-2.39-1.26-5.05-2.27-7.79-1.95-4.62.38-8.96,4.18-9.52,8.85-.35,3.21,2.37,6.71,5.7,6.66,1.88-.04,4.01-2.06,3.35-4.07-.22-.65-.74-1.22-1.43-1.49,1.56.33,2.39,2.22,1.72,3.65-2.37,5.47-9.54,2.31-10.69-2.44-.96-3.14.47-6.44,2.47-8.85,6.93-8.05,18.64-3.6,23.64,4.27,3.33,4.98,4.05,11.61,1.89,17.14h0Z"/>
        <path class="cls-2" d="M219.74,394.51c5.53-2.16,12.16-1.44,17.14,1.89,7.87,5,12.32,16.71,4.27,23.64-2.41,2-5.71,3.44-8.85,2.47-4.74-1.15-7.91-8.32-2.44-10.69,1.43-.67,3.33.17,3.65,1.72-.26-.68-.83-1.21-1.49-1.43-2.02-.66-4.03,1.47-4.07,3.35-.05,3.33,3.45,6.05,6.66,5.7,4.67-.57,8.47-4.9,8.85-9.52.39-5.55-3.14-10.76-7.45-14-4.53-3.32-10.59-4.52-16.28-3.15h0Z"/>
      </g>
      <g>
        <path class="cls-2" d="M376.11,331.09c-5.53,2.16-12.16,1.44-17.14-1.89-7.87-5-12.32-16.71-4.27-23.64,2.41-2,5.71-3.44,8.85-2.47,4.74,1.15,7.91,8.32,2.44,10.69-1.43.67-3.33-.17-3.65-1.72.26.68.83,1.21,1.49,1.43,2.02.66,4.03-1.47,4.07-3.35.05-3.33-3.45-6.05-6.66-5.7-4.67.57-8.47,4.9-8.85,9.52-.39,5.55,3.14,10.76,7.45,14,4.53,3.32,10.59,4.52,16.28,3.15h0Z"/>
        <path class="cls-2" d="M328.83,283.81c-2.11,8.5,1.78,17.65,9.35,21.77,2.39,1.26,5.05,2.27,7.79,1.95,4.62-.38,8.96-4.18,9.52-8.85.35-3.21-2.37-6.71-5.7-6.66-1.88.04-4.01,2.06-3.35,4.07.22.65.74,1.22,1.43,1.49-1.56-.33-2.39-2.22-1.72-3.65,2.37-5.47,9.54-2.31,10.69,2.44.96,3.14-.47,6.44-2.47,8.85-6.93,8.05-18.64,3.6-23.64-4.27-3.33-4.98-4.05-11.61-1.89-17.14h0Z"/>
      </g>
    </g>
    <g>
      <g>
        <path class="cls-2" d="M219.8,330.19c8.5,2.11,17.65-1.78,21.77-9.35,1.26-2.39,2.27-5.05,1.95-7.79-.38-4.62-4.18-8.96-8.85-9.52-3.21-.35-6.71,2.37-6.66,5.7.04,1.88,2.06,4.01,4.07,3.35.65-.22,1.22-.74,1.49-1.43-.33,1.56-2.22,2.39-3.65,1.72-5.47-2.37-2.31-9.54,2.44-10.69,3.14-.96,6.44.47,8.85,2.47,8.05,6.93,3.6,18.64-4.27,23.64-4.98,3.33-11.61,4.05-17.14,1.89h0Z"/>
        <path class="cls-2" d="M267.07,282.92c2.16,5.53,1.44,12.16-1.89,17.14-5,7.87-16.71,12.32-23.64,4.27-2-2.41-3.44-5.71-2.47-8.85,1.15-4.74,8.32-7.91,10.69-2.44.67,1.43-.17,3.33-1.72,3.65.68-.26,1.21-.83,1.43-1.49.66-2.02-1.47-4.03-3.35-4.07-3.33-.05-6.05,3.45-5.7,6.66.57,4.67,4.9,8.47,9.52,8.85,5.55.39,10.76-3.14,14-7.45,3.32-4.53,4.52-10.59,3.15-16.28h0Z"/>
      </g>
      <g>
        <path class="cls-2" d="M330.49,439.29c-2.16-5.53-1.44-12.16,1.89-17.14,5-7.87,16.71-12.32,23.64-4.27,2,2.41,3.44,5.71,2.47,8.85-1.15,4.74-8.32,7.91-10.69,2.44-.67-1.43.17-3.33,1.72-3.65-.68.26-1.21.83-1.43,1.49-.66,2.02,1.47,4.03,3.35,4.07,3.33.05,6.05-3.45,5.7-6.66-.57-4.67-4.9-8.47-9.52-8.85-5.55-.39-10.76,3.14-14,7.45-3.32,4.53-4.52,10.59-3.15,16.28h0Z"/>
        <path class="cls-2" d="M377.77,392.01c-8.5-2.11-17.65,1.78-21.77,9.35-1.26,2.39-2.27,5.05-1.95,7.79.38,4.62,4.18,8.96,8.85,9.52,3.21.35,6.71-2.37,6.66-5.7-.04-1.88-2.06-4.01-4.07-3.35-.65.22-1.22.74-1.49,1.43.33-1.56,2.22-2.39,3.65-1.72,5.47,2.37,2.31,9.54-2.44,10.69-3.14.96-6.44-.47-8.85-2.47-8.05-6.93-3.6-18.64,4.27-23.64,4.98-3.33,11.61-4.05,17.14-1.89h0Z"/>
      </g>
    </g>
  </g>
  <g>
    <rect class="cls-3" x="271.66" y="337.51" width="54.65" height="54.65" transform="translate(-170.41 318.27) rotate(-45)"/>
    <rect class="cls-3" x="276.18" y="337.51" width="54.65" height="54.65" transform="translate(-169.08 321.46) rotate(-45)"/>
  </g>
  <g>
    <path class="cls-4" d="M547.7,263.74c0,11.56-6.19,21.64-15.42,27.2.5.02.99.08,1.49.08,19.03,0,34.45-15.43,34.45-34.45s-15.43-34.45-34.45-34.45c-9.82,0-18.65,4.12-24.93,10.71,2.29-.52,4.66-.83,7.1-.83,17.54,0,31.75,14.22,31.75,31.75Z"/>
    <g>
      <path class="cls-4" d="M208.08,103.99c10.81,0,20.35,5.41,26.08,13.66,0-19.02-15.43-34.44-34.45-34.44s-34.45,15.43-34.45,34.45c0,10.53,4.74,19.94,12.18,26.26-.7-2.62-1.11-5.35-1.11-8.19,0-17.54,14.22-31.75,31.75-31.75Z"/>
      <path class="cls-4" d="M422.48,572.04c0,17.54-14.22,31.75-31.75,31.75-11.53,0-21.59-6.16-27.15-15.35-.07.88-.13,1.76-.13,2.65,0,19.03,15.43,34.45,34.45,34.45s34.45-15.43,34.45-34.45c0-9.66-3.99-18.38-10.39-24.63.32,1.82.52,3.68.52,5.58Z"/>
      <path class="cls-4" d="M62.74,292.64c-2.22-1.32-4.32-2.9-6.23-4.81-12.4-12.4-12.4-32.5,0-44.9,7.5-7.5,17.81-10.43,27.54-8.86-.03-.03-.05-.06-.08-.09-13.45-13.45-35.27-13.45-48.72,0-13.45,13.45-13.45,35.27,0,48.72,7.53,7.53,17.67,10.84,27.5,9.94Z"/>
      <path class="cls-4" d="M558.87,428.59c-6.73-6.73-15.56-10.1-24.38-10.09,1.61,1.1,3.16,2.35,4.59,3.78,12.4,12.4,12.4,32.5,0,44.9-8.32,8.32-20.09,11.03-30.69,8.19.57.66,1.13,1.32,1.75,1.94,13.45,13.45,35.27,13.45,48.72,0,13.45-13.45,13.45-35.27,0-48.72Z"/>
      <path class="cls-4" d="M47.89,446.39c0-10.79,5.39-20.3,13.61-26.04-.39-.01-.77-.06-1.16-.06-19.03,0-34.45,15.43-34.45,34.45s15.43,34.45,34.45,34.45c10.32,0,19.55-4.56,25.87-11.75-2.12.45-4.31.69-6.57.69-17.54,0-31.75-14.22-31.75-31.75Z"/>
      <path class="cls-4" d="M404.74,113.29c7.7,7.7,10.61,18.36,8.75,28.31,13.04-13.49,12.93-34.98-.39-48.29-13.45-13.45-35.27-13.45-48.72,0-7.46,7.46-10.77,17.49-9.95,27.24,1.42-2.6,3.21-5.06,5.42-7.26,12.4-12.4,32.5-12.4,44.9,0Z"/>
      <path class="cls-4" d="M180.48,595.86c-8.07-8.07-10.85-19.38-8.42-29.73-.79.66-1.56,1.34-2.3,2.08-13.45,13.45-13.45,35.27,0,48.72,13.45,13.45,35.27,13.45,48.72,0,6.85-6.85,10.19-15.86,10.07-24.83-.96,1.31-1.99,2.58-3.17,3.76-12.4,12.4-32.5,12.4-44.9,0Z"/>
      <path class="cls-1" d="M234.16,117.67s0,0,0-.01c-5.73-8.25-15.27-13.66-26.08-13.66-17.54,0-31.75,14.22-31.75,31.75,0,2.84.41,5.57,1.11,8.19,6.01,5.1,13.77,8.19,22.27,8.19,19.03,0,34.45-15.43,34.45-34.45Z"/>
      <path class="cls-1" d="M390.73,603.8c17.54,0,31.75-14.22,31.75-31.75,0-1.91-.2-3.77-.52-5.58-6.21-6.07-14.7-9.82-24.06-9.82-18.13,0-32.96,14.02-34.32,31.8,5.56,9.19,15.63,15.35,27.15,15.35Z"/>
      <path class="cls-1" d="M56.51,242.93c-12.4,12.4-12.4,32.5,0,44.9,1.91,1.91,4.02,3.49,6.23,4.81,7.74-.7,15.29-4.01,21.22-9.94,13.42-13.42,13.45-35.17.08-48.63-9.73-1.57-20.04,1.36-27.54,8.86Z"/>
      <path class="cls-1" d="M539.08,467.19c12.4-12.4,12.4-32.5,0-44.9-1.43-1.43-2.98-2.68-4.59-3.78-8.81,0-17.62,3.37-24.34,10.09-12.83,12.83-13.4,33.25-1.75,46.79,10.6,2.84,22.37.13,30.69-8.19Z"/>
      <path class="cls-1" d="M61.5,420.35c-8.22,5.74-13.61,15.25-13.61,26.04,0,17.54,14.22,31.75,31.75,31.75,2.25,0,4.45-.24,6.57-.69,5.33-6.07,8.59-14,8.59-22.71,0-18.64-14.81-33.78-33.3-34.4Z"/>
      <path class="cls-1" d="M532.27,290.93c9.23-5.55,15.42-15.64,15.42-27.2,0-17.54-14.22-31.75-31.75-31.75-2.45,0-4.82.3-7.1.83-5.89,6.18-9.53,14.53-9.53,23.74,0,18.52,14.63,33.59,32.96,34.38Z"/>
      <path class="cls-1" d="M413.1,142.03c.14-.14.25-.29.39-.43,1.86-9.95-1.05-20.61-8.75-28.31-12.4-12.4-32.5-12.4-44.9,0-2.2,2.2-3.99,4.66-5.42,7.26.65,7.83,3.96,15.49,9.95,21.48,13.45,13.45,35.27,13.45,48.72,0Z"/>
      <path class="cls-1" d="M172.05,566.13c-2.43,10.34.36,21.66,8.42,29.73,12.4,12.4,32.5,12.4,44.9,0,1.18-1.18,2.21-2.45,3.17-3.76-.12-8.66-3.46-17.29-10.07-23.89-12.72-12.72-32.89-13.4-46.43-2.08Z"/>
    </g>
  </g>
</svg>