<?xml version='1.0' encoding='utf-8'?>
<svg xmlns="http://www.w3.org/2000/svg" id="_几何波纹" data-name="几何波纹" viewBox="0 0 595.28 841.89">
  <defs>
    <style>.cls-1 {
        fill: #221714;
      }
    
path{stroke:#fff;stroke-width:3;vector-effect:non-scaling-stroke;paint-order:stroke}</style>
  </defs>
  <g>
    <path class="cls-1" d="M53.08,430.3h2.76c-.44,5.01,1.09,10.47.48,15.43-.34,2.75-3.24,1.45-3.24.9v-16.33Z" />
    <path class="cls-1" d="M298.27,680.08v-2.76c2.15.6,16.41-1.05,17.02-.46.19.18.08,3.22-.69,3.22h-16.33Z" />
    <path class="cls-1" d="M160.52,630.87c.82-.19,12.32,8.3,13.95,9.42-1.07,1.01-.87,2.55-2.51,1.64-4.33-2.39-8.62-6.13-12.87-8.77-.23-.31,1.18-2.24,1.42-2.3Z" />
    <path class="cls-1" d="M286.31,185.11l-.05,2.72c-.53.62-14.2,1.43-16.24,1.91-.3-.06-.67-1.73-.72-2.14-.17-1.53,3.56-.98,4.82-1.11,1.62-.16,11.77-1.83,12.19-1.38Z" />
    <path class="cls-1" d="M209.94,664.01c-.1.73-.49,2.86-1.53,2.69l-14.98-7.07.91-2.05c.79-.56,13.46,6,15.6,6.43Z" />
    <path class="cls-1" d="M451.28,239.88c.81-.18,11.37,9.23,12.97,10.31-.28.59-.98,1.93-1.59,2.04-.86.17-10.87-8.78-12.62-9.84-1.08-.59.64-2.39,1.24-2.52Z" />
    <path class="cls-1" d="M529.46,505.32c.41-.09,2.4.66,2.44,1.1l-5.09,14.65c-.32,1.5-2.97.34-3.03-.36.9-1.79,4.88-15.22,5.69-15.38Z" />
    <path class="cls-1" d="M195.17,645.65c.42.6-.64,3.23-1.8,2.52l-13.33-7.41c-1.06-.85.49-1.87.47-2.99l14.66,7.88Z" />
    <path class="cls-1" d="M520.42,547.17c.26.37-.13,1.24-.33,1.68-2.06,4.43-5.45,9.05-7.68,13.42l-2.03-.92c-.23-.63-.04-1.19.2-1.77,1.71-4.2,5.47-8.64,7.35-12.91.01-.69,2.41.38,2.49.5Z" />
    <path class="cls-1" d="M85.74,322.65l7.85-14.69c.54-.39,3.28.65,2.54,1.82l-7.41,13.34c-.85,1.07-1.87-.5-2.99-.47Z" />
    <path class="cls-1" d="M541.15,464.8l-2.37,15.8c-.37,1.2-3.12,1.15-3.14-.35l2.74-15.92,2.76.46Z" />
    <path class="cls-1" d="M58.14,468.94h-2.76s-1.88-16.28-1.88-16.28c.04-.64,3.43-1.4,3.26.4l1.38,15.87Z" />
    <path class="cls-1" d="M499.98,585.33c.76.78,2.11,1.52,1.4,2.74l-10.13,11.86c-.38.02-1.97-1.11-1.99-1.5-.05-.85,9.33-11.59,10.72-13.11Z" />
    <path class="cls-1" d="M509.37,302.44l8.32,14.69-2.73.9-8.14-13.76c-.3-.78,2.1-2.15,2.54-1.84Z" />
    <path class="cls-1" d="M463.64,609.25c.42,0,2.46,2.27,1.18,3.01l-11.08,9.65c-.76.85-2.91-1.02-2.54-1.62l12.44-11.03Z" />
    <path class="cls-1" d="M61.82,489.64l-2.76.46-3.14-15.98c-.06-1.41,2.66-1.51,3.06-.28l2.84,15.8Z" />
    <path class="cls-1" d="M82.5,348.44c.73.81-4.66,13.92-5.07,16.04l-2.71-.44,5.09-15.35c.05-1.01,2.56-.4,2.69-.24Z" />
    <path class="cls-1" d="M315.29,682.38v2.76c-5.56-.34-11.02.6-16.56.46v-3.22h16.56Z" />
    <path class="cls-1" d="M550.35,422.94h2.76s.48,16.3.48,16.3l-2.78.72c.13-.45-.47-.99-.47-1.15v-15.87Z" />
    <path class="cls-1" d="M233.86,661.23c.18.24-.65,3.05-1.59,2.76l-14.95-5.09c-.19-.22.05-3.07,1.1-2.74,1.84,1.03,14.96,4.41,15.44,5.06Z" />
    <path class="cls-1" d="M478.83,272.16c.79.05,8.91,10.73,10.6,11.85.54.56-.66,1.83-1.18,2.09-.91.47-1.93-.98-2.54-1.63-3.04-3.24-5.58-7-8.76-10.13-.73-.8,1.35-2.23,1.87-2.19Z" />
    <path class="cls-1" d="M79.72,342.86c-.5.36-2.83-.51-2.67-1.5l6.42-14.55c.84-.18,2.78.46,2.67,1.5l-6.42,14.54Z" />
    <path class="cls-1" d="M373.92,205.91l14.98,5.19c.75.46.11,2.01-.25,2.53-.47.67-.54.25-1.01.13-4.77-1.19-9.58-3.69-14.39-4.96-1.02-.51.05-2.83.68-2.89Z" />
    <path class="cls-1" d="M426.13,232.01c-.3.21-.97-.05-1.34-.22-4.59-2.09-9.05-5.67-13.82-7.59.41-.68.7-1.71,1.16-2.29.63-.78.43-.25.91-.02,4.45,2.19,8.63,4.97,13.09,7.17,1.36.1.23,2.78,0,2.95Z" />
    <path class="cls-1" d="M436.56,223.35c.96-.2,12.33,8.09,13.92,9.37-.55.42-.9,1.54-1.32,1.87-.66.51-12.33-8.21-14.07-8.99-.33-.44.94-2.14,1.47-2.25Z" />
    <path class="cls-1" d="M142.35,620.24c-.36-.52,1-2.34,1.58-2.67l13.1,10.76c-.77.77-1.52,2.11-2.74,1.4l-11.93-9.49Z" />
    <path class="cls-1" d="M140.71,621.68c.8,0,10.59,9.18,12.44,10.09.7,1.24-.63,1.96-1.4,2.76l-12.44-10.1c-.9-.7,1.07-2.75,1.4-2.75Z" />
    <path class="cls-1" d="M154.23,247.71c.14.1,1.38,2.28.54,2.51-3.76,2.94-7.45,7.2-11.29,9.89-1.37.96-1.88-.67-2.34-1.85,3.83-2.9,7.3-6.77,11.07-9.66.42-.32,1.59-1.2,2.02-.89Z" />
    <path class="cls-1" d="M503.04,582.03c-.31-.43.08-1.18.29-1.64,1.82-3.9,6.22-8.03,8.16-12.08,1.36-1.38,3.22.75,2.18,2.17-3.04,3.23-5.32,9-8.18,12.08-.63.68-2.15-.1-2.45-.52Z" />
    <path class="cls-1" d="M348.81,199.89c.2.29.09,1.51.06,2.02-.04.73.2.75-.69.69-4.8-.31-10.22-2.05-15.11-2.38-1.16-.26-1.05-2.9-.04-3.1,1.91.69,15.31,2.08,15.78,2.77Z" />
    <path class="cls-1" d="M149.97,243.56c.73-.16,2.08,1.65,1.8,2.28l-11.51,10.14c-.91,1.1-2.86-.97-2.34-1.86l12.05-10.55Z" />
    <path class="cls-1" d="M111.93,583.9c-.08.12-2.27,1.22-2.68.92-.51-2.19-9.17-12.16-9.17-13.07,0-.45,1.6-1.82,2.39-1.58.73.22,8.17,10.88,8.95,12.24.22.38.75,1.13.5,1.49Z" />
    <path class="cls-1" d="M491.28,578.91c.55-.13,2.48,1.27,2.48,1.58,0,.78-9.08,10.29-9.85,12.22-1.24,1.12-2.14-.24-3-1.18l10.37-12.62Z" />
    <path class="cls-1" d="M119.31,583.48s.1.72.45,1.14c1.29,1.51,10.11,10.74,10.11,11.51,0,.46-2.3,2.46-3,1.18l-9.65-11.55c-.65-.8,1.55-2.66,2.08-2.28Z" />
    <path class="cls-1" d="M232.01,666.3c.13.89-.43,2.74-1.51,2.67l-15.04-4.99.48-2.74c.82-.71,13.92,4.73,16.07,5.06Z" />
    <path class="cls-1" d="M125.24,277.63c.47.68-.7,2.06-1.13,2.66-2.72,3.75-6.38,7.29-9.16,11.04-.95-1.05-2.62-.92-1.62-2.49,2.62-4.1,6.97-7.82,9.65-11.98.25-.45,2.18.67,2.25.78Z" />
    <path class="cls-1" d="M529.65,527.83c.5.66-6.16,13.17-6.68,15.18-.21.65-2.41-.39-2.49-.5-.57-.78,6.04-13.51,6.42-15.61l2.75.93Z" />
    <path class="cls-1" d="M210.87,216.85l-.93-2.76,15.42-5.93c.63.44,1.33,1.68,1.12,2.42-.26.91-13.6,5.47-15.61,6.27Z" />
    <path class="cls-1" d="M432.13,220.08l-.93,2.75c-4.98-2.33-10.1-5.1-14.68-8.12-.21-.6.64-2.38,1.11-2.41,1.43-.1,11.88,7.45,14.5,7.78Z" />
    <path class="cls-1" d="M115.41,269.77c.77.77,2.11,1.52,1.4,2.74l-9.67,11.54c-.45.81-2.42-.73-2.45-1.18-.05-.85,9.39-11.52,10.72-13.1Z" />
    <path class="cls-1" d="M397.62,658c.27.2.92,2.98-.27,3.18l-14.9,5.56c.09-1.05-.99-2.22,0-2.99,2.05-.33,14.52-6.23,15.18-5.75Z" />
    <path class="cls-1" d="M60.44,387.06l-2.36,15.8c-.06.98-2.99.91-3.16.75-.58-.55,2.7-13.68,2.37-15.8.39-1.18,2.14-.7,3.15-.76Z" />
    <path class="cls-1" d="M538.4,377.4l-4.51-15.9c.06-.57,2.88-1.75,3.03-.34l4.17,14.72c.09,1.26-1.91,1-2.69,1.52Z" />
    <polygon class="cls-1" points="57.22 408.68 56.3 425.24 53.08 425.24 54.48 408.7 57.22 408.68" />
    <path class="cls-1" d="M432.13,230.18c-.32-.45,1.23-2.31,1.61-2.75,3.49,3.27,9.56,5.6,12.89,8.73,1.27,1.19.02,3.03-1.29,2.7l-13.21-8.68Z" />
    <path class="cls-1" d="M130.19,254.14c.59-.13,2.43,1.54,1.81,2.27-1.73,1.07-10.71,11.49-11.53,11.49-.19,0-1.84-1.43-1.4-2.28.57-1.11,10.34-11.31,11.12-11.48Z" />
    <path class="cls-1" d="M471.21,617.53l.87,1.69c.29,1.2-10.26,9.15-11.66,10.73-.84,1.45-2.55-1.49-2.34-1.85,3.7-2.74,6.98-6.46,10.62-9.19.46-.35,2.09-1.68,2.51-1.38Z" />
    <path class="cls-1" d="M62.22,409.2c.89,1.27-1.09,13.99-.85,16.5h-2.76s.99-16.27.99-16.27c.13-1.11,2.32-.68,2.63-.23Z" />
    <path class="cls-1" d="M546.17,465.75c.59.68-2.61,14.37-2.26,16.53-2.82.28-2.91-.44-2.76-2.99.26-4.41,2.13-9.49,2.3-14.04.47.03,2.63.39,2.72.5Z" />
    <path class="cls-1" d="M545.33,444.14c.65-.55,3.25.05,2.76,1.57-.39,3.02-.76,6.17-.96,9.2-.09,1.31.38,5.46-.43,6.01-.82.55-2.83.35-2.78-.91.87-2.09.54-15.14,1.4-15.87Z" />
    <path class="cls-1" d="M454.5,235.75c.45-.09,1.51.83,1.97,1.16,2.94,2.11,7.55,5.78,10.17,8.22,1.31,1.22.53,2.69-.76,2.97-.8.18-10.96-9.17-12.85-10.08-.34-.45,1-2.18,1.46-2.27Z" />
    <path class="cls-1" d="M547.58,380.17c-.07,2.33,3.6,15.52,2.72,16.5-.53.59-2.24.75-2.71-.65-.63-1.89-2.78-12.49-2.79-14.28,0-1.88,1.21-1.68,2.77-1.58Z" />
    <path class="cls-1" d="M545.27,397.62l-2.74.48-3.23-16.56c.9-.13,2.41-1.01,3.01-.02l2.96,16.1Z" />
    <path class="cls-1" d="M66.88,488.72l-2.49.03-3.4-15.92c1.08-.85,2.66-1.7,3.11.04,1.29,5.02,1.86,10.72,2.78,15.85Z" />
    <path class="cls-1" d="M411.88,212.71l-14.72-6.67c-.99-.59-.01-3.04.94-2.81l14.25,6.49c1.07.85-.5,1.87-.47,2.99Z" />
    <path class="cls-1" d="M466.89,613.4c.7-.16,2.04,1.96,1.85,2.29l-11.52,10.15c-.86,1.1-2.84-.9-2.34-1.86l12.01-10.57Z" />
    <path class="cls-1" d="M133.87,257.82c.59-.13,2.43,1.54,1.81,2.27-3.79,2.66-7.04,8.62-10.59,11.07-1.3.89-2.78-.99-2.34-1.86,2.26-1.26,9.69-11.16,11.13-11.47Z" />
    <path class="cls-1" d="M485.78,602.37c.5-.11,1.99,1.41,1.99,1.58,0,.16-1.72,2.17-2.04,2.54-1.59,1.83-7.02,7.6-8.73,8.76-1.57,1.06-3.03-.52-2.34-1.86,1.91-1.28,9.9-10.75,11.11-11.02Z" />
    <path class="cls-1" d="M187.79,225.66c.21.15,1.46,2.27.52,2.46-1.88.71-13.49,8.55-14.21,8.03-.32-.24-1.45-2.46-.29-2.74,3.91-2.07,7.82-5.18,11.72-7.13.56-.28,1.72-.99,2.25-.61Z" />
    <path class="cls-1" d="M482.04,598.21l2.06,2.06c-4.2,3.6-7.34,8.49-11.72,11.75l-2.06-1.63,11.72-12.18Z" />
    <path class="cls-1" d="M204.85,214.06l-14.53,6.87c-.65.32-1.36-1.68-1.47-2.08-.25-.89.13-.49.53-.71,4.49-2.53,9.4-4.39,13.98-6.75.99-.16,1.86,2.17,1.5,2.67Z" />
    <path class="cls-1" d="M224.18,203.53c.15.14.77,2.65-.25,2.69l-14.31,5.51c-.98.31-1.66-2.6-1.52-2.69.07-.05.91-.05,1.36-.24,3.66-1.51,8.88-3.98,12.53-4.97.51-.14,1.89-.57,2.19-.29Z" />
    <path class="cls-1" d="M460.6,253.7c.27.39-.76,2.62-.88,2.7-.42.3-1.79-.87-2.24-1.19-3.71-2.63-6.95-6.03-10.66-8.68-.83-.92.63-3.34,1.88-2.32l11.9,9.49Z" />
    <path class="cls-1" d="M101.61,286.78l1.87,1.37.02.95c-3.07,3.74-5.38,8.68-8.37,12.37-1.22,1.5-2.32.4-2.9-1.03l9.37-13.65Z" />
    <path class="cls-1" d="M551.74,466.64l-2.77,16.56c-.47-.03-2.63-.39-2.72-.5-.54-.63,2.25-14.47,2.69-16.33.8-.59,1.92.17,2.8.27Z" />
    <path class="cls-1" d="M315.29,671.8v2.76c-3.75.1-7.54-.14-11.29-.02-1.56.05-3.42.93-4.98.41-1.35-.45-.75-3.15-.06-3.15h16.33Z" />
    <path class="cls-1" d="M529.22,334.59l-6.85-14.1c-.87-.79,1.71-1.94,2-1.92.82.05,6.33,12.87,7.53,14.53.16.99-2.18,1.86-2.67,1.5Z" />
    <path class="cls-1" d="M243.06,192.01c.12.16.74,2.81.01,3-2.09.09-14.98,4.84-15.64,4.36-.18-.13-.89-2.72-.02-3,2.05.12,15.16-5.01,15.65-4.36Z" />
    <path class="cls-1" d="M69.17,514.94l5.93,15.42c-1.03.88-2.31,1.65-3.07.36-2.36-3.98-3.24-10.45-5.59-14.64l2.74-1.14Z" />
    <path class="cls-1" d="M546.2,375.07c-.08.12-2.56.89-2.79.21l-4.45-15.16c.06-.7,2.71-1.86,3.04-.36.09,1.99,4.66,14.66,4.21,15.31Z" />
    <path class="cls-1" d="M146.32,239.9c1.25-.33,2.69,1.38,1.56,2.51l-10.64,9.14c-1.21,1.23-2.63.41-2.98-1.12l12.06-10.53Z" />
    <path class="cls-1" d="M416.91,649.3c.2.14.7,2.35.47,2.69-.08.11-2.02.61-2.58.87-3.09,1.44-7.78,4.51-10.71,5.39-2.12.64-2.76-.48-1.86-2.32,4.08-1.43,8.94-5.27,12.88-6.45.48-.15,1.44-.43,1.81-.18Z" />
    <path class="cls-1" d="M503.9,300.11l-9.03-12.87c-.33-.96,1.22-3.15,2.52-1.55,3.03,3.74,5.67,8.27,8.63,12.11.56.86-1.57,2.7-2.12,2.31Z" />
    <path class="cls-1" d="M537.01,381.99l3.24,16.3c-.03.31-3.01,1.29-3.16-.05l-2.86-15.53,2.78-.72Z" />
    <path class="cls-1" d="M93.09,326.33c-.31.22-3.03-1.09-2.22-1.96l7.97-14.13,1.87,1.37.14.61-7.78,14.11Z" />
    <path class="cls-1" d="M513.12,543.95c.5-.35,2.83.51,2.67,1.5l-7.36,13.37c-.69,1.49-2.99.14-2.64-1.22l7.33-13.65Z" />
    <path class="cls-1" d="M84.36,550.35l-2.76.93c-1.21-4.56-5.41-9.52-6.71-13.79-.55-1.8,1.49-2.8,2.33-1.86l7.14,14.72Z" />
    <path class="cls-1" d="M534.25,338.3l5.43,14.6c.75,1.96-1.08,1.7-2.66,1.97l-5.45-15.05c-.58-.61,2.52-1.64,2.69-1.52Z" />
    <path class="cls-1" d="M524.58,342.45c-.03,2.2,6.02,14.95,5.54,15.62-.12.17-2.72.88-3,0-.4-2.16-5.93-14.15-5.24-15.15.14-.21,2.47-.7,2.71-.49Z" />
    <path class="cls-1" d="M235.71,670.41l.7-2.76c4.8,1.66,10.41,2.13,15.16,3.69,1.81.6,1.04,1.89.03,3.12l-15.88-4.06Z" />
    <path class="cls-1" d="M539.77,422.94h2.76c.11,3.9-.15,7.84-.02,11.75.04,1.37,1.03,3.7.28,4.84-.57.87-3.02.42-3.02-.26v-16.33Z" />
    <path class="cls-1" d="M353.92,198.45c-.17-.11.26-2.56.5-2.72.55-.38,11.35,2.4,12.94,2.86.63.18,3.47.88,3.52,1.46.03.4-.75,2.3-1.51,2.08l-15.45-3.67Z" />
    <path class="cls-1" d="M358.47,679.11c-.45.67-13.96,2.33-15.84,3.18l-.44-.34-.69-2.31,15.88-3.24c1.21-.13,1.5,2.12,1.09,2.72Z" />
    <path class="cls-1" d="M250.44,203.96l-.47-2.74,15.83-3.19c.88.98,1.77,2.8.02,3.16-5.08,1.06-10.28,1.77-15.37,2.76Z" />
    <path class="cls-1" d="M356.22,665.82l.47,2.76c-2.01.3-15.83,3.67-16.52,3.19-.23-.16-.68-2.48-.49-2.71l16.54-3.24Z" />
    <polygon class="cls-1" points="66.42 430.3 66.88 446.86 64.12 446.86 63.66 430.3 66.42 430.3" />
    <path class="cls-1" d="M504.77,305.2l8.32,14.69-2.75.93-8.24-14.03c.34-.59,2.17-1.94,2.68-1.58Z" />
    <path class="cls-1" d="M70.49,388.96c.72,1.02-2.09,14.19-2.27,16.45-.83.14-2.42.24-2.69-.71l2.35-15.5c.1-1.14,2.3-.69,2.62-.24Z" />
    <path class="cls-1" d="M274.33,669.98c.2.23-.26,2.55-.48,2.71-.68.47-14.41-2.34-16.33-2.7l.27-2.79,16.54,2.78Z" />
    <path class="cls-1" d="M63.2,494.24c-.04,2.28,4.72,15.17,4.1,16.06-.16.23-2.49.68-2.71.49-.49-4.77-3.63-10.43-4.12-15-.18-1.7,1.17-1.21,2.72-1.55Z" />
    <path class="cls-1" d="M286.77,190.63v2.76s-16.28,1.41-16.28,1.41c-1.97-3.2,1.09-2.86,3.68-3.2,1.6-.21,12.15-1.42,12.6-.97Z" />
    <path class="cls-1" d="M433.51,636.38l-14.09,8.24c-.81.28-1.8-2.23-1.51-2.67l13.99-8.31,1.6,2.73Z" />
    <path class="cls-1" d="M553.11,444.56c.64.64-1.17,14.87-.92,17.02h-2.76s.92-17.02.92-17.02h2.76Z" />
    <path class="cls-1" d="M95.63,548.99c.8.06,7.08,12.22,8.32,13.78.42,1.32-1.5,2.55-2.79.91-2.71-3.47-4.64-8.79-7.43-12.39-.7-.8,1.58-2.32,1.9-2.3Z" />
    <path class="cls-1" d="M79.29,511.26l5.53,14.97c-.01,1.16-1.64,1.29-2.53,1.6l-5.69-15.05c-.07-1.09,1.79-1.62,2.69-1.52Z" />
    <path class="cls-1" d="M157.11,635.53c.46-.33,1.46.16,1.94.46l11.79,8c.98.8-.25,2.81-1.51,2.46l-13.01-8.67c-.46-.25.68-2.17.79-2.25Z" />
    <path class="cls-1" d="M336.45,675.02l-.02,2.74-16.54,1.86c.32-.96-.93-2.83.29-3.16l16.27-1.44Z" />
    <polygon class="cls-1" points="65.49 387.99 63.2 404.53 60.44 404.54 62.74 387.51 65.49 387.99" />
    <path class="cls-1" d="M69.18,470.78c-.18,2.78,3.62,15.01,2.56,16.59-.44.65-1.81.41-2.56.43.02-5.02-2.49-10.61-2.76-15.43-.1-1.84,1.11-.97,2.76-1.59Z" />
    <path class="cls-1" d="M190.15,654.8c.28.39-.69,2.9-1.51,2.69-4.05-2.62-9.53-4.61-13.36-7.37-1.44-1.04-.12-2.9,1.22-2.64l13.66,7.32Z" />
    <path class="cls-1" d="M395.75,653.44c.21.14.7,2.47.49,2.71l-15.63,5.54-.41-2.71c4.51-1.37,9.27-4.1,13.74-5.35.49-.14,1.41-.45,1.81-.18Z" />
    <path class="cls-1" d="M264.67,190.62l-16.55,2.78.02-2.74c4.64-.18,10.09-2.46,14.53-2.75,2.19-.14,2.13.68,1.99,2.71Z" />
    <path class="cls-1" d="M68.24,492.87l4.13,14.99c.48,1.54-1.48,1.55-2.73,1.55-.41-5-3.66-10.66-4.14-15.44-.11-1.11,1.75-1.1,2.73-1.1Z" />
    <polygon class="cls-1" points="552.65 417.88 549.89 417.88 548.53 401.34 550.6 400.97 551.21 401.61 552.65 417.88" />
    <path class="cls-1" d="M391.19,206.28c-.49.79-.35,2.9-1.54,2.7-3.95-2.33-10.53-2.85-14.25-5.09-1.08-.65-.79-2.27-.28-2.63,1.03-.73,13.81,4.64,16.06,5.02Z" />
    <path class="cls-1" d="M159.27,625.74c-.5.37-1.72-.27-2.21-.65-1.22-1.39-11.51-8.89-11.51-9.64,0-.32,2.04-2.28,2.74-1.4l11.77,9.91c.12.21-.71,1.72-.79,1.78Z" />
    <path class="cls-1" d="M379.19,670.93c.19.17.82,2.67-.27,2.64l-15.31,4.21-.45-2.71c2.2-.21,15.17-4.9,16.03-4.13Z" />
    <path class="cls-1" d="M307.93,189.71v2.76c-5.47.8-11.04.36-16.56.47v-2.76l16.56-.46Z" />
    <path class="cls-1" d="M91.04,551.77c.8.06,7.08,12.16,8.44,13.64.43,1.16-1.58,2.51-2.45,1.51l-8.01-13.19c-.23-.67,1.77-1.98,2.02-1.96Z" />
    <polygon class="cls-1" points="320.34 684.69 320.34 681.92 336.24 680.19 336.68 680.53 337.27 682.63 336.22 683.31 320.34 684.69" />
    <path class="cls-1" d="M307.93,184.65v2.76c-4.04.17-8.17-.23-12.21-.02-1.1.06-2.1.47-3.2.5-2.09.05-.88-1.36-1.15-3.24h16.56Z" />
    <path class="cls-1" d="M292.05,195.23h15.64c.64,0,1.29,2.26-.07,2.69-2.02.65-9.99-.03-12.83.04-1.3.03-3.18,1.27-3.45-.67-.12-.83,0-1.59.71-2.06Z" />
    <path class="cls-1" d="M183.69,645.16c.34.48-.52,2.55-1.17,2.69-.88.2-4.48-2.56-5.7-2.74l1.6-2.71,5.27,2.75Z" />
    <path class="cls-1" d="M489.03,590.43c1.03-.27,2.21.88,1.93,1.94-.07.28-3.57,4.38-3.86,4.38-.15,0-2.21-1.34-2.06-1.97.07-.29,3.59-4.24,3.99-4.34Z" />
    <path class="cls-1" d="M545.29,433.06c.08-.1,1.93-.06,2.33.2.93.62.2,5.38.43,6.7h-2.76v-6.9Z" />
    <path class="cls-1" d="M117.93,279.87c-.37.26-2.7-1.37-2.72-1.6-.03-.35,3.64-4.83,4.26-4.77,3.79.35-.04,3.96-1.08,5.24-.34.41-.41,1.1-.46,1.13Z" />
    <path class="cls-1" d="M265.6,192.93c.09.1.08,2.5-.05,2.7-.17.25-4.34,1.03-5.11,1.14-1.88.28-1.19-1.48-1.27-2.92l6.44-.92Z" />
    <path class="cls-1" d="M530.11,350.72l2.75-.93c-.12,1.01,2.4,5.59,2.11,5.99-2.61,3.58-4.3-3.24-4.87-5.07Z" />
    <path class="cls-1" d="M346.99,673.22c.21.14.7,2.47.49,2.71-.21.24-6.05,1.18-6.38.88-.22-.2-.63-2.1-.06-2.48.47-.32,5.66-1.32,5.95-1.11Z" />
    <path class="cls-1" d="M74.23,513.1l1.88,6.18c-.04.26-1.78.71-2.06.65-.59-.11-2.63-5.35-2.56-5.66.12-.56,2.54-1.33,2.74-1.18Z" />
    <path class="cls-1" d="M429.31,224.74c.4.57-.57,2.86-1.49,2.65-.25-.06-4.26-2.31-4.44-2.49-.94-.88-.16-2.21.69-2.94l5.24,2.77Z" />
    <path class="cls-1" d="M284.47,670.89c.13.1.25,2.37-.75,2.69-.7.23-5.26-.11-5.67-.41-.18-.14-.24-2.36.73-2.68.6-.2,5.46.23,5.69.4Z" />
    <polygon class="cls-1" points="515.39 323.11 517.72 328.82 515.61 329.97 512.62 324.28 515.39 323.11" />
    <path class="cls-1" d="M548.05,422.94v5.98c-2.91.39-3.14-.16-3.25-2.98-.11-2.98.15-3.23,3.25-3.01Z" />
    <path class="cls-1" d="M130.19,269.32c.57-.13,2.11,1.4,1.98,1.98-.09.41-3.8,4.04-4.28,3.94-.4-.09-1.75-1.48-1.64-1.98l3.94-3.94Z" />
    <path class="cls-1" d="M478.88,257.36c.48-.1,4.19,3.52,4.28,3.94.11.5-1.24,1.89-1.64,1.98-.48.1-4.19-3.52-4.28-3.94-.11-.5,1.24-1.89,1.64-1.98Z" />
    <path class="cls-1" d="M99.55,298.74c.38-.27,2.71,1.39,2.73,1.6.03.31-3.12,4.84-3.81,4.79-3.99-.32.8-4.77,1.08-6.39Z" />
    <path class="cls-1" d="M475.2,261.04c.48-.1,4.19,3.52,4.28,3.94.11.5-1.24,1.89-1.64,1.98-.48.1-4.19-3.52-4.28-3.94-.11-.5,1.24-1.89,1.64-1.98Z" />
    <path class="cls-1" d="M132.49,599.15c.48-.1,4.19,3.52,4.28,3.94.11.5-1.24,1.89-1.64,1.98-.48.1-4.19-3.52-4.28-3.94-.11-.5,1.24-1.89,1.64-1.98Z" />
    <path class="cls-1" d="M162.62,237.49c-.21-.15-1.03-1.78-.79-2.25.25-.47,4.29-3.47,4.88-3.01.24.19,1.34,1.82,1.17,2.1-.4.64-4.56,3.64-5.26,3.16Z" />
    <path class="cls-1" d="M539.77,497.47l-1.38,5.97-2.74-.48c.54-2.81.14-7.44,4.12-5.49Z" />
    <path class="cls-1" d="M163.88,227.95l.93,1.63c.16.64-4.43,3.92-5.02,3.63-.45-.22-1.38-1.62-1.16-2.11.32-.71,4.56-3.64,5.26-3.15Z" />
    <path class="cls-1" d="M507.08,571.04c-.45.31-2.61-1.07-2.64-1.58-.02-.34,2.96-4.73,3.36-4.75.27-.01,1.4.76,1.65,1.05,1.12,1.26-2.2,3.64-2.37,5.29Z" />
    <path class="cls-1" d="M234.3,200.31l.48,2.74-5.96,1.37-.45-2.71c1.07-.08,5.36-1.88,5.93-1.39Z" />
    <path class="cls-1" d="M394.42,210.85c-.17-.22.62-2.61,1.17-2.72.37-.08,5.07,1.95,5.2,2.57.1.45-.69,2.45-1.09,2.47l-5.28-2.32Z" />
    <path class="cls-1" d="M68.26,366.35c.12-.09,2.62.71,2.72,1.19.1.49-1.32,5.55-2.01,5.61-.18.02-1.45-.44-1.64-.58-.75-.59.67-6.01.93-6.21Z" />
    <path class="cls-1" d="M370.95,664.91l-.46-3.21c2.83.2,6.43-3.43,6.24,1.39l-5.78,1.82Z" />
    <path class="cls-1" d="M522.28,326.77l-2.71.44c.02-1.21-2.5-4.54-1.84-5.44.07-.1,2.11-.89,2.28-.76.61.46,2.66,5.21,2.28,5.76Z" />
    <path class="cls-1" d="M86.24,548.95l-2.34-5.25c.09-.43,2.08-1.21,2.49-1.12.32.07,2.6,4.92,2.53,5.2-.14.65-2.2,1.51-2.69,1.17Z" />
    <path class="cls-1" d="M62.68,462.1c.73.49.33,4.79.98,5.92-.79-.13-1.8.61-2.48.43-.65-.16-1.29-5.21-1.18-5.67.2-.8,2.15-1.04,2.68-.69Z" />
    <path class="cls-1" d="M434.42,237.55c-.23.17-4.83-2.58-4.99-2.82-.39-.56.29-3.18,2.1-2.34.43.2,3.5,2.21,3.61,2.4.39.61-.52,2.62-.73,2.76Z" />
    <path class="cls-1" d="M445.81,636.91c1.04-.26,2.2.86,1.92,1.93-.1.39-4.06,3.45-4.33,3.45-.43,0-1.83-1.59-1.58-2.4.08-.25,3.6-2.88,3.99-2.98Z" />
    <path class="cls-1" d="M207.64,654.78l1.17-2.77c2.29,1.37,7.46,1.63,4.13,5.02l-5.3-2.25Z" />
    <rect class="cls-1" x="58.6" y="430.3" width="2.76" height="6.44" />
    <path class="cls-1" d="M398.5,215.06c.29.41-.23,2.7-.68,2.74-.49.04-4.02-1.43-4.65-1.77-1.62-.88-.62-1.43.15-2.89.58-.05,5.03,1.7,5.19,1.93Z" />
    <path class="cls-1" d="M329.09,186.03v2.76c-1.43-.1-2.95.14-4.38,0-3.04-.28-1.7-.81-1.6-3.23l5.98.46Z" />
    <polygon class="cls-1" points="540.69 402.23 541.13 408.2 538.39 408.68 537.93 402.23 540.69 402.23" />
    <path class="cls-1" d="M211.29,661.66c-.55.4-4.93-1.67-5.75-2.26l.76-2.28c.57-.41,4.84,1.81,5.75,2.26l-.75,2.28Z" />
    <path class="cls-1" d="M534.71,496.08l-1.38,5.98c-.11.17-2.55-.26-2.72-.5-.22-.32.81-5.05,1.11-5.49.59-.87,1.97.25,3,.01Z" />
    <path class="cls-1" d="M544.82,498.86l-1.37,5.96c-4.54-.3-1.77-3.48-1.34-6.41l2.71.45Z" />
    <path class="cls-1" d="M328.63,194.31l-5.98-.46v-2.76s5.55.2,5.55.2c.72.48.38,2.19.43,3.02Z" />
    <path class="cls-1" d="M478.36,594.53c.34,0,1.78,1.61,1.56,2.43-.07.27-2.55,2.85-2.92,3.1-1.4.94-2.84-.26-2.5-1.55.07-.27,3.58-3.99,3.86-3.98Z" />
    <path class="cls-1" d="M124.7,606.99c.96-.25,4.73,3.55,4.73,3.86,0,.41-1.66,1.96-2.74,1.39-1.29-.68-4.92-4.51-1.99-5.26Z" />
    <path class="cls-1" d="M439.78,628.14c4.59,2.05-.67,3.83-2.77,5.47-3.7-2.79.99-3.39,2.77-5.47Z" />
    <path class="cls-1" d="M439.55,637.7l-.97-1.98c.06-.29,4.52-3.55,4.81-3.48.21.05,1.62,1.98,1.42,2.31-.4.64-4.56,3.64-5.26,3.16Z" />
    <path class="cls-1" d="M372.33,669.97c-.12-.17-.54-2.42-.27-2.78.23-.31,5.13-1.8,5.35-1.63.38.3,1.06,2.14.71,2.59l-5.79,1.82Z" />
    <path class="cls-1" d="M284.01,675.94c.12,3.89-.02,2.85-2.53,2.76-1.01-.04-3.6.39-3.89-.74-.82-3.21,4.56-1.71,6.42-2.02Z" />
    <path class="cls-1" d="M531.48,361.75l1.37,5.96-2.74.48-1.35-5.26c.15-.66,2.02-1.1,2.72-1.19Z" />
    <path class="cls-1" d="M508.07,296.87l-2.75-4.42,2.03-1.99,3.37,4.83c-.03.51-2.19,1.89-2.64,1.58Z" />
    <path class="cls-1" d="M168.88,236.7c1.17-.28,2.4,1.06,1.76,2.24-.55,1-5.04,4.13-5.72,1.53-.26-1.01,3.13-3.57,3.97-3.77Z" />
    <path class="cls-1" d="M106.41,302.92c.43.6-2.58,4.51-3.18,5.27l-2.31-1.42,3.22-4.63c.28-.37,2.2.67,2.27.77Z" />
    <path class="cls-1" d="M97.94,572.93l3.36,4.81c-.02.38-1.61,1.52-1.99,1.5-.46-.03-3.28-3.87-3.39-4.34-.19-.87,1.44-1.55,2.02-1.96Z" />
    <path class="cls-1" d="M67.32,415.1c-.13.18-2.36.24-2.68-.74-.24-.74.05-4.86.44-5.19.39-.33,2.37-.16,2.66.71.22.66-.15,4.86-.41,5.21Z" />
    <path class="cls-1" d="M74.67,374.15l-2.71-.45,1.37-5.96c4.53.29,1.78,3.46,1.34,6.41Z" />
    <polygon class="cls-1" points="65.96 365.9 64.34 371.44 63.91 371.75 61.82 371.41 62.75 365.44 65.96 365.9" />
    <path class="cls-1" d="M81.6,325.42l-2.31,5.51-2.75-.93,2.29-5.32c.75-.55,1.84.81,2.77.73Z" />
    <path class="cls-1" d="M91.95,563.75c.4,0,5.15,6.01,1.3,6.34-.65.05-3.21-3.88-3.33-4.39-.13-.57,1.88-1.95,2.03-1.95Z" />
    <polygon class="cls-1" points="235.7 205.35 236.17 208.11 230.19 209.49 229.72 206.73 235.7 205.35" />
    <path class="cls-1" d="M328.17,196.61v2.76c-3.16-.28-6.81,1.46-5.98-3.22l5.98.46Z" />
    <path class="cls-1" d="M90.65,540.29c.82-.07,2.7,3.66,2.85,4.42.26,1.35-1.61,2.65-2.64,1.22-1.01-1.41-3.19-5.38-.21-5.64Z" />
    <path class="cls-1" d="M276.65,199.83l-5.98.46c-.86-4.46,2.33-2.65,5.31-3.57.94.09.67,2.35.67,3.11Z" />
    <polygon class="cls-1" points="520.45 535.65 518.15 541.16 515.39 540.23 517.67 534.92 520.45 535.65" />
    <path class="cls-1" d="M523.04,549.04c.65-.12,2.06.73,2.03,1.54,0,.22-1.91,3.74-2.09,3.93-.97,1.03-3.15-.21-2.95-1.09.1-.42,2.54-4.29,3.01-4.38Z" />
    <path class="cls-1" d="M90.75,329.6c.42.59-1.58,5.27-1.82,5.44-.44.31-2.2-.41-2.53-.88-.28-.39,1.8-5.09,2.1-5.32.2-.16,2.19.66,2.26.76Z" />
    <path class="cls-1" d="M527.65,539.36c.62-.18,2.38.62,2.42,1.11.02.22-1.69,3.88-1.84,4.1-.94,1.36-3.01.28-3.07-.4-.05-.6,1.89-4.64,2.49-4.81Z" />
    <path class="cls-1" d="M498.61,297c.46.03,3.31,3.76,3.4,4.34.09.57-1.89,1.98-2.03,1.99-.29.01-3.38-4.54-3.36-4.83.02-.38,1.61-1.52,1.99-1.5Z" />
    <path class="cls-1" d="M86.66,315.76c.22.17-2.46,4.65-2.76,4.84-.7.44-2.13-.1-2.56-.7-.22-.3,2.23-4.64,2.55-4.88.34-.25,2.48.52,2.77.73Z" />
    <path class="cls-1" d="M512.97,300.17c.65-.12.81-.06,1.27.4.23.24,2.49,3.68,2.49,3.91,0,.32-1.67,1.52-2.1,1.56-.72.07-3.35-4.46-3.32-4.79.03-.35,1.26-1.01,1.66-1.08Z" />
    <path class="cls-1" d="M542.48,444.14c.18.21.16,5-.16,5.5-.51.78-2.85.2-3.02-.03-.18-.24,1.03-4.85.46-5.97l2.71.5Z" />
    <path class="cls-1" d="M68.26,461.58l.44,5.96c-.67-.18-1.65.4-2.07.37-1.07-.09-1.27-5.27-1.13-6.33h2.76Z" />
    <path class="cls-1" d="M197.1,211.3l-.76-2.28,5.32-2.75c-.08.93,1.28,2.03.73,2.77-.37.5-4.8,2.61-5.29,2.26Z" />
    <path class="cls-1" d="M545.69,401.84c.78.52.46,4.81.52,5.92h-2.76s-.46-5.98-.46-5.98c.7.12,2.25-.24,2.7.06Z" />
    <path class="cls-1" d="M243.53,663.99l-.69,2.3c-.62.95-4.45-.87-5.74-.94l.46-2.74,5.98,1.38Z" />
    <path class="cls-1" d="M128.75,602.81c.29,0,4.28,3.68,4.34,3.96.11.5-1.24,1.89-1.64,1.98-.48.1-4.19-3.53-4.28-3.94-.11-.51,1.43-2,1.58-2Z" />
    <path class="cls-1" d="M414.95,217.35c.97-.28,3.97,1.75,5.03,2.25l-1.41,2.76c-.82-1.29-3.97-1.82-4.64-2.74-.43-.59.43-2.1,1.02-2.27Z" />
    <path class="cls-1" d="M77.4,507.53c-.2.29-2.59.68-2.71.52.1-1.67-.78-3.13-1.07-4.71-.32-1.73,1.23-1.01,2.45-1.73.11,1.33,2.04,4.89,1.33,5.93Z" />
    <polygon class="cls-1" points="531.03 346.11 528.29 346.56 526.43 341.06 529.19 340.13 531.03 346.11" />
    <polygon class="cls-1" points="283.55 681.46 283.55 684.23 277.58 683.75 277.56 681 283.55 681.46" />
    <path class="cls-1" d="M240.77,674.11l-.73,2.79c-2.77-.72-7.56-.26-4.58-4.1l5.31,1.31Z" />
    <path class="cls-1" d="M369.57,204.43l-.73,2.79c-2.45-.41-7.25-.33-4.98-3.74l5.71.95Z" />
    <path class="cls-1" d="M91.72,306.1c.23.31-2.11,5.01-2.75,5.31-.17.08-2.24-.63-2.31-.73-.23-.31,2.11-5.01,2.75-5.31.17-.08,2.24.63,2.31.73Z" />
    <path class="cls-1" d="M89.39,559.99l-2.28.76c-.5-.81-2.86-4.22-2.55-4.88.19-.39,1.62-1.4,2.11-1.17.58.28,3.16,4.67,2.72,5.29Z" />
    <path class="cls-1" d="M111.45,287.64c-4.42-.54-1.67-3.02.13-5.16.96-1.13,1.87-.59,2.48.62.74,1.49-2.36,3.02-2.61,4.53Z" />
    <path class="cls-1" d="M503.25,561.89c.69-.16,2,1.04,2.48,1.58-1.4.8-2.51,4.79-4.28,4.32-2.81-.74,1.45-5.82,1.8-5.9Z" />
    <path class="cls-1" d="M382.44,197.55l-.45,2.74c-.17.22-4.28-1.08-4.86-1.35-1.73-.8-.71-1.29.09-2.83l5.22,1.44Z" />
    <path class="cls-1" d="M220.06,667.67c.12.09-.51,2.56-1.19,2.71-.58.12-5.09-1.32-5.15-2-.06-.68.63-2.04,1.5-2.11.3-.02,4.63,1.26,4.83,1.41Z" />
    <path class="cls-1" d="M222.82,201.21l-5.52,1.84-.93-2.75c3.07-.36,5.83-4.22,6.44.91Z" />
    <path class="cls-1" d="M66.88,420.18c.22.22.31,5.58-.75,5.93-3.93,1.3-1.5-3.84-2.02-5.93h2.76Z" />
    <path class="cls-1" d="M392.1,203.97c-.23.16-5.13-1.57-5.32-1.82-.47-.63.17-2.21.71-2.59.21-.15,4.64,1.29,4.88,1.62.39.54-.07,2.64-.27,2.79Z" />
    <path class="cls-1" d="M211.57,202.19c.46.04,1.33,2.22.95,2.72-.28.37-4.84,2.03-5.36,1.63-.3-.23-.9-1.83-.7-2.13.18-.27,4.83-2.26,5.11-2.23Z" />
    <path class="cls-1" d="M335.99,669.96c.08.07.06,1.63-.07,2.01-.26.8-5.71,1.45-5.92,1.22-.09-.1-.08-2.49.06-2.7.39-.58,5.7-.72,5.92-.52Z" />
    <path class="cls-1" d="M224.67,669.5c.23-.16,5.13,1.57,5.32,1.82.47.63-.17,2.21-.71,2.59-.21.15-4.64-1.29-4.88-1.62-.39-.54.07-2.64.27-2.79Z" />
    <path class="cls-1" d="M399.96,653.84l-.76-2.28c1.17-.54,4.23-2.78,5.33-2.09,3.27,2.07-4.05,4.74-4.57,4.37Z" />
    <path class="cls-1" d="M404.1,660.8l4.81-2.28c.85.73,1.63,2.06.69,2.94-.32.3-4.08,2.09-4.33,2.03-.65-.15-1.51-2.21-1.17-2.69Z" />
    <path class="cls-1" d="M471.46,264.7l4.36,4.36c-.47.36-1.18,1.47-1.66,1.58-.32.07-4.12-2.95-4.26-3.51-.28-1.11.91-1.74,1.56-2.43Z" />
    <path class="cls-1" d="M187.42,647.9c.48-.34,5.02,2.14,5.3,2.73.23.49-.78,1.92-1.17,2.11-.43.21-4.6-1.98-4.87-2.55-.09-.2.64-2.22.74-2.29Z" />
    <path class="cls-1" d="M371.84,194.34l-.45,2.71c-2.76-.71-6.89-.16-5.03-4.13l5.48,1.41Z" />
    <path class="cls-1" d="M255.02,197.99c-1.89-.31-7.34,2.54-5.93-1.56.3-.86,4.33-1.43,5.18-1.15,1.05.35.75,1.79.75,2.7Z" />
    <path class="cls-1" d="M399.46,663.06c.2.15.66,2.25.27,2.79-.2.28-5.16,2.05-5.32,1.82l-.45-2.74,5.5-1.86Z" />
    <path class="cls-1" d="M522.29,314.37l-2.15.88c-.7.07-3.63-4.82-3.37-5,.6-.41,2.13-1.13,2.77-.72.28.18,2.98,4.68,2.75,4.85Z" />
    <path class="cls-1" d="M324.9,673.61c-.08.1-2.06.46-2.49.5-2.76.25-3.52.31-3.45-2.76,1.4.43,5.34-1.48,5.92.29.13.39.19,1.76.02,1.97Z" />
    <path class="cls-1" d="M517.53,558.68c.62-.18,2.38.61,2.41,1.1.02.23-1.93,3.62-2.31,4.09-1.06,1.3-2.76.16-2.72-.85.01-.36,2.25-4.24,2.62-4.34Z" />
    <path class="cls-1" d="M106.29,566.97c.59-.05,3.16,3.39,3.3,3.96.32,1.26-1.43,2.63-2.62,1.21-1.13-1.35-4.06-4.89-.68-5.17Z" />
    <path class="cls-1" d="M497.39,583.09c.94,1.31-2.53,3.62-2.75,4.93-.73.58-2.69-1.23-2.69-1.55,0-.21,2.34-2.73,2.75-3.23.34-.42.41-1.1.46-1.13.21-.15,2.14.86,2.22.98Z" />
    <path class="cls-1" d="M176.3,637.7c-1.05.73-4.1-2.71-5.46-2.71.44-.89,1.03-2.55,2.31-2.11.34.12,3.78,2.38,3.93,2.57.32.42-.59,2.12-.78,2.25Z" />
    <path class="cls-1" d="M463.7,257.36c.65-.14,6.07,4.55,2.61,5.44-.91.23-4.13-2.9-4.25-3.46-.11-.5,1.24-1.89,1.64-1.98Z" />
    <path class="cls-1" d="M207.15,218.66l-4.81,2.28c-.86-.75-1.63-2.05-.69-2.94.21-.2,4.11-2.11,4.34-2.06.59.12,1.5,2.23,1.16,2.72Z" />
    <path class="cls-1" d="M389.31,667.24c.23.16.68,2.47.48,2.7-.19.21-5.07,1.63-5.46,1.36-.38-.27-.69-1.91-.06-2.5.51-.47,4.49-1.93,5.03-1.56Z" />
    <path class="cls-1" d="M72.86,345.2l-1.85,5.52-2.75-.94c.89-2.69.88-6.31,4.59-4.58Z" />
    <path class="cls-1" d="M350.66,189.29c.32.38.16,2.39-.71,2.68-.53.17-3.32-.27-4.06-.43-2.01-.46-.53-1.66-.71-3.2.93.46,5.14.57,5.47.96Z" />
    <polygon class="cls-1" points="73.32 379.24 71.96 384.57 69.18 384.29 70.57 378.78 73.32 379.24" />
    <path class="cls-1" d="M357.09,671.4c.28.19.68,2.59.51,2.71-.19.14-3.93.66-4.6.74-1.96.23-1.69-2.38-.95-2.83.34-.21,4.75-.81,5.03-.61Z" />
    <path class="cls-1" d="M163.71,626.31c.26,0,4.02,2.84,4.16,3.17.22.49-.72,1.89-1.16,2.11-.46.22-4.49-2.45-4.58-2.84-.13-.55,1.2-2.44,1.58-2.44Z" />
    <path class="cls-1" d="M77.7,523.28c.35.03,2.66,4.68,1.6,5.69-2.14,2.05-3.72-2.68-3.69-4.17.02-.83,1.55-1.56,2.08-1.52Z" />
    <path class="cls-1" d="M425.65,644.23l.76,2.28c-.76.4-4.43,3.05-4.85,2.75-.18-.13-1.14-2.2-.73-2.77.32-.44,4.29-2.64,4.82-2.25Z" />
    <path class="cls-1" d="M110.81,590.46c.3,0,3.34,3.56,3.41,3.89.11.48-1.21,1.88-1.63,1.98-.38.09-3.78-3.63-3.84-3.9-.14-.63,1.91-1.97,2.06-1.96Z" />
    <path class="cls-1" d="M317.59,190.63c.08.06.05,1.62-.07,2.01-.35,1.09-2.82.85-3.85.76-3.06-.28-1.48-.75-1.6-3.23l5.52.46Z" />
    <path class="cls-1" d="M534.71,530.13l-2.28,4.86-2.78-.73,2.29-4.86c.75-.55,1.84.81,2.77.73Z" />
    <path class="cls-1" d="M428.42,648.83l.76,2.28-4.85,2.75c-2.39-3.12,1.38-4.5,4.1-5.03Z" />
    <path class="cls-1" d="M494,273.44l3.9,4.36-2.13,1.57c-.68.15-2.84-3.37-3.83-3.87l2.06-2.06Z" />
    <path class="cls-1" d="M531.48,523.67c-.45.32-2.56-.53-2.71-1.19-.05-.21,1.26-3.71,1.43-4.01.86-1.5,2.98-.24,3.03.36.02.26-1.54,4.69-1.75,4.84Z" />
    <path class="cls-1" d="M294.59,676.86v2.76c-3.15-.19-6.28,1.29-5.52-3.22l5.52.46Z" />
    <path class="cls-1" d="M537.89,520.04c.29.42-1.12,5.31-1.35,5.48-.19.14-2.3-.57-2.56-.9-.16-.21,1.01-4.89,1.21-5.07.24-.21,2.56.28,2.71.49Z" />
    <path class="cls-1" d="M256.4,675.48l.47-2.75c1.14.12,5.11.17,5.46,1.19,1.35,4-4.01,1.43-5.93,1.55Z" />
    <path class="cls-1" d="M66.86,383.36l-2.74-.45,1.39-5.52c4.44.36,1.93,3.07,1.35,5.97Z" />
    <path class="cls-1" d="M317.58,188.33c-.09.12-1.54-.43-2.06-.47-3.04-.22-3.87,1.18-3.46-2.76l5.54.21c.71.25.08,2.88-.02,3.01Z" />
    <path class="cls-1" d="M444.56,624.44s.56-.06.86-.28c.54-.41,2.88-2.41,3.11-2.46.67-.16,1.93,1.52,1.9,2.04-.02.38-3.99,3.43-4.26,3.44-.16,0-1.88-2.34-1.6-2.74Z" />
    <path class="cls-1" d="M546.2,493.77l-2.74-.46c.65-2.01.2-6.47,3.1-5.17,1.87.84-.31,3.94-.36,5.62Z" />
    <path class="cls-1" d="M185.03,221.06l.94,1.63c.2.79-4.31,3.31-4.55,3.17-.54-.33-1.66-1.92-1.18-2.57.33-.45,4.23-2.63,4.8-2.22Z" />
    <path class="cls-1" d="M61.79,381.97l-2.71-.45c.69-2.77.28-7.27,4.06-4.36l-1.34,4.82Z" />
    <path class="cls-1" d="M261.42,678.75c.27.31-.07,2.08.04,2.72l-5.52-.46c.02-.8-.3-2.97.73-3.17.24-.05,4.59.73,4.75.91Z" />
    <path class="cls-1" d="M81.6,344.27c-.23-.3,2.38-7.33,4.4-4.14.41.65-1.22,4.56-1.62,4.87-.36.28-2.69-.62-2.78-.73Z" />
    <polygon class="cls-1" points="294.13 681.92 294.12 685.15 288.6 684.69 288.6 681.92 294.13 681.92" />
    <path class="cls-1" d="M182.29,216.45c.18.13,1.09,1.83.78,2.25-.3.4-4.61,2.93-4.85,2.75l-.9-2.73c1.19-.11,4.09-2.9,4.98-2.28Z" />
    <path class="cls-1" d="M537,485.51c.25.17-.73,5.29-.94,5.47-.24.2-1.89.08-2.29-.17-1.05-.68.53-5.6,1.15-5.65l2.09.35Z" />
    <path class="cls-1" d="M73.29,491.51l1.38,4.76c-.15.66-2.02,1.1-2.72,1.19l-1.37-5.5,2.71-.45Z" />
    <polygon class="cls-1" points="77.92 347.04 76.03 352.04 73.32 351.63 75.14 346.31 77.92 347.04" />
    <path class="cls-1" d="M137.03,610.63l3.9,3.9c-2.45,3.53-3.82-.05-5.96-1.84l2.06-2.06Z" />
    <path class="cls-1" d="M489.92,277.14c.91-.2,2.78,3.37,3.85,3.88l-2.06,2.06-3.42-3.96c-.11-.48,1.21-1.88,1.64-1.98Z" />
    <path class="cls-1" d="M132.98,614.81c1.34-.35,3.18,2.61,4.28,3.4l-2.06,2.06-3.9-3.9c.5-.41,1.1-1.41,1.69-1.56Z" />
    <path class="cls-1" d="M467.38,253.68c.49-.11,3.73,3.08,3.82,3.48.11.5-1.24,1.89-1.64,1.98-.49.11-3.73-3.08-3.82-3.48-.11-.5,1.24-1.89,1.64-1.98Z" />
    <path class="cls-1" d="M439.78,238.5c.66-.19,4.23,2.15,4.57,2.72.27.45-.77,1.87-1.17,2.11-.34.2-4.16-2.08-4.41-2.56-.33-.65.37-2.09,1.01-2.27Z" />
    <path class="cls-1" d="M157.1,248.07l-.91-1.64c-.17-.69,3.58-3.67,4.54-3.16.31.16,1.37,1.71,1.35,1.88-.02.29-4.36,3.34-4.98,2.92Z" />
    <path class="cls-1" d="M470.17,602.85c1.03-.27,2.21.88,1.93,1.93-.13.5-3.31,3.62-3.8,3.51-.26-.06-1.65-1.47-1.65-1.58,0-.26,3.06-3.74,3.52-3.86Z" />
    <path class="cls-1" d="M158.87,241.22l-4.37,2.69c-.38-.02-1.52-1.61-1.5-1.99.02-.38,3.99-3.43,4.26-3.44.16,0,1.88,2.33,1.6,2.74Z" />
    <path class="cls-1" d="M151.07,239.85l-1.39-2.75,4.12-2.59c4.27,1.7-.7,4.02-2.73,5.34Z" />
    <path class="cls-1" d="M105.1,588.05l-2.79-4.34,2.05-1.52c.36,0,3.41,4.02,3.4,4.29,0,.4-2.18,1.92-2.67,1.58Z" />
    <path class="cls-1" d="M248.15,668.09l.45-2.71c2.77.69,7.27.28,4.36,4.06l-4.82-1.34Z" />
    <path class="cls-1" d="M251.34,676.88l-.46,2.74c-2.66-.67-7.51-.4-4.39-4.04l4.84,1.3Z" />
    <path class="cls-1" d="M338.28,195.69c-.16.2-4.86-.77-5-.98-.14-.21-.15-2.6-.06-2.7.21-.22,4.55.37,5.08.68.66.39.16,2.78-.02,3.01Z" />
    <path class="cls-1" d="M349.79,194.31v2.76c-2.73-.16-6.92.61-5.5-3.2l5.5.44Z" />
    <path class="cls-1" d="M454.97,630.45c.87-.14,1.7,1.5,1.33,2.25-.31.63-3.4,2.96-4.11,2.75-.65-.19-1.32-1.61-1-2.26.27-.55,3.2-2.63,3.78-2.73Z" />
    <path class="cls-1" d="M197.03,223.72l-4.76,1.91-1.14-2.11c2.32-1.48,5.85-4.46,5.91.2Z" />
    <path class="cls-1" d="M113.75,576.17c.2,1.65,2.92,3.04,2.14,4.55-1.47,2.83-4.79-2.2-4.74-3,.04-.55,1.83-2.04,2.61-1.55Z" />
    <path class="cls-1" d="M447.82,628.61c.13-.19,3.63-2.37,3.86-2.37.56,0,2.06,1.42,2.06,1.63,0,.31-3.92,3.37-4.36,3.34-.57-.04-2.04-1.87-1.55-2.6Z" />
    <path class="cls-1" d="M541.14,492.39l-2.73-.47c.66-2.72.38-7.48,4.07-4.36l-1.34,4.83Z" />
    <path class="cls-1" d="M358.03,204.39c-.67.6-4.39-.99-5.48-.88l.48-2.74c.36-.32,5.29.82,5.45,1.63l-.44,1.99Z" />
    <path class="cls-1" d="M534.7,372.81l1.29,4.84c-.06.59-2.03,1.07-2.65,1.13l-1.38-5.5,2.73-.47Z" />
    <path class="cls-1" d="M542.07,455.14l-.46,5.52h-2.76s.2-5.09.2-5.09c.48-.72,2.19-.38,3.02-.43Z" />
    <path class="cls-1" d="M191.54,211.33l.93,2.75c-1.46,0-3.81,2.44-5.07,1.64-3-1.9,2.57-4.01,4.14-4.4Z" />
    <path class="cls-1" d="M76.51,335.57c.53.72-1.89,7.53-4.37,4.11-.16-.21,1.8-4.66,2.09-4.87.18-.13,2.21.66,2.28.76Z" />
    <path class="cls-1" d="M360.77,191.6c.33.48.13,2.47-.69,2.68-.23.06-4.57-.76-4.76-.9-.18-.13-.23-2.38.74-2.7.66-.21,4.5.62,4.71.93Z" />
    <path class="cls-1" d="M172.61,222.44c.22.16,1.11,1.83.79,2.25-.12.16-3.08,1.94-3.45,2.09-1.73.67-1.69-.59-2.13-2.11.88-.53,3.93-2.84,4.8-2.23Z" />
    <path class="cls-1" d="M140.26,606.94c.44-.11,4.35,3.62,4.35,3.91,0,.11-1.42,1.53-1.66,1.58-.34.08-4.23-3.11-4.23-3.42l1.54-2.07Z" />
    <path class="cls-1" d="M492.81,288.19l2.8,4.34c-1.14.64-1.79,1.65-3.01.72-.17-.13-2.46-3.27-2.46-3.48,0-.4,2.18-1.91,2.67-1.58Z" />
    <path class="cls-1" d="M289.52,674.11v-2.76c1.25.23,5.01-.63,5.47.75,1.29,3.85-3.53,1.59-5.47,2.02Z" />
    <path class="cls-1" d="M524.56,525.55c.28.39-1.33,4.53-1.8,4.83-.7.45-2.15-.13-2.57-.71-.16-.21,1.8-4.66,2.09-4.87l2.28.75Z" />
    <path class="cls-1" d="M503.83,286.72l-1.98.97c-.26-.06-3.1-3.97-3.02-4.33l2.07-1.63c.58.95,3.59,4.05,2.93,5Z" />
    <path class="cls-1" d="M433.97,647.88l-.9-2.73,4.32-2.33c3.1,2.78-1.07,4.1-3.41,5.06Z" />
    <path class="cls-1" d="M317.13,195.69c.09.09.06,2.05-.07,2.47-.39,1.27-1.54.33-2.46.3-3.03-.12-3.26.9-3-2.76h5.52Z" />
    <path class="cls-1" d="M287.22,195.69l-.04,2.72c-.08.1-2.07.47-2.48.5-3.1.27-3.26.43-2.99-2.76l5.52-.46Z" />
    <path class="cls-1" d="M419.23,653.87c.13.09.68,2.34.43,2.7-.14.2-4.17,1.97-4.56,1.69-.47-.33-1.2-2.09-.88-2.53.16-.22,4.67-2.1,5.02-1.86Z" />
    <path class="cls-1" d="M267.02,682.35l.45-2.72c1.18.45,4.62.08,4.99,1.2,1.25,3.74-3.56,1.96-5.43,1.52Z" />
    <path class="cls-1" d="M137.95,261.48c.15,0,1.67,1.46,1.55,1.98-.12.58-3.11,3.99-3.39,3.99l-2.06-2.06,3.9-3.9Z" />
    <path class="cls-1" d="M114.55,587.19c.73-.16,3.77,3.46,3.77,3.88,0,.19-1.32,1.52-1.59,1.58-.48.11-3.73-3.08-3.82-3.48-.11-.5,1.24-1.89,1.64-1.98Z" />
    <path class="cls-1" d="M176.36,229.26c-.38.27-4.13,2.28-4.38,2.32-.75.13-1.56-1.96-1.55-2.09.03-.43,3.71-2.4,4.32-2.97l1.61,2.74Z" />
    <path class="cls-1" d="M410.07,648.79c-.37-.27-.6-1.94-.07-2.55.32-.37,4-1.98,4.2-1.84,3.43,2.49-3.42,4.9-4.12,4.39Z" />
    <path class="cls-1" d="M339.19,190.15c-.19.26-4.5-.34-5.06-.66-.74-.42-.1-2.07.25-2.56.36-.5,4.17.21,4.84.72.42.31.03,2.4-.04,2.5Z" />
    <path class="cls-1" d="M68.7,355.8c.58.65-1.32,4.43-1.36,5.5l-2.76-.93c.29-1.04,1.18-4.81,2.12-4.99l2,.42Z" />
    <path class="cls-1" d="M541.57,509.46c.21.3.01,1.04-.06,1.45-.53,2.79-.99,4.22-4.04,3.11l1.4-5.04c.24-.21,2.56.28,2.71.49Z" />
    <path class="cls-1" d="M431.22,643.28l-.93-2.75c1.97-.11,4.8-4.13,5.46-.59.29,1.54-3.15,3.02-4.53,3.35Z" />
    <rect class="cls-1" x="58.6" y="441.34" width="2.76" height="5.52" />
    <path class="cls-1" d="M487.32,265.16s.1.72.45,1.14c.7.82,2.18,1.73,2.34,2.78.1.65-1.35,1.45-1.72,1.54-.67.16-3.23-2.66-3.3-3.47-.06-.69,1.67-2.39,2.23-1.99Z" />
    <path class="cls-1" d="M535.17,513.1l-2.76-.93c1.33-2.48.84-6.96,4.55-3.92l-1.79,4.84Z" />
    <path class="cls-1" d="M73.76,357.64c.22.25-.07,1.39-.18,1.84-.61,2.58-1.18,4-3.94,2.73l1.38-5.06,2.74.48Z" />
    <polygon class="cls-1" points="122.31 595.45 125.75 599.35 123.69 601.41 120.26 597.51 122.31 595.45" />
    <path class="cls-1" d="M273.43,675.02c.15.12.22,2.37-.75,2.7-.59.2-4.47-.2-4.75-.41-.18-.13-.24-2.38.74-2.7.23-.07,4.58.27,4.77.42Z" />
    <path class="cls-1" d="M118.85,599.13s.11.73.46,1.14c.5.59,2.18,1.91,2.28,2.37.11.5-1.24,1.89-1.64,1.98-.87.19-3.29-2.88-3.41-3.91-.09-.8,2.08-1.74,2.31-1.58Z" />
    <path class="cls-1" d="M483.66,274.35s-.1-.72-.45-1.14c-.5-.59-2.18-1.91-2.28-2.37-.11-.5,1.24-1.89,1.64-1.98.73-.16,3.26,2.78,3.33,3.5.06.69-1.67,2.39-2.23,1.99Z" />
    <path class="cls-1" d="M244.44,197.07c.12.16.54,2.42.27,2.78-.35.48-4.73,1.57-4.87,1.36l-.46-2.76,5.06-1.39Z" />
    <path class="cls-1" d="M110.42,293.28c.6-.11,2.08.69,1.96,1.47-.1.6-2.46,3.9-2.94,3.9l-2.05-1.52c-.03-.32,2.41-3.73,3.04-3.85Z" />
    <path class="cls-1" d="M82.05,532.88c.19.14,1.86,4.09,1.81,4.32-.14.64-1.8,1.29-2.45,1.23-.25-.02-2.27-4.42-2.11-4.63l2.75-.93Z" />
    <path class="cls-1" d="M471.06,250c.25-.06,3.75,2.78,3.83,3.01.32,1.05-.98,1.82-1.58,2.46l-3.9-3.9c.47-.36,1.17-1.47,1.66-1.58Z" />
    <path class="cls-1" d="M403.2,220.48c-.29-.41.23-2.7.68-2.74.64-.05,4.7,1.76,4.72,2.08.05.59-.71,2.04-1.55,2.12-.47.04-3.74-1.29-3.86-1.46Z" />
    <path class="cls-1" d="M542.01,418.73c-.24.35-2.04.81-2.49.09-.12-.2-.79-4.41-.66-4.6.19-.27,2.5-.82,3-.04.31.47.36,4.24.14,4.56Z" />
    <path class="cls-1" d="M61.82,451.46l.47,5.06c-2.46.07-2.95.53-3.23-2.06-.32-3.07-.35-3.3,2.76-3Z" />
    <path class="cls-1" d="M202.58,652.48c-.11.14-2.7-1.38-3.23-1.62-1.07-.49-1.85.27-1.16-1.63.43-1.19.87-1.53,2.11-1.16.44.13,2.83,1.38,3.02,1.63.25.34-.52,2.49-.73,2.77Z" />
    <path class="cls-1" d="M522.82,332.38c.11-.15,1.79-1.13,2.25-.79.38.28,2.27,4.16,2.09,4.41-2.32,3.2-4.88-2.86-4.34-3.62Z" />
    <polygon class="cls-1" points="547.13 413.27 547.58 418.33 544.83 418.8 544.37 413.28 547.13 413.27" />
    <path class="cls-1" d="M364.96,663.52c.19.14.66,2.27.27,2.79-.23.31-4.13,1.39-4.43,1.16-.33-.26-1.04-2.38-.9-2.57l5.06-1.39Z" />
    <path class="cls-1" d="M496.52,577.04c-3.5-.55-2.22-2.96-.45-4.84,1.06-1.13,2.83-.17,2.78.92-.05,1.18-2.22,2.57-2.33,3.92Z" />
    <path class="cls-1" d="M246.28,205.34c-.18.13-4.1.96-4.31.9-.8-.2-.92-1.8-.77-2.45.16-.67,3.85-1.17,4.62-1.67l.46,3.21Z" />
    <path class="cls-1" d="M83.9,531.51l2.15-.88c.95-.09,2.82,3.65,2.25,4.56-.26.42-1.58,1.11-2.11.72-.2-.15-2.49-4.25-2.29-4.4Z" />
    <path class="cls-1" d="M520.45,333.69c.19.14,1.86,4.09,1.81,4.32-.14.64-1.8,1.29-2.45,1.23-.22-.02-2.02-3.73-2.01-3.95.03-.55,2.24-1.91,2.65-1.6Z" />
    <path class="cls-1" d="M201.18,654.36l-.44,2.73c-.17.24-4.9-1.63-5.06-1.85-.18-.25.41-1.55.69-1.84,1.37-1.39,3.31.76,4.81.96Z" />
    <path class="cls-1" d="M103.28,294.54c-.55-.8,1.27-2.61,1.81-3.39.29-.41.39-1.12.44-1.15.44-.32,2.31,1.23,2.75,1.61l-2.75,3.72c-.29.4-2.17-.68-2.24-.78Z" />
    <path class="cls-1" d="M410.48,214.59l-.44,2.73c-.17.24-4.9-1.63-5.06-1.85-.18-.25.41-1.55.69-1.84,1.37-1.39,3.31.76,4.81.96Z" />
    <path class="cls-1" d="M67.34,456.06h-2.76s-.46-5.06-.46-5.06c4.29-.69,3.13,1.9,3.22,5.06Z" />
    <path class="cls-1" d="M501.08,579.76c-.54.37-2.74-.94-2.74-1.13,0-.66,2.68-4.3,3.02-4.3.13,0,1.7,1.28,2.05,1.56l-2.33,3.87Z" />
    <path class="cls-1" d="M361.81,670.02c.29-.42,3.78-.94,4.53-1.44l.9,2.54c-.04.44-4.38,1.64-4.77,1.57-.78-.16-1-2.19-.67-2.67Z" />
  </g>
  <g>
    <path class="cls-1" d="M289.47,446.14s-4.86,1.05-7.98,4.83c-1.62,1.96-2.02,3.75-2.13,4.3-.05.26-.23,1.24-.1,2.77.24,2.78,1.28,4.84,1.66,5.59,2.25,4.36,4.13,7.08,5.07,9.1,2.42,5.16,5,10.68,2.95,15.83-1.12,2.8-3.2,4.35-4.27,5.24-6.15,5.14-15.1,3.57-18.55,2.37-.47-.16-2.5-.89-4.62-1.68-3.08-1.14-2.97-1.15-4.41-1.66-1.47-.52-4.17-1.43-7.59-2.18-1.8-.39-2.81-.52-4.03-.4-1.09.11-2.53.27-3.66,1.39-.72.72-1.03,1.54-1.18,2.04-.14,1.15-.19,2.71.19,4.48.35,1.68.94,2.87,1.15,3.28.7,1.35,1.49,2.27,1.88,2.71,7.74,8.58,16.86,16.09,16.86,16.09,8.85,7.28,13.29,10.92,14.88,14.83.69,1.69,3.42,9.12-.11,16.71-.59,1.27-2.47,4.94-6.52,7.72-2.58,1.77-7.25,4.01-18.44,3-5.18-.47-9.07-1.4-21.72-5.3-17.21-5.31-23.11-7.64-27-4.45-1.75,1.43-2.98,3.89-3.17,6.25-.29,3.79,2.16,6.79,3.4,8.27,8.87,10.56,13.24,15.89,18.8,19.78,6.83,4.77,16.26,9.84,23.04,15.52.99.83,3.05,2.62,4.47,5.64,1.4,2.98,1.54,5.82,1.48,7.58-.12.7-.33,1.66-.71,2.77-.25.74-.93,2.75-2.19,4.46-1.89,2.56-4.48,3.62-6.16,4.28-1.26.5-3.75,1.32-8.49,1.28-7.53-.07-13.44-2.24-16.86-3.53-2.3-.87-4.62-1.91-8.53-3.66-1.98-.89-3.67-1.64-5.76-2.67-2.29-1.12-5.36-2.72-8.94-4.85,1.81.31,8.64,1.26,14.62-3.01,1.4-1,6.32-4.52,6.33-9.12,0-2.5-1.43-6.36-2.53-8.72h0c-.1-.15-6.56-9.94-13.51-18.66-6.31-7.91-6.49-6.75-12.96-14.89-7.92-9.95-10.4-15.13-11.4-17.38-2.91-6.54-5.23-11.96-2.88-17.12,1.5-3.29,4.92-6.54,8.87-6.84,2.2-.16,3.98.63,7.99,3.16,6.1,3.84,10.04,7.07,13.06,9.41,2.96,2.29,7.71,5.94,13.84,9.48,5.69,3.28,10.32,5.17,14.89,7.01,7.19,2.89,10.79,4.31,16.14,5.18,5.04.82,11.07,1.72,16.82-1.42,1.68-.92,4.64-2.59,5.98-6.05,1.39-3.59.19-7-.43-8.68-1.35-3.67-3.21-4.45-10.38-11.28-4.13-3.94-7.25-7.22-9.76-9.86-2.27-2.39-3.95-4.15-6.12-6.67-5.21-6-8.29-10.52-9.28-12-3.94-5.88-4.95-8.63-5.45-10.25-.95-3.08-1.73-5.7-.52-8.32,1.82-3.96,6.54-4.94,6.74-4.98,2.35-.44,4.96.03,12.93,5.27,7.8,5.13,8.4,6.71,14.72,10.48,7.6,4.52,11.19,4.89,12.58,4.98,2.13.13,7.23.45,10.69-2.74,4.18-3.85,4.28-10.31,3.14-14.21-.29-.99-1.23-2.74-3.12-6.23-2.98-5.53-3.54-5.58-4.27-7.71-.37-1.09-2.16-6.37.22-10.67,2.92-5.27,10.35-5.87,10.36-5.86Z" />
    <path class="cls-1" d="M275.73,596.48c4.04-4.23,11.09-3.98,15.42-4.91,2.73-.58,5.41-3.25,7.78-6.81,2.21-3.04,4.5-7.94,4.19-14.58-.08-.54-.16-1.09-.22-1.63.05.23.11.45.16.68-.02-.25-.04-.49-.06-.75.07.41.13.82.18,1.23,1.29,5.46,3.03,10.46,5.46,12.65.69.43,1.48.51,2.26.66,2.5.37,6.21.8,8.71,1.26,2.95.75,5.94,1.88,8.75,4.43,1.52,1.12,3.17,3.65,4.04,7.25,1.42,4.87.95,10.73-1.37,13.03-4.04,4.23-11.09,3.98-15.42,4.91-2.73.58-5.41,3.25-7.78,6.81-2.21,3.04-4.5,7.94-4.19,14.58.08.54.16,1.09.22,1.63-.05-.23-.11-.45-.16-.68.02.25.04.49.06.75-.07-.41-.13-.82-.18-1.23-1.29-5.46-3.03-10.46-5.46-12.65-.69-.43-1.48-.51-2.26-.66-2.5-.37-6.21-.8-8.71-1.26-2.95-.75-5.94-1.88-8.75-4.43-1.52-1.12-3.17-3.64-4.04-7.25-1.42-4.87-.95-10.73,1.37-13.03ZM311.01,612.57c2.71-3.29,5.8-3.77,8.74-4.51,2.46-.63,6.1-1.39,8.44-2.97.89-.58,1.81-1.06,2.44-2.37.12-.3.15-.48.18-.72.15-1.59-.96-5.07-1.53-5.96-3.64-4.76-7.92-6.23-12.04-7.54-2.1-.62-4.39-1.35-6.49-2.14-2.87-.31-5.12-5.08-6.55-10.8.69,4.56,1.66,8.63,2.96,11.87.83,2.08,1.71,3.58,2.55,5.85,1.5,3.76,1.46,10.11.47,14.51-.58,2.78-1.34,5.49-2.37,7.37-1.41,2.39-2.68,4.24-3.33,8.36-.13.72-.23,1.47-.33,2.25,1.45-5.9,4.59-10.35,6.87-13.2ZM303.58,628.77c-.01-.38-.03-.77-.03-1.14,0,.53-.02,1.07-.02,1.62l.06-.49ZM277.48,609.41c3.64,4.76,7.92,6.23,12.04,7.54,2.1.62,4.39,1.35,6.49,2.14,3.54.39,6.14,7.53,7.41,14.88-.06-1.02-.07-2.02-.02-2.98-.69-5.19-1.73-9.82-3.18-13.42-.83-2.08-1.71-3.58-2.55-5.85-1.5-3.76-1.46-10.11-.47-14.51.58-2.78,1.34-5.49,2.37-7.37,1.41-2.39,2.68-4.24,3.33-8.36.44-2.44.64-5.23.76-8.11.11,1.98.22,3.86.32,5.61-.02-1.46-.05-3.04-.08-4.7-.21-.92-.39-1.86-.56-2.8.62,10.07-4.36,17.35-7.6,21.4-2.71,3.29-5.8,3.77-8.74,4.51-2.46.63-6.1,1.39-8.44,2.97-.89.58-1.81,1.06-2.44,2.37-.12.3-.15.48-.18.72-.15,1.59.96,5.07,1.53,5.96Z" />
    <path class="cls-1" d="M311.91,424.62c.1-.16,3.69,3.22,9.12,3.32,3.55.06,6.13-1.31,6.77-1.67,1.08-.61,5.01-3.01,6.18-7.7,1.03-4.12-.67-7.62-1.65-9.62-2.31-4.74-4.46-4.19-6.18-8.61-1.65-4.23-1.02-8.18-.75-9.73.33-1.88.62-3.49,1.84-5.05,2.51-3.2,6.79-3.37,7.79-3.39,2.78.78,6.68,2.13,10.98,4.54,6.58,3.71,10.91,8.14,12.7,10.1,5.67,6.22,5.65,9.32,11.57,13.89,3.01,2.33,5.49,4.25,7.73,3.57,4.36-1.32,6.03-11.98,4.98-20.65-.4-3.3-2.11-12.11-25.44-46.53-2.81-4.15-7.54-11.3-5.07-16.9,1.13-2.57,3.47-4.1,4.19-4.53,3.91-2.36,8.42-1.69,11.84-.87,18.41,4.43,36.48,19.37,36.48,19.37,10.09,8.34,15.14,12.51,18.99,17.59,4.75,6.26,8.69,13.57,16.54,15.54,3.21.8,4.9.18,5.81-.34,4.07-2.37,3.75-9.68,3.55-13.35-.46-8.14-3.06-14.11-6.58-21.67-10.87-23.34-15.99-35.15-17.23-36.72-1.56-1.97-4.67-5.77-5.28-11.3-.02-.15-.04-.38-.07-.68-.03-.4-.44-7.34,3.81-11.85,2.96-3.14,6.92-3.78,8.47-4,13.56-1.98,26.84,12.82,33.64,20.4,3.64,4.05,6.22,7.62,7.72,9.8-1.54-.77-3.9-1.79-6.92-2.41-2.85-.59-6.38-1.33-10.48,0-1.4.46-4.57,1.53-6.99,4.63-2.82,3.61-2.82,7.64-2.8,9.24.02,1.54.7,3.75,2.07,8.17,1.05,3.39,1.9,5.76,2.36,7.09.74,2.15,1.08,3.22,4.75,15.33,2.2,7.25,3.3,10.88,3.32,10.94,1.35,4.94,3.69,13.65,3.91,24.54.19,9.15.25,16.68-4.77,23.04-1.51,1.92-4.35,5.54-8.21,5.57-6.81.06-12.28-11.1-13.95-14.49-.08-.16-1.33-3.15-3.83-9.13-3.42-8.19-3.46-8.3-3.83-9.1-3.19-6.78-7.96-13.03-7.96-13.03-7.62-9.89-16.62-15.72-18.22-16.74-4.31-2.74-7.49-4.07-11.15-4.5-2.57-.3-6.23-.72-9.43,1.6-3.61,2.61-4.17,7.08-4.35,8.43-.65,5.03,1.42,8.45,4.55,14.93,4.63,9.59,6.94,14.39,8.36,20.45.77,3.29.89,8.78,1.21,19.75.14,4.69.15,8.64-1.62,13.28-1.61,4.21-3.74,6.51-4.23,7.03-1.32,1.38-5.99,6.3-10.67,5.27-3.72-.82-5.66-4.99-8.38-10.84-2.21-4.76-1.32-4.84-3.53-9.78-2.96-6.63-6.51-10.81-8.47-13.08-.63-.73-2.69-3.09-5.92-5.49-2.53-1.89-5.07-3.73-7.11-2.93-1.01.4-1.91,1.53-2.62,2.4-.71.87-1.15,1.66-1.37,2.07-.18.35-.78,1.53-1.15,3.26-.15.7-.27,1.53-.31,3.43-.05,2.36.07,4.19.15,5.22.36,4.99.57,4.64.52,5.86-.17,4.07-2.52,7.1-3.15,7.88-.71.89-3.97,4.74-9.13,5.31-7.51.82-13.24-5.96-13.11-6.17Z" />
    <path class="cls-1" d="M290.01,417.38c-.1-.16-3.69,3.22-9.12,3.32-3.55.06-6.13-1.31-6.77-1.67-1.08-.61-5.01-3.01-6.18-7.7-1.03-4.12.67-7.62,1.65-9.62,2.31-4.74,4.46-4.19,6.18-8.61,1.65-4.23,1.02-8.18.75-9.73-.33-1.88-.62-3.49-1.84-5.05-2.51-3.2-6.79-3.37-7.79-3.39-2.78.78-6.68,2.13-10.98,4.54-6.58,3.71-10.91,8.14-12.7,10.1-5.67,6.22-5.65,9.32-11.57,13.89-3.01,2.33-5.49,4.25-7.73,3.57-4.36-1.32-6.03-11.98-4.98-20.65.4-3.3,2.11-12.11,25.44-46.53,2.81-4.15,7.54-11.3,5.07-16.9-1.13-2.57-3.47-4.1-4.19-4.53-3.91-2.36-8.42-1.69-11.84-.87-18.41,4.43-36.48,19.37-36.48,19.37-10.09,8.34-15.14,12.51-18.99,17.59-4.75,6.26-8.69,13.57-16.54,15.54-3.21.8-4.9.18-5.81-.34-4.07-2.37-3.75-9.68-3.55-13.35.46-8.14,3.06-14.11,6.58-21.67,10.87-23.34,15.99-35.15,17.23-36.72,1.56-1.97,4.67-5.77,5.28-11.3.02-.15.04-.38.07-.68.03-.4.44-7.34-3.81-11.85-2.96-3.14-6.92-3.78-8.47-4-13.56-1.98-26.84,12.82-33.64,20.4-3.64,4.05-6.22,7.62-7.72,9.8,1.54-.77,3.9-1.79,6.92-2.41,2.85-.59,6.38-1.33,10.48,0,1.4.46,4.57,1.53,6.99,4.63,2.82,3.61,2.82,7.64,2.8,9.24-.02,1.54-.7,3.75-2.07,8.17-1.05,3.39-1.9,5.76-2.36,7.09-.74,2.15-1.08,3.22-4.75,15.33-2.2,7.25-3.3,10.88-3.32,10.94-1.35,4.94-3.69,13.65-3.91,24.54-.19,9.15-.25,16.68,4.77,23.04,1.51,1.92,4.35,5.54,8.21,5.57,6.81.06,12.28-11.1,13.95-14.49.08-.16,1.33-3.15,3.83-9.13,3.42-8.19,3.46-8.3,3.83-9.1,3.19-6.78,7.96-13.03,7.96-13.03,7.62-9.89,16.62-15.72,18.22-16.74,4.31-2.74,7.49-4.07,11.15-4.5,2.57-.3,6.23-.72,9.43,1.6,3.61,2.61,4.17,7.08,4.35,8.43.65,5.03-1.42,8.46-4.55,14.93-4.63,9.59-6.94,14.39-8.36,20.45-.77,3.29-.89,8.78-1.21,19.75-.14,4.69-.15,8.64,1.62,13.28,1.61,4.21,3.74,6.51,4.23,7.03,1.32,1.38,5.99,6.3,10.67,5.27,3.72-.82,5.66-4.99,8.38-10.84,2.21-4.76,1.32-4.84,3.53-9.78,2.96-6.63,6.51-10.81,8.47-13.08.63-.73,2.69-3.09,5.92-5.49,2.53-1.89,5.07-3.73,7.11-2.93,1.01.4,1.91,1.53,2.62,2.4.71.87,1.15,1.66,1.37,2.07.18.35.78,1.53,1.15,3.26.15.7.27,1.53.31,3.43.05,2.36-.07,4.19-.15,5.22-.36,4.99-.57,4.64-.52,5.86.17,4.07,2.52,7.1,3.15,7.88.71.89,3.97,4.74,9.13,5.31,7.51.82,13.24-5.96,13.11-6.17Z" />
    <path class="cls-1" d="M310.45,453.14s4.86,1.05,7.98,4.83c1.62,1.96,2.02,3.75,2.13,4.3.05.26.23,1.24.1,2.77-.24,2.78-1.28,4.84-1.66,5.59-2.25,4.36-4.13,7.08-5.07,9.1-2.42,5.16-5,10.68-2.95,15.83,1.12,2.8,3.2,4.35,4.27,5.24,6.15,5.14,15.1,3.57,18.55,2.37.47-.16,2.5-.89,4.62-1.68,3.08-1.14,2.97-1.15,4.41-1.66,1.47-.52,4.17-1.43,7.59-2.18,1.8-.39,2.81-.52,4.03-.4,1.09.11,2.53.27,3.66,1.39.72.72,1.04,1.54,1.18,2.04.14,1.15.19,2.71-.19,4.48-.35,1.68-.94,2.87-1.15,3.28-.7,1.35-1.49,2.27-1.88,2.71-7.74,8.58-16.86,16.09-16.86,16.09-8.85,7.28-13.29,10.92-14.88,14.83-.69,1.69-3.42,9.12.11,16.71.59,1.27,2.47,4.94,6.52,7.72,2.58,1.77,7.25,4.01,18.44,3,5.18-.47,9.07-1.4,21.72-5.3,17.21-5.31,23.11-7.64,27-4.45,1.75,1.43,2.98,3.89,3.17,6.25.29,3.79-2.16,6.79-3.4,8.27-8.87,10.56-13.24,15.89-18.8,19.78-6.83,4.77-16.26,9.84-23.04,15.52-.99.83-3.05,2.62-4.47,5.64-1.4,2.98-1.54,5.82-1.48,7.58.12.7.33,1.66.71,2.77.25.74.93,2.75,2.19,4.46,1.89,2.56,4.48,3.62,6.16,4.28,1.26.5,3.75,1.32,8.49,1.28,7.53-.07,13.44-2.24,16.86-3.53,2.3-.87,4.62-1.91,8.53-3.66,1.98-.89,3.67-1.64,5.76-2.67,2.29-1.12,5.36-2.72,8.94-4.85-1.81.31-8.64,1.26-14.62-3.01-1.4-1-6.32-4.52-6.33-9.12,0-2.5,1.43-6.36,2.53-8.72h0c.1-.15,6.56-9.94,13.51-18.66,6.31-7.91,6.49-6.75,12.96-14.89,7.92-9.95,10.4-15.13,11.4-17.38,2.91-6.54,5.23-11.96,2.88-17.12-1.5-3.29-4.92-6.54-8.87-6.84-2.2-.16-3.98.63-7.99,3.16-6.1,3.84-10.04,7.07-13.06,9.41-2.96,2.29-7.71,5.94-13.84,9.48-5.69,3.28-10.32,5.17-14.89,7.01-7.19,2.89-10.79,4.31-16.14,5.18-5.04.82-11.07,1.72-16.82-1.42-1.68-.92-4.64-2.59-5.98-6.05-1.39-3.59-.19-7,.43-8.68,1.35-3.67,3.21-4.45,10.38-11.28,4.13-3.94,7.25-7.22,9.76-9.86,2.27-2.39,3.95-4.15,6.12-6.67,5.21-6,8.29-10.52,9.28-12,3.94-5.88,4.95-8.63,5.45-10.25.95-3.08,1.73-5.7.52-8.32-1.82-3.96-6.54-4.94-6.74-4.98-2.35-.44-4.96.03-12.93,5.27-7.8,5.13-8.4,6.71-14.72,10.48-7.6,4.52-11.19,4.89-12.58,4.98-2.13.13-7.23.45-10.69-2.74-4.18-3.85-4.28-10.31-3.14-14.21.29-.99,1.23-2.74,3.12-6.23,2.98-5.53,3.54-5.58,4.27-7.71.37-1.09,2.16-6.37-.22-10.67-2.92-5.27-10.35-5.87-10.36-5.86Z" />
    <path class="cls-1" d="M290.01,442.85c-.1.16-3.69-3.22-9.12-3.32-3.55-.06-6.13,1.31-6.77,1.67-1.08.61-5.01,3.01-6.18,7.7-1.03,4.12.67,7.62,1.65,9.62,2.31,4.74,4.46,4.19,6.18,8.61,1.65,4.23,1.02,8.18.75,9.73-.33,1.88-.62,3.49-1.84,5.05-2.51,3.2-6.79,3.37-7.79,3.39-2.78-.78-6.68-2.13-10.98-4.54-6.58-3.71-10.91-8.14-12.7-10.1-5.67-6.22-5.65-9.32-11.57-13.89-3.01-2.33-5.49-4.25-7.73-3.57-4.36,1.32-6.03,11.98-4.98,20.65.4,3.3,2.11,12.11,25.44,46.53,2.81,4.15,7.54,11.3,5.07,16.9-1.13,2.57-3.47,4.1-4.19,4.53-3.91,2.36-8.42,1.69-11.84.87-18.41-4.43-36.48-19.37-36.48-19.37-10.09-8.34-15.14-12.51-18.99-17.59-4.75-6.26-8.69-13.57-16.54-15.54-3.21-.8-4.9-.18-5.81.34-4.07,2.37-3.75,9.68-3.55,13.35.46,8.14,3.06,14.11,6.58,21.67,10.87,23.34,15.99,35.15,17.23,36.72,1.56,1.97,4.67,5.77,5.28,11.3.02.15.04.38.07.68.03.4.44,7.34-3.81,11.85-2.96,3.14-6.92,3.78-8.47,4-13.56,1.98-26.84-12.82-33.64-20.4-3.64-4.05-6.22-7.62-7.72-9.8,1.54.77,3.9,1.79,6.92,2.41,2.85.59,6.38,1.33,10.48,0,1.4-.46,4.57-1.53,6.99-4.63,2.82-3.61,2.82-7.64,2.8-9.24-.02-1.54-.7-3.75-2.07-8.17-1.05-3.39-1.9-5.76-2.36-7.09-.74-2.15-1.08-3.22-4.75-15.33-2.2-7.25-3.3-10.88-3.32-10.94-1.35-4.94-3.69-13.65-3.91-24.54-.19-9.15-.25-16.68,4.77-23.04,1.51-1.92,4.35-5.54,8.21-5.57,6.81-.06,12.28,11.1,13.95,14.49.08.16,1.33,3.15,3.83,9.13,3.42,8.19,3.46,8.3,3.83,9.1,3.19,6.78,7.96,13.03,7.96,13.03,7.62,9.89,16.62,15.72,18.22,16.74,4.31,2.74,7.49,4.07,11.15,4.5,2.57.3,6.23.72,9.43-1.6,3.61-2.61,4.17-7.08,4.35-8.43.65-5.03-1.42-8.45-4.55-14.93-4.63-9.59-6.94-14.39-8.36-20.45-.77-3.29-.89-8.78-1.21-19.75-.14-4.69-.15-8.64,1.62-13.28,1.61-4.21,3.74-6.51,4.23-7.03,1.32-1.38,5.99-6.3,10.67-5.27,3.72.82,5.66,4.99,8.38,10.84,2.21,4.76,1.32,4.84,3.53,9.78,2.96,6.63,6.51,10.81,8.47,13.08.63.73,2.69,3.09,5.92,5.49,2.53,1.89,5.07,3.73,7.11,2.93,1.01-.4,1.91-1.53,2.62-2.4.71-.87,1.15-1.66,1.37-2.07.18-.35.78-1.53,1.15-3.26.15-.7.27-1.53.31-3.43.05-2.36-.07-4.19-.15-5.22-.36-4.99-.57-4.64-.52-5.86.17-4.07,2.52-7.1,3.15-7.88.71-.89,3.97-4.74,9.13-5.31,7.51-.82,13.24,5.96,13.11,6.17Z" />
    <path class="cls-1" d="M312.45,421.32s4.86-1.05,7.98-4.83c1.62-1.96,2.02-3.75,2.13-4.3.05-.26.23-1.24.1-2.77-.24-2.78-1.28-4.84-1.66-5.59-2.25-4.36-4.13-7.08-5.07-9.1-2.42-5.16-5-10.68-2.95-15.83,1.12-2.8,3.2-4.35,4.27-5.24,6.15-5.14,15.1-3.57,18.55-2.37.47.16,2.5.89,4.62,1.68,3.08,1.14,2.97,1.15,4.41,1.66,1.47.52,4.17,1.43,7.59,2.18,1.8.39,2.81.52,4.03.4,1.09-.11,2.53-.27,3.66-1.39.72-.72,1.04-1.54,1.18-2.04.14-1.15.19-2.71-.19-4.48-.35-1.68-.94-2.87-1.15-3.28-.7-1.35-1.49-2.27-1.88-2.71-7.74-8.58-16.86-16.09-16.86-16.09-8.85-7.28-13.29-10.92-14.88-14.83-.69-1.69-3.42-9.12.11-16.71.59-1.27,2.47-4.94,6.52-7.72,2.58-1.77,7.25-4.01,18.44-3,5.18.47,9.07,1.4,21.72,5.3,17.21,5.31,23.11,7.64,27,4.45,1.75-1.43,2.98-3.89,3.17-6.25.29-3.79-2.16-6.79-3.4-8.27-8.87-10.56-13.24-15.89-18.8-19.78-6.83-4.77-16.26-9.84-23.04-15.52-.99-.83-3.05-2.62-4.47-5.64-1.4-2.98-1.54-5.82-1.48-7.58.12-.7.33-1.66.71-2.77.25-.74.93-2.75,2.19-4.46,1.89-2.56,4.48-3.62,6.16-4.28,1.26-.5,3.75-1.32,8.49-1.28,7.53.06,13.44,2.24,16.86,3.53,2.3.87,4.62,1.91,8.53,3.66,1.98.89,3.67,1.64,5.76,2.67,2.29,1.12,5.36,2.72,8.94,4.85-1.81-.31-8.64-1.26-14.62,3.01-1.4,1-6.32,4.52-6.33,9.12,0,2.5,1.43,6.36,2.53,8.72h0c.1.15,6.56,9.94,13.51,18.66,6.31,7.91,6.49,6.75,12.96,14.89,7.92,9.95,10.4,15.13,11.4,17.38,2.91,6.54,5.23,11.96,2.88,17.12-1.5,3.29-4.92,6.54-8.87,6.84-2.2.16-3.98-.63-7.99-3.16-6.1-3.84-10.04-7.07-13.06-9.41-2.96-2.29-7.71-5.94-13.84-9.48-5.69-3.28-10.32-5.17-14.89-7.01-7.19-2.89-10.79-4.31-16.14-5.18-5.04-.82-11.07-1.72-16.82,1.42-1.68.92-4.64,2.59-5.98,6.05-1.39,3.59-.19,7,.43,8.68,1.35,3.67,3.21,4.45,10.38,11.28,4.13,3.94,7.25,7.22,9.76,9.86,2.27,2.39,3.95,4.15,6.12,6.67,5.21,6,8.29,10.52,9.28,12,3.94,5.88,4.95,8.63,5.45,10.25.95,3.08,1.73,5.7.52,8.32-1.82,3.96-6.54,4.94-6.74,4.98-2.35.44-4.96-.03-12.93-5.27-7.8-5.13-8.4-6.71-14.72-10.48-7.6-4.52-11.19-4.89-12.58-4.98-2.13-.13-7.23-.45-10.69,2.74-4.18,3.85-4.28,10.31-3.14,14.21.29.99,1.23,2.74,3.12,6.23,2.98,5.53,3.54,5.58,4.27,7.71.37,1.09,2.16,6.37-.22,10.67-2.92,5.27-10.35,5.87-10.36,5.86Z" />
    <path class="cls-1" d="M289.47,414.09s-4.86-1.05-7.98-4.83c-1.62-1.96-2.02-3.75-2.13-4.3-.05-.26-.23-1.24-.1-2.77.24-2.78,1.28-4.84,1.66-5.59,2.25-4.36,4.13-7.08,5.07-9.1,2.42-5.16,5-10.68,2.95-15.83-1.12-2.8-3.2-4.35-4.27-5.24-6.15-5.14-15.1-3.57-18.55-2.37-.47.16-2.5.89-4.62,1.68-3.08,1.14-2.97,1.15-4.41,1.66-1.47.52-4.17,1.43-7.59,2.18-1.8.39-2.81.52-4.03.4-1.09-.11-2.53-.27-3.66-1.39-.72-.72-1.03-1.54-1.18-2.04-.14-1.15-.19-2.71.19-4.48.35-1.68.94-2.87,1.15-3.28.7-1.35,1.49-2.27,1.88-2.71,7.74-8.58,16.86-16.09,16.86-16.09,8.85-7.28,13.29-10.92,14.88-14.83.69-1.69,3.42-9.12-.11-16.71-.59-1.27-2.47-4.94-6.52-7.72-2.58-1.77-7.25-4.01-18.44-3-5.18.47-9.07,1.4-21.72,5.3-17.21,5.31-23.11,7.64-27,4.45-1.75-1.43-2.98-3.89-3.17-6.25-.29-3.79,2.16-6.79,3.4-8.27,8.87-10.56,13.24-15.89,18.8-19.78,6.83-4.77,16.26-9.84,23.04-15.52.99-.83,3.05-2.62,4.47-5.64,1.4-2.98,1.54-5.82,1.48-7.58-.12-.7-.33-1.66-.71-2.77-.25-.74-.93-2.75-2.19-4.46-1.89-2.56-4.48-3.62-6.16-4.28-1.26-.5-3.75-1.32-8.49-1.28-7.53.07-13.44,2.24-16.86,3.53-2.3.87-4.62,1.91-8.53,3.66-1.98.89-3.67,1.64-5.76,2.67-2.29,1.12-5.36,2.72-8.94,4.85,1.81-.31,8.64-1.26,14.62,3.01,1.4,1,6.32,4.52,6.33,9.12,0,2.5-1.43,6.36-2.53,8.72h0c-.1.15-6.56,9.94-13.51,18.66-6.31,7.91-6.49,6.75-12.96,14.89-7.92,9.95-10.4,15.13-11.4,17.38-2.91,6.54-5.23,11.96-2.88,17.12,1.5,3.29,4.92,6.54,8.87,6.84,2.2.16,3.98-.63,7.99-3.16,6.1-3.84,10.04-7.07,13.06-9.41,2.96-2.29,7.71-5.94,13.84-9.48,5.69-3.28,10.32-5.17,14.89-7.01,7.19-2.89,10.79-4.31,16.14-5.18,5.04-.82,11.07-1.72,16.82,1.42,1.68.92,4.64,2.59,5.98,6.05,1.39,3.59.19,7-.43,8.68-1.35,3.67-3.21,4.45-10.38,11.28-4.13,3.94-7.25,7.22-9.76,9.86-2.27,2.39-3.95,4.15-6.12,6.67-5.21,6-8.29,10.52-9.28,12-3.94,5.88-4.95,8.63-5.45,10.25-.95,3.08-1.73,5.7-.52,8.32,1.82,3.96,6.54,4.94,6.74,4.98,2.35.44,4.96-.03,12.93-5.27,7.8-5.13,8.4-6.71,14.72-10.48,7.6-4.52,11.19-4.89,12.58-4.98,2.13-.13,7.23-.45,10.69,2.74,4.18,3.85,4.28,10.31,3.14,14.21-.29.99-1.23,2.74-3.12,6.23-2.98,5.53-3.54,5.58-4.27,7.71-.37,1.09-2.16,6.37.22,10.67,2.92,5.27,10.35,5.87,10.36,5.86Z" />
    <path class="cls-1" d="M309.91,449.85c.1.16,3.69-3.22,9.12-3.32,3.55-.06,6.13,1.31,6.77,1.67,1.08.61,5.01,3.01,6.18,7.7,1.03,4.12-.67,7.62-1.65,9.62-2.31,4.74-4.46,4.19-6.18,8.61-1.65,4.23-1.02,8.18-.75,9.73.33,1.88.62,3.49,1.84,5.05,2.51,3.2,6.79,3.37,7.79,3.39,2.78-.78,6.68-2.13,10.98-4.54,6.58-3.71,10.91-8.14,12.7-10.1,5.67-6.22,5.65-9.32,11.57-13.89,3.01-2.33,5.49-4.25,7.73-3.57,4.36,1.32,6.03,11.98,4.98,20.65-.4,3.3-2.11,12.11-25.44,46.53-2.81,4.15-7.54,11.3-5.07,16.9,1.13,2.57,3.47,4.1,4.19,4.53,3.91,2.36,8.42,1.69,11.84.87,18.41-4.43,36.48-19.37,36.48-19.37,10.09-8.34,15.14-12.51,18.99-17.59,4.75-6.26,8.69-13.57,16.54-15.54,3.21-.8,4.9-.18,5.81.34,4.07,2.37,3.75,9.68,3.55,13.35-.46,8.14-3.06,14.11-6.58,21.67-10.87,23.34-15.99,35.15-17.23,36.72-1.56,1.97-4.67,5.77-5.28,11.3-.02.15-.04.38-.07.68-.03.4-.44,7.34,3.81,11.85,2.96,3.14,6.92,3.78,8.47,4,13.56,1.98,26.84-12.82,33.64-20.4,3.64-4.05,6.22-7.62,7.72-9.8-1.54.77-3.9,1.79-6.92,2.41-2.85.59-6.38,1.33-10.48,0-1.4-.46-4.57-1.53-6.99-4.63-2.82-3.61-2.82-7.64-2.8-9.24.02-1.54.7-3.75,2.07-8.17,1.05-3.39,1.9-5.76,2.36-7.09.74-2.15,1.08-3.22,4.75-15.33,2.2-7.25,3.3-10.88,3.32-10.94,1.35-4.94,3.69-13.65,3.91-24.54.19-9.15.25-16.68-4.77-23.04-1.51-1.92-4.35-5.54-8.21-5.57-6.81-.06-12.28,11.1-13.95,14.49-.08.16-1.33,3.15-3.83,9.13-3.42,8.19-3.46,8.3-3.83,9.1-3.19,6.78-7.96,13.03-7.96,13.03-7.62,9.89-16.62,15.72-18.22,16.74-4.31,2.74-7.49,4.07-11.15,4.5-2.57.3-6.23.72-9.43-1.6-3.61-2.61-4.17-7.08-4.35-8.43-.65-5.03,1.42-8.45,4.55-14.93,4.63-9.59,6.94-14.39,8.36-20.45.77-3.29.89-8.78,1.21-19.75.14-4.69.15-8.64-1.62-13.28-1.61-4.21-3.74-6.51-4.23-7.03-1.32-1.38-5.99-6.3-10.67-5.27-3.72.82-5.66,4.99-8.38,10.84-2.21,4.76-1.32,4.84-3.53,9.78-2.96,6.63-6.51,10.81-8.47,13.08-.63.73-2.69,3.09-5.92,5.49-2.53,1.89-5.07,3.73-7.11,2.93-1.01-.4-1.91-1.53-2.62-2.4-.71-.87-1.15-1.66-1.37-2.07-.18-.35-.78-1.53-1.15-3.26-.15-.7-.27-1.53-.31-3.43-.05-2.36.07-4.19.15-5.22.36-4.99.57-4.64.52-5.86-.17-4.07-2.52-7.1-3.15-7.88-.71-.89-3.97-4.74-9.13-5.31-7.51-.82-13.24,5.96-13.11,6.17Z" />
    <path class="cls-1" d="M254.59,265.25c1.13-11.27,7.06-11.99,10.76-14.04,5.56-2.2,12.18-2.23,17.81-3.37,4.53-.99,8.8-5.3,12.67-11.09,1.99-2.86,3.89-6.13,5.26-10.53,1.18-3.69,1.78-8.56,1.54-13.47-.12-.8-.24-1.59-.35-2.38.08.37.17.74.26,1.11-.03-.41-.06-.82-.1-1.22.16.81.29,1.63.39,2.44,2.15,8.9,5.04,17.22,9.11,20.34,1.81.83,4.96,1.09,6.88,1.36,2.36.27,4.72.71,7.06,1.01,4.82.54,9.61,2.06,14.33,5.04,2.56,1.9,4.72,3.26,7.13,6.9,2.37,4.44,4.7,11.42,4.18,19.42-1.13,11.27-7.06,11.99-10.76,14.04-5.56,2.2-12.18,2.23-17.81,3.37-4.53.99-8.8,5.3-12.67,11.09-1.99,2.86-3.88,6.13-5.26,10.53-1.18,3.69-1.78,8.56-1.54,13.47.12.8.24,1.59.35,2.38-.08-.37-.17-.74-.26-1.11.03.41.06.82.1,1.22-.16-.81-.29-1.63-.39-2.44-2.15-8.9-5.04-17.22-9.11-20.34-1.81-.83-4.96-1.09-6.88-1.36-2.36-.27-4.72-.71-7.06-1.01-4.82-.54-9.61-2.06-14.33-5.04-2.56-1.9-4.72-3.26-7.13-6.9-2.37-4.44-4.69-11.42-4.18-19.42ZM260.9,276.87c3.78,5.18,8.39,7.76,12.69,9.79,6.33,2.75,12.9,3.88,19.25,6.69,4.84,1.89,8.28,12.43,10.2,23.23-.57-10.24,2.9-19.61,6.18-25.28,3.44-6.42,7.32-11.28,11.52-13.8,5.31-2.42,10.67-3.02,15.98-4.63,2.04-.7,10.47-3.58,10.98-8.05.18-2.75-1.42-7.88-2.5-9.7-3.78-5.18-8.39-7.76-12.69-9.79-6.33-2.75-12.9-3.88-19.25-6.69-4.84-1.89-8.28-12.43-10.2-23.24.57,10.24-2.9,19.61-6.18,25.28-3.44,6.42-7.32,11.28-11.52,13.8-5.31,2.42-10.67,3.02-15.98,4.63-2.04.7-10.47,3.58-10.98,8.05-.18,2.75,1.42,7.88,2.5,9.7Z" />
    <path class="cls-1" d="M275.82,259.44c4.04-4.23,11.09-3.98,15.42-4.91,2.73-.58,5.41-3.25,7.78-6.81,2.21-3.04,4.5-7.94,4.19-14.58-.08-.54-.16-1.09-.22-1.63.05.23.11.45.16.68-.02-.25-.04-.49-.06-.75.07.41.13.82.18,1.22,1.29,5.46,3.03,10.46,5.46,12.65.69.43,1.48.51,2.26.66,2.5.37,6.21.8,8.71,1.26,2.95.75,5.94,1.88,8.75,4.43,1.52,1.12,3.17,3.64,4.04,7.25,1.42,4.87.95,10.73-1.37,13.03-4.04,4.23-11.09,3.98-15.42,4.91-2.73.58-5.41,3.25-7.78,6.81-2.21,3.04-4.5,7.94-4.19,14.58.08.54.16,1.09.22,1.63-.05-.23-.11-.45-.16-.68.02.25.04.49.06.75-.07-.41-.13-.82-.18-1.22-1.29-5.46-3.03-10.46-5.46-12.65-.69-.43-1.48-.51-2.26-.66-2.5-.37-6.21-.8-8.71-1.26-2.95-.75-5.94-1.88-8.75-4.43-1.52-1.12-3.17-3.64-4.04-7.25-1.42-4.87-.95-10.73,1.37-13.03ZM311.1,275.53c2.71-3.29,5.8-3.77,8.74-4.51,2.46-.63,6.1-1.39,8.44-2.97.89-.58,1.81-1.06,2.44-2.37.12-.3.15-.48.18-.72.15-1.59-.96-5.07-1.53-5.96-3.64-4.76-7.92-6.23-12.04-7.54-2.1-.62-4.39-1.35-6.49-2.14-2.87-.31-5.12-5.08-6.55-10.8.69,4.56,1.66,8.63,2.96,11.87.83,2.08,1.71,3.58,2.55,5.85,1.5,3.76,1.46,10.11.47,14.51-.58,2.78-1.34,5.49-2.37,7.37-1.41,2.39-2.68,4.24-3.33,8.36-.13.72-.23,1.47-.33,2.25,1.45-5.9,4.59-10.35,6.87-13.2ZM303.68,291.73c-.01-.38-.03-.77-.03-1.14,0,.53-.02,1.07-.02,1.62l.06-.49ZM277.57,272.38c3.64,4.76,7.92,6.23,12.04,7.54,2.1.62,4.39,1.35,6.49,2.14,3.54.39,6.14,7.53,7.41,14.88-.06-1.02-.07-2.02-.02-2.98-.69-5.19-1.73-9.82-3.18-13.42-.83-2.08-1.71-3.58-2.55-5.85-1.5-3.76-1.46-10.11-.47-14.51.58-2.78,1.34-5.49,2.37-7.37,1.41-2.39,2.68-4.24,3.33-8.36.44-2.44.64-5.23.76-8.11.11,1.98.22,3.86.32,5.61-.02-1.46-.05-3.04-.08-4.7-.21-.92-.39-1.86-.56-2.8.62,10.07-4.36,17.35-7.6,21.4-2.71,3.29-5.8,3.77-8.74,4.51-2.46.63-6.1,1.39-8.44,2.97-.89.58-1.81,1.06-2.44,2.37-.12.3-.15.48-.18.72-.15,1.59.96,5.07,1.53,5.96Z" />
    <path class="cls-1" d="M118.26,374.54c11.27,1.13,11.99,7.06,14.04,10.76,2.2,5.56,2.23,12.18,3.37,17.81.99,4.53,5.3,8.8,11.09,12.67,2.86,1.99,6.13,3.89,10.53,5.26,3.69,1.18,8.56,1.78,13.47,1.54.8-.12,1.59-.24,2.38-.35-.37.08-.74.17-1.11.26.41-.03.82-.06,1.22-.1-.81.16-1.63.29-2.44.39-8.9,2.15-17.22,5.04-20.34,9.11-.83,1.81-1.09,4.96-1.36,6.88-.27,2.36-.71,4.72-1.01,7.06-.54,4.82-2.06,9.61-5.04,14.33-1.9,2.56-3.26,4.72-6.9,7.13-4.44,2.37-11.42,4.7-19.42,4.18-11.27-1.13-11.99-7.06-14.04-10.76-2.2-5.56-2.23-12.18-3.37-17.81-.99-4.53-5.3-8.8-11.09-12.67-2.86-1.99-6.13-3.88-10.53-5.26-3.69-1.18-8.56-1.78-13.47-1.54-.8.12-1.59.24-2.38.35.37-.08.74-.17,1.11-.26-.41.03-.82.06-1.22.1.81-.16,1.63-.29,2.44-.39,8.9-2.15,17.22-5.04,20.34-9.11.83-1.81,1.09-4.96,1.36-6.88.27-2.36.71-4.72,1.01-7.06.54-4.82,2.06-9.61,5.04-14.33,1.9-2.56,3.26-4.72,6.9-7.13,4.44-2.37,11.42-4.69,19.42-4.18ZM106.63,380.86c-5.18,3.78-7.76,8.39-9.79,12.69-2.75,6.33-3.88,12.9-6.69,19.25-1.89,4.84-12.43,8.28-23.23,10.2,10.24-.57,19.61,2.9,25.28,6.18,6.42,3.44,11.28,7.32,13.8,11.52,2.42,5.31,3.02,10.67,4.63,15.98.7,2.04,3.58,10.47,8.05,10.98,2.75.18,7.88-1.42,9.7-2.5,5.18-3.78,7.76-8.39,9.79-12.69,2.75-6.33,3.88-12.9,6.69-19.25,1.89-4.84,12.43-8.28,23.24-10.2-10.24.57-19.61-2.9-25.28-6.18-6.42-3.44-11.28-7.32-13.8-11.52-2.42-5.31-3.02-10.67-4.63-15.98-.7-2.04-3.58-10.47-8.05-10.98-2.75-.18-7.88,1.42-9.7,2.5Z" />
    <path class="cls-1" d="M124.06,395.78c4.23,4.04,3.98,11.09,4.91,15.42.58,2.73,3.25,5.41,6.81,7.78,3.04,2.21,7.94,4.5,14.58,4.19.54-.08,1.09-.16,1.63-.22-.23.05-.45.11-.68.16.25-.02.49-.04.75-.06-.41.07-.82.13-1.22.18-5.46,1.29-10.46,3.03-12.65,5.46-.43.69-.51,1.48-.66,2.26-.37,2.5-.8,6.21-1.26,8.71-.75,2.95-1.88,5.94-4.43,8.75-1.12,1.52-3.65,3.17-7.25,4.04-4.87,1.42-10.73.95-13.03-1.37-4.23-4.04-3.98-11.09-4.91-15.42-.58-2.73-3.25-5.41-6.81-7.78-3.04-2.21-7.94-4.5-14.58-4.19-.54.08-1.09.16-1.63.22.23-.05.45-.11.68-.16-.25.02-.49.04-.75.06.41-.07.82-.13,1.22-.18,5.46-1.29,10.46-3.03,12.65-5.46.43-.69.51-1.48.66-2.26.37-2.5.8-6.21,1.26-8.71.75-2.95,1.88-5.94,4.43-8.75,1.12-1.52,3.64-3.17,7.25-4.04,4.87-1.42,10.73-.95,13.03,1.37ZM107.97,431.06c3.29,2.71,3.77,5.8,4.51,8.74.63,2.46,1.39,6.1,2.97,8.44.58.89,1.06,1.81,2.37,2.44.3.12.48.15.72.18,1.59.15,5.07-.96,5.96-1.53,4.76-3.64,6.23-7.92,7.54-12.04.62-2.1,1.35-4.39,2.14-6.49.31-2.87,5.08-5.12,10.8-6.55-4.56.69-8.63,1.66-11.87,2.96-2.08.83-3.58,1.71-5.85,2.55-3.76,1.5-10.11,1.46-14.51.47-2.78-.58-5.49-1.34-7.37-2.37-2.39-1.41-4.24-2.68-8.36-3.33-.72-.13-1.47-.23-2.24-.33,5.9,1.45,10.35,4.59,13.2,6.87ZM91.78,423.63c.38-.01.77-.03,1.14-.03-.53,0-1.07-.02-1.62-.02l.49.06ZM111.13,397.53c-4.76,3.64-6.23,7.92-7.54,12.04-.62,2.1-1.35,4.39-2.14,6.49-.39,3.54-7.53,6.14-14.88,7.41,1.02-.06,2.02-.07,2.98-.02,5.19-.69,9.82-1.73,13.42-3.18,2.08-.83,3.58-1.71,5.85-2.55,3.76-1.5,10.11-1.46,14.51-.47,2.78.58,5.49,1.34,7.37,2.37,2.39,1.41,4.24,2.68,8.36,3.33,2.44.44,5.23.64,8.11.76-1.98.11-3.86.22-5.61.32,1.46-.02,3.04-.05,4.7-.08.92-.21,1.86-.39,2.8-.56-10.07.62-17.35-4.36-21.4-7.6-3.29-2.71-3.77-5.8-4.51-8.74-.63-2.46-1.39-6.1-2.97-8.44-.58-.89-1.06-1.81-2.37-2.44-.3-.12-.48-.15-.72-.18-1.59-.15-5.07.96-5.96,1.53Z" />
    <path class="cls-1" d="M254.49,602.29c1.13-11.27,7.06-11.99,10.76-14.04,5.56-2.2,12.18-2.23,17.81-3.37,4.53-.99,8.8-5.3,12.67-11.09,1.99-2.86,3.88-6.13,5.26-10.53,1.18-3.69,1.78-8.56,1.54-13.47-.12-.8-.24-1.59-.35-2.38.08.37.17.74.26,1.11-.03-.41-.06-.82-.1-1.22.16.81.29,1.63.39,2.44,2.15,8.9,5.04,17.22,9.11,20.34,1.81.83,4.96,1.09,6.88,1.36,2.36.27,4.72.71,7.06,1.01,4.82.54,9.61,2.06,14.33,5.04,2.56,1.9,4.72,3.26,7.13,6.9,2.37,4.44,4.69,11.42,4.18,19.42-1.13,11.27-7.06,11.99-10.76,14.04-5.56,2.2-12.18,2.23-17.81,3.37-4.53.99-8.8,5.3-12.67,11.09-1.99,2.86-3.89,6.13-5.26,10.53-1.18,3.69-1.78,8.56-1.54,13.47.12.8.24,1.59.35,2.38-.08-.37-.17-.74-.26-1.11.03.41.06.82.1,1.22-.16-.81-.29-1.63-.39-2.44-2.15-8.9-5.04-17.22-9.11-20.34-1.81-.83-4.96-1.09-6.88-1.36-2.36-.27-4.72-.71-7.06-1.01-4.82-.54-9.61-2.06-14.33-5.04-2.56-1.9-4.72-3.26-7.13-6.9-2.37-4.44-4.69-11.42-4.18-19.42ZM260.81,613.91c3.78,5.18,8.39,7.76,12.69,9.79,6.33,2.75,12.9,3.88,19.25,6.69,4.84,1.89,8.28,12.43,10.2,23.23-.57-10.24,2.9-19.61,6.18-25.28,3.44-6.42,7.32-11.28,11.52-13.8,5.31-2.42,10.67-3.02,15.98-4.63,2.04-.7,10.47-3.58,10.98-8.05.18-2.75-1.42-7.88-2.5-9.7-3.78-5.18-8.39-7.76-12.69-9.79-6.33-2.75-12.9-3.88-19.25-6.69-4.84-1.89-8.28-12.43-10.2-23.24.57,10.24-2.9,19.61-6.18,25.28-3.44,6.42-7.32,11.28-11.52,13.8-5.31,2.42-10.67,3.02-15.98,4.63-2.04.7-10.47,3.58-10.98,8.05-.18,2.75,1.42,7.88,2.5,9.7Z" />
    <path class="cls-1" d="M490.96,488.53c-11.27-1.13-11.99-7.06-14.04-10.76-2.2-5.56-2.23-12.18-3.37-17.81-.99-4.53-5.3-8.8-11.09-12.67-2.86-1.99-6.13-3.88-10.53-5.26-3.69-1.18-8.56-1.78-13.47-1.54-.8.12-1.59.24-2.38.35.37-.08.74-.17,1.11-.26-.41.03-.82.06-1.22.1.81-.16,1.63-.29,2.44-.39,8.9-2.15,17.22-5.04,20.34-9.11.83-1.81,1.09-4.96,1.36-6.88.27-2.36.71-4.72,1.01-7.06.54-4.82,2.06-9.61,5.04-14.33,1.9-2.56,3.26-4.72,6.9-7.13,4.44-2.37,11.42-4.69,19.42-4.18,11.27,1.13,11.99,7.06,14.04,10.76,2.2,5.56,2.23,12.18,3.37,17.81.99,4.53,5.3,8.8,11.09,12.67,2.86,1.99,6.13,3.88,10.53,5.26,3.69,1.18,8.56,1.78,13.47,1.54.8-.12,1.59-.24,2.38-.35-.37.08-.74.17-1.11.26.41-.03.82-.06,1.22-.1-.81.16-1.63.29-2.44.39-8.9,2.15-17.22,5.04-20.34,9.11-.83,1.81-1.09,4.96-1.36,6.88-.27,2.36-.71,4.72-1.01,7.06-.54,4.82-2.06,9.61-5.04,14.33-1.9,2.56-3.26,4.72-6.9,7.13-4.44,2.37-11.42,4.7-19.42,4.18ZM502.58,482.22c5.18-3.78,7.76-8.39,9.79-12.69,2.75-6.33,3.88-12.9,6.69-19.25,1.89-4.84,12.43-8.28,23.23-10.2-10.24.57-19.61-2.9-25.28-6.18-6.42-3.44-11.28-7.32-13.8-11.52-2.42-5.31-3.02-10.67-4.63-15.98-.7-2.04-3.58-10.47-8.05-10.98-2.75-.18-7.88,1.42-9.7,2.5-5.18,3.78-7.76,8.39-9.79,12.69-2.75,6.33-3.88,12.9-6.69,19.25-1.89,4.84-12.43,8.28-23.24,10.2,10.24-.57,19.61,2.9,25.28,6.18,6.42,3.44,11.28,7.32,13.8,11.52,2.42,5.31,3.02,10.67,4.63,15.98.7,2.04,3.58,10.47,8.05,10.98,2.75.18,7.88-1.42,9.7-2.5Z" />
    <path class="cls-1" d="M485.15,467.3c-4.23-4.04-3.98-11.09-4.91-15.42-.58-2.73-3.25-5.41-6.81-7.78-3.04-2.21-7.94-4.5-14.58-4.19-.54.08-1.09.16-1.63.22.23-.05.45-.11.68-.16-.25.02-.49.04-.75.06.41-.07.82-.13,1.22-.18,5.46-1.29,10.46-3.03,12.65-5.46.43-.69.51-1.48.66-2.26.37-2.5.8-6.21,1.26-8.71.75-2.95,1.88-5.94,4.43-8.75,1.12-1.52,3.65-3.17,7.25-4.04,4.87-1.42,10.73-.95,13.03,1.37,4.23,4.04,3.98,11.09,4.91,15.42.58,2.73,3.25,5.41,6.81,7.78,3.04,2.21,7.94,4.5,14.58,4.19.54-.08,1.09-.16,1.63-.22-.23.05-.45.11-.68.16.25-.02.49-.04.75-.06-.41.07-.82.13-1.22.18-5.46,1.29-10.46,3.03-12.65,5.46-.43.69-.51,1.48-.66,2.26-.37,2.5-.8,6.21-1.26,8.71-.75,2.95-1.88,5.94-4.43,8.75-1.12,1.52-3.64,3.17-7.25,4.04-4.87,1.42-10.73.95-13.03-1.37ZM501.24,432.02c-3.29-2.71-3.77-5.8-4.51-8.74-.63-2.46-1.39-6.1-2.97-8.44-.58-.89-1.06-1.81-2.37-2.44-.3-.12-.48-.15-.72-.18-1.59-.15-5.07.96-5.96,1.53-4.76,3.64-6.23,7.92-7.54,12.04-.62,2.1-1.35,4.39-2.14,6.49-.31,2.87-5.08,5.12-10.8,6.55,4.56-.69,8.63-1.66,11.87-2.96,2.08-.83,3.58-1.71,5.85-2.55,3.76-1.5,10.11-1.46,14.51-.47,2.78.58,5.49,1.34,7.37,2.37,2.39,1.41,4.24,2.68,8.36,3.33.72.13,1.47.23,2.25.33-5.9-1.45-10.35-4.59-13.2-6.87ZM517.44,439.44c-.38.01-.77.03-1.14.03.53,0,1.07.02,1.62.02l-.49-.06ZM498.08,465.55c4.76-3.64,6.23-7.92,7.54-12.04.62-2.1,1.35-4.39,2.14-6.49.39-3.54,7.53-6.14,14.88-7.41-1.02.06-2.02.07-2.98.02-5.19.69-9.82,1.73-13.42,3.18-2.08.83-3.58,1.71-5.85,2.55-3.76,1.5-10.11,1.46-14.51.47-2.78-.58-5.49-1.34-7.37-2.37-2.39-1.41-4.24-2.68-8.36-3.33-2.44-.44-5.23-.64-8.11-.76,1.98-.11,3.86-.22,5.61-.32-1.46.02-3.04.05-4.7.08-.92.21-1.86.39-2.8.56,10.07-.62,17.35,4.36,21.4,7.6,3.29,2.71,3.77,5.8,4.51,8.74.63,2.46,1.39,6.1,2.97,8.44.58.89,1.06,1.81,2.37,2.44.3.12.48.15.72.18,1.59.15,5.07-.96,5.96-1.53Z" />
    <path class="cls-1" d="M528.14,434.86h-4.06c0,61.38-24.87,116.9-65.09,157.13-40.23,40.22-95.75,65.08-157.13,65.09-61.38,0-116.9-24.87-157.13-65.09-40.22-40.23-65.08-95.75-65.09-157.13,0-61.38,24.87-116.9,65.09-157.13,40.23-40.22,95.75-65.08,157.13-65.09,61.38,0,116.9,24.87,157.13,65.09,40.22,40.23,65.08,95.75,65.09,157.13h8.12c0-127.21-103.12-230.33-230.33-230.33-127.21,0-230.33,103.12-230.33,230.33,0,127.21,103.12,230.33,230.33,230.33,127.21,0,230.33-103.12,230.33-230.33h-4.06Z" />
  </g>
</svg>