<?xml version='1.0' encoding='utf-8'?>
<svg xmlns="http://www.w3.org/2000/svg" id="_云纹" data-name="云纹" viewBox="0 0 595.28 841.89">
  <defs>
    <style>.cls-1 {
        stroke-width: 1.23px;
      }

      .cls-1, .cls-2, .cls-3 {
        fill: #221714;
      }

      .cls-1, .cls-3 {
        stroke: #221714;
        stroke-miterlimit: 10;
      }

      .cls-3 {
        stroke-width: .5px;
      }
    
path{stroke:#fff;stroke-width:3;vector-effect:non-scaling-stroke;paint-order:stroke}</style>
  </defs>
  <g>
    <g>
      <g>
        <path class="cls-2" d="M158.65,327.67c.66.36,1.4.5,2.12.51,0,.01,0,.03,0,.04,0,.2.07,3.06,2.34,4.17,1.89.93,4.07.04,5.28-1.24.7-.74,1.04-1.57,1.2-2.34,1.6,1.04,3.58,1.28,5.25.55,2.07-.91,3.41-3.2,3.16-5.4-.26-2.24-2.1-3.68-3.76-4.39.18-.74.15-1.52-.16-2.24-.76-1.81-2.82-2.51-4.41-2.08-2.32.63-3.25,3.6-2.75,4.09.44.43,1.84-1.15,3.4-.71.43.12.8.39,1.11.72.01.43.87,1.31.78,2.87-.09,1.72-1.27,2.87-1.45,3.04-1.33,1.26-2.93,1.28-3.28,1.28-1.11-.06-1.9-.46-2.34-.69-.32-.17-.61-.35-.86-.54-.4-.39-.93-.85-1.25-1.75-.16-.45-.54-1.57.31-3.84.92-2.49,2.12-3.89,3.41-5.7,1.62-2.27,2.57-4.05,3.83-6.41,1.86-3.48,2.67-6.04,3.29-7.68.66-1.76,4.39-11.63,12.46-16.88,2.19-1.43,7.32-4.22,15.61-3.86-2.92-.57-9.2-1.32-15.68,1.75-6.77,3.21-10.42,9.03-11.81,11.24-.22.35-1.33,2.36-3.53,6.36-2.15,3.91-2.9,5.32-3.7,7.39-.98,2.51-.67,2.46-1.42,3.97-1.49,2.99-3.63,5-4.59,5.94-2.12,2.06-2.89,1.97-3.93,3.71-.46.77-1.29,2.23-1.08,4.12.04.36.36,2.91,2.43,4.02Z" />
        <path class="cls-2" d="M99.46,348.56c.39,1.15,1.79,5.35,5.7,7.43,2.6,1.38,5.77,1.54,8.89.6.49,1.49,1.32,3.05,2.75,4.43.53.51,4.15,3.91,9.12,3.06,4.51-.77,6.78-4.46,7.39-5.46,1.22-1.98,1.7-4.05,1.8-5.92,2.53-.69,4.66-2.05,6.05-3.98,2.24-3.11,1.87-6.74,1.81-7.28-.35-3.07-2.24-7.44-6.51-8.68-.79-.23-1.55-.32-2.28-.32.05-2.7-.91-5.11-2.66-6.46-4.3-3.33-12.63.35-13.19,4.84-.41,3.33,3.55,6.27,4.05,6.62-.01-.11-.21-2.58,1.59-3.84,1.12-.78,2.51-.76,3.61-.39.39.26.77.57,1.11.96,1.63,1.87,1.97,4.96.92,7.42-1.26,2.97-4.1,4.04-4.71,4.27-3.99,1.51-9.14.01-11.6-3.17-4.2-5.44-.23-14.84,4.77-19.69,2.68-2.59,5.62-3.85,7.59-4.49h0c4.76-1.37,8.09-1.83,8.47-1.88,12.39-1.63,14.31,1.07,20.56-.54,5.13-1.32,12.04-5.24,18.64-17.37-3.24,4.61-7.52,8.75-12.84,10.7-3.46,1.29-7.1,1.31-10.84,1.47-4.51.19-7.29.1-11.55-.03-11.79-.36-17.79-.51-22.75.73-4.68,1.17-9.1,2.28-12.19,6.38-2.96,3.93-3.91,9.56-2.52,13.21.44,1.16,1.23,2.38,1.42,2.67-.94,1.32-1.8,2.9-2.4,4.77-.54,1.65-1.72,5.48-.22,9.92ZM108.3,327.46c1.07-1.44,2.45-2.79,5.42-4.34-.64.59-1.26,1.25-1.83,2-5.04,6.62-4.61,17.36,1.49,22.28,3.47,2.8,9.43,4.28,13.92,1.48,2.83-1.76,4.77-4.97,5.41-8.12.17.61.27,1.25.26,1.96-.03,2-.92,3.44-1.54,4.44-1.51,2.44-3.61,3.86-5.13,4.65-1.39.58-3.37,1.38-6.05,1.28-3.03-.49-5.29-1.48-6.72-2.24-1.28-.68-2.72-1.46-4.12-3.04-.29-.32-1.34-1.53-2.18-3.41-.72-1.62-.95-2.97-1.09-3.89-.08-.48-.26-1.79-.21-3.64.1-3.17.86-6.02,1.63-8.16-.04.02-.08.05-.12.08.26-.45.55-.9.87-1.34Z" />
      </g>
      <path class="cls-2" d="M49.49,332.39c1.08,1.52,2.42,2.53,3.73,3.21-.14.77-.2,1.61-.13,2.5.33,4.35,3.33,6.89,4.15,7.54,4.85,3.79,10.91,1.67,11.62,1.41.64-.23,1.22-.52,1.76-.82,1.86,1.03,5.06,2.32,8.63,1.63,3.57-.69,5.81-3.02,7.06-4.34,5.84-6.23,2.99-11.26,8.57-21.89,3.12-5.96,6.34-8.81,7.43-9.73.93-.78,4.01-3.27,8.75-5,7.89-2.87,13.29-.94,23.12-.53,4.64.19,11.32.09,19.51-1.37-3.38.3-8.65.55-15.03-.13-8.31-.88-9.38-2.53-16.05-2.68-5.7-.13-12.78-.3-20.18,3.64-5.66,3.01-9.92,7.59-11.4,9.2-1.39,1.52-2.94,3.2-4.54,5.78-.66,1.06-1.14,1.99-1.53,2.85-.81,1.21-1.34,2.29-2.09,3.39-2.17,3.21-4.94,4.93-6.11,5.65-1.62,1-8.43,5.21-13.27,2.05-2.37-1.55-4.05-4.74-3.54-7.92.58-3.59,3.75-5.93,6.75-6.64.57-.01,1.45.03,2.46.36.93.31,2.05.68,2.66,1.71.53.92.39,1.89.26,2.69-.22,1.44-.89,2.51-1.41,3.17-.22.16-.44.27-.74.36-1.16.34-2.74.05-3.66-1.04-.6-.71-.72-1.52-.75-1.91-.24.23-1.77,1.8-1.48,3.83.33,2.34,2.86,3.55,4.62,3.79,2.33.31,4.05-.99,4.33-1.21,1.28-1,2.09-2.53,2.34-4.25,2.85-1.04,4.99-3.18,5.66-5.76.66-2.53.07-6.08-2.61-8.14-.21-.16-2.86-2.13-6.1-1.3-1.41-2.18-4.11-3.69-6.3-4.29-.5-.14-3.89-1.01-7.15.66-3,1.53-5.07,4.77-5.7,8.73-1.56.79-4.15,2.48-5.23,5.74-1.52,4.58,1.17,8.5,1.58,9.07ZM65.79,318.69s.09.06.13.09c-.23.07-.45.15-.67.24.19-.12.37-.23.54-.33ZM70.4,338.28c4.84-.63,7.97-3.55,10.38-5.81.62-.58,1.18-1.18,1.72-1.78-.36.79-.81,1.62-1.44,2.57-1.24,1.86-3.27,4.81-7.1,6.53-.74.33-1.46.58-2.16.76-.39.09-.85.2-1.37.29-1.57.26-2.94.24-3.9.16-.02,0-.03,0-.05,0-.73-.08-1.5-.24-2.29-.5-.9-.3-2.63-.89-4.18-2.49-1.32-1.36-1.9-2.82-2.35-4.06-.21-1.06-.32-2.29-.16-3.66.19-1.7.73-3.05,1.28-4.12-.33.95-.54,1.94-.59,2.92-.04.75-.15,3.83,1.98,6.33,3.21,3.76,8.79,3.04,10.23,2.86Z" />
      <path class="cls-2" d="M111.01,291.35c4.78-.82,9.01-.26,11.06.02,2.95.41,6.13,1.32,12.5,3.12,2.55.72,4.38,1.29,7.53,2.04,0,0,2.87.69,6.8,1.33,2.42.4,3.77.53,5.36.47.47-.02,1.71-.09,3.29-.39.81-.16,1.56-.3,2.49-.65.84-.31,1.99-.74,2.92-1.57,1.63-1.47,1.88-3.6,1.96-4.27.13-1.13-.04-2.24-.41-3.29.21-.15.42-.31.63-.49.6-.52,1.77-1.67,2.49-3.51.34-.87,1.4-3.6.1-5.9-1.17-2.08-3.59-2.63-4.53-2.85-.8-.18-1.59-.24-2.37-.21-.38-1.14-1.03-2.06-1.88-2.62-1.9-1.25-4.58-.62-6.24.41-1.05.65-1.83,1.56-2.38,2.54-.9-.09-1.82.03-2.7.4-3.01,1.28-3.87,4.82-2.94,7.19,1.11,2.82,4.81,3.93,5.29,3.36.37-.43-1.25-1.62-1.11-3.22.06-.76.51-1.43,1.17-2.02.18-.11.39-.3.65-.52.21-.15.43-.29.66-.42,1.1-.4,3.18-.92,4.81.17.29.19.85.63,1.44,1.74.31.83.61,1.98.4,3.4-.07.44-.27,1.64-1.13,2.77-.33.43-1.2,1.45-4.84,2.5-1.77.51-3.69.89-6.09,1.1-3.05.27-5.41.14-6.13.1-6.24-.39-10.02-1.99-14.66-2.76-2.31-.39-10.11-1.6-18.17,1.6-2.74,1.09-7.33,3.41-11.73,8.51,3.26-2.99,8.59-6.83,15.79-8.07Z" />
    </g>
    <g>
      <g>
        <path class="cls-2" d="M250.28,237.3c.36.66.5,1.4.51,2.12.01,0,.03,0,.04,0,.2,0,3.06.07,4.17,2.34.93,1.89.04,4.07-1.24,5.28-.74.7-1.57,1.04-2.34,1.2,1.04,1.6,1.28,3.58.55,5.25-.91,2.07-3.2,3.41-5.4,3.16-2.24-.26-3.68-2.1-4.39-3.76-.74.18-1.52.15-2.24-.16-1.81-.76-2.51-2.82-2.08-4.41.63-2.32,3.6-3.25,4.09-2.75.43.44-1.15,1.84-.71,3.4.12.43.39.8.72,1.11.43.01,1.31.87,2.87.78,1.72-.09,2.87-1.27,3.04-1.45,1.26-1.33,1.28-2.93,1.28-3.28-.06-1.11-.46-1.9-.69-2.34-.17-.32-.35-.61-.54-.86-.39-.4-.85-.93-1.75-1.25-.45-.16-1.57-.54-3.84.31-2.49.92-3.89,2.12-5.7,3.41-2.27,1.62-4.05,2.57-6.41,3.83-3.48,1.86-6.04,2.67-7.68,3.29-1.76.66-11.63,4.39-16.88,12.46-1.43,2.19-4.22,7.32-3.86,15.61-.57-2.92-1.32-9.2,1.75-15.68,3.21-6.77,9.03-10.42,11.24-11.81.35-.22,2.36-1.33,6.36-3.53,3.91-2.15,5.32-2.9,7.39-3.7,2.51-.98,2.46-.67,3.97-1.42,2.99-1.49,5-3.63,5.94-4.59,2.06-2.12,1.97-2.89,3.71-3.93.77-.46,2.23-1.29,4.12-1.08.36.04,2.91.36,4.02,2.43Z" />
        <path class="cls-2" d="M271.17,178.12c1.15.39,5.35,1.79,7.43,5.7,1.38,2.6,1.54,5.77.6,8.89,1.49.49,3.05,1.32,4.43,2.75.51.53,3.91,4.15,3.06,9.12-.77,4.51-4.46,6.78-5.46,7.39-1.98,1.22-4.05,1.7-5.92,1.8-.69,2.53-2.05,4.66-3.98,6.05-3.11,2.24-6.74,1.87-7.28,1.81-3.07-.35-7.44-2.24-8.68-6.51-.23-.79-.32-1.55-.32-2.28-2.7.05-5.11-.91-6.46-2.66-3.33-4.3.35-12.63,4.84-13.19,3.33-.41,6.27,3.55,6.62,4.05-.11-.01-2.58-.21-3.84,1.59-.78,1.12-.76,2.51-.39,3.61.26.39.57.77.96,1.11,1.87,1.63,4.96,1.97,7.42.92,2.97-1.26,4.04-4.1,4.27-4.71,1.51-3.99.01-9.14-3.17-11.6-5.44-4.2-14.84-.23-19.69,4.77-2.59,2.68-3.85,5.62-4.49,7.59h0c-1.37,4.76-1.83,8.09-1.88,8.47-1.63,12.39,1.07,14.31-.54,20.56-1.32,5.13-5.24,12.04-17.37,18.64,4.61-3.24,8.75-7.52,10.7-12.84,1.29-3.46,1.31-7.1,1.47-10.84.19-4.51.1-7.29-.03-11.55-.36-11.79-.51-17.79.73-22.75,1.17-4.68,2.28-9.1,6.38-12.19,3.93-2.96,9.56-3.91,13.21-2.52,1.16.44,2.38,1.23,2.67,1.42,1.32-.94,2.9-1.8,4.77-2.4,1.65-.54,5.48-1.72,9.92-.22ZM250.07,186.95c-1.44,1.07-2.79,2.45-4.34,5.42.59-.64,1.25-1.26,2-1.83,6.62-5.04,17.36-4.61,22.28,1.49,2.8,3.47,4.28,9.43,1.48,13.92-1.76,2.83-4.97,4.77-8.12,5.41.61.17,1.25.27,1.96.26,2-.03,3.44-.92,4.44-1.54,2.44-1.51,3.86-3.61,4.65-5.13.58-1.39,1.38-3.37,1.28-6.05-.49-3.03-1.48-5.29-2.24-6.72-.68-1.28-1.46-2.72-3.04-4.12-.32-.29-1.53-1.34-3.41-2.18-1.62-.72-2.97-.95-3.89-1.09-.48-.08-1.79-.26-3.64-.21-3.17.1-6.02.86-8.16,1.63.02-.04.05-.08.08-.12-.45.26-.9.55-1.34.87Z" />
      </g>
      <path class="cls-2" d="M255,128.14c1.52,1.08,2.53,2.42,3.21,3.73.77-.14,1.61-.2,2.5-.13,4.35.33,6.89,3.33,7.54,4.15,3.79,4.85,1.67,10.91,1.41,11.62-.23.64-.52,1.22-.82,1.76,1.03,1.86,2.32,5.06,1.63,8.63-.69,3.57-3.02,5.81-4.34,7.06-6.23,5.84-11.26,2.99-21.89,8.57-5.96,3.12-8.81,6.34-9.73,7.43-.78.93-3.27,4.01-5,8.75-2.87,7.89-.94,13.29-.53,23.12.19,4.64.09,11.32-1.37,19.51.3-3.38.55-8.65-.13-15.03-.88-8.31-2.53-9.38-2.68-16.05-.13-5.7-.3-12.78,3.64-20.18,3.01-5.66,7.59-9.92,9.2-11.4,1.52-1.39,3.2-2.94,5.78-4.54,1.06-.66,1.99-1.14,2.85-1.53,1.21-.81,2.29-1.34,3.39-2.09,3.21-2.17,4.93-4.94,5.65-6.11,1-1.62,5.21-8.43,2.05-13.27-1.55-2.37-4.74-4.05-7.92-3.54-3.59.58-5.93,3.75-6.64,6.75-.01.57.03,1.45.36,2.46.31.93.68,2.05,1.71,2.66.92.53,1.89.39,2.69.26,1.44-.22,2.51-.89,3.17-1.41.16-.22.27-.44.36-.74.34-1.16.05-2.74-1.04-3.66-.71-.6-1.52-.72-1.91-.75.23-.24,1.8-1.77,3.83-1.48,2.34.33,3.55,2.86,3.79,4.62.31,2.33-.99,4.05-1.21,4.33-1,1.28-2.53,2.09-4.25,2.34-1.04,2.85-3.18,4.99-5.76,5.66-2.53.66-6.08.07-8.14-2.61-.16-.21-2.13-2.86-1.3-6.1-2.18-1.41-3.69-4.11-4.29-6.3-.14-.5-1.01-3.89.66-7.15,1.53-3,4.77-5.07,8.73-5.7.79-1.56,2.48-4.15,5.74-5.23,4.58-1.52,8.5,1.17,9.07,1.58ZM241.29,144.44s.06.09.09.13c.07-.23.15-.45.24-.67-.12.19-.23.37-.33.54ZM260.89,149.05c-.63,4.84-3.55,7.97-5.81,10.38-.58.62-1.18,1.18-1.78,1.72.79-.36,1.62-.81,2.57-1.44,1.86-1.24,4.81-3.27,6.53-7.1.33-.74.58-1.46.76-2.16.09-.39.2-.85.29-1.37.26-1.57.24-2.94.16-3.9,0-.02,0-.03,0-.05-.08-.73-.24-1.5-.5-2.29-.3-.9-.89-2.63-2.49-4.18-1.36-1.32-2.82-1.9-4.06-2.35-1.06-.21-2.29-.32-3.66-.16-1.7.19-3.05.73-4.12,1.28.95-.33,1.94-.54,2.92-.59.75-.04,3.83-.15,6.33,1.98,3.76,3.21,3.04,8.79,2.86,10.23Z" />
      <path class="cls-2" d="M213.96,189.67c-.82,4.78-.26,9.01.02,11.06.41,2.95,1.32,6.13,3.12,12.5.72,2.55,1.29,4.38,2.04,7.53,0,0,.69,2.87,1.33,6.8.4,2.42.53,3.77.47,5.36-.02.47-.09,1.71-.39,3.29-.16.81-.3,1.56-.65,2.49-.31.84-.74,1.99-1.57,2.92-1.47,1.63-3.6,1.88-4.27,1.96-1.13.13-2.24-.04-3.29-.41-.15.21-.31.42-.49.63-.52.6-1.67,1.77-3.51,2.49-.87.34-3.6,1.4-5.9.1-2.08-1.17-2.63-3.59-2.85-4.53-.18-.8-.24-1.59-.21-2.37-1.14-.38-2.06-1.03-2.62-1.88-1.25-1.9-.62-4.58.41-6.24.65-1.05,1.56-1.83,2.54-2.38-.09-.9.03-1.82.4-2.7,1.28-3.01,4.82-3.87,7.19-2.94,2.82,1.11,3.93,4.81,3.36,5.29-.43.37-1.62-1.25-3.22-1.11-.76.06-1.43.51-2.02,1.17-.11.18-.3.39-.52.65-.15.21-.29.43-.42.66-.4,1.1-.92,3.18.17,4.81.19.29.63.85,1.74,1.44.83.31,1.98.61,3.4.4.44-.07,1.64-.27,2.77-1.13.43-.33,1.45-1.2,2.5-4.84.51-1.77.89-3.69,1.1-6.09.27-3.05.14-5.41.1-6.13-.39-6.24-1.99-10.02-2.76-14.66-.39-2.31-1.6-10.11,1.6-18.17,1.09-2.74,3.41-7.33,8.51-11.73-2.99,3.26-6.83,8.59-8.07,15.79Z" />
    </g>
  </g>
  <g>
    <g>
      <g>
        <path class="cls-2" d="M324.17,493.02c-.36-.66-.5-1.4-.51-2.12-.01,0-.03,0-.04,0-.2,0-3.06-.07-4.17-2.34-.93-1.89-.04-4.07,1.24-5.28.74-.7,1.57-1.04,2.34-1.2-1.04-1.6-1.28-3.58-.55-5.25.91-2.07,3.2-3.41,5.4-3.16,2.24.26,3.68,2.1,4.39,3.76.74-.18,1.52-.15,2.24.16,1.81.76,2.51,2.82,2.08,4.41-.63,2.32-3.6,3.25-4.09,2.75-.43-.44,1.15-1.84.71-3.4-.12-.43-.39-.8-.72-1.11-.43-.01-1.31-.87-2.87-.78-1.72.09-2.87,1.27-3.04,1.45-1.26,1.33-1.28,2.93-1.28,3.28.06,1.11.46,1.9.69,2.34.17.32.35.61.54.86.39.4.85.93,1.75,1.25.45.16,1.57.54,3.84-.31,2.49-.92,3.89-2.12,5.7-3.41,2.27-1.62,4.05-2.57,6.41-3.83,3.48-1.86,6.04-2.67,7.68-3.29,1.76-.66,11.63-4.39,16.88-12.46,1.43-2.19,4.22-7.32,3.86-15.61.57,2.92,1.32,9.2-1.75,15.68-3.21,6.77-9.03,10.42-11.24,11.81-.35.22-2.36,1.33-6.36,3.53-3.91,2.15-5.32,2.9-7.39,3.7-2.51.98-2.46.67-3.97,1.42-2.99,1.49-5,3.63-5.94,4.59-2.06,2.12-1.97,2.89-3.71,3.93-.77.46-2.23,1.29-4.12,1.08-.36-.04-2.91-.36-4.02-2.43Z" />
        <path class="cls-2" d="M303.28,552.21c-1.15-.39-5.35-1.79-7.43-5.7-1.38-2.6-1.54-5.77-.6-8.89-1.49-.49-3.05-1.32-4.43-2.75-.51-.53-3.91-4.15-3.06-9.12.77-4.51,4.46-6.78,5.46-7.39,1.98-1.22,4.05-1.7,5.92-1.8.69-2.53,2.05-4.66,3.98-6.05,3.11-2.24,6.74-1.87,7.28-1.81,3.07.35,7.44,2.24,8.68,6.51.23.79.32,1.55.32,2.28,2.7-.05,5.11.91,6.46,2.66,3.33,4.3-.35,12.63-4.84,13.19-3.33.41-6.27-3.55-6.62-4.05.11.01,2.58.21,3.84-1.59.78-1.12.76-2.51.39-3.61-.26-.39-.57-.77-.96-1.11-1.87-1.63-4.96-1.97-7.42-.92-2.97,1.26-4.04,4.1-4.27,4.71-1.51,3.99-.01,9.14,3.17,11.6,5.44,4.2,14.84.23,19.69-4.77,2.59-2.68,3.85-5.62,4.49-7.59h0c1.37-4.76,1.83-8.09,1.88-8.47,1.63-12.39-1.07-14.31.54-20.56,1.32-5.13,5.24-12.04,17.37-18.64-4.61,3.24-8.75,7.52-10.7,12.84-1.29,3.46-1.31,7.1-1.47,10.84-.19,4.51-.1,7.29.03,11.55.36,11.79.51,17.79-.73,22.75-1.17,4.68-2.28,9.1-6.38,12.19-3.93,2.96-9.56,3.91-13.21,2.52-1.16-.44-2.38-1.23-2.67-1.42-1.32.94-2.9,1.8-4.77,2.4-1.65.54-5.48,1.72-9.92.22ZM324.38,543.37c1.44-1.07,2.79-2.45,4.34-5.42-.59.64-1.25,1.26-2,1.83-6.62,5.04-17.36,4.61-22.28-1.49-2.8-3.47-4.28-9.43-1.48-13.92,1.76-2.83,4.97-4.77,8.12-5.41-.61-.17-1.25-.27-1.96-.26-2,.03-3.44.92-4.44,1.54-2.44,1.51-3.86,3.61-4.65,5.13-.58,1.39-1.38,3.37-1.28,6.05.49,3.03,1.48,5.29,2.24,6.72.68,1.28,1.46,2.72,3.04,4.12.32.29,1.53,1.34,3.41,2.18,1.62.72,2.97.95,3.89,1.09.48.08,1.79.26,3.64.21,3.17-.1,6.02-.86,8.16-1.63-.02.04-.05.08-.08.12.45-.26.9-.55,1.34-.87Z" />
      </g>
      <path class="cls-2" d="M319.45,602.18c-1.52-1.08-2.53-2.42-3.21-3.73-.77.14-1.61.2-2.5.13-4.35-.33-6.89-3.33-7.54-4.15-3.79-4.85-1.67-10.91-1.41-11.62.23-.64.52-1.22.82-1.76-1.03-1.86-2.32-5.06-1.63-8.63.69-3.57,3.02-5.81,4.34-7.06,6.23-5.84,11.26-2.99,21.89-8.57,5.96-3.12,8.81-6.34,9.73-7.43.78-.93,3.27-4.01,5-8.75,2.87-7.89.94-13.29.53-23.12-.19-4.64-.09-11.32,1.37-19.51-.3,3.38-.55,8.65.13,15.03.88,8.31,2.53,9.38,2.68,16.05.13,5.7.3,12.78-3.64,20.18-3.01,5.66-7.59,9.92-9.2,11.4-1.52,1.39-3.2,2.94-5.78,4.54-1.06.66-1.99,1.14-2.85,1.53-1.21.81-2.29,1.34-3.39,2.09-3.21,2.17-4.93,4.94-5.65,6.11-1,1.62-5.21,8.43-2.05,13.27,1.55,2.37,4.74,4.05,7.92,3.54,3.59-.58,5.93-3.75,6.64-6.75.01-.57-.03-1.45-.36-2.46-.31-.93-.68-2.05-1.71-2.66-.92-.53-1.89-.39-2.69-.26-1.44.22-2.51.89-3.17,1.41-.16.22-.27.44-.36.74-.34,1.16-.05,2.74,1.04,3.66.71.6,1.52.72,1.91.75-.23.24-1.8,1.77-3.83,1.48-2.34-.33-3.55-2.86-3.79-4.62-.31-2.33.99-4.05,1.21-4.33,1-1.28,2.53-2.09,4.25-2.34,1.04-2.85,3.18-4.99,5.76-5.66,2.53-.66,6.08-.07,8.14,2.61.16.21,2.13,2.86,1.3,6.1,2.18,1.41,3.69,4.11,4.29,6.3.14.5,1.01,3.89-.66,7.15-1.53,3-4.77,5.07-8.73,5.7-.79,1.56-2.48,4.15-5.74,5.23-4.58,1.52-8.5-1.17-9.07-1.58ZM333.16,585.88s-.06-.09-.09-.13c-.07.23-.15.45-.24.67.12-.19.23-.37.33-.54ZM313.56,581.27c.63-4.84,3.55-7.97,5.81-10.38.58-.62,1.18-1.18,1.78-1.72-.79.36-1.62.81-2.57,1.44-1.86,1.24-4.81,3.27-6.53,7.1-.33.74-.58,1.46-.76,2.16-.09.39-.2.85-.29,1.37-.26,1.57-.24,2.94-.16,3.9,0,.02,0,.03,0,.05.08.73.24,1.5.5,2.29.3.9.89,2.63,2.49,4.18,1.36,1.32,2.82,1.9,4.06,2.35,1.06.21,2.29.32,3.66.16,1.7-.19,3.05-.73,4.12-1.28-.95.33-1.94.54-2.92.59-.75.04-3.83.15-6.33-1.98-3.76-3.21-3.04-8.79-2.86-10.23Z" />
      <path class="cls-2" d="M360.49,540.65c.82-4.78.26-9.01-.02-11.06-.41-2.95-1.32-6.13-3.12-12.5-.72-2.55-1.29-4.38-2.04-7.53,0,0-.69-2.87-1.33-6.8-.4-2.42-.53-3.77-.47-5.36.02-.47.09-1.71.39-3.29.16-.81.3-1.56.65-2.49.31-.84.74-1.99,1.57-2.92,1.47-1.63,3.6-1.88,4.27-1.96,1.13-.13,2.24.04,3.29.41.15-.21.31-.42.49-.63.52-.6,1.67-1.77,3.51-2.49.87-.34,3.6-1.4,5.9-.1,2.08,1.17,2.63,3.59,2.85,4.53.18.8.24,1.59.21,2.37,1.14.38,2.06,1.03,2.62,1.88,1.25,1.9.62,4.58-.41,6.24-.65,1.05-1.56,1.83-2.54,2.38.09.9-.03,1.82-.4,2.7-1.28,3.01-4.82,3.87-7.19,2.94-2.82-1.11-3.93-4.81-3.36-5.29.43-.37,1.62,1.25,3.22,1.11.76-.06,1.43-.51,2.02-1.17.11-.18.3-.39.52-.65.15-.21.29-.43.42-.66.4-1.1.92-3.18-.17-4.81-.19-.29-.63-.85-1.74-1.44-.83-.31-1.98-.61-3.4-.4-.44.07-1.64.27-2.77,1.13-.43.33-1.45,1.2-2.5,4.84-.51,1.77-.89,3.69-1.1,6.09-.27,3.05-.14,5.41-.1,6.13.39,6.24,1.99,10.02,2.76,14.66.39,2.31,1.6,10.11-1.6,18.17-1.09,2.74-3.41,7.33-8.51,11.73,2.99-3.26,6.83-8.59,8.07-15.79Z" />
    </g>
    <g>
      <g>
        <path class="cls-2" d="M414.54,401.39c-.66-.36-1.4-.5-2.12-.51,0-.01,0-.03,0-.04,0-.2-.07-3.06-2.34-4.17-1.89-.93-4.07-.04-5.28,1.24-.7.74-1.04,1.57-1.2,2.34-1.6-1.04-3.58-1.28-5.25-.55-2.07.91-3.41,3.2-3.16,5.4.26,2.24,2.1,3.68,3.76,4.39-.18.74-.15,1.52.16,2.24.76,1.81,2.82,2.51,4.41,2.08,2.32-.63,3.25-3.6,2.75-4.09-.44-.43-1.84,1.15-3.4.71-.43-.12-.8-.39-1.11-.72-.01-.43-.87-1.31-.78-2.87.09-1.72,1.27-2.87,1.45-3.04,1.33-1.26,2.93-1.28,3.28-1.28,1.11.06,1.9.46,2.34.69.32.17.61.35.86.54.4.39.93.85,1.25,1.75.16.45.54,1.57-.31,3.84-.92,2.49-2.12,3.89-3.41,5.7-1.62,2.27-2.57,4.05-3.83,6.41-1.86,3.48-2.67,6.04-3.29,7.68-.66,1.76-4.39,11.63-12.46,16.88-2.19,1.43-7.32,4.22-15.61,3.86,2.92.57,9.2,1.32,15.68-1.75,6.77-3.21,10.42-9.03,11.81-11.24.22-.35,1.33-2.36,3.53-6.36,2.15-3.91,2.9-5.32,3.7-7.39.98-2.51.67-2.46,1.42-3.97,1.49-2.99,3.63-5,4.59-5.94,2.12-2.06,2.89-1.97,3.93-3.71.46-.77,1.29-2.23,1.08-4.12-.04-.36-.36-2.91-2.43-4.02Z" />
        <path class="cls-2" d="M473.73,380.5c-.39-1.15-1.79-5.35-5.7-7.43-2.6-1.38-5.77-1.54-8.89-.6-.49-1.49-1.32-3.05-2.75-4.43-.53-.51-4.15-3.91-9.12-3.06-4.51.77-6.78,4.46-7.39,5.46-1.22,1.98-1.7,4.05-1.8,5.92-2.53.69-4.66,2.05-6.05,3.98-2.24,3.11-1.87,6.74-1.81,7.28.35,3.07,2.24,7.44,6.51,8.68.79.23,1.55.32,2.28.32-.05,2.7.91,5.11,2.66,6.46,4.3,3.33,12.63-.35,13.19-4.84.41-3.33-3.55-6.27-4.05-6.62.01.11.21,2.58-1.59,3.84-1.12.78-2.51.76-3.61.39-.39-.26-.77-.57-1.11-.96-1.63-1.87-1.97-4.96-.92-7.42,1.26-2.97,4.1-4.04,4.71-4.27,3.99-1.51,9.14-.01,11.6,3.17,4.2,5.44.23,14.84-4.77,19.69-2.68,2.59-5.62,3.85-7.59,4.49h0c-4.76,1.37-8.09,1.83-8.47,1.88-12.39,1.63-14.31-1.07-20.56.54-5.13,1.32-12.04,5.24-18.64,17.37,3.24-4.61,7.52-8.75,12.84-10.7,3.46-1.29,7.1-1.31,10.84-1.47,4.51-.19,7.29-.1,11.55.03,11.79.36,17.79.51,22.75-.73,4.68-1.17,9.1-2.28,12.19-6.38,2.96-3.93,3.91-9.56,2.52-13.21-.44-1.16-1.23-2.38-1.42-2.67.94-1.32,1.8-2.9,2.4-4.77.54-1.65,1.72-5.48.22-9.92ZM464.89,401.6c-1.07,1.44-2.45,2.79-5.42,4.34.64-.59,1.26-1.25,1.83-2,5.04-6.62,4.61-17.36-1.49-22.28-3.47-2.8-9.43-4.28-13.92-1.48-2.83,1.76-4.77,4.97-5.41,8.12-.17-.61-.27-1.25-.26-1.96.03-2,.92-3.44,1.54-4.44,1.51-2.44,3.61-3.86,5.13-4.65,1.39-.58,3.37-1.38,6.05-1.28,3.03.49,5.29,1.48,6.72,2.24,1.28.68,2.72,1.46,4.12,3.04.29.32,1.34,1.53,2.18,3.41.72,1.62.95,2.97,1.09,3.89.08.48.26,1.79.21,3.64-.1,3.17-.86,6.02-1.63,8.16.04-.02.08-.05.12-.08-.26.45-.55.9-.87,1.34Z" />
      </g>
      <path class="cls-2" d="M523.7,396.66c-1.08-1.52-2.42-2.53-3.73-3.21.14-.77.2-1.61.13-2.5-.33-4.35-3.33-6.89-4.15-7.54-4.85-3.79-10.91-1.67-11.62-1.41-.64.23-1.22.52-1.76.82-1.86-1.03-5.06-2.32-8.63-1.63-3.57.69-5.81,3.02-7.06,4.34-5.84,6.23-2.99,11.26-8.57,21.89-3.12,5.96-6.34,8.81-7.43,9.73-.93.78-4.01,3.27-8.75,5-7.89,2.87-13.29.94-23.12.53-4.64-.19-11.32-.09-19.51,1.37,3.38-.3,8.65-.55,15.03.13,8.31.88,9.38,2.53,16.05,2.68,5.7.13,12.78.3,20.18-3.64,5.66-3.01,9.92-7.59,11.4-9.2,1.39-1.52,2.94-3.2,4.54-5.78.66-1.06,1.14-1.99,1.53-2.85.81-1.21,1.34-2.29,2.09-3.39,2.17-3.21,4.94-4.93,6.11-5.65,1.62-1,8.43-5.21,13.27-2.05,2.37,1.55,4.05,4.74,3.54,7.92-.58,3.59-3.75,5.93-6.75,6.64-.57.01-1.45-.03-2.46-.36-.93-.31-2.05-.68-2.66-1.71-.53-.92-.39-1.89-.26-2.69.22-1.44.89-2.51,1.41-3.17.22-.16.44-.27.74-.36,1.16-.34,2.74-.05,3.66,1.04.6.71.72,1.52.75,1.91.24-.23,1.77-1.8,1.48-3.83-.33-2.34-2.86-3.55-4.62-3.79-2.33-.31-4.05.99-4.33,1.21-1.28,1-2.09,2.53-2.34,4.25-2.85,1.04-4.99,3.18-5.66,5.76-.66,2.53-.07,6.08,2.61,8.14.21.16,2.86,2.13,6.1,1.3,1.41,2.18,4.11,3.69,6.3,4.29.5.14,3.89,1.01,7.15-.66,3-1.53,5.07-4.77,5.7-8.73,1.56-.79,4.15-2.48,5.23-5.74,1.52-4.58-1.17-8.5-1.58-9.07ZM507.4,410.37s-.09-.06-.13-.09c.23-.07.45-.15.67-.24-.19.12-.37.23-.54.33ZM502.79,390.78c-4.84.63-7.97,3.55-10.38,5.81-.62.58-1.18,1.18-1.72,1.78.36-.79.81-1.62,1.44-2.57,1.24-1.86,3.27-4.81,7.1-6.53.74-.33,1.46-.58,2.16-.76.39-.09.85-.2,1.37-.29,1.57-.26,2.94-.24,3.9-.16.02,0,.03,0,.05,0,.73.08,1.5.24,2.29.5.9.3,2.63.89,4.18,2.49,1.32,1.36,1.9,2.82,2.35,4.06.21,1.06.32,2.29.16,3.66-.19,1.7-.73,3.05-1.28,4.12.33-.95.54-1.94.59-2.92.04-.75.15-3.83-1.98-6.33-3.21-3.76-8.79-3.04-10.23-2.86Z" />
      <path class="cls-2" d="M462.18,437.71c-4.78.82-9.01.26-11.06-.02-2.95-.41-6.13-1.32-12.5-3.12-2.55-.72-4.38-1.29-7.53-2.04,0,0-2.87-.69-6.8-1.33-2.42-.4-3.77-.53-5.36-.47-.47.02-1.71.09-3.29.39-.81.16-1.56.3-2.49.65-.84.31-1.99.74-2.92,1.57-1.63,1.47-1.88,3.6-1.96,4.27-.13,1.13.04,2.24.41,3.29-.21.15-.42.31-.63.49-.6.52-1.77,1.67-2.49,3.51-.34.87-1.4,3.6-.1,5.9,1.17,2.08,3.59,2.63,4.53,2.85.8.18,1.59.24,2.37.21.38,1.14,1.03,2.06,1.88,2.62,1.9,1.25,4.58.62,6.24-.41,1.05-.65,1.83-1.56,2.38-2.54.9.09,1.82-.03,2.7-.4,3.01-1.28,3.87-4.82,2.94-7.19-1.11-2.82-4.81-3.93-5.29-3.36-.37.43,1.25,1.62,1.11,3.22-.06.76-.51,1.43-1.17,2.02-.18.11-.39.3-.65.52-.21.15-.43.29-.66.42-1.1.4-3.18.92-4.81-.17-.29-.19-.85-.63-1.44-1.74-.31-.83-.61-1.98-.4-3.4.07-.44.27-1.64,1.13-2.77.33-.43,1.2-1.45,4.84-2.5,1.77-.51,3.69-.89,6.09-1.1,3.05-.27,5.41-.14,6.13-.1,6.24.39,10.02,1.99,14.66,2.76,2.31.39,10.11,1.6,18.17-1.6,2.74-1.09,7.33-3.41,11.73-8.51-3.26,2.99-8.59,6.83-15.79,8.07Z" />
    </g>
  </g>
  <g>
    <g>
      <path class="cls-2" d="M419.51,325.58c-.66.36-1.4.5-2.12.51,0,.01,0,.03,0,.04,0,.2-.07,3.06-2.34,4.17-1.89.93-4.07.04-5.28-1.24-.7-.74-1.04-1.57-1.2-2.34-1.6,1.04-3.58,1.28-5.25.55-2.07-.91-3.41-3.2-3.16-5.4.26-2.24,2.1-3.68,3.76-4.39-.18-.74-.15-1.52.16-2.24.76-1.81,2.82-2.51,4.41-2.08,2.32.63,3.25,3.6,2.75,4.09-.44.43-1.84-1.15-3.4-.71-.43.12-.8.39-1.11.72-.01.43-.87,1.31-.78,2.87.09,1.72,1.27,2.87,1.45,3.04,1.33,1.26,2.93,1.28,3.28,1.28,1.11-.06,1.9-.46,2.34-.69.32-.17.61-.35.86-.54.4-.39.93-.85,1.25-1.75.16-.45.54-1.57-.31-3.84-.92-2.49-2.12-3.89-3.41-5.7-1.62-2.27-2.57-4.05-3.83-6.41-1.86-3.48-2.67-6.04-3.29-7.68-.66-1.76-4.39-11.63-12.46-16.88-2.19-1.43-7.32-4.22-15.61-3.86,2.92-.57,9.2-1.32,15.68,1.75,6.77,3.21,10.42,9.03,11.81,11.24.22.35,1.33,2.36,3.53,6.36,2.15,3.91,2.9,5.32,3.7,7.39.98,2.51.67,2.46,1.42,3.97,1.49,2.99,3.63,5,4.59,5.94,2.12,2.06,2.89,1.97,3.93,3.71.46.77,1.29,2.23,1.08,4.12-.04.36-.36,2.91-2.43,4.02Z" />
      <path class="cls-2" d="M478.7,346.47c-.39,1.15-1.79,5.35-5.7,7.43-2.6,1.38-5.77,1.54-8.89.6-.49,1.49-1.32,3.05-2.75,4.43-.53.51-4.15,3.91-9.12,3.06-4.51-.77-6.78-4.46-7.39-5.46-1.22-1.98-1.7-4.05-1.8-5.92-2.53-.69-4.66-2.05-6.05-3.98-2.24-3.11-1.87-6.74-1.81-7.28.35-3.07,2.24-7.44,6.51-8.68.79-.23,1.55-.32,2.28-.32-.05-2.7.91-5.11,2.66-6.46,4.3-3.33,12.63.35,13.19,4.84.41,3.33-3.55,6.27-4.05,6.62.01-.11.21-2.58-1.59-3.84-1.12-.78-2.51-.76-3.61-.39-.39.26-.77.57-1.11.96-1.63,1.87-1.97,4.96-.92,7.42,1.26,2.97,4.1,4.04,4.71,4.27,3.99,1.51,9.14.01,11.6-3.17,4.2-5.44.23-14.84-4.77-19.69-2.68-2.59-5.62-3.85-7.59-4.49h0c-4.76-1.37-8.09-1.83-8.47-1.88-12.39-1.63-14.31,1.07-20.56-.54-5.13-1.32-12.04-5.24-18.64-17.37,3.24,4.61,7.52,8.75,12.84,10.7,3.46,1.29,7.1,1.31,10.84,1.47,4.51.19,7.29.1,11.55-.03,11.79-.36,17.79-.51,22.75.73,4.68,1.17,9.1,2.28,12.19,6.38,2.96,3.93,3.91,9.56,2.52,13.21-.44,1.16-1.23,2.38-1.42,2.67.94,1.32,1.8,2.9,2.4,4.77.54,1.65,1.72,5.48.22,9.92ZM469.86,325.37c-1.07-1.44-2.45-2.79-5.42-4.34.64.59,1.26,1.25,1.83,2,5.04,6.62,4.61,17.36-1.49,22.28-3.47,2.8-9.43,4.28-13.92,1.48-2.83-1.76-4.77-4.97-5.41-8.12-.17.61-.27,1.25-.26,1.96.03,2,.92,3.44,1.54,4.44,1.51,2.44,3.61,3.86,5.13,4.65,1.39.58,3.37,1.38,6.05,1.28,3.03-.49,5.29-1.48,6.72-2.24,1.28-.68,2.72-1.46,4.12-3.04.29-.32,1.34-1.53,2.18-3.41.72-1.62.95-2.97,1.09-3.89.08-.48.26-1.79.21-3.64-.1-3.17-.86-6.02-1.63-8.16.04.02.08.05.12.08-.26-.45-.55-.9-.87-1.34Z" />
    </g>
    <path class="cls-2" d="M528.67,330.3c-1.08,1.52-2.42,2.53-3.73,3.21.14.77.2,1.61.13,2.5-.33,4.35-3.33,6.89-4.15,7.54-4.85,3.79-10.91,1.67-11.62,1.41-.64-.23-1.22-.52-1.76-.82-1.86,1.03-5.06,2.32-8.63,1.63-3.57-.69-5.81-3.02-7.06-4.34-5.84-6.23-2.99-11.26-8.57-21.89-3.12-5.96-6.34-8.81-7.43-9.73-.93-.78-4.01-3.27-8.75-5-7.89-2.87-13.29-.94-23.12-.53-4.64.19-11.32.09-19.51-1.37,3.38.3,8.65.55,15.03-.13,8.31-.88,9.38-2.53,16.05-2.68,5.7-.13,12.78-.3,20.18,3.64,5.66,3.01,9.92,7.59,11.4,9.2,1.39,1.52,2.94,3.2,4.54,5.78.66,1.06,1.14,1.99,1.53,2.85.81,1.21,1.34,2.29,2.09,3.39,2.17,3.21,4.94,4.93,6.11,5.65,1.62,1,8.43,5.21,13.27,2.05,2.37-1.55,4.05-4.74,3.54-7.92-.58-3.59-3.75-5.93-6.75-6.64-.57-.01-1.45.03-2.46.36-.93.31-2.05.68-2.66,1.71-.53.92-.39,1.89-.26,2.69.22,1.44.89,2.51,1.41,3.17.22.16.44.27.74.36,1.16.34,2.74.05,3.66-1.04.6-.71.72-1.52.75-1.91.24.23,1.77,1.8,1.48,3.83-.33,2.34-2.86,3.55-4.62,3.79-2.33.31-4.05-.99-4.33-1.21-1.28-1-2.09-2.53-2.34-4.25-2.85-1.04-4.99-3.18-5.66-5.76-.66-2.53-.07-6.08,2.61-8.14.21-.16,2.86-2.13,6.1-1.3,1.41-2.18,4.11-3.69,6.3-4.29.5-.14,3.89-1.01,7.15.66,3,1.53,5.07,4.77,5.7,8.73,1.56.79,4.15,2.48,5.23,5.74,1.52,4.58-1.17,8.5-1.58,9.07ZM512.37,316.59s-.09.06-.13.09c.23.07.45.15.67.24-.19-.12-.37-.23-.54-.33ZM507.76,336.19c-4.84-.63-7.97-3.55-10.38-5.81-.62-.58-1.18-1.18-1.72-1.78.36.79.81,1.62,1.44,2.57,1.24,1.86,3.27,4.81,7.1,6.53.74.33,1.46.58,2.16.76.39.09.85.2,1.37.29,1.57.26,2.94.24,3.9.16.02,0,.03,0,.05,0,.73-.08,1.5-.24,2.29-.5.9-.3,2.63-.89,4.18-2.49,1.32-1.36,1.9-2.82,2.35-4.06.21-1.06.32-2.29.16-3.66-.19-1.7-.73-3.05-1.28-4.12.33.95.54,1.94.59,2.92.04.75.15,3.83-1.98,6.33-3.21,3.76-8.79,3.04-10.23,2.86Z" />
    <path class="cls-2" d="M467.14,289.26c-4.78-.82-9.01-.26-11.06.02-2.95.41-6.13,1.32-12.5,3.12-2.55.72-4.38,1.29-7.53,2.04,0,0-2.87.69-6.8,1.33-2.42.4-3.77.53-5.36.47-.47-.02-1.71-.09-3.29-.39-.81-.16-1.56-.3-2.49-.65-.84-.31-1.99-.74-2.92-1.57-1.63-1.47-1.88-3.6-1.96-4.27-.13-1.13.04-2.24.41-3.29-.21-.15-.42-.31-.63-.49-.6-.52-1.77-1.67-2.49-3.51-.34-.87-1.4-3.6-.1-5.9,1.17-2.08,3.59-2.63,4.53-2.85.8-.18,1.59-.24,2.37-.21.38-1.14,1.03-2.06,1.88-2.62,1.9-1.25,4.58-.62,6.24.41,1.05.65,1.83,1.56,2.38,2.54.9-.09,1.82.03,2.7.4,3.01,1.28,3.87,4.82,2.94,7.19-1.11,2.82-4.81,3.93-5.29,3.36-.37-.43,1.25-1.62,1.11-3.22-.06-.76-.51-1.43-1.17-2.02-.18-.11-.39-.3-.65-.52-.21-.15-.43-.29-.66-.42-1.1-.4-3.18-.92-4.81.17-.29.19-.85.63-1.44,1.74-.31.83-.61,1.98-.4,3.4.07.44.27,1.64,1.13,2.77.33.43,1.2,1.45,4.84,2.5,1.77.51,3.69.89,6.09,1.1,3.05.27,5.41.14,6.13.1,6.24-.39,10.02-1.99,14.66-2.76,2.31-.39,10.11-1.6,18.17,1.6,2.74,1.09,7.33,3.41,11.73,8.51-3.26-2.99-8.59-6.83-15.79-8.07Z" />
  </g>
  <g>
    <g>
      <path class="cls-2" d="M327.88,235.21c-.36.66-.5,1.4-.51,2.12-.01,0-.03,0-.04,0-.2,0-3.06.07-4.17,2.34-.93,1.89-.04,4.07,1.24,5.28.74.7,1.57,1.04,2.34,1.2-1.04,1.6-1.28,3.58-.55,5.25.91,2.07,3.2,3.41,5.4,3.16,2.24-.26,3.68-2.1,4.39-3.76.74.18,1.52.15,2.24-.16,1.81-.76,2.51-2.82,2.08-4.41-.63-2.32-3.6-3.25-4.09-2.75-.43.44,1.15,1.84.71,3.4-.12.43-.39.8-.72,1.11-.43.01-1.31.87-2.87.78-1.72-.09-2.87-1.27-3.04-1.45-1.26-1.33-1.28-2.93-1.28-3.28.06-1.11.46-1.9.69-2.34.17-.32.35-.61.54-.86.39-.4.85-.93,1.75-1.25.45-.16,1.57-.54,3.84.31,2.49.92,3.89,2.12,5.7,3.41,2.27,1.62,4.05,2.57,6.41,3.83,3.48,1.86,6.04,2.67,7.68,3.29,1.76.66,11.63,4.39,16.88,12.46,1.43,2.19,4.22,7.32,3.86,15.61.57-2.92,1.32-9.2-1.75-15.68-3.21-6.77-9.03-10.42-11.24-11.81-.35-.22-2.36-1.33-6.36-3.53-3.91-2.15-5.32-2.9-7.39-3.7-2.51-.98-2.46-.67-3.97-1.42-2.99-1.49-5-3.63-5.94-4.59-2.06-2.12-1.97-2.89-3.71-3.93-.77-.46-2.23-1.29-4.12-1.08-.36.04-2.91.36-4.02,2.43Z" />
      <path class="cls-2" d="M306.99,176.03c-1.15.39-5.35,1.79-7.43,5.7-1.38,2.6-1.54,5.77-.6,8.89-1.49.49-3.05,1.32-4.43,2.75-.51.53-3.91,4.15-3.06,9.12.77,4.51,4.46,6.78,5.46,7.39,1.98,1.22,4.05,1.7,5.92,1.8.69,2.53,2.05,4.66,3.98,6.05,3.11,2.24,6.74,1.87,7.28,1.81,3.07-.35,7.44-2.24,8.68-6.51.23-.79.32-1.55.32-2.28,2.7.05,5.11-.91,6.46-2.66,3.33-4.3-.35-12.63-4.84-13.19-3.33-.41-6.27,3.55-6.62,4.05.11-.01,2.58-.21,3.84,1.59.78,1.12.76,2.51.39,3.61-.26.39-.57.77-.96,1.11-1.87,1.63-4.96,1.97-7.42.92-2.97-1.26-4.04-4.1-4.27-4.71-1.51-3.99-.01-9.14,3.17-11.6,5.44-4.2,14.84-.23,19.69,4.77,2.59,2.68,3.85,5.62,4.49,7.59h0c1.37,4.76,1.83,8.09,1.88,8.47,1.63,12.39-1.07,14.31.54,20.56,1.32,5.13,5.24,12.04,17.37,18.64-4.61-3.24-8.75-7.52-10.7-12.84-1.29-3.46-1.31-7.1-1.47-10.84-.19-4.51-.1-7.29.03-11.55.36-11.79.51-17.79-.73-22.75-1.17-4.68-2.28-9.1-6.38-12.19-3.93-2.96-9.56-3.91-13.21-2.52-1.16.44-2.38,1.23-2.67,1.42-1.32-.94-2.9-1.8-4.77-2.4-1.65-.54-5.48-1.72-9.92-.22ZM328.09,184.86c1.44,1.07,2.79,2.45,4.34,5.42-.59-.64-1.25-1.26-2-1.83-6.62-5.04-17.36-4.61-22.28,1.49-2.8,3.47-4.28,9.43-1.48,13.92,1.76,2.83,4.97,4.77,8.12,5.41-.61.17-1.25.27-1.96.26-2-.03-3.44-.92-4.44-1.54-2.44-1.51-3.86-3.61-4.65-5.13-.58-1.39-1.38-3.37-1.28-6.05.49-3.03,1.48-5.29,2.24-6.72.68-1.28,1.46-2.72,3.04-4.12.32-.29,1.53-1.34,3.41-2.18,1.62-.72,2.97-.95,3.89-1.09.48-.08,1.79-.26,3.64-.21,3.17.1,6.02.86,8.16,1.63-.02-.04-.05-.08-.08-.12.45.26.9.55,1.34.87Z" />
    </g>
    <path class="cls-2" d="M323.16,126.05c-1.52,1.08-2.53,2.42-3.21,3.73-.77-.14-1.61-.2-2.5-.13-4.35.33-6.89,3.33-7.54,4.15-3.79,4.85-1.67,10.91-1.41,11.62.23.64.52,1.22.82,1.76-1.03,1.86-2.32,5.06-1.63,8.63.69,3.57,3.02,5.81,4.34,7.06,6.23,5.84,11.26,2.99,21.89,8.57,5.96,3.12,8.81,6.34,9.73,7.43.78.93,3.27,4.01,5,8.75,2.87,7.89.94,13.29.53,23.12-.19,4.64-.09,11.32,1.37,19.51-.3-3.38-.55-8.65.13-15.03.88-8.31,2.53-9.38,2.68-16.05.13-5.7.3-12.78-3.64-20.18-3.01-5.66-7.59-9.92-9.2-11.4-1.52-1.39-3.2-2.94-5.78-4.54-1.06-.66-1.99-1.14-2.85-1.53-1.21-.81-2.29-1.34-3.39-2.09-3.21-2.17-4.93-4.94-5.65-6.11-1-1.62-5.21-8.43-2.05-13.27,1.55-2.37,4.74-4.05,7.92-3.54,3.59.58,5.93,3.75,6.64,6.75.01.57-.03,1.45-.36,2.46-.31.93-.68,2.05-1.71,2.66-.92.53-1.89.39-2.69.26-1.44-.22-2.51-.89-3.17-1.41-.16-.22-.27-.44-.36-.74-.34-1.16-.05-2.74,1.04-3.66.71-.6,1.52-.72,1.91-.75-.23-.24-1.8-1.77-3.83-1.48-2.34.33-3.55,2.86-3.79,4.62-.31,2.33.99,4.05,1.21,4.33,1,1.28,2.53,2.09,4.25,2.34,1.04,2.85,3.18,4.99,5.76,5.66,2.53.66,6.08.07,8.14-2.61.16-.21,2.13-2.86,1.3-6.1,2.18-1.41,3.69-4.11,4.29-6.3.14-.5,1.01-3.89-.66-7.15-1.53-3-4.77-5.07-8.73-5.7-.79-1.56-2.48-4.15-5.74-5.23-4.58-1.52-8.5,1.17-9.07,1.58ZM336.86,142.35s-.06.09-.09.13c-.07-.23-.15-.45-.24-.67.12.19.23.37.33.54ZM317.27,146.96c.63,4.84,3.55,7.97,5.81,10.38.58.62,1.18,1.18,1.78,1.72-.79-.36-1.62-.81-2.57-1.44-1.86-1.24-4.81-3.27-6.53-7.1-.33-.74-.58-1.46-.76-2.16-.09-.39-.2-.85-.29-1.37-.26-1.57-.24-2.94-.16-3.9,0-.02,0-.03,0-.05.08-.73.24-1.5.5-2.29.3-.9.89-2.63,2.49-4.18,1.36-1.32,2.82-1.9,4.06-2.35,1.06-.21,2.29-.32,3.66-.16,1.7.19,3.05.73,4.12,1.28-.95-.33-1.94-.54-2.92-.59-.75-.04-3.83-.15-6.33,1.98-3.76,3.21-3.04,8.79-2.86,10.23Z" />
    <path class="cls-2" d="M364.2,187.58c.82,4.78.26,9.01-.02,11.06-.41,2.95-1.32,6.13-3.12,12.5-.72,2.55-1.29,4.38-2.04,7.53,0,0-.69,2.87-1.33,6.8-.4,2.42-.53,3.77-.47,5.36.02.47.09,1.71.39,3.29.16.81.3,1.56.65,2.49.31.84.74,1.99,1.57,2.92,1.47,1.63,3.6,1.88,4.27,1.96,1.13.13,2.24-.04,3.29-.41.15.21.31.42.49.63.52.6,1.67,1.77,3.51,2.49.87.34,3.6,1.4,5.9.1,2.08-1.17,2.63-3.59,2.85-4.53.18-.8.24-1.59.21-2.37,1.14-.38,2.06-1.03,2.62-1.88,1.25-1.9.62-4.58-.41-6.24-.65-1.05-1.56-1.83-2.54-2.38.09-.9-.03-1.82-.4-2.7-1.28-3.01-4.82-3.87-7.19-2.94-2.82,1.11-3.93,4.81-3.36,5.29.43.37,1.62-1.25,3.22-1.11.76.06,1.43.51,2.02,1.17.11.18.3.39.52.65.15.21.29.43.42.66.4,1.1.92,3.18-.17,4.81-.19.29-.63.85-1.74,1.44-.83.31-1.98.61-3.4.4-.44-.07-1.64-.27-2.77-1.13-.43-.33-1.45-1.2-2.5-4.84-.51-1.77-.89-3.69-1.1-6.09-.27-3.05-.14-5.41-.1-6.13.39-6.24,1.99-10.02,2.76-14.66.39-2.31,1.6-10.11-1.6-18.17-1.09-2.74-3.41-7.33-8.51-11.73,2.99,3.26,6.83,8.59,8.07,15.79Z" />
  </g>
  <g>
    <g>
      <g>
        <path class="cls-2" d="M249.36,495.79c.36-.66.5-1.4.51-2.12.01,0,.03,0,.04,0,.2,0,3.06-.07,4.17-2.34.93-1.89.04-4.07-1.24-5.28-.74-.7-1.57-1.04-2.34-1.2,1.04-1.6,1.28-3.58.55-5.25-.91-2.07-3.2-3.41-5.4-3.16-2.24.26-3.68,2.1-4.39,3.76-.74-.18-1.52-.15-2.24.16-1.81.76-2.51,2.82-2.08,4.41.63,2.32,3.6,3.25,4.09,2.75.43-.44-1.15-1.84-.71-3.4.12-.43.39-.8.72-1.11.43-.01,1.31-.87,2.87-.78,1.72.09,2.87,1.27,3.04,1.45,1.26,1.33,1.28,2.93,1.28,3.28-.06,1.11-.46,1.9-.69,2.34-.17.32-.35.61-.54.86-.39.4-.85.93-1.75,1.25-.45.16-1.57.54-3.84-.31-2.49-.92-3.89-2.12-5.7-3.41-2.27-1.62-4.05-2.57-6.41-3.83-3.48-1.86-6.04-2.67-7.68-3.29-1.76-.66-11.63-4.39-16.88-12.46-1.43-2.19-4.22-7.32-3.86-15.61-.57,2.92-1.32,9.2,1.75,15.68,3.21,6.77,9.03,10.42,11.24,11.81.35.22,2.36,1.33,6.36,3.53,3.91,2.15,5.32,2.9,7.39,3.7,2.51.98,2.46.67,3.97,1.42,2.99,1.49,5,3.63,5.94,4.59,2.06,2.12,1.97,2.89,3.71,3.93.77.46,2.23,1.29,4.12,1.08.36-.04,2.91-.36,4.02-2.43Z" />
        <path class="cls-2" d="M270.25,554.98c1.15-.39,5.35-1.79,7.43-5.7,1.38-2.6,1.54-5.77.6-8.89,1.49-.49,3.05-1.32,4.43-2.75.51-.53,3.91-4.15,3.06-9.12-.77-4.51-4.46-6.78-5.46-7.39-1.98-1.22-4.05-1.7-5.92-1.8-.69-2.53-2.05-4.66-3.98-6.05-3.11-2.24-6.74-1.87-7.28-1.81-3.07.35-7.44,2.24-8.68,6.51-.23.79-.32,1.55-.32,2.28-2.7-.05-5.11.91-6.46,2.66-3.33,4.3.35,12.63,4.84,13.19,3.33.41,6.27-3.55,6.62-4.05-.11.01-2.58.21-3.84-1.59-.78-1.12-.76-2.51-.39-3.61.26-.39.57-.77.96-1.11,1.87-1.63,4.96-1.97,7.42-.92,2.97,1.26,4.04,4.1,4.27,4.71,1.51,3.99.01,9.14-3.17,11.6-5.44,4.2-14.84.23-19.69-4.77-2.59-2.68-3.85-5.62-4.49-7.59h0c-1.37-4.76-1.83-8.09-1.88-8.47-1.63-12.39,1.07-14.31-.54-20.56-1.32-5.13-5.24-12.04-17.37-18.64,4.61,3.24,8.75,7.52,10.7,12.84,1.29,3.46,1.31,7.1,1.47,10.84.19,4.51.1,7.29-.03,11.55-.36,11.79-.51,17.79.73,22.75,1.17,4.68,2.28,9.1,6.38,12.19,3.93,2.96,9.56,3.91,13.21,2.52,1.16-.44,2.38-1.23,2.67-1.42,1.32.94,2.9,1.8,4.77,2.4,1.65.54,5.48,1.72,9.92.22ZM249.15,546.14c-1.44-1.07-2.79-2.45-4.34-5.42.59.64,1.25,1.26,2,1.83,6.62,5.04,17.36,4.61,22.28-1.49,2.8-3.47,4.28-9.43,1.48-13.92-1.76-2.83-4.97-4.77-8.12-5.41.61-.17,1.25-.27,1.96-.26,2,.03,3.44.92,4.44,1.54,2.44,1.51,3.86,3.61,4.65,5.13.58,1.39,1.38,3.37,1.28,6.05-.49,3.03-1.48,5.29-2.24,6.72-.68,1.28-1.46,2.72-3.04,4.12-.32.29-1.53,1.34-3.41,2.18-1.62.72-2.97.95-3.89,1.09-.48.08-1.79.26-3.64.21-3.17-.1-6.02-.86-8.16-1.63.02.04.05.08.08.12-.45-.26-.9-.55-1.34-.87Z" />
      </g>
      <path class="cls-2" d="M254.08,604.95c1.52-1.08,2.53-2.42,3.21-3.73.77.14,1.61.2,2.5.13,4.35-.33,6.89-3.33,7.54-4.15,3.79-4.85,1.67-10.91,1.41-11.62-.23-.64-.52-1.22-.82-1.76,1.03-1.86,2.32-5.06,1.63-8.63-.69-3.57-3.02-5.81-4.34-7.06-6.23-5.84-11.26-2.99-21.89-8.57-5.96-3.12-8.81-6.34-9.73-7.43-.78-.93-3.27-4.01-5-8.75-2.87-7.89-.94-13.29-.53-23.12.19-4.64.09-11.32-1.37-19.51.3,3.38.55,8.65-.13,15.03-.88,8.31-2.53,9.38-2.68,16.05-.13,5.7-.3,12.78,3.64,20.18,3.01,5.66,7.59,9.92,9.2,11.4,1.52,1.39,3.2,2.94,5.78,4.54,1.06.66,1.99,1.14,2.85,1.53,1.21.81,2.29,1.34,3.39,2.09,3.21,2.17,4.93,4.94,5.65,6.11,1,1.62,5.21,8.43,2.05,13.27-1.55,2.37-4.74,4.05-7.92,3.54-3.59-.58-5.93-3.75-6.64-6.75-.01-.57.03-1.45.36-2.46.31-.93.68-2.05,1.71-2.66.92-.53,1.89-.39,2.69-.26,1.44.22,2.51.89,3.17,1.41.16.22.27.44.36.74.34,1.16.05,2.74-1.04,3.66-.71.6-1.52.72-1.91.75.23.24,1.8,1.77,3.83,1.48,2.34-.33,3.55-2.86,3.79-4.62.31-2.33-.99-4.05-1.21-4.33-1-1.28-2.53-2.09-4.25-2.34-1.04-2.85-3.18-4.99-5.76-5.66-2.53-.66-6.08-.07-8.14,2.61-.16.21-2.13,2.86-1.3,6.1-2.18,1.41-3.69,4.11-4.29,6.3-.14.5-1.01,3.89.66,7.15,1.53,3,4.77,5.07,8.73,5.7.79,1.56,2.48,4.15,5.74,5.23,4.58,1.52,8.5-1.17,9.07-1.58ZM240.37,588.66s.06-.09.09-.13c.07.23.15.45.24.67-.12-.19-.23-.37-.33-.54ZM259.97,584.05c-.63-4.84-3.55-7.97-5.81-10.38-.58-.62-1.18-1.18-1.78-1.72.79.36,1.62.81,2.57,1.44,1.86,1.24,4.81,3.27,6.53,7.1.33.74.58,1.46.76,2.16.09.39.2.85.29,1.37.26,1.57.24,2.94.16,3.9,0,.02,0,.03,0,.05-.08.73-.24,1.5-.5,2.29-.3.9-.89,2.63-2.49,4.18-1.36,1.32-2.82,1.9-4.06,2.35-1.06.21-2.29.32-3.66.16-1.7-.19-3.05-.73-4.12-1.28.95.33,1.94.54,2.92.59.75.04,3.83.15,6.33-1.98,3.76-3.21,3.04-8.79,2.86-10.23Z" />
      <path class="cls-2" d="M213.04,543.43c-.82-4.78-.26-9.01.02-11.06.41-2.95,1.32-6.13,3.12-12.5.72-2.55,1.29-4.38,2.04-7.53,0,0,.69-2.87,1.33-6.8.4-2.42.53-3.77.47-5.36-.02-.47-.09-1.71-.39-3.29-.16-.81-.3-1.56-.65-2.49-.31-.84-.74-1.99-1.57-2.92-1.47-1.63-3.6-1.88-4.27-1.96-1.13-.13-2.24.04-3.29.41-.15-.21-.31-.42-.49-.63-.52-.6-1.67-1.77-3.51-2.49-.87-.34-3.6-1.4-5.9-.1-2.08,1.17-2.63,3.59-2.85,4.53-.18.8-.24,1.59-.21,2.37-1.14.38-2.06,1.03-2.62,1.88-1.25,1.9-.62,4.58.41,6.24.65,1.05,1.56,1.83,2.54,2.38-.09.9.03,1.82.4,2.7,1.28,3.01,4.82,3.87,7.19,2.94,2.82-1.11,3.93-4.81,3.36-5.29-.43-.37-1.62,1.25-3.22,1.11-.76-.06-1.43-.51-2.02-1.17-.11-.18-.3-.39-.52-.65-.15-.21-.29-.43-.42-.66-.4-1.1-.92-3.18.17-4.81.19-.29.63-.85,1.74-1.44.83-.31,1.98-.61,3.4-.4.44.07,1.64.27,2.77,1.13.43.33,1.45,1.2,2.5,4.84.51,1.77.89,3.69,1.1,6.09.27,3.05.14,5.41.1,6.13-.39,6.24-1.99,10.02-2.76,14.66-.39,2.31-1.6,10.11,1.6,18.17,1.09,2.74,3.41,7.33,8.51,11.73-2.99-3.26-6.83-8.59-8.07-15.79Z" />
    </g>
    <g>
      <g>
        <path class="cls-2" d="M158.99,404.16c.66-.36,1.4-.5,2.12-.51,0-.01,0-.03,0-.04,0-.2.07-3.06,2.34-4.17,1.89-.93,4.07-.04,5.28,1.24.7.74,1.04,1.57,1.2,2.34,1.6-1.04,3.58-1.28,5.25-.55,2.07.91,3.41,3.2,3.16,5.4-.26,2.24-2.1,3.68-3.76,4.39.18.74.15,1.52-.16,2.24-.76,1.81-2.82,2.51-4.41,2.08-2.32-.63-3.25-3.6-2.75-4.09.44-.43,1.84,1.15,3.4.71.43-.12.8-.39,1.11-.72.01-.43.87-1.31.78-2.87-.09-1.72-1.27-2.87-1.45-3.04-1.33-1.26-2.93-1.28-3.28-1.28-1.11.06-1.9.46-2.34.69-.32.17-.61.35-.86.54-.4.39-.93.85-1.25,1.75-.16.45-.54,1.57.31,3.84.92,2.49,2.12,3.89,3.41,5.7,1.62,2.27,2.57,4.05,3.83,6.41,1.86,3.48,2.67,6.04,3.29,7.68.66,1.76,4.39,11.63,12.46,16.88,2.19,1.43,7.32,4.22,15.61,3.86-2.92.57-9.2,1.32-15.68-1.75-6.77-3.21-10.42-9.03-11.81-11.24-.22-.35-1.33-2.36-3.53-6.36-2.15-3.91-2.9-5.32-3.7-7.39-.98-2.51-.67-2.46-1.42-3.97-1.49-2.99-3.63-5-4.59-5.94-2.12-2.06-2.89-1.97-3.93-3.71-.46-.77-1.29-2.23-1.08-4.12.04-.36.36-2.91,2.43-4.02Z" />
        <path class="cls-2" d="M99.8,383.28c.39-1.15,1.79-5.35,5.7-7.43,2.6-1.38,5.77-1.54,8.89-.6.49-1.49,1.32-3.05,2.75-4.43.53-.51,4.15-3.91,9.12-3.06,4.51.77,6.78,4.46,7.39,5.46,1.22,1.98,1.7,4.05,1.8,5.92,2.53.69,4.66,2.05,6.05,3.98,2.24,3.11,1.87,6.74,1.81,7.28-.35,3.07-2.24,7.44-6.51,8.68-.79.23-1.55.32-2.28.32.05,2.7-.91,5.11-2.66,6.46-4.3,3.33-12.63-.35-13.19-4.84-.41-3.33,3.55-6.27,4.05-6.62-.01.11-.21,2.58,1.59,3.84,1.12.78,2.51.76,3.61.39.39-.26.77-.57,1.11-.96,1.63-1.87,1.97-4.96.92-7.42-1.26-2.97-4.1-4.04-4.71-4.27-3.99-1.51-9.14-.01-11.6,3.17-4.2,5.44-.23,14.84,4.77,19.69,2.68,2.59,5.62,3.85,7.59,4.49h0c4.76,1.37,8.09,1.83,8.47,1.88,12.39,1.63,14.31-1.07,20.56.54,5.13,1.32,12.04,5.24,18.64,17.37-3.24-4.61-7.52-8.75-12.84-10.7-3.46-1.29-7.1-1.31-10.84-1.47-4.51-.19-7.29-.1-11.55.03-11.79.36-17.79.51-22.75-.73-4.68-1.17-9.1-2.28-12.19-6.38-2.96-3.93-3.91-9.56-2.52-13.21.44-1.16,1.23-2.38,1.42-2.67-.94-1.32-1.8-2.9-2.4-4.77-.54-1.65-1.72-5.48-.22-9.92ZM108.64,404.38c1.07,1.44,2.45,2.79,5.42,4.34-.64-.59-1.26-1.25-1.83-2-5.04-6.62-4.61-17.36,1.49-22.28,3.47-2.8,9.43-4.28,13.92-1.48,2.83,1.76,4.77,4.97,5.41,8.12.17-.61.27-1.25.26-1.96-.03-2-.92-3.44-1.54-4.44-1.51-2.44-3.61-3.86-5.13-4.65-1.39-.58-3.37-1.38-6.05-1.28-3.03.49-5.29,1.48-6.72,2.24-1.28.68-2.72,1.46-4.12,3.04-.29.32-1.34,1.53-2.18,3.41-.72,1.62-.95,2.97-1.09,3.89-.08.48-.26,1.79-.21,3.64.1,3.17.86,6.02,1.63,8.16-.04-.02-.08-.05-.12-.08.26.45.55.9.87,1.34Z" />
      </g>
      <path class="cls-2" d="M49.83,399.44c1.08-1.52,2.42-2.53,3.73-3.21-.14-.77-.2-1.61-.13-2.5.33-4.35,3.33-6.89,4.15-7.54,4.85-3.79,10.91-1.67,11.62-1.41.64.23,1.22.52,1.76.82,1.86-1.03,5.06-2.32,8.63-1.63,3.57.69,5.81,3.02,7.06,4.34,5.84,6.23,2.99,11.26,8.57,21.89,3.12,5.96,6.34,8.81,7.43,9.73.93.78,4.01,3.27,8.75,5,7.89,2.87,13.29.94,23.12.53,4.64-.19,11.32-.09,19.51,1.37-3.38-.3-8.65-.55-15.03.13-8.31.88-9.38,2.53-16.05,2.68-5.7.13-12.78.3-20.18-3.64-5.66-3.01-9.92-7.59-11.4-9.2-1.39-1.52-2.94-3.2-4.54-5.78-.66-1.06-1.14-1.99-1.53-2.85-.81-1.21-1.34-2.29-2.09-3.39-2.17-3.21-4.94-4.93-6.11-5.65-1.62-1-8.43-5.21-13.27-2.05-2.37,1.55-4.05,4.74-3.54,7.92.58,3.59,3.75,5.93,6.75,6.64.57.01,1.45-.03,2.46-.36.93-.31,2.05-.68,2.66-1.71.53-.92.39-1.89.26-2.69-.22-1.44-.89-2.51-1.41-3.17-.22-.16-.44-.27-.74-.36-1.16-.34-2.74-.05-3.66,1.04-.6.71-.72,1.52-.75,1.91-.24-.23-1.77-1.8-1.48-3.83.33-2.34,2.86-3.55,4.62-3.79,2.33-.31,4.05.99,4.33,1.21,1.28,1,2.09,2.53,2.34,4.25,2.85,1.04,4.99,3.18,5.66,5.76.66,2.53.07,6.08-2.61,8.14-.21.16-2.86,2.13-6.1,1.3-1.41,2.18-4.11,3.69-6.3,4.29-.5.14-3.89,1.01-7.15-.66-3-1.53-5.07-4.77-5.7-8.73-1.56-.79-4.15-2.48-5.23-5.74-1.52-4.58,1.17-8.5,1.58-9.07ZM66.13,413.15s.09-.06.13-.09c-.23-.07-.45-.15-.67-.24.19.12.37.23.54.33ZM70.74,393.55c4.84.63,7.97,3.55,10.38,5.81.62.58,1.18,1.18,1.72,1.78-.36-.79-.81-1.62-1.44-2.57-1.24-1.86-3.27-4.81-7.1-6.53-.74-.33-1.46-.58-2.16-.76-.39-.09-.85-.2-1.37-.29-1.57-.26-2.94-.24-3.9-.16-.02,0-.03,0-.05,0-.73.08-1.5.24-2.29.5-.9.3-2.63.89-4.18,2.49-1.32,1.36-1.9,2.82-2.35,4.06-.21,1.06-.32,2.29-.16,3.66.19,1.7.73,3.05,1.28,4.12-.33-.95-.54-1.94-.59-2.92-.04-.75-.15-3.83,1.98-6.33,3.21-3.76,8.79-3.04,10.23-2.86Z" />
      <path class="cls-2" d="M111.35,440.48c4.78.82,9.01.26,11.06-.02,2.95-.41,6.13-1.32,12.5-3.12,2.55-.72,4.38-1.29,7.53-2.04,0,0,2.87-.69,6.8-1.33,2.42-.4,3.77-.53,5.36-.47.47.02,1.71.09,3.29.39.81.16,1.56.3,2.49.65.84.31,1.99.74,2.92,1.57,1.63,1.47,1.88,3.6,1.96,4.27.13,1.13-.04,2.24-.41,3.29.21.15.42.31.63.49.6.52,1.77,1.67,2.49,3.51.34.87,1.4,3.6.1,5.9-1.17,2.08-3.59,2.63-4.53,2.85-.8.18-1.59.24-2.37.21-.38,1.14-1.03,2.06-1.88,2.62-1.9,1.25-4.58.62-6.24-.41-1.05-.65-1.83-1.56-2.38-2.54-.9.09-1.82-.03-2.7-.4-3.01-1.28-3.87-4.82-2.94-7.19,1.11-2.82,4.81-3.93,5.29-3.36.37.43-1.25,1.62-1.11,3.22.06.76.51,1.43,1.17,2.02.18.11.39.3.65.52.21.15.43.29.66.42,1.1.4,3.18.92,4.81-.17.29-.19.85-.63,1.44-1.74.31-.83.61-1.98.4-3.4-.07-.44-.27-1.64-1.13-2.77-.33-.43-1.2-1.45-4.84-2.5-1.77-.51-3.69-.89-6.09-1.1-3.05-.27-5.41-.14-6.13-.1-6.24.39-10.02,1.99-14.66,2.76-2.31.39-10.11,1.6-18.17-1.6-2.74-1.09-7.33-3.41-11.73-8.51,3.26,2.99,8.59,6.83,15.79,8.07Z" />
    </g>
  </g>
  <g>
    <g>
      <path class="cls-1" d="M281.21,396.1c.34,0,.66-.08.95-.23,0,0,0,.01,0,.02.04.08.65,1.2,1.78,1.18.94-.02,1.62-.81,1.85-1.57.13-.43.09-.84,0-1.18.85.09,1.68-.22,2.2-.85.64-.78.71-1.97.15-2.79-.56-.84-1.58-1.03-2.39-.98-.08-.33-.25-.63-.52-.86-.67-.56-1.63-.42-2.17.07-.79.72-.56,2.09-.26,2.18.26.08.5-.83,1.2-.97.2-.04.4,0,.59.06.09.17.61.35.9.98.31.7.08,1.4.04,1.5-.27.77-.9,1.11-1.04,1.18-.45.2-.85.2-1.07.2-.16,0-.31-.02-.45-.04-.24-.07-.54-.15-.85-.44-.15-.14-.53-.51-.66-1.59-.14-1.18.05-1.98.19-2.96.18-1.23.2-2.13.22-3.33.03-1.76-.17-2.94-.26-3.72-.09-.83-.62-5.52,1.51-9.25.58-1.01,2.05-3.17,5.41-4.71-1.28.37-3.93,1.35-5.87,3.89-2.04,2.65-2.3,5.71-2.4,6.87-.02.19-.05,1.21-.11,3.25-.06,1.99-.07,2.7.03,3.69.12,1.2.24,1.11.25,1.86.02,1.49-.42,2.72-.61,3.29-.42,1.25-.75,1.37-.8,2.27-.02.4-.06,1.15.41,1.86.09.14.74,1.08,1.79,1.1Z" />
      <path class="cls-1" d="M261.95,416.45c.39.38,1.8,1.76,3.78,1.79,1.31.02,2.61-.56,3.65-1.57.5.49,1.15.94,2,1.2.31.1,2.45.71,4.25-.64,1.63-1.22,1.78-3.15,1.83-3.67.08-1.04-.15-1.95-.49-2.72.86-.79,1.44-1.77,1.59-2.81.25-1.69-.63-3.06-.76-3.26-.76-1.15-2.41-2.5-4.35-2.12-.36.07-.68.19-.97.34-.53-1.08-1.4-1.84-2.37-2.03-2.39-.45-4.95,2.71-4.26,4.61.51,1.41,2.69,1.77,2.96,1.81-.03-.04-.61-.98-.15-1.85.28-.54.84-.81,1.36-.89.21.02.42.07.63.16,1.03.41,1.79,1.57,1.88,2.76.1,1.44-.81,2.44-1,2.66-1.28,1.41-3.63,1.87-5.25,1.1-2.78-1.31-3.11-5.85-2.11-8.79.54-1.58,1.45-2.68,2.1-3.33h0c1.61-1.51,2.84-2.37,2.98-2.47,4.59-3.17,5.9-2.49,8.06-4.4,1.77-1.57,3.72-4.53,3.87-10.7-.35,2.49-1.21,5.01-2.92,6.87-1.11,1.22-2.56,1.97-4.01,2.79-1.76.99-2.88,1.52-4.6,2.34-4.76,2.26-7.17,3.42-8.89,4.92-1.62,1.42-3.15,2.76-3.54,5.02-.38,2.17.39,4.59,1.69,5.76.41.37.97.69,1.11.77-.1.72-.12,1.52.02,2.38.12.77.43,2.53,1.94,3.99ZM261.16,406.27c.13-.79.41-1.61,1.27-2.83-.14.37-.25.75-.32,1.17-.66,3.66,1.7,7.84,5.13,8.55,1.95.41,4.62-.22,5.83-2.25.76-1.28.88-2.95.5-4.33.19.21.36.44.5.73.39.8.33,1.55.29,2.08-.1,1.28-.65,2.27-1.09,2.89-.43.51-1.06,1.24-2.14,1.74-1.3.42-2.4.49-3.12.48-.65-.01-1.38-.03-2.26-.37-.18-.07-.84-.33-1.56-.91-.62-.49-.98-.99-1.23-1.32-.13-.18-.47-.66-.82-1.4-.61-1.28-.88-2.57-1.02-3.57,0,.02-.02.04-.03.05.01-.23.03-.47.07-.71Z" />
    </g>
    <g>
      <path class="cls-1" d="M260.07,361.08c0,.34.08.66.23.95,0,0-.01,0-.02,0-.08.04-1.2.65-1.18,1.78.02.94.81,1.62,1.57,1.85.43.13.84.09,1.18,0-.09.85.22,1.68.85,2.2.78.64,1.97.71,2.79.15.84-.56,1.03-1.58.98-2.39.33-.08.63-.25.86-.52.56-.67.42-1.63-.07-2.17-.72-.79-2.09-.56-2.18-.26-.08.26.83.5.97,1.2.04.2,0,.4-.06.59-.17.09-.35.61-.98.9-.7.31-1.4.08-1.5.04-.77-.27-1.11-.9-1.18-1.04-.2-.45-.2-.85-.2-1.07,0-.16.02-.31.04-.45.07-.24.15-.54.44-.85.14-.15.51-.53,1.59-.66,1.18-.14,1.98.05,2.96.19,1.23.18,2.13.2,3.33.22,1.76.03,2.94-.17,3.72-.26.83-.09,5.52-.62,9.25,1.51,1.01.58,3.17,2.05,4.71,5.41-.37-1.28-1.35-3.93-3.89-5.87-2.65-2.04-5.71-2.3-6.87-2.4-.19-.02-1.21-.05-3.25-.11-1.99-.06-2.7-.07-3.69.03-1.2.12-1.11.24-1.86.25-1.49.02-2.72-.42-3.29-.61-1.25-.42-1.37-.75-2.27-.8-.4-.02-1.15-.06-1.86.41-.14.09-1.08.74-1.1,1.79Z" />
      <path class="cls-1" d="M239.72,341.82c-.38.39-1.76,1.8-1.79,3.78-.02,1.31.56,2.61,1.57,3.65-.49.5-.94,1.15-1.2,2-.1.31-.71,2.45.64,4.25,1.22,1.63,3.15,1.78,3.67,1.83,1.04.08,1.95-.15,2.72-.49.79.86,1.77,1.44,2.81,1.59,1.69.25,3.06-.63,3.26-.76,1.15-.76,2.5-2.41,2.12-4.35-.07-.36-.19-.68-.34-.97,1.08-.53,1.84-1.4,2.03-2.37.45-2.39-2.71-4.95-4.61-4.26-1.41.51-1.77,2.69-1.81,2.96.04-.03.98-.61,1.85-.15.54.28.81.84.89,1.36-.02.21-.07.42-.16.63-.41,1.03-1.57,1.79-2.76,1.88-1.44.1-2.44-.81-2.66-1-1.41-1.28-1.87-3.63-1.1-5.25,1.31-2.78,5.85-3.11,8.79-2.11,1.58.54,2.68,1.45,3.33,2.1h0c1.51,1.61,2.37,2.84,2.47,2.98,3.17,4.59,2.49,5.9,4.4,8.06,1.57,1.77,4.53,3.72,10.7,3.87-2.49-.35-5.01-1.21-6.87-2.92-1.22-1.11-1.97-2.56-2.79-4.01-.99-1.76-1.52-2.88-2.34-4.6-2.26-4.76-3.42-7.17-4.92-8.89-1.42-1.62-2.76-3.15-5.02-3.54-2.17-.38-4.59.39-5.76,1.69-.37.41-.69.97-.77,1.11-.72-.1-1.52-.12-2.38.02-.77.12-2.53.43-3.99,1.94ZM249.9,341.03c.79.13,1.61.41,2.83,1.27-.37-.14-.75-.25-1.17-.32-3.66-.66-7.84,1.7-8.55,5.13-.41,1.95.22,4.62,2.25,5.83,1.28.76,2.95.88,4.33.5-.21.19-.44.36-.73.5-.8.39-1.55.33-2.08.29-1.28-.1-2.27-.65-2.89-1.09-.51-.43-1.24-1.06-1.74-2.14-.42-1.3-.49-2.4-.48-3.12.01-.65.03-1.38.37-2.26.07-.18.33-.84.91-1.56.49-.62.99-.98,1.32-1.23.18-.13.66-.47,1.4-.82,1.28-.61,2.57-.88,3.57-1.02-.02,0-.04-.02-.05-.03.23.01.47.03.71.07Z" />
    </g>
    <g>
      <path class="cls-1" d="M315.53,377.76c.03-.33-.03-.66-.15-.96,0,0,.01,0,.02,0,.08-.03,1.25-.55,1.32-1.68.06-.94-.68-1.68-1.41-1.96-.42-.16-.83-.16-1.17-.09.16-.84-.08-1.69-.67-2.26-.73-.7-1.9-.86-2.77-.38-.88.49-1.16,1.49-1.17,2.3-.33.05-.65.2-.9.45-.62.62-.55,1.59-.1,2.17.66.85,2.04.72,2.16.43.1-.25-.79-.56-.88-1.28-.02-.2.02-.4.11-.58.18-.08.39-.58,1.05-.81.73-.26,1.4.03,1.5.08.75.33,1.03.99,1.09,1.13.16.47.13.86.11,1.08-.01.16-.04.31-.08.45-.09.23-.19.53-.51.82-.16.14-.56.49-1.64.53-1.19.05-1.97-.21-2.93-.43-1.21-.28-2.11-.37-3.3-.48-1.76-.17-2.95-.07-3.73-.04-.84.03-5.55.18-9.1-2.25-.96-.66-2.99-2.3-4.27-5.77.27,1.3,1.03,4.02,3.41,6.16,2.48,2.24,5.51,2.75,6.66,2.95.18.03,1.2.14,3.23.37,1.98.22,2.69.28,3.68.26,1.2-.03,1.13-.15,1.88-.1,1.49.1,2.68.64,3.23.88,1.21.52,1.31.86,2.2.98.4.06,1.14.15,1.89-.26.14-.08,1.14-.65,1.24-1.69Z" />
      <path class="cls-1" d="M334.28,398.59c.41-.36,1.9-1.65,2.09-3.62.12-1.31-.35-2.64-1.27-3.77.53-.46,1.03-1.07,1.36-1.89.12-.31.9-2.38-.3-4.28-1.09-1.73-3-2.03-3.52-2.11-1.03-.16-1.96,0-2.75.27-.72-.92-1.64-1.57-2.68-1.81-1.66-.39-3.1.38-3.31.5-1.2.67-2.68,2.2-2.47,4.17.04.36.14.7.26.99-1.12.44-1.95,1.25-2.21,2.2-.64,2.35,2.31,5.15,4.25,4.61,1.45-.4,1.98-2.54,2.04-2.8-.04.02-1.03.53-1.86,0-.51-.33-.74-.91-.78-1.42.04-.21.1-.41.21-.62.49-1,1.71-1.66,2.9-1.65,1.44.01,2.37,1,2.57,1.21,1.3,1.39,1.57,3.77.68,5.32-1.53,2.66-6.08,2.64-8.93,1.4-1.53-.66-2.55-1.66-3.15-2.36h0c-1.38-1.73-2.14-3.02-2.22-3.17-2.79-4.83-2.01-6.08-3.74-8.39-1.42-1.89-4.22-4.07-10.35-4.71,2.45.55,4.9,1.6,6.61,3.46,1.12,1.21,1.76,2.7,2.46,4.22.85,1.83,1.29,2.99,1.97,4.77,1.87,4.93,2.83,7.43,4.2,9.26,1.29,1.73,2.5,3.36,4.72,3.93,2.13.55,4.61-.03,5.88-1.22.4-.38.77-.91.86-1.04.71.16,1.51.25,2.38.17.77-.06,2.55-.23,4.13-1.61ZM324.06,398.56c-.78-.19-1.57-.53-2.72-1.49.35.17.73.31,1.14.41,3.59.95,7.95-1.07,8.93-4.43.56-1.91.15-4.62-1.77-5.99-1.21-.86-2.87-1.11-4.27-.84.22-.17.47-.32.76-.44.83-.33,1.58-.21,2.09-.12,1.27.21,2.21.83,2.8,1.32.48.47,1.15,1.15,1.57,2.28.32,1.33.3,2.44.23,3.15-.06.64-.14,1.37-.55,2.22-.08.17-.4.81-1.03,1.48-.54.57-1.06.9-1.42,1.12-.18.11-.69.42-1.47.71-1.32.5-2.63.68-3.64.73.02.01.04.02.05.04-.23-.03-.46-.07-.7-.13Z" />
    </g>
    <g>
      <path class="cls-1" d="M295.4,339.14c-.34,0-.66.08-.95.23,0,0,0-.01,0-.02-.04-.08-.65-1.2-1.78-1.18-.94.02-1.62.81-1.85,1.57-.13.43-.09.84,0,1.18-.85-.09-1.68.22-2.2.85-.64.78-.71,1.97-.15,2.79.56.84,1.58,1.03,2.39.98.08.33.25.63.52.86.67.56,1.63.42,2.17-.07.79-.72.56-2.09.26-2.18-.26-.08-.5.83-1.2.97-.2.04-.4,0-.59-.06-.09-.17-.61-.35-.9-.98-.31-.7-.08-1.4-.04-1.5.27-.77.9-1.11,1.04-1.18.45-.2.85-.2,1.07-.2.16,0,.31.02.45.04.24.07.54.15.85.44.15.14.53.51.66,1.59.14,1.18-.05,1.98-.19,2.96-.18,1.23-.2,2.13-.22,3.33-.03,1.76.17,2.94.26,3.72.09.83.62,5.52-1.51,9.25-.58,1.01-2.05,3.17-5.41,4.71,1.28-.37,3.93-1.35,5.87-3.89,2.04-2.65,2.3-5.71,2.4-6.87.02-.19.05-1.21.11-3.25.06-1.99.07-2.7-.03-3.69-.12-1.2-.24-1.11-.25-1.86-.02-1.49.42-2.72.61-3.29.42-1.25.75-1.37.8-2.27.02-.4.06-1.15-.41-1.86-.09-.14-.74-1.08-1.79-1.1Z" />
      <path class="cls-1" d="M314.66,318.79c-.39-.38-1.8-1.76-3.78-1.79-1.31-.02-2.61.56-3.65,1.57-.5-.49-1.15-.94-2-1.2-.31-.1-2.45-.71-4.25.64-1.63,1.22-1.78,3.15-1.83,3.67-.08,1.04.15,1.95.49,2.72-.86.79-1.44,1.77-1.59,2.81-.25,1.69.63,3.06.76,3.26.76,1.15,2.41,2.5,4.35,2.12.36-.07.68-.19.97-.34.53,1.08,1.4,1.84,2.37,2.03,2.39.45,4.95-2.71,4.26-4.61-.51-1.41-2.69-1.77-2.96-1.81.03.04.61.98.15,1.85-.28.54-.84.81-1.36.89-.21-.02-.42-.07-.63-.16-1.03-.41-1.79-1.57-1.88-2.76-.1-1.44.81-2.44,1-2.66,1.28-1.41,3.63-1.87,5.25-1.1,2.78,1.31,3.11,5.85,2.11,8.79-.54,1.58-1.45,2.68-2.1,3.33h0c-1.61,1.51-2.84,2.37-2.98,2.47-4.59,3.17-5.9,2.49-8.06,4.4-1.77,1.57-3.72,4.53-3.87,10.7.35-2.49,1.21-5.01,2.92-6.87,1.11-1.22,2.56-1.97,4.01-2.79,1.76-.99,2.88-1.52,4.6-2.34,4.76-2.26,7.17-3.42,8.89-4.92,1.62-1.42,3.15-2.76,3.54-5.02.38-2.17-.39-4.59-1.69-5.76-.41-.37-.97-.69-1.11-.77.1-.72.12-1.52-.02-2.38-.12-.77-.43-2.53-1.94-3.99ZM315.45,328.97c-.13.79-.41,1.61-1.27,2.83.14-.37.25-.75.32-1.17.66-3.66-1.7-7.84-5.13-8.55-1.95-.41-4.62.22-5.83,2.25-.76,1.28-.88,2.95-.5,4.33-.19-.21-.36-.44-.5-.73-.39-.8-.33-1.55-.29-2.08.1-1.28.65-2.27,1.09-2.89.43-.51,1.06-1.24,2.14-1.74,1.3-.42,2.4-.49,3.12-.48.65.01,1.38.03,2.26.37.18.07.84.33,1.56.91.62.49.98.99,1.23,1.32.13.18.47.66.82,1.4.61,1.28.88,2.57,1.02,3.57,0-.02.02-.04.03-.05-.01.23-.03.47-.07.71Z" />
    </g>
  </g>
  <g>
    <path class="cls-3" d="M247.41,459.74c4.47,6.05,10.95,9.89,17.74,10.71,11.28,1.58,24.77-5.81,19.87-18.69-1.71-5.88-13.06-6.36-11.84,1.09.23,1.54,1.98,2.76,3.84,2.14-1.68,1.34-4.42.38-5.25-1.58-2.34-4.48,1.56-9.16,6.2-9.69,4.49-.82,9.5,1.83,11.37,5.99,5.51,10.58-1.57,22.58-12.85,24.86-11.62,3.2-25.47-3.55-29.08-14.83Z" />
    <path class="cls-3" d="M332.72,459.74c-3.62,11.29-17.46,18.04-29.08,14.83-11.28-2.28-18.36-14.29-12.85-24.86,1.87-4.17,6.88-6.81,11.37-5.99,4.65.54,8.54,5.21,6.2,9.69-.83,1.96-3.56,2.93-5.25,1.58,1.86.62,3.61-.6,3.84-2.14,1.22-7.45-10.12-6.97-11.84-1.09-4.91,12.88,8.59,20.27,19.87,18.69,6.78-.82,13.26-4.66,17.74-10.71Z" />
    <path class="cls-3" d="M245.97,275.3c3.62-11.28,17.46-18.04,29.08-14.83,11.28,2.28,18.36,14.29,12.85,24.86-1.87,4.17-6.88,6.81-11.37,5.99-4.65-.54-8.54-5.21-6.2-9.69.83-1.96,3.56-2.93,5.25-1.58-1.86-.62-3.61.6-3.84,2.14-1.22,7.45,10.12,6.97,11.84,1.09,4.91-12.88-8.59-20.27-19.87-18.69-6.78.82-13.26,4.66-17.74,10.71Z" />
    <path class="cls-3" d="M331.28,275.3c-4.47-6.05-10.95-9.89-17.74-10.71-11.28-1.58-24.77,5.81-19.87,18.69,1.71,5.88,13.06,6.36,11.84-1.09-.23-1.54-1.98-2.76-3.84-2.14,1.68-1.34,4.42-.38,5.25,1.58,2.34,4.48-1.56,9.16-6.2,9.69-4.49.82-9.5-1.83-11.37-5.99-5.51-10.58,1.57-22.58,12.85-24.86,11.62-3.2,25.47,3.55,29.08,14.83Z" />
    <path class="cls-3" d="M382.36,327.75c11.28,3.62,18.04,17.46,14.83,29.08-2.28,11.28-14.29,18.36-24.86,12.85-4.17-1.87-6.81-6.88-5.99-11.37.54-4.65,5.21-8.54,9.69-6.2,1.96.83,2.93,3.56,1.58,5.25.62-1.86-.6-3.61-2.14-3.84-7.45-1.22-6.97,10.12-1.09,11.84,12.88,4.9,20.27-8.59,18.69-19.87-.82-6.78-4.66-13.26-10.71-17.74Z" />
    <path class="cls-3" d="M382.36,413.06c6.05-4.47,9.89-10.95,10.71-17.74,1.58-11.28-5.81-24.77-18.69-19.87-5.88,1.71-6.36,13.06,1.09,11.84,1.54-.23,2.76-1.98,2.14-3.84,1.34,1.68.38,4.42-1.58,5.25-4.48,2.34-9.16-1.56-9.69-6.2-.82-4.49,1.83-9.5,5.99-11.37,10.58-5.51,22.58,1.57,24.86,12.85,3.2,11.62-3.55,25.47-14.83,29.08Z" />
    <path class="cls-3" d="M191.73,320.12c-6.05,4.47-9.89,10.95-10.71,17.74-1.58,11.28,5.81,24.77,18.69,19.87,5.88-1.71,6.36-13.06-1.09-11.84-1.54.23-2.76,1.98-2.14,3.84-1.34-1.68-.38-4.42,1.58-5.25,4.48-2.34,9.16,1.56,9.69,6.2.82,4.49-1.83,9.5-5.99,11.37-10.58,5.51-22.58-1.57-24.86-12.85-3.2-11.62,3.55-25.47,14.83-29.08Z" />
    <path class="cls-3" d="M191.73,405.43c-11.28-3.62-18.04-17.46-14.83-29.08,2.28-11.28,14.29-18.36,24.86-12.85,4.17,1.87,6.81,6.88,5.99,11.37-.54,4.65-5.21,8.54-9.69,6.2-1.96-.83-2.93-3.56-1.58-5.25-.62,1.86.6,3.61,2.14,3.84,7.45,1.22,6.97-10.12,1.09-11.84-12.88-4.91-20.27,8.59-18.69,19.87.82,6.78,4.66,13.26,10.71,17.74Z" />
    <path class="cls-3" d="M253.71,460.06c-10.54,5.42-25.1.41-31.05-10.08-6.36-9.59-2.88-23.09,8.5-26.67,4.27-1.62,9.68.04,12.28,3.8,2.91,3.67,2.36,9.72-2.47,11.24-1.98.8-4.59-.45-4.83-2.59.88,1.75,2.98,2.13,4.23,1.2,6.13-4.41-2.23-12.09-7.6-9.14-12.59,5.7-8.26,20.35.83,27.26,5.38,4.22,12.68,6.08,20.12,4.97Z" />
    <path class="cls-3" d="M193.39,399.74c-1.11,7.44.75,14.74,4.97,20.12,6.92,9.1,21.57,13.42,27.27.83,2.94-5.37-4.73-13.73-9.14-7.6-.93,1.25-.55,3.35,1.2,4.23-2.14-.24-3.39-2.86-2.59-4.83,1.51-4.82,7.58-5.38,11.24-2.47,3.76,2.6,5.43,8.01,3.8,12.28-3.58,11.38-17.08,14.86-26.67,8.5-10.48-5.96-15.5-20.52-10.08-31.05Z" />
    <path class="cls-3" d="M252.86,273.2c-7.44-1.11-14.74.75-20.12,4.97-9.1,6.92-13.42,21.57-.83,27.27,5.37,2.94,13.73-4.73,7.6-9.14-1.25-.93-3.35-.55-4.23,1.2.24-2.14,2.86-3.39,4.83-2.59,4.82,1.51,5.38,7.58,2.47,11.24-2.6,3.76-8.01,5.43-12.28,3.8-11.38-3.58-14.86-17.08-8.5-26.67,5.96-10.48,20.52-15.5,31.05-10.08Z" />
    <path class="cls-3" d="M192.54,333.52c-5.42-10.54-.41-25.1,10.08-31.05,9.59-6.36,23.09-2.88,26.67,8.5,1.62,4.27-.04,9.68-3.8,12.28-3.67,2.91-9.72,2.36-11.24-2.47-.8-1.98.45-4.59,2.59-4.83-1.75.88-2.13,2.98-1.2,4.23,4.41,6.13,12.09-2.23,9.14-7.6-5.7-12.59-20.35-8.26-27.26.83-4.22,5.38-6.08,12.68-4.97,20.12Z" />
    <path class="cls-3" d="M322.8,465.75c7.44,1.11,14.74-.75,20.12-4.97,9.1-6.92,13.42-21.57.83-27.27-5.37-2.94-13.73,4.73-7.6,9.14,1.25.93,3.35.55,4.23-1.2-.24,2.14-2.86,3.39-4.83,2.59-4.82-1.51-5.38-7.58-2.47-11.24,2.59-3.76,8.01-5.43,12.28-3.8,11.38,3.58,14.86,17.08,8.5,26.67-5.96,10.48-20.52,15.5-31.05,10.08Z" />
    <path class="cls-3" d="M383.12,405.43c5.42,10.54.41,25.1-10.08,31.05-9.59,6.36-23.09,2.88-26.67-8.5-1.62-4.27.04-9.68,3.8-12.28,3.67-2.91,9.72-2.36,11.24,2.47.8,1.98-.45,4.59-2.59,4.83,1.75-.88,2.13-2.98,1.2-4.23-4.41-6.13-12.09,2.23-9.14,7.6,5.7,12.59,20.35,8.26,27.26-.83,4.22-5.38,6.08-12.68,4.97-20.12Z" />
    <path class="cls-3" d="M326.35,275.62c10.54-5.42,25.1-.41,31.05,10.08,6.36,9.59,2.88,23.09-8.5,26.67-4.27,1.62-9.68-.04-12.28-3.8-2.91-3.67-2.36-9.72,2.47-11.24,1.98-.8,4.59.45,4.83,2.59-.88-1.75-2.98-2.13-4.23-1.2-6.13,4.41,2.23,12.09,7.6,9.14,12.59-5.7,8.26-20.35-.83-27.26-5.38-4.22-12.68-6.08-20.12-4.97Z" />
    <path class="cls-3" d="M386.67,335.94c1.11-7.44-.75-14.74-4.97-20.12-6.92-9.1-21.57-13.42-27.27-.83-2.94,5.37,4.73,13.73,9.14,7.6.93-1.25.55-3.35-1.2-4.23,2.14.24,3.39,2.86,2.59,4.83-1.51,4.82-7.58,5.38-11.24,2.47-3.76-2.59-5.43-8.01-3.8-12.28,3.58-11.38,17.08-14.86,26.67-8.5,10.48,5.96,15.5,20.52,10.08,31.05Z" />
    <path class="cls-3" d="M260.35,305.63c4.78,7.76,16.88,10.32,23.27,3.56,2.6-3.03,2.8-8.67-.66-11.14-2.45-1.78-7.34-.37-6.32,3.24.23,1.04,1.47,1.77,2.62,1.3-1.08.76-2.72.16-3.19-1.08-1.97-4.58,4.32-7.22,7.79-5.04,1.22.63,2.25,1.73,2.8,2.96,3.35,6.25-1.17,13.89-7.89,15.13-7.27,2.04-15.77-2-18.43-8.94Z" />
    <path class="cls-3" d="M314.83,305.63c-2.66,6.94-11.15,10.98-18.43,8.94-6.72-1.24-11.24-8.88-7.89-15.13,1.65-3.87,7.48-5.16,10.25-1.75,1.17,1.62.92,4.4-1.05,5.15-.62.19-1.29.09-1.79-.24,2.63.93,3.54-2.76,1.95-4.2-1.39-1.42-4.04-1.42-5.65-.34-3.46,2.46-3.26,8.11-.66,11.14,6.39,6.76,18.49,4.2,23.27-3.56Z" />
    <path class="cls-3" d="M261.27,432.29c2.66-6.94,11.15-10.98,18.43-8.94,6.72,1.24,11.24,8.88,7.89,15.13-1.65,3.87-7.48,5.16-10.25,1.75-1.17-1.62-.92-4.4,1.05-5.15.62-.19,1.29-.09,1.79.24-2.63-.93-3.54,2.76-1.95,4.2,1.39,1.42,4.04,1.42,5.65.34,3.46-2.46,3.26-8.11.66-11.14-6.39-6.76-18.49-4.2-23.27,3.56Z" />
    <path class="cls-3" d="M315.75,432.29c-4.78-7.76-16.88-10.32-23.27-3.56-2.6,3.03-2.8,8.67.66,11.14,2.45,1.78,7.34.37,6.32-3.24-.23-1.04-1.47-1.77-2.62-1.3,1.08-.76,2.72-.15,3.19,1.08,1.97,4.58-4.32,7.22-7.79,5.04-1.22-.63-2.25-1.73-2.8-2.96-3.35-6.25,1.17-13.89,7.89-15.13,7.27-2.04,15.77,2,18.43,8.94Z" />
    <path class="cls-3" d="M224.61,396.38c7.76-4.78,10.32-16.88,3.56-23.27-3.03-2.6-8.67-2.8-11.14.66-1.78,2.45-.37,7.34,3.24,6.32,1.04-.23,1.77-1.47,1.3-2.62.76,1.08.15,2.72-1.08,3.19-4.58,1.97-7.22-4.32-5.04-7.79.63-1.22,1.73-2.25,2.96-2.8,6.25-3.35,13.89,1.17,15.13,7.89,2.04,7.27-2,15.77-8.94,18.43Z" />
    <path class="cls-3" d="M224.61,341.89c6.94,2.66,10.98,11.15,8.94,18.43-1.24,6.72-8.88,11.24-15.13,7.89-3.87-1.65-5.16-7.48-1.75-10.25,1.62-1.17,4.4-.92,5.15,1.05.19.62.09,1.29-.24,1.79.93-2.63-2.76-3.54-4.2-1.95-1.42,1.39-1.42,4.04-.34,5.65,2.46,3.46,8.11,3.26,11.14.66,6.76-6.39,4.2-18.49-3.56-23.27Z" />
    <path class="cls-3" d="M351.27,395.46c-6.94-2.66-10.98-11.15-8.94-18.43,1.24-6.72,8.88-11.24,15.13-7.89,3.87,1.65,5.16,7.48,1.75,10.25-1.62,1.17-4.4.92-5.15-1.05-.19-.62-.09-1.29.24-1.79-.93,2.63,2.76,3.54,4.2,1.95,1.42-1.39,1.42-4.04.34-5.65-2.46-3.46-8.11-3.26-11.14-.66-6.76,6.39-4.2,18.49,3.56,23.27Z" />
    <path class="cls-3" d="M351.27,340.97c-7.76,4.78-10.32,16.88-3.56,23.27,3.03,2.6,8.67,2.8,11.14-.66,1.78-2.45.37-7.34-3.24-6.32-1.04.23-1.77,1.47-1.3,2.62-.76-1.08-.15-2.72,1.08-3.19,4.58-1.97,7.22,4.32,5.04,7.79-.63,1.22-1.73,2.25-2.96,2.8-6.25,3.35-13.89-1.17-15.13-7.89-2.04-7.27,2-15.77,8.94-18.43Z" />
    <path class="cls-3" d="M262.98,433.04c2.11-8.87-4.63-19.24-13.94-18.97-4.93.18-10.24,6.82-5.9,10.93.76.68,1.77,1.22,2.73,1.17,2.15.1,4.1-3.15,1.59-4.35,1.31.23,2.03,1.81,1.49,3.02-1.84,4.63-8.16,2.05-9.07-1.95-.42-1.3-.36-2.81.11-4.07,2.05-6.79,10.65-8.99,16.28-5.12,6.59,3.7,9.74,12.57,6.71,19.35Z" />
    <path class="cls-3" d="M224.45,394.51c12.21-5.79,28.79,10.28,17.68,21.07-2.06,1.68-4.86,2.87-7.51,2.03-4-.92-6.59-7.23-1.95-9.07,1.2-.54,2.79.19,3.02,1.49-1.2-2.52-4.46-.56-4.35,1.59-.02,1.98,1.85,3.86,3.75,4.24,4.19.71,8.04-3.42,8.34-7.41.26-9.3-10.1-16.05-18.97-13.94Z" />
    <path class="cls-3" d="M351.89,342.83c-12.21,5.79-28.79-10.28-17.68-21.07,2.06-1.68,4.86-2.87,7.51-2.03,4,.92,6.59,7.23,1.95,9.07-1.2.54-2.79-.19-3.02-1.49,1.2,2.52,4.46.56,4.35-1.59.02-1.98-1.85-3.86-3.75-4.24-4.19-.71-8.04,3.42-8.34,7.41-.26,9.3,10.1,16.04,18.97,13.94Z" />
    <path class="cls-3" d="M313.36,304.3c-2.11,8.87,4.63,19.24,13.94,18.97,4.93-.18,10.24-6.82,5.9-10.93-.76-.68-1.77-1.22-2.73-1.17-2.15-.1-4.1,3.15-1.59,4.35-1.31-.23-2.03-1.81-1.49-3.02,1.84-4.63,8.16-2.05,9.07,1.95.42,1.3.36,2.81-.11,4.07-2.05,6.79-10.65,8.99-16.28,5.12-6.59-3.7-9.74-12.57-6.71-19.35Z" />
    <path class="cls-3" d="M224.5,342.1c8.87,2.11,19.24-4.63,18.97-13.94-.18-4.93-6.82-10.24-10.93-5.9-.68.76-1.22,1.77-1.17,2.73-.1,2.15,3.15,4.1,4.35,1.59-.23,1.31-1.81,2.03-3.02,1.49-4.63-1.84-2.05-8.16,1.95-9.07,1.3-.42,2.81-.36,4.07.11,6.79,2.05,8.99,10.65,5.12,16.28-3.7,6.59-12.57,9.74-19.35,6.71Z" />
    <path class="cls-3" d="M263.03,303.57c5.79,12.21-10.28,28.79-21.07,17.68-1.68-2.06-2.87-4.86-2.03-7.51.92-4,7.23-6.59,9.07-1.95.54,1.2-.19,2.79-1.49,3.02,2.52-1.2.56-4.46-1.59-4.35-1.98-.02-3.86,1.85-4.24,3.75-.71,4.19,3.42,8.04,7.41,8.34,9.3.26,16.05-10.1,13.94-18.97Z" />
    <path class="cls-3" d="M314.71,431.01c-5.79-12.21,10.28-28.79,21.07-17.68,1.68,2.06,2.87,4.86,2.03,7.51-.92,4-7.23,6.59-9.07,1.95-.54-1.2.19-2.79,1.49-3.02-2.52,1.2-.56,4.46,1.59,4.35,1.98.02,3.86-1.85,4.24-3.75.71-4.19-3.42-8.04-7.41-8.34-9.3-.26-16.05,10.1-13.94,18.97Z" />
    <path class="cls-3" d="M353.24,392.48c-8.87-2.11-19.24,4.63-18.97,13.94.18,4.93,6.82,10.24,10.93,5.9.68-.76,1.22-1.77,1.17-2.73.1-2.15-3.15-4.1-4.35-1.59.23-1.31,1.81-2.03,3.02-1.49,4.63,1.84,2.05,8.16-1.95,9.07-1.3.42-2.81.36-4.07-.11-6.79-2.05-8.99-10.65-5.12-16.28,3.7-6.59,12.57-9.74,19.35-6.71Z" />
  </g>
</svg>