<?xml version="1.0" encoding="UTF-8"?>
<svg id="_三兔" data-name="三兔" xmlns="http://www.w3.org/2000/svg" viewBox="0 0 595.28 841.89">
  <defs>
    <style>
      .cls-1 {
        stroke-width: 3.58px;
      }

      .cls-1, .cls-2, .cls-3 {
        fill: none;
      }

      .cls-1, .cls-3 {
        stroke: #231815;
        stroke-miterlimit: 10;
      }

      .cls-4 {
        fill: #231815;
      }

      .cls-3 {
        stroke-width: 3.16px;
      }
    </style>
  </defs>
  <g>
    <g>
      <path class="cls-4" d="M338.25,456.21c.16-8.19,3.02-15.88,7.21-22.69,2.68-4.54,5.85-8.82,7.74-13.66,2.99-7.88,3-16.54.88-24.75-.17-.82-.42-1.61-.52-2.56,0,0,.75-.18.75-.18.05.14.44.63.56.79,7.61,9.13,9.2,22.8,3.7,33.36-2.85,5.43-6.95,9.93-10.45,14.71-3.45,4.83-6.53,9.98-9.18,15.29,0,0-.7-.31-.7-.31h0Z"/>
      <path class="cls-4" d="M300.43,462.23c.15.15.15.12.12.2-1.75,3.21-1.74,7.7,1.92,9.25,1.4.59,4.04-.64,3.91-2.22-.1-.53-.09-.82-.35-1.39-.07-.22-.15-.54-.25-.77-4.27-10.54-3.08-22.02,6.43-29.26,5.34-4.08,11.62-6.19,17.94-8.12,0,0,1.26-.34,1.26-.34.2-.03.31-.16.32.11,0,.04.03.08.05.11.04.05.1.06.07-.02,0-.07-.06-.2-.1-.31l.57-.52c.2.22.49.46.45.83-.24.84-1.04,1.13-1.6,1.61,0,0-2.16,1.52-2.16,1.52-4.05,3.02-8.95,5.97-12.48,9.48-5.27,4.97-6.81,11.77-4.73,18.65.61,2.6,1.87,5.06,1.94,7.81.12,4.97-4.31,9-9.19,8.87-3.84.05-7.27-2.92-8.2-6.62-.76-3.52.83-7.58,3.85-9.5.2-.09.51-.1.7.05,0,0-.48.6-.48.6h0Z"/>
      <path class="cls-4" d="M336.95,416.16c-1.94,1.87-2.44,4.71-1.54,7.06.41,1.05,1.06,1.88,1.73,2.21,1.06.54,2.1.04,3.15-.43,1.25-.65,2.3-1.55,2.97-2.82,1.65-3,1.79-8.17-.12-11.17-2.7-2.87-6.79.25-9.1,2.35-1.92,1.85-3.5,4.2-5.6,6.34-1.52,1.6-3.12,3.04-4.81,4.36-17.97,12.92-37.48,10.45-41.02,37.89,0,0-.76.12-.76.12-.75-6.03.05-12.24,2.56-17.79,5.22-11.34,17.78-16.2,28.01-21.83,2.61-1.43,5.08-2.99,7.29-4.92,2.25-1.91,4.19-4.06,6.04-6.42,3.79-4.67,9.3-9.12,15.75-8.49,10.57,1.34,11.5,15.92,5.86,22.88-2.81,3.51-8.98,5.98-12.64,2.36-3.36-3.51-2.41-10.04,1.86-12.37,0,0,.37.67.37.67h0Z"/>
      <path class="cls-4" d="M325.26,456.42c.89-.11,1.54.44,2.02.9,1.62,1.7,2.22,3.94,1.27,6.46-.9,2.04-2.94,3.36-4.95,4.03-5.39,1.48-10.31-3.31-11.42-8.2-1.92-7.23,3.13-15.19,10.46-16.97,3.92-1.02,8.25.27,11.32,2.37,5.19,3.52,7.92,8.32,7.13,14.4-1.38,12.08-14.63,23.71-25.95,26.92-7.85,1.92-16.14,1.83-23.94-.21,0,0,.04-.77.04-.77,4.29.06,8.62-.35,12.85-1.11,4.17-.82,8.43-1.88,12.18-3.87,3.72-2.06,7.03-4.87,9.97-7.98,4.06-4.4,8.23-10.46,7.12-16.69-.54-1.94-2.21-3.32-3.73-4.51-3.58-2.77-7.85-1.73-10.39,1.83-2.42,3.1-1.87,8.56,1.71,10.48,2.71,1.3,6.36-.92,5.63-4.11-.13-.77-.6-2.03-1.35-2.22,0,0,.04-.77.04-.77h0Z"/>
    </g>
    <g>
      <path class="cls-4" d="M304.44,357.09c-6.41,3.51-13.44,4.77-20.58,4.7-4.68-.08-9.48-.7-14.06-.54-9.32.26-17.55,5.39-23.92,12.05-.6.57-1.13,1.18-1.86,1.75,0,0-.55-.54-.55-.54.06-.1.31-.7.36-.87,3.54-11.01,13.98-19.7,25.7-20.06,6-.17,11.77,1.29,17.48,2.07,5.74.71,11.58.93,17.36.66,0,0,.07.76.07.76h0Z"/>
      <path class="cls-4" d="M328.37,388.29c.06-.26.11-.15.36-.17,2.28.04,5.55-1.37,6.08-3.54.47-1.68.39-3.49-1.01-4.72-.57-.58-2.08-1.46-2.51-.8,0,.13-.2.25-.61.79-.08.12-.2.23-.3.34-.95,1.2-1.92,2.44-2.98,3.58-6.66,7.33-16.25,10.03-25.46,5.73-6.02-2.81-10.74-7.33-15.32-11.98,0,0-.87-.95-.87-.95-.08-.08-.1-.11-.15-.18-.04-.04,0-.04.02-.06.02-.06.09-.06.14-.11.14-.15.06-.22,0-.14-.06.03-.14.17-.21.25l-.74-.21c.11-.3.06-.56.45-.81.72-.3,1.55.38,2.18.62,0,0,2.32,1.18,2.32,1.18,4.5,2.14,9.34,5.06,14.02,6.54,8.97,2.95,15.17-1.07,20.53-8.03,2.64-3.49,7.32-5.11,11.23-2.62,9.4,5.8,3.61,20.38-7.3,16.03-.3-.21-.6-.29-.62-.85,0,0,.76.1.76.1h0Z"/>
      <path class="cls-4" d="M271.93,378.31c3.31,1.25,7.58-1.27,7.5-4.71-.39-2.4-3.45-4.12-5.82-4.17-3.09-.22-7.88,2.77-8.88,5.49-.64,2.87.92,4.65,3.64,6.3,1.97,1.09,3.69,1.68,6.04,2.11,2.87.53,6.79,1.49,9.65,2.69,11.14,4.5,18.99,14.52,29.66,19.56,7.39,3.59,15.44,2.46,23.32-1,0,0,.5.58.5.58-2.35,1.91-4.96,3.4-7.74,4.55-15.55,6.84-28.57-4.41-40.75-12.59-3.66-2.44-7.6-4.31-11.84-5.37-4.36-.97-8.94-1.59-12.8-4.11-9.59-5.86-9.05-17.37,1.27-22.07,2.76-1.31,5.94-1.93,9.02-1.29,6.3,1.19,11.61,9.04,5.6,13.98-2.4,2.04-6.11,2.5-8.76.7,0,0,.42-.64.42-.64h0Z"/>
      <path class="cls-4" d="M311.11,368.74c-.53-.69-.44-1.51-.31-2.17.49-2.35,2.55-4.22,5.05-4.4,8.99.5,10.22,11,4.67,16.5-5.35,5.68-15.21,4.74-20.12-1.17-4.13-4.94-4.01-11.97-1.73-17.62.51-1.22,1.33-2.41,2.25-3.35,6.86-6.77,17.06-5.72,25.22-2.85,12.46,4.27,19.62,12.64,24.56,24.61.87,2.08,1.58,4.22,2.12,6.42,0,0-.69.34-.69.34-2.03-3.79-4.45-7.4-7.12-10.77-2.7-3.33-5.64-6.57-9.06-9.06-3.48-2.43-7.52-4.06-11.62-5.25-5.79-1.57-13.17-2.46-17.87,1.82-1.32,1.52-1.59,3.67-1.82,5.6-.5,4.34,2.22,7.92,6.55,8.5,3.96.78,8.21-2.72,7.95-6.77-.2-2.88-3.79-5.43-6.2-3.06-.6.53-1.39,1.58-1.15,2.35,0,0-.69.34-.69.34h0Z"/>
    </g>
    <g>
      <path class="cls-4" d="M240.74,437.52c5.48,3.59,9.63,8.39,12.99,13.8,2.9,4.76,5.12,10.43,7.78,15.06,4.63,8.19,12.76,13.66,21.86,16.03.82.26,1.59.41,2.48.79,0,0-.22.74-.22.74-.02,0-.02,0-.04,0h-.11s-.25.03-.25.03l-.54.08c-11.61,2.43-24.15-3.54-29.84-13.89-2.95-5.29-4.56-11.07-6.75-16.5-2.25-5.42-4.94-10.71-7.99-15.72,0,0,.64-.43.64-.43h0Z"/>
      <path class="cls-4" d="M254.62,400.28c-.25.09-.17.02-.35-.23-1.39-2.42-4.79-5.12-7.37-3.4-.23.12-.75.45-.96.6-1.03,1.12-1.56,4.59.1,5.24.35.05.44.16.92.18.18.02.17.07.81.17,11.72,1.61,20.39,8.95,21.39,21.15.47,6.55-.89,13.09-2.53,19.41,0,0-.37,1.26-.37,1.26-.08.19-.03.37-.25.25-.09-.05-.18-.03-.2-.02-.02,0-.04.02-.04.04l.05.02c.05.04.21.04.31.06l.19.74c-.21.03-.36.14-.62.11-.52-.01-.69-.75-.72-.99-.08-.47-.11-.9-.14-1.35,0,0-.18-2.63-.18-2.63,0,0-.38-5.25-.38-5.25-.46-10.78-2-21.44-14.08-24.43-3.4-1.04-7.52-.99-9.91-4.11-3.64-4.47-1.91-12.17,3.42-14.47,3.46-1.66,7.94-.4,9.92,2.9.91,1.49,1.95,3.36,1.59,5.16-.04.13-.18.25-.3.32,0,0-.3-.71-.3-.71h0Z"/>
      <path class="cls-4" d="M274.56,456.32c-.59-3.35-4.76-6.37-7.72-4.5-1.21,1.15-1.22,3.15-1.09,4.91.51,3.86,4.21,6.88,7.89,7.83,1,.22,1.75.32,2.26.04.01-.02,0-.02.04-.04,0,0,.21-.1.21-.1,3.06-1.79,2.57-6.61,1.91-10.02-.61-2.62-1.81-5.41-2.5-8.35-.88-3.47-1.3-6.89-1.35-10.44.3-20.04,8.76-36.67-10.44-51.38,0,0,.28-.71.28-.71,5.63,2.45,10.51,6.53,13.8,11.72,6.52,10.67,4.17,23.89,3.79,35.69-.33,6,.53,11.85,2.62,17.48,2.01,5.73,2.97,12.58-.29,18.11-5.88,9.71-19.28,3.43-22.35-5.44-2.24-5.89,1.2-15.4,8.79-12.3,2.97,1.21,5.07,4.32,4.9,7.53l-.77-.02h0Z"/>
      <path class="cls-4" d="M247.06,425.63c-.31.83-1.12,1.17-1.78,1.37-2.34.61-4.76-.24-6.24-2.54-4.02-8.37,4.75-14.68,12.43-11.87,5.4,1.81,8.57,7.12,9.05,12.49.67,5.88-3.21,11.72-8.43,14.13-5.98,2.98-11.57,2.55-16.46-1.79-9.67-8.52-12.06-28.49-7.16-39.99,2.57-6.44,6.18-12.41,10.94-17.44,0,0,.66.4.66.4-2.15,3.77-3.93,7.79-5.4,11.88-1.4,4.1-2.6,8.35-2.95,12.62-.27,4.29.36,8.64,1.37,12.84,1.53,5.89,4.17,12.78,10,15.47,1.88.77,3.96-.08,5.74-.82,4.11-1.73,5.67-5.97,4.17-10.08-.66-1.93-2.02-3.61-3.88-4.43-2.66-1.27-6.53-.57-7.3,2.59-.69,1.93-.01,4.12,1.99,4.86.73.31,2.06.52,2.59-.08,0,0,.65.4.65.4h0Z"/>
    </g>
    <path class="cls-4" d="M362.34,231.79c-7.58-12.18-23.59-20.85-40.37-27.74-7.81-3.23-15.44-6.42-21.8-10.75-.85-.61-1.91-1.39-2.39-2.16.03-.27,0-.54-.11-.82l-.43.16-.43-.16c-.12.28-.14.55-.11.82-.48.77-1.54,1.55-2.39,2.16-6.36,4.34-13.99,7.52-21.8,10.75-16.78,6.88-32.79,15.56-40.37,27.74-6.08,9.9-5.08,20.93.09,30.87,3.73,7.38,11.58,14.85,23.67,17.51,3.6.94,7.58.92,11.22,1.46h.02s.09,0,.14.01c19.96,1.51,40.06,1.49,60.01-.03l.06.02c.11-.02.22-.03.33-.04,0,0,.02,0,.03,0,0,0,0,0,0,0,3.55-.49,7.38-.5,10.87-1.41,12.09-2.66,19.94-10.14,23.67-17.51,5.17-9.94,6.17-20.97.09-30.87ZM355.81,261.6c-3.32,8.83-11.81,16.67-26.45,18.9-.63.16-1.23.23-1.78.4-.69-3.51-2.89-6.66-5.39-9.44-3.27-3.63-7.15-6.86-11.69-9.15-4.8-2.42-10.37-3.72-15.85-3.27-3.19.26-6.29,1.12-9.17,2.38-8.08,3.55-15.24,10.23-18.45,17.87-.16.38-.31.76-.45,1.14-.04.11-.07.23-.09.36-.43-.1-.89-.16-1.37-.28-14.64-2.24-23.13-10.08-26.45-18.9-8.54-21.13,2.71-36.56,28.68-50.19,9.98-5.46,21.43-10.3,28.62-17.48.41-.49.89-1,1.27-1.53.37.53.86,1.04,1.27,1.53,7.2,7.17,18.64,12.02,28.62,17.48,25.97,13.63,37.21,29.06,28.68,50.19Z"/>
    <path class="cls-4" d="M217.07,235.69c-13.6-3.01-30.8,2.68-47.32,10.2-7.71,3.48-15.26,6.87-22.69,8.5-1.02.2-2.29.43-3.15.24-.16-.21-.36-.39-.63-.49l-.2.43-.41.21c.1.29.27.49.47.66.19.9-.04,2.23-.23,3.29-1.56,7.76-4.8,15.65-8.14,23.7-7.2,17.26-12.66,35.22-9.77,49.43,2.4,11.49,10.58,18.55,20.96,21.76,7.63,2.46,18.24,1.95,28.59-5.1,3.18-2,5.98-4.95,8.92-7.26v-.02s.09-.06.12-.09c15.13-13.68,29.34-28.53,42.42-44.35l.05-.03c.07-.09.14-.18.2-.27,0,0,.01-.01.02-.02,0,0,0,0,0,0,2.18-2.96,4.88-5.81,6.73-9.02,6.75-10.81,7.24-21.89,4.88-29.86-3.07-10.84-9.83-19.39-20.83-21.9ZM232.64,261.6c3.63,8.69,2.93,20.51-5.9,32.9-.34.58-.72,1.07-.99,1.6-2.86-1.97-6.55-2.58-10.21-2.69-4.77-.15-9.71.43-14.46,2.17-5.03,1.84-9.85,5.03-13.43,9.4-2.08,2.54-3.69,5.44-4.87,8.45-3.31,8.48-3.86,18.49-.95,26.26.14.38.3.76.46,1.13.05.11.11.22.18.32-.37.25-.74.55-1.16.82-11.86,9.23-23.17,9.96-31.5,6.17-20.34-8.64-22.83-27.85-13.7-56.67,3.36-11.23,8.18-23.11,8.41-33.5-.05-.65-.05-1.37-.14-2.02.62.1,1.31.1,1.93.15,9.94-.24,21.32-5.27,32.07-8.78,27.59-9.54,45.98-6.94,54.25,14.31Z"/>
    <path class="cls-4" d="M117,345.75c-11.66,7.91-19.97,24.64-26.55,42.17-3.09,8.15-6.14,16.13-10.29,22.77-.59.89-1.33,2-2.07,2.5-.26-.03-.51,0-.78.12l.15.45-.15.45c.27.13.53.15.78.12.74.5,1.48,1.61,2.07,2.5,4.15,6.64,7.2,14.62,10.29,22.77,6.59,17.52,14.89,34.25,26.55,42.17,9.48,6.35,20.04,5.3,29.55-.1,7.06-3.89,14.22-12.09,16.77-24.72.9-3.76.88-7.92,1.4-11.72v-.02s0-.1.01-.15c1.44-20.85,1.43-41.84-.03-62.69l.02-.06c-.02-.11-.03-.23-.04-.34,0,0,0-.02,0-.03,0,0,0,0,0,0-.47-3.7-.48-7.71-1.35-11.35-2.55-12.63-9.7-20.83-16.77-24.72-9.51-5.4-20.07-6.45-29.55-.1ZM145.54,352.57c8.45,3.47,15.96,12.33,18.1,27.62.15.66.22,1.28.38,1.86-3.36.72-6.38,3.02-9.04,5.63-3.48,3.42-6.57,7.47-8.76,12.21-2.31,5.02-3.56,10.83-3.13,16.56.25,3.33,1.07,6.57,2.28,9.58,3.4,8.44,9.79,15.92,17.1,19.27.36.17.72.32,1.09.47.11.04.22.07.34.1-.09.45-.15.93-.27,1.43-2.14,15.29-9.65,24.16-18.1,27.62-20.23,8.92-35-2.83-48.05-29.96-5.22-10.43-9.86-22.38-16.73-29.9-.47-.42-.96-.93-1.47-1.32.51-.39.99-.9,1.47-1.32,6.87-7.52,11.51-19.47,16.73-29.9,13.05-27.13,27.82-38.87,48.05-29.96Z"/>
    <path class="cls-4" d="M120.74,497.48c-2.89,14.21,2.57,32.17,9.77,49.43,3.33,8.05,6.57,15.94,8.14,23.7.19,1.06.41,2.4.23,3.29-.2.17-.37.37-.47.66l.41.21.2.43c.27-.11.47-.28.63-.49.86-.19,2.13.04,3.15.24,7.43,1.63,14.99,5.02,22.69,8.5,16.52,7.53,33.72,13.22,47.32,10.2,11-2.51,17.76-11.05,20.83-21.9,2.36-7.97,1.87-19.05-4.88-29.86-1.91-3.33-4.74-6.25-6.95-9.32h-.02c-.03-.05-.06-.09-.09-.13-13.09-15.81-27.31-30.64-42.46-44.31l-.03-.06c-.09-.07-.17-.14-.26-.21,0,0-.01-.01-.02-.02,0,0,0,0,0,0-2.84-2.27-5.56-5.09-8.64-7.03-10.35-7.05-20.96-7.56-28.59-5.1-10.38,3.21-18.56,10.27-20.96,21.76ZM145.54,481.23c8.32-3.79,19.63-3.06,31.5,6.17.55.36,1.02.75,1.53,1.03-1.89,2.99-2.47,6.85-2.58,10.66-.15,4.98.41,10.14,2.07,15.1,1.76,5.26,4.81,10.29,8.99,14.02,2.43,2.17,5.21,3.86,8.09,5.09,8.12,3.46,17.7,4.03,25.14.99.37-.15.73-.31,1.09-.48.1-.05.21-.11.31-.18.24.39.52.77.78,1.21,8.84,12.39,9.53,24.21,5.9,32.9-8.27,21.24-26.66,23.85-54.25,14.31-10.75-3.51-22.13-8.54-32.07-8.78-.62.05-1.31.05-1.93.15.09-.65.09-1.37.14-2.02-.23-10.39-5.05-22.27-8.41-33.5-9.14-28.82-6.64-48.03,13.7-56.67Z"/>
    <path class="cls-4" d="M226.1,602.01c7.58,12.18,23.59,20.85,40.37,27.74,7.81,3.23,15.44,6.42,21.8,10.75.85.61,1.91,1.39,2.39,2.16-.03.27,0,.54.11.82l.43-.16.43.16c.12-.28.14-.55.11-.82.48-.77,1.54-1.55,2.39-2.16,6.36-4.34,13.99-7.52,21.8-10.75,16.78-6.88,32.79-15.56,40.37-27.74,6.08-9.9,5.08-20.93-.09-30.87-3.73-7.38-11.58-14.85-23.67-17.51-3.6-.94-7.58-.92-11.22-1.46h-.02s-.09,0-.14-.01c-19.96-1.51-40.06-1.49-60.01.03l-.06-.02c-.11.02-.22.03-.33.04,0,0-.02,0-.03,0,0,0,0,0,0,0-3.55.49-7.38.5-10.87,1.41-12.09,2.66-19.94,10.14-23.67,17.51-5.17,9.94-6.17,20.97-.09,30.87ZM232.63,572.2c3.32-8.83,11.81-16.67,26.45-18.9.63-.16,1.23-.23,1.78-.4.69,3.51,2.89,6.66,5.39,9.44,3.27,3.63,7.15,6.86,11.69,9.15,4.8,2.42,10.37,3.72,15.85,3.27,3.19-.26,6.29-1.12,9.17-2.38,8.08-3.55,15.24-10.23,18.45-17.87.16-.38.31-.76.45-1.14.04-.11.07-.23.09-.36.43.1.89.16,1.37.28,14.64,2.24,23.13,10.08,26.45,18.9,8.54,21.13-2.71,36.56-28.68,50.19-9.98,5.46-21.43,10.3-28.62,17.48-.41.49-.89,1-1.27,1.53-.37-.53-.86-1.04-1.27-1.53-7.2-7.17-18.64-12.02-28.62-17.48-25.97-13.63-37.21-29.06-28.68-50.19Z"/>
    <path class="cls-4" d="M371.37,598.11c13.6,3.01,30.8-2.68,47.32-10.2,7.71-3.48,15.26-6.87,22.69-8.5,1.02-.2,2.29-.43,3.15-.24.16.21.36.39.63.49l.2-.43.41-.21c-.1-.29-.27-.49-.47-.66-.19-.9.04-2.23.23-3.29,1.56-7.76,4.8-15.65,8.14-23.7,7.2-17.26,12.66-35.22,9.77-49.43-2.4-11.49-10.58-18.55-20.96-21.76-7.63-2.46-18.24-1.95-28.59,5.1-3.18,2-5.98,4.95-8.92,7.26v.02s-.09.06-.12.09c-15.13,13.68-29.34,28.53-42.42,44.35l-.05.03c-.07.09-.14.18-.2.27,0,0-.01.01-.02.02,0,0,0,0,0,0-2.18,2.96-4.88,5.81-6.73,9.02-6.75,10.81-7.24,21.89-4.88,29.86,3.07,10.84,9.83,19.39,20.83,21.9ZM355.81,572.2c-3.63-8.69-2.93-20.51,5.9-32.9.34-.58.72-1.07.99-1.6,2.86,1.97,6.55,2.58,10.21,2.69,4.77.15,9.71-.43,14.46-2.17,5.03-1.84,9.85-5.03,13.43-9.4,2.08-2.54,3.69-5.44,4.87-8.45,3.31-8.48,3.86-18.49.95-26.26-.14-.38-.3-.76-.46-1.13-.05-.11-.11-.22-.18-.32.37-.25.74-.55,1.16-.82,11.86-9.23,23.17-9.96,31.5-6.17,20.34,8.64,22.83,27.85,13.7,56.67-3.36,11.23-8.18,23.11-8.41,33.5.05.65.05,1.37.14,2.02-.62-.1-1.31-.1-1.93-.15-9.94.24-21.32,5.27-32.07,8.78-27.59,9.54-45.98,6.94-54.25-14.31Z"/>
    <path class="cls-4" d="M471.44,488.05c11.66-7.91,19.97-24.64,26.55-42.17,3.09-8.15,6.14-16.13,10.29-22.77.59-.89,1.33-2,2.07-2.5.26.03.51,0,.78-.12l-.15-.45.15-.45c-.27-.13-.53-.15-.78-.12-.74-.5-1.48-1.61-2.07-2.5-4.15-6.64-7.2-14.62-10.29-22.77-6.59-17.52-14.89-34.25-26.55-42.17-9.48-6.35-20.04-5.3-29.55.1-7.06,3.89-14.22,12.09-16.77,24.72-.9,3.76-.88,7.92-1.4,11.72v.02s0,.1-.01.15c-1.44,20.85-1.43,41.84.03,62.69l-.02.06c.02.11.03.23.04.34,0,0,0,.02,0,.03,0,0,0,0,0,0,.47,3.7.48,7.71,1.35,11.35,2.55,12.63,9.7,20.83,16.77,24.72,9.51,5.4,20.07,6.45,29.55.1ZM442.9,481.23c-8.45-3.47-15.96-12.33-18.1-27.62-.15-.66-.22-1.28-.38-1.86,3.36-.72,6.38-3.02,9.04-5.63,3.48-3.42,6.57-7.47,8.76-12.21,2.31-5.02,3.56-10.83,3.13-16.56-.25-3.33-1.07-6.57-2.28-9.58-3.4-8.44-9.79-15.92-17.1-19.27-.36-.17-.72-.32-1.09-.47-.11-.04-.22-.07-.34-.1.09-.45.15-.93.27-1.43,2.14-15.29,9.65-24.16,18.1-27.62,20.23-8.92,35,2.83,48.05,29.96,5.22,10.43,9.86,22.38,16.73,29.9.47.42.96.93,1.47,1.32-.51.39-.99.9-1.47,1.32-6.87,7.52-11.51,19.47-16.73,29.9-13.05,27.13-27.82,38.87-48.05,29.96Z"/>
    <path class="cls-4" d="M467.7,336.32c2.89-14.21-2.57-32.17-9.77-49.43-3.33-8.05-6.57-15.94-8.14-23.7-.19-1.06-.41-2.4-.23-3.29.2-.17.37-.37.47-.66l-.41-.21-.2-.43c-.27.11-.47.28-.63.49-.86.19-2.13-.04-3.15-.24-7.43-1.63-14.99-5.02-22.69-8.5-16.52-7.53-33.72-13.22-47.32-10.2-11,2.51-17.76,11.05-20.83,21.9-2.36,7.97-1.87,19.05,4.88,29.86,1.91,3.33,4.74,6.25,6.95,9.32h.02c.03.05.06.09.09.13,13.09,15.81,27.31,30.64,42.46,44.31l.03.06c.09.07.17.14.26.21,0,0,.01.01.02.02,0,0,0,0,0,0,2.84,2.27,5.56,5.09,8.64,7.03,10.35,7.05,20.96,7.56,28.59,5.1,10.38-3.21,18.56-10.27,20.96-21.76ZM442.9,352.57c-8.32,3.79-19.63,3.06-31.5-6.17-.55-.36-1.02-.75-1.53-1.03,1.89-2.99,2.47-6.85,2.58-10.66.15-4.98-.41-10.14-2.07-15.1-1.76-5.26-4.81-10.29-8.99-14.02-2.43-2.17-5.21-3.86-8.09-5.09-8.12-3.46-17.7-4.03-25.14-.99-.37.15-.73.31-1.09.48-.1.05-.21.11-.31.18-.24-.39-.52-.77-.78-1.21-8.84-12.39-9.53-24.21-5.9-32.9,8.27-21.24,26.66-23.85,54.25-14.31,10.75,3.51,22.13,8.54,32.07,8.78.62-.05,1.31-.05,1.93-.15-.09.65-.09,1.37-.14,2.02.23,10.39,5.05,22.27,8.41,33.5,9.14,28.82,6.64,48.03-13.7,56.67Z"/>
    <path class="cls-4" d="M223.56,508.47c2.24,3.15,5.12,6.06,8.22,8.76,4.47,4.08,10.06,7.48,13.29,12.15.73,1.15,1.34,2.49,1.27,3.62-.11.26-.21.54-.28.83,0,0,.19.06.37.12.16.09.34.19.34.19.16-.26.28-.52.38-.79.74-.83,2.09-1.3,3.39-1.54,5.47-.79,11.68,1.08,17.59,1.63,4.01.48,8.02.64,11.74.15,12.93-1.54,16.47-9.46,16.96-19.5.25-4.62-.07-9.38-.95-14.21-.34-1.54-.57-3.1-1.31-4.66-.03-.09-.19-.31-.4-.49-7.02-2.27-17.08-3.34-28.22-8.5-11.14-5.16-18.96-11.7-25.39-15.43-.26-.03-.53,0-.61.04-1.59.52-2.83,1.42-4.13,2.23-3.96,2.67-7.47,5.71-10.49,9.1-6.61,7.32-9.64,15.46-1.77,26.29ZM228.44,489.13c.58-.89,1.21-1.75,1.88-2.58,3.06-3.83,6.79-7.22,10.59-10.54.17-.15.35-.3.62-.32.34-.03.72.15,1.06.31,15.51,7.6,31.49,14.72,47.55,21.18.78,5.73.74,11.34.06,16.76-.39,3.13-1.07,6.23-2.64,8.9-1.58,2.69-3.99,4.18-7.22,5.47-5.36,2.13-12.29,1.38-18.79,1.12-5.03-.2-10.23-.16-14.05,1.82-.81-3.2-3.16-6.38-5.85-9.26-2.69-2.88-5.77-5.56-8.47-8.45-3.74-4-6.77-8.5-7.55-12.92-.77-4.3.63-8.12,2.82-11.49Z"/>
    <path class="cls-4" d="M406.17,404.34c.55-3.88.48-8.07.11-12.26-.4-6.18-2.05-12.72-1.17-18.41.26-1.35.74-2.75,1.55-3.5.26-.1.51-.22.76-.38,0,0-.09-.19-.18-.36-.05-.19-.11-.39-.11-.39-.29.06-.55.16-.8.28-1.09.04-2.36-.62-3.44-1.41-4.4-3.48-7.53-9.39-11.34-14.15-2.51-3.3-5.23-6.37-8.2-8.78-10.18-8.46-18.05-5.48-25.2,1.26-3.31,3.08-6.3,6.68-8.94,10.75-.81,1.34-1.7,2.61-2.23,4.26-.04.08-.08.36-.05.64,3.43,6.79,9.82,14.98,14.21,26.86,4.39,11.88,5.49,22.28,7.51,29.66.17.22.38.39.46.42,1.48.81,2.96,1.09,4.43,1.47,4.6,1.03,9.15,1.48,13.58,1.31,9.63-.29,17.29-3.81,19.04-17.28ZM389.63,414.41c-1.01.2-2.04.34-3.07.44-4.76.44-9.69.1-14.62-.37-.22-.02-.45-.05-.65-.23-.26-.23-.41-.63-.54-1.01-5.82-16.82-12.3-33.67-19.29-50.1,3.33-4.63,7.16-8.56,11.3-11.9,2.39-1.93,4.98-3.62,7.89-4.34,2.94-.73,5.65-.01,8.81,1.47,5.23,2.45,9.62,8.1,14.04,13.09,3.42,3.86,7.13,7.67,11.17,9.1-1.59,2.86-2.08,6.84-2.13,10.87-.05,4.03.31,8.2.27,12.23-.06,5.59-.97,11.01-3.4,14.71-2.37,3.61-5.95,5.28-9.77,6.04Z"/>
    <path class="cls-4" d="M364.88,325.33c-2.24-3.15-5.12-6.06-8.22-8.76-4.47-4.08-10.06-7.48-13.29-12.15-.73-1.15-1.34-2.49-1.27-3.62.11-.26.21-.54.28-.83,0,0-.19-.06-.37-.12-.16-.09-.34-.19-.34-.19-.16.26-.28.52-.38.79-.74.83-2.09,1.3-3.39,1.54-5.47.79-11.68-1.08-17.59-1.63-4.01-.48-8.02-.64-11.74-.15-12.93,1.54-16.47,9.46-16.96,19.5-.25,4.62.07,9.38.95,14.21.34,1.54.57,3.1,1.31,4.66.03.09.19.31.4.49,7.02,2.27,17.08,3.34,28.22,8.5,11.14,5.16,18.96,11.7,25.39,15.43.26.03.53,0,.61-.04,1.59-.52,2.83-1.42,4.13-2.23,3.96-2.67,7.47-5.71,10.49-9.1,6.61-7.32,9.64-15.46,1.77-26.29ZM360,344.67c-.58.89-1.21,1.75-1.88,2.58-3.06,3.83-6.79,7.22-10.59,10.54-.17.15-.35.3-.62.32-.34.03-.72-.15-1.06-.31-15.51-7.6-31.49-14.72-47.55-21.18-.78-5.73-.74-11.34-.06-16.76.39-3.13,1.07-6.23,2.64-8.9s3.99-4.18,7.22-5.47c5.36-2.13,12.29-1.38,18.79-1.12,5.03.2,10.23.16,14.05-1.82.81,3.2,3.16,6.38,5.85,9.26s5.77,5.56,8.47,8.45c3.74,4,6.77,8.5,7.55,12.92.77,4.3-.63,8.12-2.82,11.49Z"/>
    <path class="cls-4" d="M282.2,299.96c-3.71-.57-7.72-.5-11.74-.12-5.92.41-12.18,2.14-17.62,1.22-1.29-.27-2.63-.77-3.35-1.62-.1-.27-.21-.54-.37-.8,0,0-.18.1-.35.19-.18.06-.37.12-.37.12.06.3.16.58.26.84.04,1.13-.6,2.46-1.35,3.59-3.33,4.6-8.99,7.87-13.54,11.84-3.16,2.62-6.1,5.47-8.4,8.56-8.1,10.64-5.25,18.85,1.21,26.32,2.95,3.46,6.4,6.58,10.29,9.34,1.28.84,2.5,1.77,4.08,2.33.08.04.35.08.61.05,6.5-3.58,14.34-10.26,25.71-14.84s21.33-5.74,28.4-7.84c.21-.17.38-.4.41-.48.78-1.54,1.04-3.09,1.41-4.63.99-4.81,1.41-9.56,1.26-14.18-.28-10.06-3.65-18.06-16.54-19.89ZM291.84,317.24c.19,1.06.33,2.13.42,3.21.42,4.97.09,10.12-.36,15.27-.02.23-.05.47-.22.68-.22.27-.61.43-.96.56-16.11,6.08-32.23,12.85-47.96,20.15-4.43-3.48-8.2-7.47-11.39-11.8-1.84-2.5-3.46-5.2-4.16-8.24-.7-3.07-.01-5.91,1.4-9.2,2.35-5.47,7.76-10.05,12.53-14.67,3.69-3.57,7.34-7.44,8.71-11.66,2.74,1.66,6.55,2.18,10.4,2.22s7.85-.33,11.7-.28c5.35.07,10.54,1.02,14.09,3.55,3.45,2.47,5.05,6.21,5.79,10.21Z"/>
    <path class="cls-4" d="M206.56,343.1c-3.01,2.34-5.8,5.35-8.38,8.59-3.91,4.67-7.16,10.51-11.63,13.88-1.1.76-2.38,1.4-3.47,1.33-.25-.12-.51-.22-.8-.29,0,0-.06.2-.12.39-.09.17-.19.36-.19.36.25.17.5.29.76.4.8.77,1.25,2.18,1.48,3.54.76,5.71-1.03,12.2-1.56,18.38-.46,4.19-.61,8.37-.15,12.26,1.47,13.5,9.05,17.21,18.67,17.72,4.43.27,8.98-.07,13.6-1,1.48-.35,2.97-.59,4.46-1.37.08-.03.3-.2.47-.41,2.17-7.34,3.19-17.84,8.13-29.48,4.94-11.64,11.2-19.81,14.77-26.52.03-.28,0-.56-.04-.64-.49-1.66-1.36-2.96-2.13-4.31-2.55-4.13-5.47-7.8-8.71-10.96-7-6.91-14.81-10.07-25.16-1.85ZM225.07,348.19c.85.6,1.68,1.27,2.47,1.96,3.66,3.2,6.91,7.09,10.09,11.06.14.17.28.36.31.64.03.35-.14.75-.3,1.11-7.27,16.2-14.09,32.89-20.27,49.67-5.49.81-10.86.77-16.04.07-3-.41-5.97-1.12-8.52-2.76s-4.01-4.17-5.24-7.54c-2.04-5.6-1.32-12.83-1.07-19.63.19-5.25.15-10.69-1.74-14.68,3.06-.85,6.1-3.3,8.86-6.11,2.76-2.81,5.33-6.03,8.09-8.84,3.83-3.91,8.14-7.07,12.37-7.89,4.11-.8,7.78.66,11,2.95Z"/>
    <path class="cls-4" d="M182.27,429.46c-.55,3.88-.48,8.07-.11,12.26.4,6.18,2.05,12.72,1.17,18.41-.26,1.35-.74,2.75-1.55,3.5-.26.1-.51.22-.76.38,0,0,.09.19.18.36.05.19.11.39.11.39.29-.06.55-.16.8-.28,1.09-.04,2.36.62,3.44,1.41,4.4,3.48,7.53,9.39,11.34,14.15,2.51,3.3,5.23,6.37,8.2,8.78,10.18,8.46,18.05,5.48,25.2-1.26,3.31-3.08,6.3-6.68,8.94-10.75.81-1.34,1.7-2.61,2.23-4.26.04-.08.08-.36.05-.64-3.43-6.79-9.82-14.98-14.21-26.86-4.39-11.88-5.49-22.28-7.51-29.66-.17-.22-.38-.39-.46-.42-1.48-.81-2.96-1.09-4.43-1.47-4.6-1.03-9.15-1.48-13.58-1.31-9.63.29-17.29,3.81-19.04,17.28ZM198.81,419.39c1.01-.2,2.04-.34,3.07-.44,4.76-.44,9.69-.1,14.62.37.22.02.45.05.65.23.26.23.41.63.54,1.01,5.82,16.82,12.3,33.67,19.29,50.1-3.33,4.63-7.16,8.56-11.3,11.9-2.39,1.93-4.98,3.62-7.89,4.34-2.94.73-5.65.01-8.81-1.47-5.23-2.45-9.62-8.1-14.04-13.09-3.42-3.86-7.13-7.67-11.17-9.1,1.59-2.86,2.08-6.84,2.13-10.87.05-4.03-.31-8.2-.27-12.23.06-5.59.97-11.01,3.4-14.71,2.37-3.61,5.95-5.28,9.77-6.04Z"/>
    <path class="cls-4" d="M306.25,533.84c3.71.57,7.72.5,11.74.12,5.92-.41,12.18-2.14,17.62-1.22,1.29.27,2.63.77,3.35,1.62.1.27.21.54.37.8,0,0,.18-.1.35-.19.18-.06.37-.12.37-.12-.06-.3-.16-.58-.26-.84-.04-1.13.6-2.46,1.35-3.59,3.33-4.6,8.99-7.87,13.54-11.84,3.16-2.62,6.1-5.47,8.4-8.56,8.1-10.64,5.25-18.85-1.21-26.32-2.95-3.46-6.4-6.58-10.29-9.34-1.28-.84-2.5-1.77-4.08-2.33-.08-.04-.35-.08-.61-.05-6.5,3.58-14.34,10.26-25.71,14.84-11.37,4.58-21.33,5.74-28.4,7.84-.21.17-.38.4-.41.48-.78,1.54-1.04,3.09-1.41,4.63-.99,4.81-1.41,9.56-1.26,14.18.28,10.06,3.65,18.06,16.54,19.89ZM296.6,516.56c-.19-1.06-.33-2.13-.42-3.21-.42-4.97-.09-10.12.36-15.27.02-.23.05-.47.22-.68.22-.27.61-.43.96-.56,16.11-6.08,32.23-12.85,47.96-20.15,4.43,3.48,8.2,7.47,11.39,11.8,1.84,2.5,3.46,5.2,4.16,8.24.7,3.07.01,5.91-1.4,9.2-2.35,5.47-7.76,10.05-12.53,14.67-3.69,3.57-7.34,7.44-8.71,11.66-2.74-1.66-6.55-2.18-10.4-2.22s-7.85.33-11.7.28c-5.35-.07-10.54-1.02-14.09-3.55-3.45-2.47-5.05-6.21-5.79-10.21Z"/>
    <path class="cls-4" d="M381.88,490.7c3.01-2.34,5.8-5.35,8.38-8.59,3.91-4.67,7.16-10.51,11.63-13.88,1.1-.76,2.38-1.4,3.47-1.33.25.12.51.22.8.29,0,0,.06-.2.12-.39.09-.17.19-.36.19-.36-.25-.17-.5-.29-.76-.4-.8-.77-1.25-2.18-1.48-3.54-.76-5.71,1.03-12.2,1.56-18.38.46-4.19.61-8.37.15-12.26-1.47-13.5-9.05-17.21-18.67-17.72-4.43-.27-8.98.07-13.6,1-1.48.35-2.97.59-4.46,1.37-.08.03-.3.2-.47.41-2.17,7.34-3.19,17.84-8.13,29.48-4.94,11.64-11.2,19.81-14.77,26.52-.03.28,0,.56.04.64.49,1.66,1.36,2.96,2.13,4.31,2.55,4.13,5.47,7.8,8.71,10.96,7,6.91,14.81,10.07,25.16,1.85ZM363.37,485.61c-.85-.6-1.68-1.27-2.47-1.96-3.66-3.2-6.91-7.09-10.09-11.06-.14-.17-.28-.36-.31-.64-.03-.35.14-.75.3-1.11,7.27-16.2,14.09-32.89,20.27-49.67,5.49-.81,10.86-.77,16.04-.07,3,.41,5.97,1.12,8.52,2.76s4.01,4.17,5.24,7.54c2.04,5.6,1.32,12.83,1.07,19.63-.19,5.25-.15,10.69,1.74,14.68-3.06.85-6.1,3.3-8.86,6.11-2.76,2.81-5.33,6.03-8.09,8.84-3.83,3.91-8.14,7.07-12.37,7.89-4.11.8-7.78-.66-11-2.95Z"/>
    <g>
      <ellipse class="cls-3" cx="294.22" cy="417.76" rx="71.56" ry="74.74"/>
      <ellipse class="cls-1" cx="294.22" cy="417.76" rx="81.08" ry="84.69"/>
    </g>
    <g>
      <path d="M165.92,414.31h1.42c-.23,2.68.56,5.61.25,8.26-.17,1.47-1.66.78-1.66.48v-8.75Z"/>
      <path d="M291.62,548.07v-1.48c1.1.32,8.41-.56,8.73-.25.1.1.04,1.73-.35,1.73h-8.37Z"/>
      <path d="M221,521.72c.42-.1,6.32,4.45,7.15,5.05-.55.54-.44,1.37-1.29.88-2.22-1.28-4.42-3.28-6.6-4.69-.12-.17.61-1.2.73-1.23Z"/>
      <path d="M285.49,283.01c.05.05.03,1.39-.02,1.46-.27.33-7.28.77-8.33,1.02-.16-.03-.34-.93-.37-1.15-.09-.82,1.83-.52,2.47-.59.83-.09,6.03-.98,6.25-.74Z"/>
      <path d="M246.34,539.46c-.05.39-.25,1.53-.78,1.44l-7.68-3.79.46-1.1c.4-.3,6.9,3.21,8,3.45Z"/>
      <path d="M370.07,312.34c.42-.1,5.83,4.94,6.65,5.52-.14.32-.5,1.03-.81,1.09-.44.09-5.57-4.7-6.47-5.27-.55-.32.33-1.28.64-1.35Z"/>
      <path d="M410.15,454.49c.21-.05,1.23.35,1.25.59l-2.61,7.84c-.17.8-1.52.18-1.56-.19.46-.96,2.5-8.15,2.92-8.24Z"/>
      <path d="M238.76,529.63c.22.32-.33,1.73-.92,1.35l-6.83-3.97c-.54-.45.25-1,.24-1.6l7.51,4.22Z"/>
      <path d="M405.51,476.9c.13.2-.06.66-.17.9-1.06,2.37-2.79,4.85-3.94,7.19l-1.04-.49c-.12-.34-.02-.64.1-.95.88-2.25,2.8-4.63,3.77-6.91,0-.37,1.23.2,1.28.27Z"/>
      <path d="M182.66,356.66l4.03-7.86c.28-.21,1.68.35,1.3.98l-3.8,7.14c-.43.57-.96-.27-1.53-.25Z"/>
      <path d="M416.14,432.79l-1.21,8.46c-.19.64-1.6.62-1.61-.19l1.41-8.52,1.41.25Z"/>
      <path d="M168.52,435h-1.41s-.96-8.72-.96-8.72c.02-.35,1.76-.75,1.67.22l.71,8.5Z"/>
      <path d="M395.03,497.33c.39.42,1.08.81.72,1.47l-5.19,6.35c-.2.01-1.01-.6-1.02-.8-.03-.45,4.78-6.21,5.5-7.02Z"/>
      <path d="M399.85,345.84l4.26,7.87-1.4.48-4.17-7.37c-.15-.42,1.08-1.15,1.3-.98Z"/>
      <path d="M376.4,510.14c.22,0,1.26,1.22.61,1.61l-5.68,5.17c-.39.46-1.49-.55-1.3-.87l6.38-5.91Z"/>
      <path d="M170.4,446.09l-1.41.25-1.61-8.56c-.03-.75,1.36-.81,1.57-.15l1.45,8.46Z"/>
      <path d="M181,370.47c.37.43-2.39,7.45-2.6,8.59l-1.39-.24,2.61-8.22c.03-.54,1.31-.21,1.38-.13Z"/>
      <path d="M300.35,549.3v1.48c-2.85-.18-5.65.32-8.49.25v-1.73h8.49Z"/>
      <path d="M420.86,410.37h1.42s.25,8.73.25,8.73l-1.42.39c.07-.24-.24-.53-.24-.62v-8.5Z"/>
      <path d="M258.6,537.98c.09.13-.33,1.63-.82,1.48l-7.67-2.73c-.1-.12.02-1.64.56-1.46.94.55,7.67,2.36,7.92,2.71Z"/>
      <path d="M384.19,329.62c.41.03,4.57,5.74,5.43,6.35.28.3-.34.98-.6,1.12-.47.25-.99-.53-1.3-.87-1.56-1.73-2.86-3.75-4.49-5.42-.37-.43.69-1.19.96-1.17Z"/>
      <path d="M179.58,367.49c-.26.19-1.45-.27-1.37-.8l3.29-7.79c.43-.1,1.42.25,1.37.8l-3.29,7.79Z"/>
      <path d="M330.41,294.15l7.68,2.78c.38.25.06,1.08-.13,1.36-.24.36-.28.13-.52.07-2.45-.64-4.91-1.98-7.38-2.66-.52-.27.02-1.52.35-1.55Z"/>
      <path d="M357.17,308.13c-.16.11-.5-.03-.69-.12-2.35-1.12-4.64-3.04-7.08-4.06.21-.36.36-.92.59-1.22.32-.42.22-.13.47,0,2.28,1.17,4.42,2.66,6.71,3.84.7.05.12,1.49,0,1.58Z"/>
      <path d="M362.52,303.48c.49-.11,6.32,4.33,7.14,5.02-.28.23-.46.82-.68,1-.34.27-6.32-4.4-7.21-4.81-.17-.24.48-1.15.75-1.21Z"/>
      <path d="M211.69,516.02c-.18-.28.51-1.26.81-1.43l6.72,5.76c-.4.41-.78,1.13-1.41.75l-6.12-5.08Z"/>
      <path d="M210.85,516.8c.41,0,5.43,4.92,6.38,5.4.36.67-.32,1.05-.72,1.48l-6.38-5.41c-.46-.38.55-1.47.72-1.47Z"/>
      <path d="M217.78,316.53c.07.06.71,1.22.28,1.34-1.93,1.57-3.82,3.86-5.79,5.3-.7.51-.96-.36-1.2-.99,1.96-1.55,3.74-3.62,5.68-5.17.22-.17.81-.64,1.04-.48Z"/>
      <path d="M396.6,495.56c-.16-.23.04-.63.15-.88.93-2.09,3.19-4.3,4.18-6.47.7-.74,1.65.4,1.12,1.16-1.56,1.73-2.73,4.82-4.19,6.47-.33.37-1.1-.05-1.26-.28Z"/>
      <path d="M317.53,290.92c.1.16.05.81.03,1.08-.02.39.1.4-.35.37-2.46-.17-5.24-1.1-7.74-1.28-.59-.14-.54-1.55-.02-1.66.98.37,7.85,1.11,8.09,1.48Z"/>
      <path d="M215.59,314.31c.37-.09,1.07.88.92,1.22l-5.9,5.43c-.47.59-1.47-.52-1.2-1l6.18-5.65Z"/>
      <path d="M196.09,496.56c-.04.06-1.16.65-1.37.49-.26-1.17-4.7-6.51-4.7-7,0-.24.82-.98,1.23-.85.37.12,4.19,5.83,4.59,6.55.11.2.39.61.26.8Z"/>
      <path d="M390.58,493.89c.28-.07,1.27.68,1.27.85,0,.42-4.66,5.51-5.05,6.54-.64.6-1.09-.13-1.54-.63l5.32-6.76Z"/>
      <path d="M199.88,496.34s.05.39.23.61c.66.81,5.18,5.75,5.18,6.16,0,.24-1.18,1.32-1.54.63l-4.95-6.19c-.34-.43.79-1.42,1.07-1.22Z"/>
      <path d="M257.65,540.69c.07.48-.22,1.47-.77,1.43l-7.71-2.67.25-1.47c.42-.38,7.13,2.53,8.24,2.71Z"/>
      <path d="M202.92,332.55c.24.36-.36,1.1-.58,1.43-1.39,2.01-3.27,3.9-4.69,5.91-.49-.56-1.34-.49-.83-1.33,1.34-2.2,3.57-4.19,4.95-6.42.13-.24,1.12.36,1.15.42Z"/>
      <path d="M410.25,466.54c.26.35-3.16,7.05-3.43,8.13-.11.35-1.24-.21-1.28-.27-.29-.42,3.1-7.23,3.29-8.36l1.41.5Z"/>
      <path d="M246.81,300.01l-.47-1.48,7.91-3.18c.32.24.68.9.57,1.3-.13.49-6.97,2.93-8,3.36Z"/>
      <path d="M360.25,301.73l-.48,1.47c-2.55-1.25-5.18-2.73-7.52-4.35-.11-.32.33-1.27.57-1.29.73-.06,6.09,3.99,7.43,4.16Z"/>
      <path d="M197.88,328.34c.39.41,1.08.81.72,1.47l-4.96,6.18c-.23.44-1.24-.39-1.25-.63-.03-.45,4.81-6.17,5.5-7.02Z"/>
      <path d="M342.56,536.25c.14.1.47,1.59-.14,1.7l-7.64,2.98c.05-.56-.51-1.19,0-1.6,1.05-.17,7.44-3.33,7.78-3.08Z"/>
      <path d="M169.69,391.15l-1.21,8.46c-.03.52-1.53.49-1.62.4-.3-.29,1.39-7.33,1.22-8.46.2-.63,1.09-.38,1.61-.41Z"/>
      <path d="M414.73,385.98l-2.31-8.51c.03-.31,1.47-.94,1.55-.18l2.14,7.88c.04.68-.98.54-1.38.82Z"/>
      <polygon points="168.04 402.73 167.57 411.6 165.92 411.6 166.64 402.74 168.04 402.73"/>
      <path d="M360.25,307.15c-.16-.24.63-1.24.82-1.47,1.79,1.75,4.9,3,6.61,4.67.65.64.01,1.62-.66,1.45l-6.77-4.65Z"/>
      <path d="M205.45,319.98c.3-.07,1.24.83.93,1.22-.89.58-5.49,6.15-5.91,6.15-.1,0-.94-.77-.72-1.22.29-.6,5.3-6.06,5.7-6.15Z"/>
      <path d="M380.29,514.57s.44.86.45.91c.15.64-5.26,4.9-5.98,5.75-.43.77-1.31-.8-1.2-.99,1.9-1.47,3.58-3.46,5.44-4.92.24-.18,1.07-.9,1.28-.74Z"/>
      <path d="M170.6,403.01c.46.68-.56,7.49-.44,8.83h-1.42s.51-8.71.51-8.71c.07-.6,1.19-.36,1.35-.12Z"/>
      <path d="M418.72,433.3c.3.36-1.34,7.69-1.16,8.85-1.45.15-1.49-.24-1.41-1.6.14-2.36,1.09-5.08,1.18-7.52.24.01,1.35.21,1.39.27Z"/>
      <path d="M418.28,421.72c.33-.29,1.67.03,1.42.84-.2,1.62-.39,3.3-.49,4.93-.04.7.19,2.93-.22,3.22s-1.45.19-1.42-.49c.45-1.12.28-8.11.72-8.5Z"/>
      <path d="M371.72,310.12c.23-.05.77.44,1.01.62,1.51,1.13,3.87,3.09,5.21,4.4.67.65.27,1.44-.39,1.59-.41.09-5.62-4.91-6.59-5.4-.18-.24.51-1.17.75-1.22Z"/>
      <path d="M419.44,387.47c-.04,1.25,1.85,8.31,1.4,8.83-.27.32-1.15.4-1.39-.35-.32-1.01-1.42-6.69-1.43-7.64,0-1.01.62-.9,1.42-.84Z"/>
      <path d="M418.25,396.81l-1.41.26-1.65-8.87c.46-.07,1.24-.54,1.54-.01l1.52,8.62Z"/>
      <path d="M173,445.59h-1.27s-1.74-8.51-1.74-8.51c.55-.45,1.36-.91,1.59.02.66,2.69.95,5.74,1.42,8.49Z"/>
      <path d="M349.87,297.79l-7.55-3.57c-.51-.31,0-1.63.48-1.5l7.3,3.48c.55.46-.26,1-.24,1.6Z"/>
      <path d="M378.07,512.36c.36-.08,1.05,1.05.95,1.22l-5.9,5.43c-.44.59-1.45-.48-1.2-1l6.16-5.66Z"/>
      <path d="M207.34,321.95c.3-.07,1.24.83.93,1.22-1.94,1.42-3.61,4.62-5.43,5.93-.67.48-1.43-.53-1.2-1,1.16-.67,4.97-5.97,5.7-6.14Z"/>
      <path d="M387.75,506.46c.26-.06,1.02.76,1.02.85s-.88,1.16-1.05,1.36c-.82.98-3.6,4.07-4.47,4.69-.8.57-1.56-.28-1.2-1,.98-.68,5.08-5.76,5.7-5.9Z"/>
      <path d="M234.98,304.72c.11.08.75,1.22.27,1.32-.97.38-6.92,4.58-7.28,4.3-.17-.13-.75-1.32-.15-1.47,2.01-1.11,4.01-2.77,6.01-3.82.29-.15.88-.53,1.15-.33Z"/>
      <path d="M385.84,504.23l1.06,1.1c-2.15,1.93-3.76,4.55-6.01,6.29l-1.06-.87,6.01-6.52Z"/>
      <path d="M243.73,298.51l-7.45,3.68c-.33.17-.7-.9-.76-1.12-.13-.48.06-.26.27-.38,2.3-1.36,4.82-2.35,7.17-3.61.51-.08.95,1.16.77,1.43Z"/>
      <path d="M253.64,292.87c.08.07.39,1.42-.13,1.44l-7.34,2.95c-.5.16-.85-1.39-.78-1.44.04-.03.46-.03.7-.13,1.88-.81,4.55-2.13,6.42-2.66.26-.07.97-.3,1.12-.16Z"/>
      <path d="M374.84,319.74c.14.21-.39,1.4-.45,1.45-.21.16-.92-.46-1.15-.64-1.9-1.41-3.56-3.23-5.47-4.65-.43-.49.32-1.79.96-1.24l6.1,5.08Z"/>
      <path d="M190.8,337.45l.96.73v.51c-1.56,2.01-2.75,4.65-4.28,6.62-.62.8-1.19.21-1.49-.55l4.81-7.31Z"/>
      <path d="M421.57,433.77l-1.42,8.87c-.24-.01-1.35-.21-1.39-.27-.28-.34,1.15-7.75,1.38-8.75.41-.32.98.09,1.43.15Z"/>
      <path d="M300.35,543.64v1.48c-1.92.06-3.86-.08-5.79-.01-.8.03-1.76.5-2.55.22-.69-.24-.38-1.69-.03-1.69h8.37Z"/>
      <path d="M410.03,363.05l-3.51-7.55c-.45-.42.88-1.04,1.02-1.03.42.03,3.25,6.89,3.86,7.78.08.53-1.12.99-1.37.8Z"/>
      <path d="M263.32,286.7c.06.09.38,1.51,0,1.61-1.07.05-7.68,2.59-8.02,2.34-.09-.07-.45-1.46,0-1.61,1.05.06,7.77-2.68,8.02-2.34Z"/>
      <path d="M174.17,459.64l3.04,8.26c-.53.47-1.18.88-1.58.19-1.21-2.13-1.66-5.6-2.87-7.84l1.4-.61Z"/>
      <path d="M418.73,384.74c-.04.06-1.31.47-1.43.11l-2.28-8.12c.03-.38,1.39-.99,1.56-.19.05,1.06,2.39,7.85,2.16,8.2Z"/>
      <path d="M213.72,312.35c.64-.18,1.38.74.8,1.35l-5.45,4.9c-.62.66-1.35.22-1.53-.6l6.18-5.64Z"/>
      <path d="M352.45,531.59c.1.07.36,1.26.24,1.44-.04.06-1.03.33-1.32.47-1.58.77-3.99,2.41-5.49,2.88-1.09.34-1.41-.26-.95-1.24,2.09-.76,4.58-2.82,6.6-3.46.25-.08.74-.23.93-.09Z"/>
      <path d="M397.04,344.59l-4.63-6.89c-.17-.52.63-1.69,1.29-.83,1.55,2,2.91,4.43,4.43,6.49.29.46-.81,1.44-1.08,1.24Z"/>
      <path d="M414.02,388.44l1.66,8.73c-.02.17-1.54.69-1.62-.03l-1.47-8.32,1.42-.39Z"/>
      <path d="M186.43,358.63c-.16.12-1.55-.58-1.14-1.05l4.09-7.57.96.73.07.33-3.99,7.56Z"/>
      <path d="M401.77,475.17c.25-.19,1.45.27,1.37.8l-3.77,7.16c-.35.8-1.53.08-1.35-.65l3.76-7.31Z"/>
      <path d="M181.96,478.6l-1.41.5c-.62-2.44-2.77-5.1-3.44-7.39-.28-.96.76-1.5,1.19-.99l3.66,7.88Z"/>
      <path d="M412.6,365.04l2.78,7.82c.38,1.05-.56.91-1.36,1.05l-2.8-8.06c-.3-.33,1.29-.88,1.38-.81Z"/>
      <path d="M407.64,367.26c-.01,1.18,3.09,8.01,2.84,8.37-.06.09-1.39.47-1.54,0-.2-1.15-3.04-7.58-2.69-8.11.07-.11,1.26-.37,1.39-.26Z"/>
      <path d="M259.55,542.89l.36-1.48c2.46.89,5.33,1.14,7.77,1.98.93.32.53,1.01.01,1.67l-8.14-2.17Z"/>
      <path d="M415.43,410.37h1.42c.06,2.09-.07,4.2-.01,6.29.02.73.53,1.98.14,2.59-.29.47-1.55.23-1.55-.14v-8.75Z"/>
      <path d="M320.15,290.15c-.09-.06.13-1.37.26-1.46.28-.2,5.82,1.29,6.63,1.53.33.1,1.78.47,1.8.78.02.21-.38,1.23-.77,1.11l-7.92-1.97Z"/>
      <path d="M322.49,547.55c-.23.36-7.16,1.25-8.12,1.7l-.22-.18-.36-1.24,8.14-1.74c.62-.07.77,1.13.56,1.46Z"/>
      <path d="M267.1,293.1l-.24-1.46,8.11-1.71c.45.53.9,1.5,0,1.69-2.6.57-5.27.95-7.88,1.48Z"/>
      <path d="M321.33,540.43l.24,1.48c-1.03.16-8.12,1.97-8.47,1.71-.12-.09-.35-1.33-.25-1.45l8.48-1.73Z"/>
      <polygon points="172.76 414.31 173 423.18 171.58 423.18 171.34 414.31 172.76 414.31"/>
      <path d="M397.49,347.32l4.26,7.87-1.41.5-4.22-7.51c.17-.32,1.11-1.04,1.37-.85Z"/>
      <path d="M174.85,392.17c.37.54-1.07,7.6-1.16,8.81-.43.07-1.24.13-1.38-.38l1.2-8.3c.05-.61,1.18-.37,1.34-.13Z"/>
      <path d="M279.35,542.66c.1.12-.13,1.37-.25,1.45-.35.25-7.39-1.25-8.37-1.45l.14-1.49,8.48,1.49Z"/>
      <path d="M171.11,448.55c-.02,1.22,2.42,8.12,2.1,8.6-.08.13-1.28.36-1.39.26-.25-2.55-1.86-5.58-2.11-8.03-.09-.91.6-.65,1.4-.83Z"/>
      <path d="M285.73,285.96v1.48s-8.35.75-8.35.75c-1.01-1.71.56-1.53,1.89-1.71.82-.11,6.23-.76,6.46-.52Z"/>
      <path d="M360.96,524.67l-7.22,4.41c-.41.15-.92-1.19-.77-1.43l7.17-4.45.82,1.46Z"/>
      <path d="M422.27,421.94c.33.34-.6,7.96-.47,9.12h-1.42s.47-9.12.47-9.12h1.42Z"/>
      <path d="M187.74,477.87c.41.03,3.63,6.55,4.27,7.38.22.71-.77,1.37-1.43.49-1.39-1.86-2.38-4.71-3.81-6.63-.36-.43.81-1.24.97-1.23Z"/>
      <path d="M179.36,457.67l2.84,8.02c0,.62-.84.69-1.3.86l-2.92-8.06c-.04-.59.92-.87,1.38-.81Z"/>
      <path d="M219.25,524.21c.24-.18.75.08.99.25l6.05,4.28c.5.43-.13,1.51-.78,1.32l-6.67-4.64c-.24-.14.35-1.16.4-1.2Z"/>
      <path d="M311.2,545.36v1.47s-8.49,1-8.49,1c.17-.52-.47-1.52.15-1.69l8.34-.77Z"/>
      <polygon points="172.28 391.65 171.11 400.51 169.69 400.51 170.87 391.4 172.28 391.65"/>
      <path d="M174.17,435.99c-.09,1.49,1.86,8.04,1.31,8.89-.22.35-.93.22-1.31.23.01-2.69-1.28-5.68-1.42-8.26-.05-.99.57-.52,1.41-.85Z"/>
      <path d="M236.19,534.53c.14.21-.35,1.55-.78,1.44-2.08-1.4-4.89-2.47-6.85-3.95-.74-.56-.06-1.55.63-1.41l7,3.92Z"/>
      <path d="M341.6,533.81c.11.08.36,1.32.25,1.45l-8.01,2.96-.21-1.45c2.31-.74,4.75-2.2,7.05-2.86.25-.07.72-.24.93-.1Z"/>
      <path d="M274.4,285.96l-8.48,1.49v-1.47c2.39-.1,5.18-1.32,7.46-1.47,1.12-.08,1.09.36,1.02,1.45Z"/>
      <path d="M173.7,447.82l2.12,8.03c.24.82-.76.83-1.4.83-.21-2.68-1.88-5.71-2.12-8.27-.06-.59.9-.59,1.4-.59Z"/>
      <polygon points="422.04 407.66 420.62 407.66 419.93 398.8 420.99 398.6 421.3 398.95 422.04 407.66"/>
      <path d="M339.26,294.34c-.25.42-.18,1.55-.79,1.44-2.02-1.25-5.4-1.52-7.3-2.73-.55-.35-.4-1.21-.14-1.41.53-.39,7.08,2.49,8.23,2.69Z"/>
      <path d="M220.36,518.97c-.26.2-.88-.14-1.13-.35-.62-.75-5.9-4.76-5.9-5.16,0-.17,1.04-1.22,1.41-.75l6.03,5.3c.06.11-.37.92-.41.95Z"/>
      <path d="M333.11,543.17c.1.09.42,1.43-.14,1.41l-7.85,2.25-.23-1.45c1.13-.11,7.78-2.62,8.22-2.21Z"/>
      <path d="M296.57,285.47v1.48c-2.81.43-5.66.19-8.49.25v-1.48s8.49-.25,8.49-.25Z"/>
      <path d="M185.38,479.36c.41.03,3.63,6.51,4.32,7.31.22.62-.81,1.35-1.26.81l-4.11-7.06c-.12-.36.91-1.06,1.04-1.05Z"/>
      <polygon points="302.94 550.54 302.94 549.06 311.09 548.13 311.31 548.31 311.62 549.44 311.08 549.8 302.94 550.54"/>
      <path d="M296.57,282.76v1.48c-2.07.09-4.19-.12-6.26-.01-.56.03-1.08.25-1.64.27-1.07.03-.45-.73-.59-1.73h8.49Z"/>
      <path d="M288.44,288.43h8.02c.33,0,.66,1.21-.03,1.44-1.03.35-5.12-.02-6.58.02-.67.02-1.63.68-1.77-.36-.06-.45,0-.85.36-1.11Z"/>
      <path d="M232.88,529.37c.17.26-.27,1.37-.6,1.44-.45.11-2.3-1.37-2.92-1.46l.82-1.45,2.7,1.47Z"/>
      <path d="M389.42,500.06c.53-.14,1.13.47.99,1.04-.04.15-1.83,2.34-1.98,2.34-.08,0-1.13-.72-1.06-1.05.03-.15,1.84-2.27,2.04-2.33Z"/>
      <path d="M418.26,415.79c.04-.05.99-.03,1.19.11.48.33.1,2.88.22,3.59h-1.42v-3.7Z"/>
      <path d="M199.17,333.75c-.19.14-1.39-.73-1.4-.86-.02-.19,1.87-2.59,2.19-2.56,1.94.19-.02,2.12-.55,2.8-.17.22-.21.59-.24.61Z"/>
      <path d="M274.88,287.2c.05.05.04,1.34-.03,1.45-.09.13-2.22.55-2.62.61-.96.15-.61-.79-.65-1.56l3.3-.5Z"/>
      <path d="M410.48,371.69l1.41-.5c-.06.54,1.23,2.99,1.08,3.21-1.34,1.92-2.2-1.73-2.49-2.71Z"/>
      <path d="M316.6,544.4c.11.08.36,1.32.25,1.45s-3.1.63-3.27.47c-.11-.11-.32-1.13-.03-1.33.24-.17,2.9-.7,3.05-.6Z"/>
      <path d="M176.77,458.65l.96,3.31c-.02.14-.91.38-1.05.35-.3-.06-1.35-2.86-1.31-3.03.06-.3,1.3-.71,1.41-.63Z"/>
      <path d="M358.8,304.23c.21.31-.29,1.53-.76,1.42-.13-.03-2.18-1.24-2.28-1.33-.48-.47-.08-1.19.35-1.58l2.69,1.49Z"/>
      <path d="M284.55,543.15c.07.05.13,1.27-.39,1.44-.36.12-2.7-.06-2.91-.22-.09-.07-.12-1.26.38-1.44.31-.11,2.8.12,2.92.21Z"/>
      <polygon points="402.93 356.91 404.13 359.97 403.05 360.58 401.51 357.54 402.93 356.91"/>
      <path d="M419.68,410.37v3.2c-1.49.21-1.61-.08-1.66-1.59-.06-1.6.08-1.73,1.66-1.61Z"/>
      <path d="M205.45,328.1c.29-.07,1.08.75,1.02,1.06-.05.22-1.95,2.16-2.19,2.11-.2-.05-.9-.79-.84-1.06l2.02-2.11Z"/>
      <path d="M384.22,321.7c.24-.06,2.15,1.89,2.19,2.11.06.27-.64,1.01-.84,1.06-.24.06-2.15-1.89-2.19-2.11-.06-.27.64-1.01.84-1.06Z"/>
      <path d="M189.74,343.86c.19-.14,1.39.74,1.4.86.01.16-1.6,2.59-1.95,2.56-2.04-.17.41-2.55.55-3.42Z"/>
      <path d="M382.33,323.67c.24-.06,2.15,1.89,2.19,2.11.06.27-.64,1.01-.84,1.06-.24.06-2.15-1.89-2.19-2.11-.06-.27.64-1.01.84-1.06Z"/>
      <path d="M206.63,504.73c.24-.06,2.15,1.89,2.19,2.11.06.27-.64,1.01-.84,1.06-.24.06-2.15-1.89-2.19-2.11-.06-.27.64-1.01.84-1.06Z"/>
      <path d="M222.08,311.06c-.11-.08-.53-.96-.4-1.2s2.2-1.86,2.5-1.61c.12.1.69.98.6,1.12-.2.34-2.34,1.95-2.7,1.69Z"/>
      <path d="M415.43,450.28l-.71,3.2-1.4-.26c.28-1.51.07-3.99,2.11-2.94Z"/>
      <path d="M222.73,305.95s.46.83.47.87c.08.34-2.27,2.1-2.57,1.94-.23-.12-.71-.87-.6-1.13.16-.38,2.34-1.95,2.69-1.69Z"/>
      <path d="M398.67,489.68c-.23.17-1.34-.57-1.35-.85,0-.18,1.52-2.53,1.72-2.55.14,0,.72.41.85.56.57.68-1.13,1.95-1.22,2.83Z"/>
      <path d="M258.83,291.15l.25,1.47-3.06.73-.23-1.45c.55-.05,2.75-1.01,3.04-.74Z"/>
      <path d="M340.91,296.79c-.09-.12.32-1.4.6-1.46.19-.04,2.6,1.04,2.67,1.37.05.24-.36,1.31-.56,1.32l-2.71-1.24Z"/>
      <path d="M173.71,380.07c.06-.05,1.34.38,1.39.64s-.68,2.97-1.03,3c-.09,0-.74-.24-.84-.31-.39-.31.34-3.22.48-3.33Z"/>
      <path d="M328.88,539.94l-.24-1.72c1.45.11,3.3-1.83,3.2.74l-2.97.98Z"/>
      <path d="M406.46,358.87l-1.39.24c0-.65-1.28-2.43-.95-2.91.04-.05,1.08-.48,1.17-.41.31.24,1.36,2.79,1.17,3.09Z"/>
      <path d="M182.92,477.85l-1.2-2.81c.05-.23,1.07-.65,1.28-.6.16.04,1.33,2.64,1.3,2.79-.07.35-1.13.81-1.38.62Z"/>
      <path d="M170.84,431.34c.38.26.17,2.56.5,3.17-.41-.07-.92.32-1.27.23s-.66-2.79-.6-3.04c.1-.43,1.1-.56,1.37-.37Z"/>
      <path d="M361.42,311.09c-.12.09-2.47-1.38-2.56-1.51-.2-.3.15-1.7,1.08-1.25.22.11,1.79,1.19,1.85,1.28.2.33-.27,1.4-.37,1.48Z"/>
      <path d="M367.26,524.95c.53-.14,1.13.46.99,1.03-.05.21-2.08,1.85-2.22,1.85-.22,0-.94-.85-.81-1.28.04-.13,1.85-1.54,2.05-1.6Z"/>
      <path d="M245.16,534.52l.6-1.48c1.17.73,3.83.87,2.12,2.69l-2.72-1.2Z"/>
      <rect x="168.75" y="414.31" width="1.42" height="3.45"/>
      <path d="M343.01,299.05c.15.22-.12,1.45-.35,1.47-.25.02-2.06-.76-2.39-.95-.83-.47-.32-.77.08-1.55.3-.03,2.58.91,2.66,1.03Z"/>
      <path d="M307.42,283.5v1.48c-.74-.05-1.51.07-2.24,0-1.56-.15-.87-.43-.82-1.73l3.07.25Z"/>
      <polygon points="415.91 399.28 416.13 402.47 414.73 402.73 414.49 399.28 415.91 399.28"/>
      <path d="M247.03,538.2c-.28.21-2.53-.9-2.95-1.21l.39-1.22c.29-.22,2.48.97,2.95,1.21l-.39,1.22Z"/>
      <path d="M412.84,449.54l-.71,3.2c-.06.09-1.31-.14-1.4-.27-.11-.17.42-2.71.57-2.94.3-.47,1.01.13,1.54,0Z"/>
      <path d="M418.02,451.03l-.7,3.19c-2.33-.16-.91-1.86-.69-3.43l1.39.24Z"/>
      <path d="M307.19,287.94l-3.07-.25v-1.48s2.85.11,2.85.11c.37.26.19,1.17.22,1.62Z"/>
      <path d="M383.95,502.26c.17,0,.91.86.8,1.3-.04.15-1.31,1.53-1.5,1.66-.72.5-1.46-.14-1.28-.83.04-.14,1.84-2.13,1.98-2.13Z"/>
      <path d="M202.64,508.93c.49-.13,2.43,1.9,2.43,2.07,0,.22-.85,1.05-1.41.75-.66-.36-2.52-2.41-1.02-2.82Z"/>
      <path d="M364.17,520.25c2.35,1.1-.34,2.05-1.42,2.93-1.9-1.49.51-1.81,1.42-2.93Z"/>
      <path d="M364.05,525.38s-.51-.99-.5-1.06c.03-.16,2.32-1.9,2.47-1.87.11.03.83,1.06.73,1.23-.2.34-2.34,1.95-2.7,1.69Z"/>
      <path d="M329.59,542.65c-.06-.09-.28-1.3-.14-1.49.12-.17,2.63-.97,2.74-.87.19.16.54,1.15.37,1.39l-2.97.98Z"/>
      <path d="M284.31,545.85c.06,2.09-.01,1.53-1.3,1.48-.52-.02-1.84.21-1.99-.4-.42-1.72,2.34-.92,3.29-1.08Z"/>
      <path d="M411.18,377.6l.7,3.19-1.4.26-.69-2.81c.07-.35,1.04-.59,1.39-.64Z"/>
      <path d="M399.18,342.86l-1.41-2.37,1.04-1.06,1.73,2.59c-.02.27-1.12,1.01-1.35.85Z"/>
      <path d="M225.29,310.63c.6-.15,1.23.57.9,1.2-.28.54-2.59,2.21-2.93.82-.13-.54,1.6-1.91,2.03-2.02Z"/>
      <path d="M193.26,346.1c.22.32-1.32,2.42-1.63,2.82l-1.18-.76,1.65-2.48c.14-.2,1.13.36,1.16.41Z"/>
      <path d="M188.92,490.69l1.72,2.58c-.01.2-.83.81-1.02.8-.24-.01-1.68-2.07-1.74-2.33-.1-.47.74-.83,1.04-1.05Z"/>
      <path d="M173.22,406.17c-.07.1-1.21.13-1.37-.39-.12-.4.02-2.6.22-2.78s1.21-.08,1.36.38c.11.35-.08,2.6-.21,2.79Z"/>
      <path d="M176.99,384.24l-1.39-.24.7-3.19c2.32.16.91,1.85.69,3.43Z"/>
      <polygon points="172.53 379.82 171.7 382.79 171.48 382.96 170.4 382.78 170.88 379.58 172.53 379.82"/>
      <path d="M180.54,358.15l-1.18,2.95-1.41-.5,1.17-2.85c.38-.29.94.43,1.42.39Z"/>
      <path d="M185.85,485.78c.21,0,2.64,3.22.66,3.39-.33.03-1.65-2.08-1.71-2.35-.07-.31.97-1.04,1.04-1.04Z"/>
      <polygon points="259.54 293.85 259.78 295.32 256.72 296.06 256.48 294.59 259.54 293.85"/>
      <path d="M306.95,289.17v1.48c-1.62-.15-3.49.78-3.07-1.73l3.07.25Z"/>
      <path d="M185.18,473.21c.42-.04,1.38,1.96,1.46,2.37.13.72-.83,1.42-1.35.65s-1.63-2.88-.11-3.02Z"/>
      <path d="M280.54,290.89l-3.07.25c-.44-2.39,1.19-1.42,2.72-1.91.48.05.34,1.26.34,1.67Z"/>
      <polygon points="405.53 470.72 404.35 473.68 402.93 473.18 404.1 470.33 405.53 470.72"/>
      <path d="M406.86,477.9c.33-.07,1.05.39,1.04.82,0,.12-.98,2-1.07,2.1-.5.55-1.62-.11-1.51-.58.05-.22,1.3-2.3,1.54-2.34Z"/>
      <path d="M185.23,360.39c.22.31-.81,2.82-.93,2.91-.23.17-1.13-.22-1.3-.47-.14-.21.92-2.72,1.07-2.85.1-.08,1.12.35,1.16.41Z"/>
      <path d="M409.22,472.71c.32-.1,1.22.33,1.24.59,0,.12-.87,2.08-.94,2.2-.48.73-1.54.15-1.57-.21-.03-.32.97-2.48,1.28-2.58Z"/>
      <path d="M394.33,342.93c.23.01,1.7,2.01,1.74,2.32s-.97,1.06-1.04,1.06c-.15,0-1.73-2.43-1.72-2.59.01-.2.83-.81,1.02-.8Z"/>
      <path d="M183.14,352.97c.11.09-1.26,2.49-1.42,2.59-.36.24-1.09-.06-1.31-.38-.11-.16,1.14-2.48,1.31-2.61.17-.13,1.27.28,1.42.39Z"/>
      <path d="M401.69,344.63c.33-.07.42-.03.65.22.12.13,1.28,1.97,1.28,2.09,0,.17-.86.81-1.08.84-.37.04-1.71-2.39-1.7-2.57s.65-.54.85-.58Z"/>
      <path d="M416.82,421.72c.09.11.08,2.68-.08,2.94-.26.42-1.46.11-1.55-.02s.53-2.6.24-3.2l1.39.27Z"/>
      <path d="M173.7,431.06l.22,3.19c-.34-.1-.85.21-1.06.2-.55-.05-.65-2.82-.58-3.39h1.42Z"/>
      <path d="M239.75,297.03l-.39-1.22,2.73-1.47c-.04.5.66,1.08.38,1.48-.19.27-2.46,1.4-2.71,1.21Z"/>
      <path d="M418.47,399.07c.4.28.24,2.57.27,3.17h-1.42s-.24-3.2-.24-3.2c.36.07,1.15-.13,1.39.03Z"/>
      <path d="M263.56,539.45c.04.05-.31,1.17-.35,1.23-.32.51-2.28-.47-2.95-.5l.23-1.47,3.07.74Z"/>
      <path d="M204.71,506.69c.15,0,2.19,1.97,2.22,2.12.06.27-.64,1.01-.84,1.06-.24.06-2.15-1.89-2.19-2.11-.06-.27.74-1.07.81-1.07Z"/>
      <path d="M351.44,300.27c.5-.15,2.03.94,2.58,1.21l-.72,1.48c-.42-.69-2.03-.98-2.38-1.47-.22-.32.22-1.13.53-1.22Z"/>
      <path d="M178.39,455.67c-.1.15-1.33.36-1.39.28.05-.89-.4-1.67-.55-2.52-.16-.93.63-.54,1.25-.93.06.71,1.05,2.62.68,3.18Z"/>
      <polygon points="410.95 369.23 409.55 369.47 408.59 366.52 410.01 366.03 410.95 369.23"/>
      <polygon points="284.07 548.81 284.07 550.29 281.02 550.03 281.01 548.56 284.07 548.81"/>
      <path d="M262.14,544.87l-.37,1.49c-1.42-.39-3.87-.14-2.35-2.2l2.72.7Z"/>
      <path d="M328.18,293.36l-.38,1.49c-1.26-.22-3.72-.17-2.55-2.01l2.93.51Z"/>
      <path d="M185.73,347.8c.12.16-1.08,2.68-1.41,2.85-.09.04-1.15-.34-1.18-.39-.12-.16,1.08-2.68,1.41-2.85.09-.04,1.15.34,1.18.39Z"/>
      <path d="M184.54,483.76l-1.17.41c-.25-.43-1.47-2.26-1.31-2.61.1-.21.83-.75,1.08-.63.3.15,1.62,2.5,1.39,2.83Z"/>
      <path d="M195.84,337.91c-2.26-.29-.86-1.62.07-2.76.49-.61.96-.32,1.27.33.38.8-1.21,1.62-1.34,2.43Z"/>
      <path d="M396.71,484.78c.35-.09,1.03.55,1.27.85-.72.43-1.29,2.56-2.19,2.31-1.44-.4.74-3.12.92-3.16Z"/>
      <path d="M334.77,289.67l-.23,1.47c-.09.12-2.19-.58-2.49-.72-.89-.43-.37-.69.05-1.52l2.68.77Z"/>
      <path d="M251.53,541.42c.06.05-.26,1.37-.61,1.45-.3.07-2.61-.71-2.64-1.07s.32-1.09.77-1.13c.15-.01,2.37.68,2.48.75Z"/>
      <path d="M252.94,291.63l-2.83.99-.47-1.48c1.57-.19,2.99-2.26,3.3.49Z"/>
      <path d="M173,408.89c.11.12.16,2.99-.38,3.18-2.02.7-.77-2.06-1.03-3.18h1.42Z"/>
      <path d="M339.73,293.11c-.12.09-2.63-.84-2.73-.97-.24-.34.08-1.18.36-1.38.11-.08,2.38.69,2.5.87.2.29-.03,1.42-.14,1.49Z"/>
      <path d="M247.17,292.15c.24.02.68,1.19.49,1.46-.14.2-2.48,1.09-2.75.87-.15-.12-.46-.98-.36-1.14.09-.14,2.48-1.21,2.62-1.19Z"/>
      <path d="M310.96,542.65s.03.87-.03,1.07c-.13.43-2.93.78-3.03.65-.05-.05-.04-1.33.03-1.45.2-.31,2.92-.38,3.04-.28Z"/>
      <path d="M253.89,542.41c.12-.09,2.63.84,2.73.97.24.34-.08,1.18-.36,1.38-.11.08-2.38-.69-2.5-.87-.2-.29.03-1.42.14-1.49Z"/>
      <path d="M343.76,534.02l-.39-1.22c.6-.29,2.17-1.49,2.73-1.12,1.68,1.11-2.08,2.54-2.34,2.34Z"/>
      <path d="M345.88,537.74l2.47-1.22c.44.39.84,1.1.35,1.58-.16.16-2.09,1.12-2.22,1.09-.33-.08-.77-1.19-.6-1.44Z"/>
      <path d="M380.41,325.63l2.24,2.33c-.24.19-.6.79-.85.85-.17.04-2.11-1.58-2.19-1.88-.14-.59.47-.93.8-1.3Z"/>
      <path d="M234.79,530.84c.24-.18,2.57,1.15,2.72,1.46.12.26-.4,1.03-.6,1.13-.22.11-2.36-1.06-2.5-1.36-.05-.11.33-1.19.38-1.23Z"/>
      <path d="M329.34,287.95l-.23,1.45c-1.41-.38-3.53-.09-2.58-2.21l2.81.76Z"/>
      <path d="M269.45,289.9c-.97-.17-3.77,1.36-3.04-.83.15-.46,2.22-.77,2.65-.61.54.19.38.96.39,1.45Z"/>
      <path d="M343.5,538.96c.1.08.34,1.21.14,1.49-.1.15-2.64,1.1-2.73.97l-.23-1.47,2.82-1Z"/>
      <path d="M406.47,352.23s-1.04.46-1.1.47c-.36.04-1.86-2.58-1.73-2.68.31-.22,1.09-.6,1.42-.39.15.1,1.53,2.51,1.41,2.59Z"/>
      <path d="M305.28,544.6c-.04.05-1.06.25-1.27.27-1.41.13-1.8.17-1.77-1.48.72.23,2.74-.79,3.03.16.06.21.1.95.01,1.05Z"/>
      <path d="M404.03,483.06c.32-.09,1.22.33,1.24.59,0,.13-.99,1.94-1.19,2.19-.54.7-1.41.09-1.39-.45,0-.19,1.15-2.27,1.34-2.33Z"/>
      <path d="M193.2,487.5c.3-.03,1.62,1.82,1.69,2.12.16.68-.73,1.41-1.35.65s-2.08-2.62-.35-2.77Z"/>
      <path d="M393.7,496.13c.48.7-1.3,1.94-1.41,2.64-.38.31-1.38-.66-1.38-.83,0-.11,1.2-1.46,1.41-1.73.18-.23.21-.59.24-.61.11-.08,1.1.46,1.14.53Z"/>
      <path d="M229.09,525.38c-.54.39-2.1-1.45-2.8-1.45.23-.48.53-1.37,1.18-1.13.17.06,1.94,1.28,2.01,1.38.16.22-.3,1.14-.4,1.21Z"/>
      <path d="M376.43,321.7c.33-.08,3.11,2.44,1.34,2.91-.47.13-2.12-1.55-2.18-1.85-.06-.27.64-1.01.84-1.06Z"/>
      <path d="M244.91,300.97l-2.47,1.22c-.44-.4-.83-1.1-.35-1.58.11-.11,2.1-1.13,2.23-1.1.3.07.77,1.2.59,1.46Z"/>
      <path d="M338.3,541.2c.12.08.35,1.32.25,1.45-.1.11-2.6.87-2.8.73s-.35-1.03-.03-1.34c.26-.25,2.3-1.03,2.58-.84Z"/>
      <path d="M176.06,368.74l-.95,2.95-1.41-.5c.46-1.44.45-3.38,2.35-2.45Z"/>
      <path d="M318.48,285.25c.16.2.08,1.28-.36,1.43-.27.09-1.7-.14-2.08-.23-1.03-.24-.27-.89-.36-1.72.48.25,2.64.3,2.81.51Z"/>
      <polygon points="176.3 386.97 175.6 389.82 174.17 389.67 174.89 386.72 176.3 386.97"/>
      <path d="M321.78,543.42c.14.1.35,1.39.26,1.45-.1.07-2.02.35-2.36.39-1.01.13-.86-1.27-.49-1.52.17-.11,2.44-.43,2.58-.33Z"/>
      <path d="M222.64,519.27c.13,0,2.06,1.52,2.13,1.7.11.26-.37,1.01-.6,1.13s-2.3-1.31-2.35-1.52c-.07-.29.62-1.31.81-1.31Z"/>
      <path d="M178.55,464.1c.18.02,1.36,2.51.82,3.05-1.1,1.1-1.91-1.44-1.89-2.23,0-.44.79-.84,1.07-.81Z"/>
      <path d="M356.93,528.87l.39,1.22c-.39.22-2.27,1.63-2.49,1.47-.09-.07-.59-1.18-.37-1.48.16-.24,2.2-1.41,2.47-1.21Z"/>
      <path d="M195.52,500.08c.16,0,1.71,1.91,1.75,2.08.06.26-.62,1.01-.84,1.06-.2.05-1.94-1.95-1.97-2.09-.07-.34.98-1.05,1.06-1.05Z"/>
      <path d="M301.53,285.96s.03.87-.03,1.07c-.18.58-1.45.46-1.98.41-1.57-.15-.76-.4-.82-1.73l2.83.25Z"/>
      <path d="M412.84,467.77l-1.17,2.6-1.43-.39,1.17-2.6c.38-.29.95.43,1.42.39Z"/>
      <path d="M358.34,531.34l.39,1.22-2.49,1.47c-1.22-1.67.71-2.41,2.1-2.7Z"/>
      <path d="M391.97,330.31l2,2.34-1.09.84c-.35.08-1.46-1.8-1.96-2.07l1.06-1.1Z"/>
      <path d="M411.18,464.31c-.23.17-1.31-.28-1.39-.63-.02-.11.64-1.99.73-2.15.44-.8,1.53-.13,1.56.19.01.14-.79,2.51-.9,2.59Z"/>
      <path d="M289.73,546.35v1.48c-1.62-.1-3.22.69-2.83-1.73l2.83.25Z"/>
      <path d="M414.47,462.37c.15.22-.58,2.84-.69,2.94-.1.08-1.18-.3-1.31-.48-.08-.11.52-2.62.62-2.71.12-.11,1.31.15,1.39.26Z"/>
      <path d="M270.16,545.61l.24-1.47c.58.06,2.62.09,2.8.64.69,2.14-2.06.77-3.04.83Z"/>
      <path d="M172.98,389.17l-1.4-.24.71-2.95c2.28.2.99,1.64.69,3.2Z"/>
      <path d="M301.52,284.73c-.05.06-.79-.23-1.06-.25-1.56-.12-1.98.63-1.77-1.48l2.84.11c.37.14.04,1.54-.01,1.61Z"/>
      <path d="M366.62,518.27s.29-.03.44-.15c.28-.22,1.48-1.29,1.59-1.32.34-.08.99.82.97,1.09-.01.2-2.05,1.84-2.19,1.84-.08,0-.97-1.25-.82-1.47Z"/>
      <path d="M418.73,448.3l-1.41-.25c.33-1.08.1-3.47,1.59-2.77.96.45-.16,2.11-.18,3.01Z"/>
      <path d="M233.57,302.26s.47.82.48.87c.1.42-2.21,1.78-2.33,1.7-.28-.18-.85-1.03-.61-1.38.17-.24,2.17-1.41,2.46-1.19Z"/>
      <path d="M170.38,388.43l-1.39-.24c.35-1.48.14-3.89,2.08-2.34l-.69,2.58Z"/>
      <path d="M272.73,547.36c.14.17-.04,1.11.02,1.46l-2.83-.25c0-.43-.15-1.59.37-1.7.12-.02,2.36.39,2.44.49Z"/>
      <path d="M180.54,368.24c-.12-.16,1.22-3.92,2.25-2.22.21.35-.63,2.44-.83,2.61-.18.15-1.38-.33-1.43-.39Z"/>
      <polygon points="289.5 549.06 289.5 550.78 286.67 550.54 286.67 549.06 289.5 549.06"/>
      <path d="M232.16,299.79c.09.07.56.98.4,1.21s-2.36,1.57-2.49,1.47l-.46-1.46c.61-.06,2.1-1.55,2.55-1.22Z"/>
      <path d="M414.01,443.88c.13.09-.38,2.83-.48,2.93-.12.11-.97.05-1.17-.09-.54-.36.27-3,.59-3.03.05,0,1.02.15,1.07.19Z"/>
      <path d="M176.28,447.09l.71,2.55c-.07.35-1.04.59-1.4.64l-.7-2.95,1.39-.24Z"/>
      <polygon points="178.66 369.72 177.69 372.4 176.3 372.18 177.23 369.33 178.66 369.72"/>
      <path d="M208.96,510.88l2,2.09c-1.26,1.89-1.96-.03-3.06-.99l1.06-1.1Z"/>
      <path d="M389.88,332.29c.47-.11,1.42,1.81,1.97,2.08l-1.06,1.1-1.75-2.12c-.06-.26.62-1.01.84-1.06Z"/>
      <path d="M206.88,513.12c.69-.19,1.63,1.4,2.19,1.82l-1.06,1.1-2-2.09c.26-.22.57-.75.86-.84Z"/>
      <path d="M378.32,319.73c.25-.06,1.91,1.65,1.96,1.86.06.27-.64,1.01-.84,1.06-.25.06-1.91-1.65-1.96-1.86-.06-.27.64-1.01.84-1.06Z"/>
      <path d="M364.17,311.6c.34-.1,2.17,1.15,2.34,1.46.14.24-.4,1-.6,1.13-.18.11-2.13-1.11-2.26-1.37-.17-.35.19-1.12.52-1.22Z"/>
      <path d="M219.25,316.72s-.46-.83-.47-.88c-.09-.37,1.83-1.96,2.33-1.69.16.09.7.91.69,1.01-.01.16-2.23,1.79-2.55,1.56Z"/>
      <path d="M379.75,506.71c.53-.14,1.13.47.99,1.04-.07.27-1.69,1.94-1.95,1.88-.13-.03-.85-.79-.85-.85,0-.14,1.57-2,1.8-2.07Z"/>
      <path d="M220.16,313.05l-2.24,1.44c-.2-.01-.78-.86-.77-1.07s2.05-1.84,2.19-1.84c.08,0,.96,1.25.82,1.47Z"/>
      <path d="M216.16,312.32l-.71-1.47,2.11-1.39c2.19.91-.36,2.15-1.4,2.86Z"/>
      <path d="M192.59,498.79l-1.43-2.33c0-.07.99-.82,1.05-.82.18,0,1.75,2.15,1.75,2.3,0,.21-1.12,1.03-1.37.84Z"/>
      <path d="M265.93,541.65l.23-1.45c1.42.37,3.73.15,2.24,2.17l-2.47-.72Z"/>
      <path d="M267.56,546.36l-.23,1.47c-1.37-.36-3.85-.21-2.25-2.17l2.48.7Z"/>
      <path d="M312.14,288.68c-.08.11-2.49-.41-2.56-.53s-.08-1.39-.03-1.45c.11-.12,2.33.2,2.6.36.34.21.08,1.49,0,1.61Z"/>
      <path d="M318.04,287.93v1.48c-1.4-.08-3.55.33-2.82-1.71l2.82.23Z"/>
      <path d="M371.96,521.49c.44-.07.87.8.68,1.2-.16.34-1.74,1.58-2.11,1.47-.33-.1-.68-.86-.51-1.21.14-.3,1.64-1.41,1.94-1.46Z"/>
      <path d="M239.72,303.68l-2.44,1.02-.59-1.13c1.19-.79,3-2.39,3.03.11Z"/>
      <path d="M197.03,492.43c.1.88,1.5,1.63,1.1,2.44-.75,1.51-2.46-1.18-2.43-1.6.02-.29.94-1.09,1.34-.83Z"/>
      <path d="M368.29,520.51c.06-.1,1.86-1.27,1.98-1.27.29,0,1.05.76,1.06.87,0,.16-2.01,1.81-2.24,1.79-.29-.02-1.05-1-.8-1.39Z"/>
      <path d="M416.13,447.56l-1.4-.25c.34-1.46.2-4,2.09-2.33l-.69,2.59Z"/>
      <path d="M322.26,293.33c-.34.32-2.25-.53-2.81-.47l.25-1.47c.18-.17,2.71.44,2.79.87.01.06-.19,1.03-.23,1.07Z"/>
      <path d="M412.83,383.52l.66,2.59c-.03.31-1.04.57-1.36.6l-.7-2.94,1.4-.25Z"/>
      <path d="M416.61,427.61l-.23,2.96h-1.42s.1-2.73.1-2.73c.25-.39,1.12-.2,1.55-.23Z"/>
      <path d="M236.9,297.05l.48,1.47c-.75,0-1.95,1.31-2.6.88-1.54-1.02,1.32-2.15,2.12-2.35Z"/>
      <path d="M177.93,363.58c.27.39-.97,4.03-2.24,2.2-.08-.11.92-2.5,1.07-2.61.09-.07,1.13.36,1.17.41Z"/>
      <path d="M323.67,286.48c.17.26.07,1.32-.35,1.43-.12.03-2.34-.41-2.44-.48-.09-.07-.12-1.28.38-1.45.34-.11,2.31.33,2.42.5Z"/>
      <path d="M227.2,303c.11.08.57.98.4,1.21-.06.09-1.58,1.04-1.77,1.12-.89.36-.87-.32-1.09-1.13.45-.28,2.02-1.52,2.46-1.19Z"/>
      <path d="M210.62,508.9c.23-.06,2.23,1.94,2.23,2.09,0,.06-.73.82-.85.85-.18.04-2.17-1.66-2.17-1.83,0-.07.72-1.09.79-1.11Z"/>
      <path d="M391.36,338.21l1.44,2.32c-.58.34-.92.88-1.55.38-.09-.07-1.26-1.75-1.26-1.87,0-.21,1.12-1.03,1.37-.84Z"/>
      <path d="M287.14,544.87v-1.48c.64.12,2.57-.34,2.8.4.66,2.06-1.81.85-2.8,1.08Z"/>
      <path d="M407.64,465.32c.14.21-.68,2.42-.92,2.58-.36.24-1.1-.07-1.32-.38-.08-.11.92-2.5,1.07-2.61l1.17.4Z"/>
      <path d="M397.01,337.42s-.95.53-1.01.52c-.13-.03-1.59-2.13-1.55-2.32l1.06-.87c.3.51,1.84,2.17,1.5,2.68Z"/>
      <path d="M361.19,530.83l-.46-1.46,2.21-1.25c1.59,1.49-.55,2.19-1.75,2.71Z"/>
      <path d="M301.29,288.67s.03,1.1-.04,1.32c-.2.68-.79.18-1.26.16-1.55-.06-1.67.48-1.54-1.48h2.83Z"/>
      <path d="M285.96,288.67c.05.05.03,1.39-.02,1.46-.04.05-1.06.25-1.27.27-1.59.14-1.67.23-1.53-1.48l2.83-.25Z"/>
      <path d="M353.64,534.04c.07.05.35,1.25.22,1.45-.07.11-2.14,1.06-2.34.91-.24-.18-.61-1.12-.45-1.36.08-.12,2.4-1.12,2.57-1Z"/>
      <path d="M275.6,549.29l.23-1.45c.61.24,2.37.04,2.56.64.64,2-1.83,1.05-2.79.81Z"/>
      <path d="M209.43,323.91c.08,0,.85.78.8,1.06-.06.31-1.59,2.13-1.74,2.13l-1.06-1.1,2-2.09Z"/>
      <path d="M197.44,498.33c.37-.09,1.93,1.85,1.93,2.08,0,.1-.68.81-.82.84-.25.06-1.91-1.65-1.96-1.86-.06-.27.64-1.01.84-1.06Z"/>
      <path d="M229.12,306.65c-.2.14-2.12,1.22-2.24,1.24-.38.07-.8-1.05-.79-1.12.02-.23,1.9-1.29,2.21-1.59l.82,1.47Z"/>
      <path d="M348.94,531.31c-.19-.14-.31-1.04-.04-1.37.17-.2,2.05-1.06,2.15-.98,1.76,1.33-1.75,2.62-2.11,2.35Z"/>
      <path d="M312.6,285.71c-.1.14-2.31-.18-2.59-.35-.38-.23-.05-1.11.13-1.37s2.14.11,2.48.38c.21.17.02,1.29-.02,1.34Z"/>
      <path d="M173.93,374.41c.3.35-.68,2.37-.7,2.94l-1.41-.5c.15-.56.61-2.58,1.08-2.67.06-.01.99.18,1.03.22Z"/>
      <path d="M416.36,456.7c.11.16,0,.55-.03.78-.27,1.5-.51,2.26-2.07,1.66l.72-2.7c.12-.11,1.31.15,1.39.26Z"/>
      <path d="M359.78,528.36l-.48-1.47c1.01-.06,2.46-2.21,2.8-.32.15.83-1.62,1.62-2.32,1.79Z"/>
      <rect x="168.75" y="420.22" width="1.42" height="2.96"/>
      <path d="M388.54,325.87s.05.39.23.61c.36.44,1.12.93,1.2,1.49.05.35-.69.77-.88.82-.34.09-1.65-1.42-1.69-1.86-.03-.37.86-1.28,1.14-1.06Z"/>
      <path d="M413.07,458.65l-1.41-.5c.68-1.33.43-3.73,2.33-2.1l-.92,2.59Z"/>
      <path d="M176.52,375.4c.11.14-.04.74-.09.99-.31,1.38-.6,2.14-2.02,1.46l.71-2.71,1.4.26Z"/>
      <polygon points="201.41 502.75 203.18 504.84 202.12 505.94 200.36 503.85 201.41 502.75"/>
      <path d="M278.89,545.36c.08.07.11,1.27-.39,1.44-.3.11-2.29-.11-2.44-.22-.09-.07-.12-1.27.38-1.45.12-.04,2.35.14,2.45.22Z"/>
      <path d="M199.64,504.72s.05.39.23.61c.26.31,1.12,1.02,1.17,1.27.06.27-.64,1.01-.84,1.06-.45.1-1.69-1.54-1.75-2.09-.05-.43,1.06-.93,1.18-.84Z"/>
      <path d="M386.67,330.8s-.05-.39-.23-.61c-.26-.31-1.12-1.02-1.17-1.27-.06-.27.64-1.01.84-1.06.37-.09,1.67,1.49,1.71,1.87s-.86,1.28-1.14,1.06Z"/>
      <path d="M264.03,289.41c.06.09.28,1.29.14,1.49-.18.26-2.42.84-2.5.73l-.24-1.48,2.59-.74Z"/>
      <path d="M195.32,340.94c.31-.06,1.07.37,1,.79-.05.32-1.26,2.09-1.51,2.09-.07,0-1.05-.75-1.05-.82-.01-.17,1.24-2,1.56-2.06Z"/>
      <path d="M180.77,469.24c.1.07.96,2.19.93,2.32-.07.34-.92.69-1.26.66-.13-.01-1.16-2.37-1.08-2.48l1.41-.5Z"/>
      <path d="M380.21,317.76c.13-.03,1.92,1.49,1.96,1.61.17.56-.5.97-.81,1.32l-2-2.09c.24-.19.6-.79.85-.85Z"/>
      <path d="M345.42,301.95c-.15-.22.12-1.45.35-1.47.33-.03,2.41.94,2.42,1.12.03.32-.36,1.09-.79,1.13-.24.02-1.92-.69-1.98-.78Z"/>
      <path d="M416.58,408.11c-.13.19-1.05.43-1.28.05-.06-.11-.41-2.36-.34-2.46.1-.15,1.28-.44,1.54-.02.16.25.19,2.27.07,2.44Z"/>
      <path d="M170.4,425.64l.24,2.71c-1.26.04-1.51.28-1.65-1.1-.17-1.65-.18-1.77,1.42-1.6Z"/>
      <path d="M242.56,533.29c-.06.08-1.38-.74-1.66-.87-.55-.26-.95.14-.6-.87.22-.64.44-.82,1.08-.62.23.07,1.45.74,1.55.87.13.18-.27,1.33-.38,1.48Z"/>
      <path d="M406.74,361.87c.06-.08.92-.6,1.15-.42.19.15,1.16,2.23,1.07,2.36-1.19,1.71-2.5-1.53-2.22-1.94Z"/>
      <polygon points="419.21 405.19 419.44 407.9 418.03 408.15 417.79 405.19 419.21 405.19"/>
      <path d="M325.81,539.2c.1.07.34,1.22.14,1.5-.12.16-2.12.75-2.27.62-.17-.14-.53-1.27-.46-1.38l2.59-.74Z"/>
      <path d="M393.26,492.89c-1.79-.29-1.14-1.58-.23-2.59.54-.6,1.45-.09,1.43.49-.02.63-1.14,1.38-1.19,2.1Z"/>
      <path d="M264.97,293.84c-.09.07-2.1.51-2.21.48-.41-.11-.47-.97-.39-1.31s1.98-.63,2.37-.89l.24,1.72Z"/>
      <path d="M181.72,468.51s1.04-.46,1.1-.47c.49-.05,1.45,1.95,1.15,2.44-.14.22-.81.59-1.08.38-.1-.08-1.28-2.28-1.17-2.36Z"/>
      <path d="M405.53,362.58c.1.07.96,2.19.93,2.32-.07.34-.92.69-1.26.66-.11-.01-1.04-2-1.03-2.12.02-.29,1.15-1.02,1.36-.86Z"/>
      <path d="M241.85,534.3l-.22,1.46c-.09.13-2.51-.87-2.59-.99-.09-.13.21-.83.35-.98.7-.74,1.7.41,2.47.51Z"/>
      <path d="M191.66,341.61c-.28-.43.65-1.4.93-1.81.15-.22.2-.6.23-.62.23-.17,1.18.66,1.41.86l-1.41,1.99c-.15.21-1.11-.36-1.15-.42Z"/>
      <path d="M349.15,298.79l-.22,1.46c-.09.13-2.51-.87-2.59-.99-.09-.13.21-.83.35-.98.7-.74,1.7.41,2.47.51Z"/>
      <path d="M173.23,428.11h-1.42s-.23-2.71-.23-2.71c2.2-.37,1.61,1.02,1.65,2.71Z"/>
      <path d="M395.6,494.35c-.28.2-1.41-.5-1.41-.61,0-.35,1.37-2.3,1.55-2.3.07,0,.87.68,1.05.83l-1.19,2.07Z"/>
      <path d="M324.2,542.68c.15-.22,1.94-.5,2.32-.77l.46,1.36c-.02.24-2.25.88-2.45.84-.4-.08-.51-1.17-.34-1.43Z"/>
    </g>
  </g>
  <g>
    <path class="cls-2" d="M27.02,534.46c-8.26,3.63-17.44,3.47-23.01-1.19-8.28-6.92-9.09-24.2,3.37-36.3"/>
    <g>
      <path d="M395.12,148.53c-.46-3.29-1.11-5.29-2.04-7.11-.41-.81-2.02-3.82-5.47-6.55-.51-.4-6.53-5.17-8.57-3.58-1.13.88-.12,2.97.68,9.05.68,5.24,1.04,8,.37,11.48-.17.86-1.34,6.48-5.84,10.19-.44.36-2.28,1.88-2.9,1.42-.55-.41.24-2.06,1.13-4.89,1.15-3.64,2.04-6.46,1.77-9.69-.11-1.33-.5-3.77-2.16-6.08-.63-.88-2.18-3.04-3.72-2.78-.99.17-1.71,1.29-2.74,4.4-2.06,6.22-1.44,8.48-2.84,11.64-1.67,3.76-4.86,5.73-6.37,6.67-4.75,2.95-9.2,2.59-17.58,1.92-1.53-.12-3.63-.39-5.78-1.71-.73-.45-1.24-.88-1.85-1.43-4.33-3.87-4.65-5.48-5.97-6.04-3.52-1.5-8.39,6.83-15.46,11.28-4.53,2.85-11.72,5.22-23.42,3.2l5.65,18.9s28.74,1.35,32.13,1.35,24.58-1.08,29.79-1.62c5.46-.57,15.11-.95,24.71-4.86,2.5-1.02,5.47-2.46,8.39-5.17,3.96-3.69,5.67-7.71,6.54-9.81,3.28-7.95,2.29-15.01,1.56-20.16ZM322.67,185.99c-2.15-3.16-.82-7.94,1.99-9.21-2.85-.25-5.71-2.67-6.48-6.19,1.96,4.49,6.22,6.67,10,5.2-.81.62-1.73.93-2.67.99-2.82,1.61-4.12,5.4-2.84,9.21ZM333.11,184.38c-1.94-2.86-.71-7.19,1.85-8.28-2.57-.19-5.17-2.33-5.86-5.51,1.76,4.02,5.57,5.97,8.95,4.65-.71.54-1.52.8-2.35.87-2.55,1.43-3.73,4.84-2.58,8.26ZM345.11,184.38c-1.94-2.86-.71-7.19,1.85-8.28-2.57-.19-5.17-2.33-5.86-5.51,1.76,4.02,5.57,5.97,8.95,4.65-.71.54-1.52.8-2.35.87-2.55,1.43-3.73,4.84-2.58,8.26ZM355.92,183.87c-2.08-3.07-.79-7.69,1.93-8.92-2.76-.24-5.53-2.59-6.28-5.99,1.9,4.35,6.03,6.46,9.68,5.03-.79.6-1.67.9-2.58.96-2.73,1.56-3.99,5.23-2.75,8.92Z"/>
      <path d="M188.05,150.57c.46-3.29,1.11-5.29,2.04-7.11.41-.81,2.02-3.82,5.47-6.55.51-.4,6.53-5.17,8.57-3.58,1.13.88.12,2.97-.68,9.05-.68,5.24-1.04,8-.37,11.48.17.86,1.34,6.48,5.84,10.19.44.36,2.28,1.88,2.9,1.42.55-.41-.24-2.06-1.13-4.89-1.15-3.64-2.04-6.46-1.77-9.69.11-1.33.5-3.77,2.16-6.08.63-.88,2.18-3.04,3.72-2.78.99.17,1.71,1.29,2.74,4.4,2.06,6.22,1.44,8.48,2.84,11.64,1.67,3.76,4.86,5.73,6.37,6.67,4.75,2.95,9.2,2.59,17.58,1.92,1.53-.12,3.63-.39,5.78-1.71.73-.45,1.24-.88,1.85-1.43,4.33-3.87,4.65-5.48,5.97-6.04,3.52-1.5,8.39,6.83,15.46,11.28,4.53,2.85,11.72,5.22,23.42,3.2l-5.65,18.9s-28.74,1.35-32.13,1.35-24.58-1.08-29.79-1.62c-5.46-.57-15.11-.95-24.71-4.86-2.5-1.02-5.47-2.46-8.39-5.17-3.96-3.69-5.67-7.71-6.54-9.81-3.28-7.95-2.29-15.01-1.56-20.16ZM260.5,188.03c2.15-3.16.82-7.94-1.99-9.21,2.85-.25,5.71-2.67,6.48-6.19-1.96,4.49-6.22,6.67-10,5.2.81.62,1.73.93,2.67.99,2.82,1.61,4.12,5.4,2.84,9.21ZM250.06,186.42c1.94-2.86.71-7.19-1.85-8.28,2.57-.19,5.17-2.33,5.86-5.51-1.76,4.02-5.57,5.97-8.95,4.65.71.54,1.52.8,2.35.87,2.55,1.43,3.73,4.84,2.58,8.26ZM238.06,186.42c1.94-2.86.71-7.19-1.85-8.28,2.57-.19,5.17-2.33,5.86-5.51-1.76,4.02-5.57,5.97-8.95,4.65.71.54,1.52.8,2.35.87,2.55,1.43,3.73,4.84,2.58,8.26ZM227.26,185.91c2.08-3.07.79-7.69-1.93-8.92,2.76-.24,5.53-2.59,6.28-5.99-1.9,4.35-6.03,6.46-9.68,5.03.79.6,1.67.9,2.58.96,2.73,1.56,3.99,5.23,2.75,8.92Z"/>
    </g>
    <g>
      <path d="M397.07,687.57c-.46,3.29-1.11,5.29-2.04,7.11-.41.81-2.02,3.82-5.47,6.55-.51.4-6.53,5.17-8.57,3.58-1.13-.88-.12-2.97.68-9.05.68-5.24,1.04-8,.37-11.48-.17-.86-1.34-6.48-5.84-10.19-.44-.36-2.28-1.88-2.9-1.42-.55.41.24,2.06,1.13,4.89,1.15,3.64,2.04,6.46,1.77,9.69-.11,1.33-.5,3.77-2.16,6.08-.63.88-2.18,3.04-3.72,2.78-.99-.17-1.71-1.29-2.74-4.4-2.06-6.22-1.44-8.48-2.84-11.64-1.67-3.76-4.86-5.73-6.37-6.67-4.75-2.95-9.2-2.59-17.58-1.92-1.53.12-3.63.39-5.78,1.71-.73.45-1.24.88-1.85,1.43-4.33,3.87-4.65,5.48-5.97,6.04-3.52,1.5-8.39-6.83-15.46-11.28-4.53-2.85-11.72-5.22-23.42-3.2l5.65-18.9s28.74-1.35,32.13-1.35,24.58,1.08,29.79,1.62c5.46.57,15.11.95,24.71,4.86,2.5,1.02,5.47,2.46,8.39,5.17,3.96,3.69,5.67,7.71,6.54,9.81,3.28,7.95,2.29,15.01,1.56,20.16ZM324.62,650.11c-2.15,3.16-.82,7.94,1.99,9.21-2.85.25-5.71,2.67-6.48,6.19,1.96-4.49,6.22-6.67,10-5.2-.81-.62-1.73-.93-2.67-.99-2.82-1.61-4.12-5.4-2.84-9.21ZM335.05,651.73c-1.94,2.86-.71,7.19,1.85,8.28-2.57.19-5.17,2.33-5.86,5.51,1.76-4.02,5.57-5.97,8.95-4.65-.71-.54-1.52-.8-2.35-.87-2.55-1.43-3.73-4.84-2.58-8.26ZM347.06,651.73c-1.94,2.86-.71,7.19,1.85,8.28-2.57.19-5.17,2.33-5.86,5.51,1.76-4.02,5.57-5.97,8.95-4.65-.71-.54-1.52-.8-2.35-.87-2.55-1.43-3.73-4.84-2.58-8.26ZM357.86,652.24c-2.08,3.07-.79,7.69,1.93,8.92-2.76.24-5.53,2.59-6.28,5.99,1.9-4.35,6.03-6.46,9.68-5.03-.79-.6-1.67-.9-2.58-.96-2.73-1.56-3.99-5.23-2.75-8.92Z"/>
      <path d="M190,685.54c.46,3.29,1.11,5.29,2.04,7.11.41.81,2.02,3.82,5.47,6.55.51.4,6.53,5.17,8.57,3.58,1.13-.88.12-2.97-.68-9.05-.68-5.24-1.04-8-.37-11.48.17-.86,1.34-6.48,5.84-10.19.44-.36,2.28-1.88,2.9-1.42.55.41-.24,2.06-1.13,4.89-1.15,3.64-2.04,6.46-1.77,9.69.11,1.33.5,3.77,2.16,6.08.63.88,2.18,3.04,3.72,2.78.99-.17,1.71-1.29,2.74-4.4,2.06-6.22,1.44-8.48,2.84-11.64,1.67-3.76,4.86-5.73,6.37-6.67,4.75-2.95,9.2-2.59,17.58-1.92,1.53.12,3.63.39,5.78,1.71.73.45,1.24.88,1.85,1.43,4.33,3.87,4.65,5.48,5.97,6.04,3.52,1.5,8.39-6.83,15.46-11.28,4.53-2.85,11.72-5.22,23.42-3.2l-5.65-18.9s-28.74-1.35-32.13-1.35-24.58,1.08-29.79,1.62c-5.46.57-15.11.95-24.71,4.86-2.5,1.02-5.47,2.46-8.39,5.17-3.96,3.69-5.67,7.71-6.54,9.81-3.28,7.95-2.29,15.01-1.56,20.16ZM262.45,648.07c2.15,3.16.82,7.94-1.99,9.21,2.85.25,5.71,2.67,6.48,6.19-1.96-4.49-6.22-6.67-10-5.2.81-.62,1.73-.93,2.67-.99,2.82-1.61,4.12-5.4,2.84-9.21ZM252.01,649.69c1.94,2.86.71,7.19-1.85,8.28,2.57.19,5.17,2.33,5.86,5.51-1.76-4.02-5.57-5.97-8.95-4.65.71-.54,1.52-.8,2.35-.87,2.55-1.43,3.73-4.84,2.58-8.26ZM240.01,649.69c1.94,2.86.71,7.19-1.85,8.28,2.57.19,5.17,2.33,5.86,5.51-1.76-4.02-5.57-5.97-8.95-4.65.71-.54,1.52-.8,2.35-.87,2.55-1.43,3.73-4.84,2.58-8.26ZM229.2,650.2c2.08,3.07.79,7.69-1.93,8.92,2.76.24,5.53,2.59,6.28,5.99-1.9-4.35-6.03-6.46-9.68-5.03.79-.6,1.67-.9,2.58-.96,2.73-1.56,3.99-5.23,2.75-8.92Z"/>
    </g>
    <g>
      <path d="M557.1,312.23c3.29.46,5.29,1.11,7.11,2.04.81.41,3.82,2.02,6.55,5.47.4.51,5.17,6.53,3.58,8.57-.88,1.13-2.97.12-9.05-.68-5.24-.68-8-1.04-11.48-.37-.86.17-6.48,1.34-10.19,5.84-.36.44-1.88,2.28-1.42,2.9.41.55,2.06-.24,4.89-1.13,3.64-1.15,6.46-2.04,9.69-1.77,1.33.11,3.77.5,6.08,2.16.88.63,3.04,2.18,2.78,3.72-.17.99-1.29,1.71-4.4,2.74-6.22,2.06-8.48,1.44-11.64,2.84-3.76,1.67-5.73,4.86-6.67,6.37-2.95,4.75-2.59,9.2-1.92,17.58.12,1.53.39,3.63,1.71,5.78.45.73.88,1.24,1.43,1.85,3.87,4.33,5.48,4.65,6.04,5.97,1.5,3.52-6.83,8.39-11.28,15.46-2.85,4.53-5.22,11.72-3.2,23.42l-18.9-5.65s-1.35-28.74-1.35-32.13,1.08-24.58,1.62-29.79c.57-5.46.95-15.11,4.86-24.71,1.02-2.5,2.46-5.47,5.17-8.39,3.69-3.96,7.71-5.67,9.81-6.54,7.95-3.28,15.01-2.29,20.16-1.56ZM519.64,384.68c3.16,2.15,7.94.82,9.21-1.99.25,2.85,2.67,5.71,6.19,6.48-4.49-1.96-6.67-6.22-5.2-10-.62.81-.93,1.73-.99,2.67-1.61,2.82-5.4,4.12-9.21,2.84ZM521.25,374.24c2.86,1.94,7.19.71,8.28-1.85.19,2.57,2.33,5.17,5.51,5.86-4.02-1.76-5.97-5.57-4.65-8.95-.54.71-.8,1.52-.87,2.35-1.43,2.55-4.84,3.73-8.26,2.58ZM521.25,362.24c2.86,1.94,7.19.71,8.28-1.85.19,2.57,2.33,5.17,5.51,5.86-4.02-1.76-5.97-5.57-4.65-8.95-.54.71-.8,1.52-.87,2.35-1.43,2.55-4.84,3.73-8.26,2.58ZM521.76,351.43c3.07,2.08,7.69.79,8.92-1.93.24,2.76,2.59,5.53,5.99,6.28-4.35-1.9-6.46-6.03-5.03-9.68-.6.79-.9,1.67-.96,2.58-1.56,2.73-5.23,3.99-8.92,2.75Z"/>
      <path d="M555.06,519.29c3.29-.46,5.29-1.11,7.11-2.04.81-.41,3.82-2.02,6.55-5.47.4-.51,5.17-6.53,3.58-8.57-.88-1.13-2.97-.12-9.05.68-5.24.68-8,1.04-11.48.37-.86-.17-6.48-1.34-10.19-5.84-.36-.44-1.88-2.28-1.42-2.9.41-.55,2.06.24,4.89,1.13,3.64,1.15,6.46,2.04,9.69,1.77,1.33-.11,3.77-.5,6.08-2.16.88-.63,3.04-2.18,2.78-3.72-.17-.99-1.29-1.71-4.4-2.74-6.22-2.06-8.48-1.44-11.64-2.84-3.76-1.67-5.73-4.86-6.67-6.37-2.95-4.75-2.59-9.2-1.92-17.58.12-1.53.39-3.63,1.71-5.78.45-.73.88-1.24,1.43-1.85,3.87-4.33,5.48-4.65,6.04-5.97,1.5-3.52-6.83-8.39-11.28-15.46-2.85-4.53-5.22-11.72-3.2-23.42l-18.9,5.65s-1.35,28.74-1.35,32.13,1.08,24.58,1.62,29.79c.57,5.46.95,15.11,4.86,24.71,1.02,2.5,2.46,5.47,5.17,8.39,3.69,3.96,7.71,5.67,9.81,6.54,7.95,3.28,15.01,2.29,20.16,1.56ZM517.6,446.84c3.16-2.15,7.94-.82,9.21,1.99.25-2.85,2.67-5.71,6.19-6.48-4.49,1.96-6.67,6.22-5.2,10-.62-.81-.93-1.73-.99-2.67-1.61-2.82-5.4-4.12-9.21-2.84ZM519.21,457.28c2.86-1.94,7.19-.71,8.28,1.85.19-2.57,2.33-5.17,5.51-5.86-4.02,1.76-5.97,5.57-4.65,8.95-.54-.71-.8-1.52-.87-2.35-1.43-2.55-4.84-3.73-8.26-2.58ZM519.21,469.28c2.86-1.94,7.19-.71,8.28,1.85.19-2.57,2.33-5.17,5.51-5.86-4.02,1.76-5.97,5.57-4.65,8.95-.54-.71-.8-1.52-.87-2.35-1.43-2.55-4.84-3.73-8.26-2.58ZM519.72,480.09c3.07-2.08,7.69-.79,8.92,1.93.24-2.76,2.59-5.53,5.99-6.28-4.35,1.9-6.46,6.03-5.03,9.68-.6-.79-.9-1.67-.96-2.58-1.56-2.73-5.23-3.99-8.92-2.75Z"/>
    </g>
    <g>
      <path d="M33.85,311.98c-3.29.46-5.29,1.11-7.11,2.04-.81.41-3.82,2.02-6.55,5.47-.4.51-5.17,6.53-3.58,8.57.88,1.13,2.97.12,9.05-.68,5.24-.68,8-1.04,11.48-.37.86.17,6.48,1.34,10.19,5.84.36.44,1.88,2.28,1.42,2.9-.41.55-2.06-.24-4.89-1.13-3.64-1.15-6.46-2.04-9.69-1.77-1.33.11-3.77.5-6.08,2.16-.88.63-3.04,2.18-2.78,3.72.17.99,1.29,1.71,4.4,2.74,6.22,2.06,8.48,1.44,11.64,2.84,3.76,1.67,5.73,4.86,6.67,6.37,2.95,4.75,2.59,9.2,1.92,17.58-.12,1.53-.39,3.63-1.71,5.78-.45.73-.88,1.24-1.43,1.85-3.87,4.33-5.48,4.65-6.04,5.97-1.5,3.52,6.83,8.39,11.28,15.46,2.85,4.53,5.22,11.72,3.2,23.42l18.9-5.65s1.35-28.74,1.35-32.13-1.08-24.58-1.62-29.79c-.57-5.46-.95-15.11-4.86-24.71-1.02-2.5-2.46-5.47-5.17-8.39-3.69-3.96-7.71-5.67-9.81-6.54-7.95-3.28-15.01-2.29-20.16-1.56ZM71.32,384.43c-3.16,2.15-7.94.82-9.21-1.99-.25,2.85-2.67,5.71-6.19,6.48,4.49-1.96,6.67-6.22,5.2-10,.62.81.93,1.73.99,2.67,1.61,2.82,5.4,4.12,9.21,2.84ZM69.7,373.99c-2.86,1.94-7.19.71-8.28-1.85-.19,2.57-2.33,5.17-5.51,5.86,4.02-1.76,5.97-5.57,4.65-8.95.54.71.8,1.52.87,2.35,1.43,2.55,4.84,3.73,8.26,2.58ZM69.7,361.99c-2.86,1.94-7.19.71-8.28-1.85-.19,2.57-2.33,5.17-5.51,5.86,4.02-1.76,5.97-5.57,4.65-8.95.54.71.8,1.52.87,2.35,1.43,2.55,4.84,3.73,8.26,2.58ZM69.19,351.18c-3.07,2.08-7.69.79-8.92-1.93-.24,2.76-2.59,5.53-5.99,6.28,4.35-1.9,6.46-6.03,5.03-9.68.6.79.9,1.67.96,2.58,1.56,2.73,5.23,3.99,8.92,2.75Z"/>
      <path d="M35.89,519.04c-3.29-.46-5.29-1.11-7.11-2.04-.81-.41-3.82-2.02-6.55-5.47-.4-.51-5.17-6.53-3.58-8.57.88-1.13,2.97-.12,9.05.68,5.24.68,8,1.04,11.48.37.86-.17,6.48-1.34,10.19-5.84.36-.44,1.88-2.28,1.42-2.9-.41-.55-2.06.24-4.89,1.13-3.64,1.15-6.46,2.04-9.69,1.77-1.33-.11-3.77-.5-6.08-2.16-.88-.63-3.04-2.18-2.78-3.72.17-.99,1.29-1.71,4.4-2.74,6.22-2.06,8.48-1.44,11.64-2.84,3.76-1.67,5.73-4.86,6.67-6.37,2.95-4.75,2.59-9.2,1.92-17.58-.12-1.53-.39-3.63-1.71-5.78-.45-.73-.88-1.24-1.43-1.85-3.87-4.33-5.48-4.65-6.04-5.97-1.5-3.52,6.83-8.39,11.28-15.46,2.85-4.53,5.22-11.72,3.2-23.42l18.9,5.65s1.35,28.74,1.35,32.13-1.08,24.58-1.62,29.79c-.57,5.46-.95,15.11-4.86,24.71-1.02,2.5-2.46,5.47-5.17,8.39-3.69,3.96-7.71,5.67-9.81,6.54-7.95,3.28-15.01,2.29-20.16,1.56ZM73.36,446.59c-3.16-2.15-7.94-.82-9.21,1.99-.25-2.85-2.67-5.71-6.19-6.48,4.49,1.96,6.67,6.22,5.2,10,.62-.81.93-1.73.99-2.67,1.61-2.82,5.4-4.12,9.21-2.84ZM71.74,457.03c-2.86-1.94-7.19-.71-8.28,1.85-.19-2.57-2.33-5.17-5.51-5.86,4.02,1.76,5.97,5.57,4.65,8.95.54-.71.8-1.52.87-2.35,1.43-2.55,4.84-3.73,8.26-2.58ZM71.74,469.03c-2.86-1.94-7.19-.71-8.28,1.85-.19-2.57-2.33-5.17-5.51-5.86,4.02,1.76,5.97,5.57,4.65,8.95.54-.71.8-1.52.87-2.35,1.43-2.55,4.84-3.73,8.26-2.58ZM71.23,479.84c-3.07-2.08-7.69-.79-8.92,1.93-.24-2.76-2.59-5.53-5.99-6.28,4.35,1.9,6.46,6.03,5.03,9.68.6-.79.9-1.67.96-2.58,1.56-2.73,5.23-3.99,8.92-2.75Z"/>
    </g>
    <g>
      <path d="M404.66,675.56c2.65,2,4.52,2.96,6.47,3.59.86.28,4.13,1.27,8.5.76.64-.08,8.27-.97,8.59-3.53.18-1.42-2.02-2.18-6.87-5.92-4.19-3.22-6.4-4.92-8.38-7.85-.49-.73-3.64-5.53-3.08-11.34.05-.57.28-2.94,1.05-3.06.68-.1,1.29,1.62,2.66,4.26,1.76,3.38,3.13,6.01,5.6,8.1,1.02.86,3.02,2.31,5.82,2.77,1.06.17,3.69.6,4.6-.67.59-.82.3-2.12-1.17-5.05-2.94-5.86-4.98-7.01-6.22-10.23-1.48-3.84-.61-7.49-.21-9.22,1.28-5.45,4.67-8.34,11.07-13.79,1.17-1,2.85-2.29,5.3-2.87.83-.2,1.5-.25,2.32-.3,5.8-.32,7.16.59,8.5.05,3.55-1.43,1.11-10.76,2.96-18.91,1.19-5.22,4.6-11.98,14.3-18.83l-17.36-9.37s-21.27,19.36-23.68,21.77-16.62,18.14-19.92,22.21c-3.46,4.26-10.02,11.35-14.03,20.91-1.05,2.49-2.13,5.61-2.28,9.6-.2,5.41,1.44,9.47,2.32,11.56,3.31,7.94,8.99,12.23,13.15,15.36ZM429.4,597.84c3.75.72,6.19,5.04,5.1,7.92,2.19-1.84,5.93-2.15,8.96-.21-4.56-1.79-9.12-.32-10.74,3.4.14-1.01.57-1.88,1.18-2.59.85-3.13-.91-6.73-4.5-8.52ZM423.16,606.36c3.39.65,5.58,4.58,4.55,7.16,1.95-1.68,5.3-2.01,8.04-.25-4.08-1.6-8.16-.28-9.62,3.04.12-.89.51-1.64,1.05-2.28.79-2.81-.78-6.06-4.02-7.67ZM414.67,614.85c3.39.65,5.58,4.58,4.55,7.16,1.95-1.68,5.3-2.01,8.04-.25-4.08-1.6-8.16-.28-9.62,3.04.12-.89.51-1.64,1.05-2.28.79-2.81-.78-6.06-4.02-7.67ZM407.39,622.85c3.64.7,6,4.88,4.94,7.67,2.12-1.78,5.74-2.08,8.68-.2-4.42-1.73-8.83-.31-10.41,3.29.13-.98.55-1.82,1.15-2.51.83-3.03-.88-6.52-4.36-8.25Z"/>
      <path d="M549.64,527.7c2,2.65,2.96,4.52,3.59,6.47.28.86,1.27,4.13.76,8.5-.08.64-.97,8.27-3.53,8.59-1.42.18-2.18-2.02-5.92-6.87-3.22-4.19-4.92-6.4-7.85-8.38-.73-.49-5.53-3.64-11.34-3.08-.57.05-2.94.28-3.06,1.05-.1.68,1.62,1.29,4.26,2.66,3.38,1.76,6.01,3.13,8.1,5.6.86,1.02,2.31,3.02,2.77,5.82.17,1.06.6,3.69-.67,4.6-.82.59-2.12.3-5.05-1.17-5.86-2.94-7.01-4.98-10.23-6.22-3.84-1.48-7.49-.61-9.22-.21-5.45,1.28-8.34,4.67-13.79,11.07-1,1.17-2.29,2.85-2.87,5.3-.2.83-.25,1.5-.3,2.32-.32,5.8.59,7.16.05,8.5-1.43,3.55-10.76,1.11-18.91,2.96-5.22,1.19-11.98,4.6-18.83,14.3l-9.37-17.36s19.36-21.27,21.77-23.68c2.4-2.4,18.14-16.62,22.21-19.92,4.26-3.46,11.35-10.02,20.91-14.03,2.49-1.05,5.61-2.13,9.6-2.28,5.41-.2,9.47,1.44,11.56,2.32,7.94,3.31,12.23,8.99,15.36,13.15ZM471.92,552.44c.72,3.75,5.04,6.19,7.92,5.1-1.84,2.19-2.15,5.93-.21,8.96-1.79-4.56-.32-9.12,3.4-10.74-1.01.14-1.88.57-2.59,1.18-3.13.85-6.73-.91-8.52-4.5ZM480.44,546.2c.65,3.39,4.58,5.58,7.16,4.55-1.68,1.95-2.01,5.3-.25,8.04-1.6-4.08-.28-8.16,3.04-9.62-.89.12-1.64.51-2.28,1.05-2.81.79-6.06-.78-7.67-4.02ZM488.92,537.72c.65,3.39,4.58,5.58,7.16,4.55-1.68,1.95-2.01,5.3-.25,8.04-1.6-4.08-.28-8.16,3.04-9.62-.89.12-1.64.51-2.28,1.05-2.81.79-6.06-.78-7.67-4.02ZM496.93,530.44c.7,3.64,4.88,6,7.67,4.94-1.78,2.12-2.08,5.74-.2,8.68-1.73-4.42-.31-8.83,3.29-10.41-.98.13-1.82.55-2.51,1.15-3.03.83-6.52-.88-8.25-4.36Z"/>
    </g>
    <g>
      <path d="M179.88,679.98c-2.65,2-4.52,2.96-6.47,3.59-.86.28-4.13,1.27-8.5.76-.64-.08-8.27-.97-8.59-3.53-.18-1.42,2.02-2.18,6.87-5.92,4.19-3.22,6.4-4.92,8.38-7.85.49-.73,3.64-5.53,3.08-11.34-.05-.57-.28-2.94-1.05-3.06-.68-.1-1.29,1.62-2.66,4.26-1.76,3.38-3.13,6.01-5.6,8.1-1.02.86-3.02,2.31-5.82,2.77-1.06.17-3.69.6-4.6-.67-.59-.82-.3-2.12,1.17-5.05,2.94-5.86,4.98-7.01,6.22-10.23,1.48-3.84.61-7.49.21-9.22-1.28-5.45-4.67-8.34-11.07-13.79-1.17-1-2.85-2.29-5.3-2.87-.83-.2-1.5-.25-2.32-.3-5.8-.32-7.16.59-8.5.05-3.55-1.43-1.11-10.76-2.96-18.91-1.19-5.22-4.6-11.98-14.3-18.83l17.36-9.37s21.27,19.36,23.68,21.77c2.4,2.4,16.62,18.14,19.92,22.21,3.46,4.26,10.02,11.35,14.03,20.91,1.05,2.49,2.13,5.61,2.28,9.6.2,5.41-1.44,9.47-2.32,11.56-3.31,7.94-8.99,12.23-13.15,15.36ZM155.14,602.26c-3.75.72-6.19,5.04-5.1,7.92-2.19-1.84-5.93-2.15-8.96-.21,4.56-1.79,9.12-.32,10.74,3.4-.14-1.01-.57-1.88-1.18-2.59-.85-3.13.91-6.73,4.5-8.52ZM161.38,610.78c-3.39.65-5.58,4.58-4.55,7.16-1.95-1.68-5.3-2.01-8.04-.25,4.08-1.6,8.16-.28,9.62,3.04-.12-.89-.51-1.64-1.05-2.28-.79-2.81.78-6.06,4.02-7.67ZM169.87,619.27c-3.39.65-5.58,4.58-4.55,7.16-1.95-1.68-5.3-2.01-8.04-.25,4.08-1.6,8.16-.28,9.62,3.04-.12-.89-.51-1.64-1.05-2.28-.79-2.81.78-6.06,4.02-7.67ZM177.15,627.27c-3.64.7-6,4.88-4.94,7.67-2.12-1.78-5.74-2.08-8.68-.2,4.42-1.73,8.83-.31,10.41,3.29-.13-.98-.55-1.82-1.15-2.51-.83-3.03.88-6.52,4.36-8.25Z"/>
      <path d="M34.91,532.12c-2,2.65-2.96,4.52-3.59,6.47-.28.86-1.27,4.13-.76,8.5.08.64.97,8.27,3.53,8.59,1.42.18,2.18-2.02,5.92-6.87,3.22-4.19,4.92-6.4,7.85-8.38.73-.49,5.53-3.64,11.34-3.08.57.05,2.94.28,3.06,1.05.1.68-1.62,1.29-4.26,2.66-3.38,1.76-6.01,3.13-8.1,5.6-.86,1.02-2.31,3.02-2.77,5.82-.17,1.06-.6,3.69.67,4.6.82.59,2.12.3,5.05-1.17,5.86-2.94,7.01-4.98,10.23-6.22,3.84-1.48,7.49-.61,9.22-.21,5.45,1.28,8.34,4.67,13.79,11.07,1,1.17,2.29,2.85,2.87,5.3.2.83.25,1.5.3,2.32.32,5.8-.59,7.16-.05,8.5,1.43,3.55,10.76,1.11,18.91,2.96,5.22,1.19,11.98,4.6,18.83,14.3l9.37-17.36s-19.36-21.27-21.77-23.68c-2.4-2.4-18.14-16.62-22.21-19.92-4.26-3.46-11.35-10.02-20.91-14.03-2.49-1.05-5.61-2.13-9.6-2.28-5.41-.2-9.47,1.44-11.56,2.32-7.94,3.31-12.23,8.99-15.36,13.15ZM112.63,556.86c-.72,3.75-5.04,6.19-7.92,5.1,1.84,2.19,2.15,5.93.21,8.96,1.79-4.56.32-9.12-3.4-10.74,1.01.14,1.88.57,2.59,1.18,3.13.85,6.73-.91,8.52-4.5ZM104.1,550.62c-.65,3.39-4.58,5.58-7.16,4.55,1.68,1.95,2.01,5.3.25,8.04,1.6-4.08.28-8.16-3.04-9.62.89.12,1.64.51,2.28,1.05,2.81.79,6.06-.78,7.67-4.02ZM95.62,542.13c-.65,3.39-4.58,5.58-7.16,4.55,1.68,1.95,2.01,5.3.25,8.04,1.6-4.08.28-8.16-3.04-9.62.89.12,1.64.51,2.28,1.05,2.81.79,6.06-.78,7.67-4.02ZM87.61,534.85c-.7,3.64-4.88,6-7.67,4.94,1.78,2.12,2.08,5.74.2,8.68,1.73-4.42.31-8.83-3.29-10.41.98.13,1.82.55,2.51,1.15,3.03.83,6.52-.88,8.25-4.36Z"/>
    </g>
    <g>
      <path d="M174.07,147.41c-2.65-2-4.52-2.96-6.47-3.59-.86-.28-4.13-1.27-8.5-.76-.64.08-8.27.97-8.59,3.53-.18,1.42,2.02,2.18,6.87,5.92,4.19,3.22,6.4,4.92,8.38,7.85.49.73,3.64,5.53,3.08,11.34-.05.57-.28,2.94-1.05,3.06-.68.1-1.29-1.62-2.66-4.26-1.76-3.38-3.13-6.01-5.6-8.1-1.02-.86-3.02-2.31-5.82-2.77-1.06-.17-3.69-.6-4.6.67-.59.82-.3,2.12,1.17,5.05,2.94,5.86,4.98,7.01,6.22,10.23,1.48,3.84.61,7.49.21,9.22-1.28,5.45-4.67,8.34-11.07,13.79-1.17,1-2.85,2.29-5.3,2.87-.83.2-1.5.25-2.32.3-5.8.32-7.16-.59-8.5-.05-3.55,1.43-1.11,10.76-2.96,18.91-1.19,5.22-4.6,11.98-14.3,18.83l17.36,9.37s21.27-19.36,23.68-21.77,16.62-18.14,19.92-22.21c3.46-4.26,10.02-11.35,14.03-20.91,1.05-2.49,2.13-5.61,2.28-9.6.2-5.41-1.44-9.47-2.32-11.56-3.31-7.94-8.99-12.23-13.15-15.36ZM149.33,225.14c-3.75-.72-6.19-5.04-5.1-7.92-2.19,1.84-5.93,2.15-8.96.21,4.56,1.79,9.12.32,10.74-3.4-.14,1.01-.57,1.88-1.18,2.59-.85,3.13.91,6.73,4.5,8.52ZM155.57,216.61c-3.39-.65-5.58-4.58-4.55-7.16-1.95,1.68-5.3,2.01-8.04.25,4.08,1.6,8.16.28,9.62-3.04-.12.89-.51,1.64-1.05,2.28-.79,2.81.78,6.06,4.02,7.67ZM164.06,208.13c-3.39-.65-5.58-4.58-4.55-7.16-1.95,1.68-5.3,2.01-8.04.25,4.08,1.6,8.16.28,9.62-3.04-.12.89-.51,1.64-1.05,2.28-.79,2.81.78,6.06,4.02,7.67ZM171.34,200.12c-3.64-.7-6-4.88-4.94-7.67-2.12,1.78-5.74,2.08-8.68.2,4.42,1.73,8.83.31,10.41-3.29-.13.98-.55,1.82-1.15,2.51-.83,3.03.88,6.52,4.36,8.25Z"/>
      <path d="M29.09,295.27c-2-2.65-2.96-4.52-3.59-6.47-.28-.86-1.27-4.13-.76-8.5.08-.64.97-8.27,3.53-8.59,1.42-.18,2.18,2.02,5.92,6.87,3.22,4.19,4.92,6.4,7.85,8.38.73.49,5.53,3.64,11.34,3.08.57-.05,2.94-.28,3.06-1.05.1-.68-1.62-1.29-4.26-2.66-3.38-1.76-6.01-3.13-8.1-5.6-.86-1.02-2.31-3.02-2.77-5.82-.17-1.06-.6-3.69.67-4.6.82-.59,2.12-.3,5.05,1.17,5.86,2.94,7.01,4.98,10.23,6.22,3.84,1.48,7.49.61,9.22.21,5.45-1.28,8.34-4.67,13.79-11.07,1-1.17,2.29-2.85,2.87-5.3.2-.83.25-1.5.3-2.32.32-5.8-.59-7.16-.05-8.5,1.43-3.55,10.76-1.11,18.91-2.96,5.22-1.19,11.98-4.6,18.83-14.3l9.37,17.36s-19.36,21.27-21.77,23.68-18.14,16.62-22.21,19.92c-4.26,3.46-11.35,10.02-20.91,14.03-2.49,1.05-5.61,2.13-9.6,2.28-5.41.2-9.47-1.44-11.56-2.32-7.94-3.31-12.23-8.99-15.36-13.15ZM106.81,270.53c-.72-3.75-5.04-6.19-7.92-5.1,1.84-2.19,2.15-5.93.21-8.96,1.79,4.56.32,9.12-3.4,10.74,1.01-.14,1.88-.57,2.59-1.18,3.13-.85,6.73.91,8.52,4.5ZM98.29,276.77c-.65-3.39-4.58-5.58-7.16-4.55,1.68-1.95,2.01-5.3.25-8.04,1.6,4.08.28,8.16-3.04,9.62.89-.12,1.64-.51,2.28-1.05,2.81-.79,6.06.78,7.67,4.02ZM89.8,285.26c-.65-3.39-4.58-5.58-7.16-4.55,1.68-1.95,2.01-5.3.25-8.04,1.6,4.08.28,8.16-3.04,9.62.89-.12,1.64-.51,2.28-1.05,2.81-.79,6.06.78,7.67,4.02ZM81.8,292.54c-.7-3.64-4.88-6-7.67-4.94,1.78-2.12,2.08-5.74.2-8.68,1.73,4.42.31,8.83-3.29,10.41.98-.13,1.82-.55,2.51-1.15,3.03-.83,6.52.88,8.25,4.36Z"/>
    </g>
    <g>
      <path d="M406.87,154.86c2.65-2,4.52-2.96,6.47-3.59.86-.28,4.13-1.27,8.5-.76.64.08,8.27.97,8.59,3.53.18,1.42-2.02,2.18-6.87,5.92-4.19,3.22-6.4,4.92-8.38,7.85-.49.73-3.64,5.53-3.08,11.34.05.57.28,2.94,1.05,3.06.68.1,1.29-1.62,2.66-4.26,1.76-3.38,3.13-6.01,5.6-8.1,1.02-.86,3.02-2.31,5.82-2.77,1.06-.17,3.69-.6,4.6.67.59.82.3,2.12-1.17,5.05-2.94,5.86-4.98,7.01-6.22,10.23-1.48,3.84-.61,7.49-.21,9.22,1.28,5.45,4.67,8.34,11.07,13.79,1.17,1,2.85,2.29,5.3,2.87.83.2,1.5.25,2.32.3,5.8.32,7.16-.59,8.5-.05,3.55,1.43,1.11,10.76,2.96,18.91,1.19,5.22,4.6,11.98,14.3,18.83l-17.36,9.37s-21.27-19.36-23.68-21.77c-2.4-2.4-16.62-18.14-19.92-22.21-3.46-4.26-10.02-11.35-14.03-20.91-1.05-2.49-2.13-5.61-2.28-9.6-.2-5.41,1.44-9.47,2.32-11.56,3.31-7.94,8.99-12.23,13.15-15.36ZM431.61,232.58c3.75-.72,6.19-5.04,5.1-7.92,2.19,1.84,5.93,2.15,8.96.21-4.56,1.79-9.12.32-10.74-3.4.14,1.01.57,1.88,1.18,2.59.85,3.13-.91,6.73-4.5,8.52ZM425.37,224.06c3.39-.65,5.58-4.58,4.55-7.16,1.95,1.68,5.3,2.01,8.04.25-4.08,1.6-8.16.28-9.62-3.04.12.89.51,1.64,1.05,2.28.79,2.81-.78,6.06-4.02,7.67ZM416.88,215.57c3.39-.65,5.58-4.58,4.55-7.16,1.95,1.68,5.3,2.01,8.04.25-4.08,1.6-8.16.28-9.62-3.04.12.89.51,1.64,1.05,2.28.79,2.81-.78,6.06-4.02,7.67ZM409.6,207.57c3.64-.7,6-4.88,4.94-7.67,2.12,1.78,5.74,2.08,8.68.2-4.42,1.73-8.83.31-10.41-3.29.13.98.55,1.82,1.15,2.51.83,3.03-.88,6.52-4.36,8.25Z"/>
      <path d="M551.85,302.72c2-2.65,2.96-4.52,3.59-6.47.28-.86,1.27-4.13.76-8.5-.08-.64-.97-8.27-3.53-8.59-1.42-.18-2.18,2.02-5.92,6.87-3.22,4.19-4.92,6.4-7.85,8.38-.73.49-5.53,3.64-11.34,3.08-.57-.05-2.94-.28-3.06-1.05-.1-.68,1.62-1.29,4.26-2.66,3.38-1.76,6.01-3.13,8.1-5.6.86-1.02,2.31-3.02,2.77-5.82.17-1.06.6-3.69-.67-4.6-.82-.59-2.12-.3-5.05,1.17-5.86,2.94-7.01,4.98-10.23,6.22-3.84,1.48-7.49.61-9.22.21-5.45-1.28-8.34-4.67-13.79-11.07-1-1.17-2.29-2.85-2.87-5.3-.2-.83-.25-1.5-.3-2.32-.32-5.8.59-7.16.05-8.5-1.43-3.55-10.76-1.11-18.91-2.96-5.22-1.19-11.98-4.6-18.83-14.3l-9.37,17.36s19.36,21.27,21.77,23.68,18.14,16.62,22.21,19.92c4.26,3.46,11.35,10.02,20.91,14.03,2.49,1.05,5.61,2.13,9.6,2.28,5.41.2,9.47-1.44,11.56-2.32,7.94-3.31,12.23-8.99,15.36-13.15ZM474.12,277.98c.72-3.75,5.04-6.19,7.92-5.1-1.84-2.19-2.15-5.93-.21-8.96-1.79,4.56-.32,9.12,3.4,10.74-1.01-.14-1.88-.57-2.59-1.18-3.13-.85-6.73.91-8.52,4.5ZM482.65,284.22c.65-3.39,4.58-5.58,7.16-4.55-1.68-1.95-2.01-5.3-.25-8.04-1.6,4.08-.28,8.16,3.04,9.62-.89-.12-1.64-.51-2.28-1.05-2.81-.79-6.06.78-7.67,4.02ZM491.13,292.71c.65-3.39,4.58-5.58,7.16-4.55-1.68-1.95-2.01-5.3-.25-8.04-1.6,4.08-.28,8.16,3.04,9.62-.89-.12-1.64-.51-2.28-1.05-2.81-.79-6.06.78-7.67,4.02ZM499.14,299.99c.7-3.64,4.88-6,7.67-4.94-1.78-2.12-2.08-5.74-.2-8.68-1.73,4.42-.31,8.83,3.29,10.41-.98-.13-1.82-.55-2.51-1.15-3.03-.83-6.52.88-8.25,4.36Z"/>
    </g>
  </g>
</svg>