<?xml version='1.0' encoding='utf-8'?>
<svg xmlns="http://www.w3.org/2000/svg" id="_忍冬" data-name="忍冬" viewBox="0 0 595.28 841.89">
  <defs>
    <style>.cls-1 {
        fill: #221714;
      }
    
path{stroke:#fff;stroke-width:3;vector-effect:non-scaling-stroke;paint-order:stroke}</style>
  </defs>
  <g>
    <path class="cls-1" d="M237.28,475.1c-11.44,13.08-17.9,30.97-18.63,42.43,0,.06-.96,15.12-5.89,25.35-.27.57-1.46,2.99-3.18,6.07-2.75,4.93-4.38,7.84-7.01,10.86-3.15,3.63-5.36,6.17-9.26,7.34-6.34,1.9-11.98-1.39-12.65-1.8-5.36-3.24-8.46-9.48-8.21-16.19-2.08,1.79-5.14,4.9-7.34,9.58-.55,1.18-7,15.33.71,25.29,5.58,7.21,14.82,7.94,18.75,8.22,13.11.94,22.88-6.84,26.06-9.37,3.85-3.06,6.19-6,6.86-6.86,7.06-9.08,8.22-19.01,9.05-27.03.47-4.58.56-9,.52-13.21h0c2.6,10.84,11.13,17.16,14.7,19.49,1.21.41,3.99,1.16,6.84,0,4.53-1.82,6.73-7.46,6.08-11.75-.94-6.21-7.95-10.25-7.09-11.39.21-.28.78-.19,1.92,0,2.91.49,4.95,1.76,5.14,1.88,7.39,4.68,7.76,5.19,8.82,5.63,6.15,2.53,16.08,1.29,19.31-4.95,2.02-3.9.69-8.34-.11-10.41-1.3-2.05-3.52-5-7.07-7.38-7.36-4.93-13.57-2.81-22.17-6.38-3.39-1.41-8.07-4.09-12.82-9.68l-.17-.31c3.51,4.24,10.25,10.57,20.23,11.95,9.16,1.27,23.64-1.29,26.52-10.71,2.27-5.04,1.06-9.86.62-11.53-2.06-7.79-8.3-11.64-9.7-12.45-1.51.17-3.7.67-5.26,2.34-2.27,2.42-.65,4.55-2.75,8.38-1.83,3.32-5.59,6.33-9.58,6.38h-.22c-3.75-.04-7.23-2.04-9-4.1-3.08-3.61-2.14-8.82-1.79-10.73,1.69-9.35,15.12-17.31,33.34-21.34,1.03-.02,2.06-.03,3.09-.01-.59-.11-1.19-.19-1.78-.28h.04s-.07,0-.07,0c-8.67-1.36-17.79-.81-26.35,2.13-7.06,2.42-13.23,6.82-18.47,12.26-.8.75-1.52,1.51-2.08,2.27ZM248.73,500.7c3.71,1.86,6.94,2.38,8.21,2.55,2.2.29,4.14.24,5.69.09-4.93.41-8.79.24-10.92-.03-1.28-.16-3.39-.42-5.93-1.46h0c-.48-.18-1.22-.49-2.08-.95-4.11-2.18-5.2-4.76-7.38-4.68-.4.01-1.23.13-2.69,1.49-3.33,3.09-4.28,7.4-5.43,12.41-2,8.71-2.62,12.84-3.16,12.8-.54-.04-.66-4.16-.66-6.08,0-3.83.55-6.8.81-8.12.78-3.85,1.98-9.74,6.44-15.27,1.51-1.88,2.99-3.2,3.97-4.01,1.27,1.51,3.12,3.54,5.57,5.72,2.58,2.3,4.48,4,7.55,5.54ZM277.71,459.06c-2.31.27-4.54.6-6.7.97,2.2-.44,4.44-.76,6.7-.97Z" />
    <path class="cls-1" d="M227.89,465.71c-13.08,11.44-30.97,17.9-42.43,18.63-.06,0-15.12.96-25.35,5.89-.57.27-2.99,1.46-6.07,3.18-4.93,2.75-7.84,4.38-10.86,7.01-3.63,3.15-6.17,5.36-7.34,9.26-1.9,6.34,1.39,11.98,1.8,12.65,3.24,5.36,9.48,8.46,16.19,8.21-1.79,2.08-4.9,5.14-9.58,7.34-1.18.55-15.33,7-25.29-.71-7.21-5.58-7.94-14.82-8.22-18.75-.94-13.11,6.84-22.88,9.37-26.06,3.06-3.85,6-6.19,6.86-6.86,9.08-7.06,19.01-8.22,27.03-9.05,4.58-.47,9-.56,13.21-.52h0c-10.83-2.6-17.15-11.14-19.48-14.7-.41-1.21-1.16-3.99,0-6.84,1.82-4.53,7.46-6.73,11.75-6.08,6.21.94,10.25,7.95,11.39,7.09.28-.21.19-.78,0-1.92-.49-2.91-1.76-4.95-1.88-5.14-4.68-7.39-5.19-7.76-5.63-8.82-2.53-6.15-1.29-16.08,4.95-19.31,3.9-2.02,8.34-.69,10.41.11,2.05,1.3,5,3.52,7.38,7.07,4.93,7.36,2.81,13.57,6.38,22.17,1.41,3.39,4.09,8.07,9.68,12.82l.31.17c-4.24-3.51-10.57-10.25-11.95-20.23-1.27-9.16,1.29-23.64,10.71-26.52,5.04-2.27,9.86-1.06,11.53-.62,7.79,2.06,11.64,8.3,12.45,9.7-.17,1.51-.67,3.7-2.34,5.26-2.42,2.27-4.55.65-8.38,2.75-3.32,1.83-6.33,5.59-6.38,9.58v.22c.04,3.75,2.04,7.23,4.1,9,3.61,3.08,8.82,2.14,10.73,1.79,9.35-1.69,17.31-15.12,21.34-33.34.02-1.03.03-2.06.01-3.09.11.59.19,1.19.28,1.78v-.04s0,.07,0,.07c1.36,8.67.81,17.79-2.13,26.35-2.42,7.06-6.82,13.23-12.26,18.47-.75.8-1.51,1.52-2.27,2.08ZM202.3,454.27c-1.86-3.71-2.38-6.94-2.55-8.21-.29-2.2-.24-4.14-.09-5.69-.41,4.93-.24,8.79.03,10.92.16,1.28.42,3.39,1.46,5.93h0c.18.48.49,1.22.95,2.08,2.18,4.11,4.76,5.2,4.68,7.38-.01.4-.13,1.23-1.49,2.69-3.09,3.33-7.4,4.28-12.41,5.43-8.71,2-12.84,2.62-12.8,3.16.04.54,4.16.66,6.08.66,3.83,0,6.8-.55,8.12-.81,3.85-.78,9.74-1.98,15.27-6.44,1.88-1.51,3.2-2.99,4.01-3.97-1.51-1.27-3.54-3.12-5.72-5.57-2.3-2.58-4-4.48-5.54-7.55ZM243.94,425.29c-.27,2.31-.6,4.54-.97,6.7.44-2.2.76-4.44.97-6.7Z" />
  </g>
  <path class="cls-1" d="M357.85,348.76c13.08-11.44,30.97-17.9,42.43-18.63.06,0,15.12-.96,25.35-5.89.57-.27,2.99-1.46,6.07-3.18,4.93-2.75,7.84-4.38,10.86-7.01,3.63-3.15,6.17-5.36,7.34-9.26,1.9-6.34-1.39-11.98-1.8-12.65-3.24-5.36-9.48-8.46-16.19-8.21,1.79-2.08,4.9-5.14,9.58-7.34,1.18-.55,15.33-7,25.29.71,7.21,5.58,7.94,14.82,8.22,18.75.94,13.11-6.84,22.88-9.37,26.06-3.06,3.85-6,6.19-6.86,6.86-9.08,7.06-19.01,8.22-27.03,9.05-4.58.47-9,.56-13.21.52h0c10.83,2.6,17.15,11.14,19.48,14.7.41,1.21,1.16,3.99,0,6.84-1.82,4.53-7.46,6.73-11.75,6.08-6.21-.94-10.25-7.95-11.39-7.09-.28.21-.19.78,0,1.92.49,2.91,1.76,4.95,1.88,5.14,4.68,7.39,5.19,7.76,5.63,8.82,2.53,6.15,1.29,16.08-4.95,19.31-3.9,2.02-8.34.69-10.41-.11-2.05-1.3-5-3.52-7.38-7.07-4.93-7.36-2.81-13.57-6.38-22.17-1.41-3.39-4.09-8.07-9.68-12.82l-.31-.17c4.24,3.51,10.57,10.25,11.95,20.23,1.27,9.16-1.29,23.64-10.71,26.52-5.04,2.27-9.86,1.06-11.53.62-7.79-2.06-11.64-8.3-12.45-9.7.17-1.51.67-3.7,2.34-5.26,2.42-2.27,4.55-.65,8.38-2.75,3.32-1.83,6.33-5.59,6.38-9.58v-.22c-.04-3.75-2.04-7.23-4.1-9-3.61-3.08-8.82-2.14-10.73-1.79-9.35,1.69-17.31,15.12-21.34,33.34-.02,1.03-.03,2.06-.01,3.09-.11-.59-.19-1.19-.28-1.78v.04s0-.07,0-.07c-1.36-8.67-.81-17.79,2.13-26.35,2.42-7.06,6.82-13.23,12.26-18.47.75-.8,1.51-1.52,2.27-2.08ZM383.44,360.2c1.86,3.71,2.38,6.94,2.55,8.21.29,2.2.24,4.14.09,5.69.41-4.93.24-8.79-.03-10.92-.16-1.28-.42-3.39-1.46-5.93h0c-.18-.48-.49-1.22-.95-2.08-2.18-4.11-4.76-5.2-4.68-7.38.01-.4.13-1.23,1.49-2.69,3.09-3.33,7.4-4.28,12.41-5.43,8.71-2,12.84-2.62,12.8-3.16-.04-.54-4.16-.66-6.08-.66-3.83,0-6.8.55-8.12.81-3.85.78-9.74,1.98-15.27,6.44-1.88,1.51-3.2,2.99-4.01,3.97,1.51,1.27,3.54,3.12,5.72,5.57,2.3,2.58,4,4.48,5.54,7.55ZM341.8,389.18c.27-2.31.6-4.54.97-6.7-.44,2.2-.76,4.44-.97,6.7Z" />
  <path class="cls-1" d="M348.45,339.37c11.44-13.08,17.9-30.97,18.63-42.43,0-.06.96-15.12,5.89-25.35.27-.57,1.46-2.99,3.18-6.07,2.75-4.93,4.38-7.84,7.01-10.86,3.15-3.63,5.36-6.17,9.26-7.34,6.34-1.9,11.98,1.39,12.65,1.8,5.36,3.24,8.46,9.48,8.21,16.19,2.08-1.79,5.14-4.9,7.34-9.58.55-1.18,7-15.33-.71-25.29-5.58-7.21-14.82-7.94-18.75-8.22-13.11-.94-22.88,6.84-26.06,9.37-3.85,3.06-6.19,6-6.86,6.86-7.06,9.08-8.22,19.01-9.05,27.03-.47,4.58-.56,9-.52,13.21h0c-2.6-10.84-11.13-17.16-14.7-19.49-1.21-.41-3.99-1.16-6.84,0-4.53,1.82-6.73,7.46-6.08,11.75.94,6.21,7.95,10.25,7.09,11.39-.21.28-.78.19-1.92,0-2.91-.49-4.95-1.76-5.14-1.88-7.39-4.68-7.76-5.19-8.82-5.63-6.15-2.53-16.08-1.29-19.31,4.95-2.02,3.9-.69,8.34.11,10.41,1.3,2.05,3.52,5,7.07,7.38,7.36,4.93,13.57,2.81,22.17,6.38,3.39,1.41,8.07,4.09,12.82,9.68l.17.31c-3.51-4.24-10.25-10.57-20.23-11.95-9.16-1.27-23.64,1.29-26.52,10.71-2.27,5.04-1.06,9.86-.62,11.53,2.06,7.79,8.3,11.64,9.7,12.45,1.51-.17,3.7-.67,5.26-2.34,2.27-2.42.65-4.55,2.75-8.38,1.83-3.32,5.59-6.33,9.58-6.38h.22c3.75.04,7.23,2.04,9,4.1,3.08,3.61,2.14,8.82,1.79,10.73-1.69,9.35-15.12,17.31-33.34,21.34-1.03.02-2.06.03-3.09.01.59.11,1.19.19,1.78.28h-.04s.07,0,.07,0c8.67,1.36,17.79.81,26.35-2.13,7.06-2.42,13.23-6.82,18.47-12.26.8-.75,1.52-1.51,2.08-2.27ZM337.01,313.77c-3.71-1.86-6.94-2.38-8.21-2.55-2.2-.29-4.14-.24-5.69-.09,4.93-.41,8.79-.24,10.92.03,1.28.16,3.39.42,5.93,1.46h0c.48.18,1.22.49,2.08.95,4.11,2.18,5.2,4.76,7.38,4.68.4-.01,1.23-.13,2.69-1.49,3.33-3.09,4.28-7.4,5.43-12.41,2-8.71,2.62-12.84,3.16-12.8.54.04.66,4.16.66,6.08,0,3.83-.55,6.8-.81,8.12-.78,3.85-1.98,9.74-6.44,15.27-1.51,1.88-2.99,3.2-3.97,4.01-1.27-1.51-3.12-3.54-5.57-5.72-2.58-2.3-4.48-4-7.55-5.54ZM308.03,355.41c2.31-.27,4.54-.6,6.7-.97-2.2.44-4.44.76-6.7.97Z" />
  <g>
    <path class="cls-1" d="M359.12,468.68c13.08,11.44,30.97,17.9,42.43,18.63.06,0,15.12.96,25.35,5.89.57.27,2.99,1.46,6.07,3.18,4.93,2.75,7.84,4.38,10.86,7.01,3.63,3.15,6.17,5.36,7.34,9.26,1.9,6.34-1.39,11.98-1.8,12.65-3.24,5.36-9.48,8.46-16.19,8.21,1.79,2.08,4.9,5.14,9.58,7.34,1.18.55,15.33,7,25.29-.71,7.21-5.58,7.94-14.82,8.22-18.75.94-13.11-6.84-22.88-9.37-26.06-3.06-3.85-6-6.19-6.86-6.86-9.08-7.06-19.01-8.22-27.03-9.05-4.58-.47-9-.56-13.21-.52h0c10.83-2.6,17.15-11.14,19.48-14.7.41-1.21,1.16-3.99,0-6.84-1.82-4.53-7.46-6.73-11.75-6.08-6.21.94-10.25,7.95-11.39,7.09-.28-.21-.19-.78,0-1.92.49-2.91,1.76-4.95,1.88-5.14,4.68-7.39,5.19-7.76,5.63-8.82,2.53-6.15,1.29-16.08-4.95-19.31-3.9-2.02-8.34-.69-10.41.11-2.05,1.3-5,3.52-7.38,7.07-4.93,7.36-2.81,13.57-6.38,22.17-1.41,3.39-4.09,8.07-9.68,12.82l-.31.17c4.24-3.51,10.57-10.25,11.95-20.23,1.27-9.16-1.29-23.64-10.71-26.52-5.04-2.27-9.86-1.06-11.53-.62-7.79,2.06-11.64,8.3-12.45,9.7.17,1.51.67,3.7,2.34,5.26,2.42,2.27,4.55.65,8.38,2.75,3.32,1.83,6.33,5.59,6.38,9.58v.22c-.04,3.75-2.04,7.23-4.1,9-3.61,3.08-8.82,2.14-10.73,1.79-9.35-1.69-17.31-15.12-21.34-33.34-.02-1.03-.03-2.06-.01-3.09-.11.59-.19,1.19-.28,1.78v-.04s0,.07,0,.07c-1.36,8.67-.81,17.79,2.13,26.35,2.42,7.06,6.82,13.23,12.26,18.47.75.8,1.51,1.52,2.27,2.08ZM384.71,457.24c1.86-3.71,2.38-6.94,2.55-8.21.29-2.2.24-4.14.09-5.69.41,4.93.24,8.79-.03,10.92-.16,1.28-.42,3.39-1.46,5.93h0c-.18.48-.49,1.22-.95,2.08-2.18,4.11-4.76,5.2-4.68,7.38.01.4.13,1.23,1.49,2.69,3.09,3.33,7.4,4.28,12.41,5.43,8.71,2,12.84,2.62,12.8,3.16-.04.54-4.16.66-6.08.66-3.83,0-6.8-.55-8.12-.81-3.85-.78-9.74-1.98-15.27-6.44-1.88-1.51-3.2-2.99-4.01-3.97,1.51-1.27,3.54-3.12,5.72-5.57,2.3-2.58,4-4.48,5.54-7.55ZM343.07,428.26c.27,2.31.6,4.54.97,6.7-.44-2.2-.76-4.44-.97-6.7Z" />
    <path class="cls-1" d="M349.72,478.08c11.44,13.08,17.9,30.97,18.63,42.43,0,.06.96,15.12,5.89,25.35.27.57,1.46,2.99,3.18,6.07,2.75,4.93,4.38,7.84,7.01,10.86,3.15,3.63,5.36,6.17,9.26,7.34,6.34,1.9,11.98-1.39,12.65-1.8,5.36-3.24,8.46-9.48,8.21-16.19,2.08,1.79,5.14,4.9,7.34,9.58.55,1.18,7,15.33-.71,25.29-5.58,7.21-14.82,7.94-18.75,8.22-13.11.94-22.88-6.84-26.06-9.37-3.85-3.06-6.19-6-6.86-6.86-7.06-9.08-8.22-19.01-9.05-27.03-.47-4.58-.56-9-.52-13.21h0c-2.6,10.84-11.13,17.16-14.7,19.49-1.21.41-3.99,1.16-6.84,0-4.53-1.82-6.73-7.46-6.08-11.75.94-6.21,7.95-10.25,7.09-11.39-.21-.28-.78-.19-1.92,0-2.91.49-4.95,1.76-5.14,1.88-7.39,4.68-7.76,5.19-8.82,5.63-6.15,2.53-16.08,1.29-19.31-4.95-2.02-3.9-.69-8.34.11-10.41,1.3-2.05,3.52-5,7.07-7.38,7.36-4.93,13.57-2.81,22.17-6.38,3.39-1.41,8.07-4.09,12.82-9.68l.17-.31c-3.51,4.24-10.25,10.57-20.23,11.95-9.16,1.27-23.64-1.29-26.52-10.71-2.27-5.04-1.06-9.86-.62-11.53,2.06-7.79,8.3-11.64,9.7-12.45,1.51.17,3.7.67,5.26,2.34,2.27,2.42.65,4.55,2.75,8.38,1.83,3.32,5.59,6.33,9.58,6.38h.22c3.75-.04,7.23-2.04,9-4.1,3.08-3.61,2.14-8.82,1.79-10.73-1.69-9.35-15.12-17.31-33.34-21.34-1.03-.02-2.06-.03-3.09-.01.59-.11,1.19-.19,1.78-.28h-.04s.07,0,.07,0c8.67-1.36,17.79-.81,26.35,2.13,7.06,2.42,13.23,6.82,18.47,12.26.8.75,1.52,1.51,2.08,2.27ZM338.28,503.67c-3.71,1.86-6.94,2.38-8.21,2.55-2.2.29-4.14.24-5.69.09,4.93.41,8.79.24,10.92-.03,1.28-.16,3.39-.42,5.93-1.46h0c.48-.18,1.22-.49,2.08-.95,4.11-2.18,5.2-4.76,7.38-4.68.4.01,1.23.13,2.69,1.49,3.33,3.09,4.28,7.4,5.43,12.41,2,8.71,2.62,12.84,3.16,12.8.54-.04.66-4.16.66-6.08,0-3.83-.55-6.8-.81-8.12-.78-3.85-1.98-9.74-6.44-15.27-1.51-1.88-2.99-3.2-3.97-4.01-1.27,1.51-3.12,3.54-5.57,5.72-2.58,2.3-4.48,4-7.55,5.54ZM309.3,462.03c2.31.27,4.54.6,6.7.97-2.2-.44-4.44-.76-6.7-.97Z" />
  </g>
  <g>
    <path class="cls-1" d="M242.28,342.66c-11.44-13.08-17.9-30.97-18.63-42.43,0-.06-.96-15.12-5.89-25.35-.27-.57-1.46-2.99-3.18-6.07-2.75-4.93-4.38-7.84-7.01-10.86-3.15-3.63-5.36-6.17-9.26-7.34-6.34-1.9-11.98,1.39-12.65,1.8-5.36,3.24-8.46,9.48-8.21,16.19-2.08-1.79-5.14-4.9-7.34-9.58-.55-1.18-7-15.33.71-25.29,5.58-7.21,14.82-7.94,18.75-8.22,13.11-.94,22.88,6.84,26.06,9.37,3.85,3.06,6.19,6,6.86,6.86,7.06,9.08,8.22,19.01,9.05,27.03.47,4.58.56,9,.52,13.21h0c2.6-10.84,11.13-17.16,14.7-19.49,1.21-.41,3.99-1.16,6.84,0,4.53,1.82,6.73,7.46,6.08,11.75-.94,6.21-7.95,10.25-7.09,11.39.21.28.78.19,1.92,0,2.91-.49,4.95-1.76,5.14-1.88,7.39-4.68,7.76-5.19,8.82-5.63,6.15-2.53,16.08-1.29,19.31,4.95,2.02,3.9.69,8.34-.11,10.41-1.3,2.05-3.52,5-7.07,7.38-7.36,4.93-13.57,2.81-22.17,6.38-3.39,1.41-8.07,4.09-12.82,9.68l-.17.31c3.51-4.24,10.25-10.57,20.23-11.95,9.16-1.27,23.64,1.29,26.52,10.71,2.27,5.04,1.06,9.86.62,11.53-2.06,7.79-8.3,11.64-9.7,12.45-1.51-.17-3.7-.67-5.26-2.34-2.27-2.42-.65-4.55-2.75-8.38-1.83-3.32-5.59-6.33-9.58-6.38h-.22c-3.75.04-7.23,2.04-9,4.1-3.08,3.61-2.14,8.82-1.79,10.73,1.69,9.35,15.12,17.31,33.34,21.34,1.03.02,2.06.03,3.09.01-.59.11-1.19.19-1.78.28h.04s-.07,0-.07,0c-8.67,1.36-17.79.81-26.35-2.13-7.06-2.42-13.23-6.82-18.47-12.26-.8-.75-1.52-1.51-2.08-2.27ZM253.72,317.06c3.71-1.86,6.94-2.38,8.21-2.55,2.2-.29,4.14-.24,5.69-.09-4.93-.41-8.79-.24-10.92.03-1.28.16-3.39.42-5.93,1.46h0c-.48.18-1.22.49-2.08.95-4.11,2.18-5.2,4.76-7.38,4.68-.4-.01-1.23-.13-2.69-1.49-3.33-3.09-4.28-7.4-5.43-12.41-2-8.71-2.62-12.84-3.16-12.8-.54.04-.66,4.16-.66,6.08,0,3.83.55,6.8.81,8.12.78,3.85,1.98,9.74,6.44,15.27,1.51,1.88,2.99,3.2,3.97,4.01,1.27-1.51,3.12-3.54,5.57-5.72,2.58-2.3,4.48-4,7.55-5.54ZM282.7,358.7c-2.31-.27-4.54-.6-6.7-.97,2.2.44,4.44.76,6.7.97Z" />
    <path class="cls-1" d="M232.88,352.05c-13.08-11.44-30.97-17.9-42.43-18.63-.06,0-15.12-.96-25.35-5.89-.57-.27-2.99-1.46-6.07-3.18-4.93-2.75-7.84-4.38-10.86-7.01-3.63-3.15-6.17-5.36-7.34-9.26-1.9-6.34,1.39-11.98,1.8-12.65,3.24-5.36,9.48-8.46,16.19-8.21-1.79-2.08-4.9-5.14-9.58-7.34-1.18-.55-15.33-7-25.29.71-7.21,5.58-7.94,14.82-8.22,18.75-.94,13.11,6.84,22.88,9.37,26.06,3.06,3.85,6,6.19,6.86,6.86,9.08,7.06,19.01,8.22,27.03,9.05,4.58.47,9,.56,13.21.52h0c-10.83,2.6-17.15,11.14-19.48,14.7-.41,1.21-1.16,3.99,0,6.84,1.82,4.53,7.46,6.73,11.75,6.08,6.21-.94,10.25-7.95,11.39-7.09.28.21.19.78,0,1.92-.49,2.91-1.76,4.95-1.88,5.14-4.68,7.39-5.19,7.76-5.63,8.82-2.53,6.15-1.29,16.08,4.95,19.31,3.9,2.02,8.34.69,10.41-.11,2.05-1.3,5-3.52,7.38-7.07,4.93-7.36,2.81-13.57,6.38-22.17,1.41-3.39,4.09-8.07,9.68-12.82l.31-.17c-4.24,3.51-10.57,10.25-11.95,20.23-1.27,9.16,1.29,23.64,10.71,26.52,5.04,2.27,9.86,1.06,11.53.62,7.79-2.06,11.64-8.3,12.45-9.7-.17-1.51-.67-3.7-2.34-5.26-2.42-2.27-4.55-.65-8.38-2.75-3.32-1.83-6.33-5.59-6.38-9.58v-.22c.04-3.75,2.04-7.23,4.1-9,3.61-3.08,8.82-2.14,10.73-1.79,9.35,1.69,17.31,15.12,21.34,33.34.02,1.03.03,2.06.01,3.09.11-.59.19-1.19.28-1.78v.04s0-.07,0-.07c1.36-8.67.81-17.79-2.13-26.35-2.42-7.06-6.82-13.23-12.26-18.47-.75-.8-1.51-1.52-2.27-2.08ZM207.29,363.49c-1.86,3.71-2.38,6.94-2.55,8.21-.29,2.2-.24,4.14-.09,5.69-.41-4.93-.24-8.79.03-10.92.16-1.28.42-3.39,1.46-5.93h0c.18-.48.49-1.22.95-2.08,2.18-4.11,4.76-5.2,4.68-7.38-.01-.4-.13-1.23-1.49-2.69-3.09-3.33-7.4-4.28-12.41-5.43-8.71-2-12.84-2.62-12.8-3.16.04-.54,4.16-.66,6.08-.66,3.83,0,6.8.55,8.12.81,3.85.78,9.74,1.98,15.27,6.44,1.88,1.51,3.2,2.99,4.01,3.97-1.51,1.27-3.54,3.12-5.72,5.57-2.3,2.58-4,4.48-5.54,7.55ZM248.93,392.47c-.27-2.31-.6-4.54-.97-6.7.44,2.2.76,4.44.97,6.7Z" />
  </g>
  <g>
    <g>
      <g>
        <path class="cls-1" d="M304.6,450.16c-.05.11-.4-.05-1.01-.01-.48.03-.85.17-1.1.27-.69.26-.69.45-1.17.52-.43.06-.82-.03-.98-.08-.2-.05-.41-.13-.61-.24,0,0-.39-.22-.7-.6-.4-.49-.91-1.56-.53-2.57.24-.63.72-.99,1.15-1.31.7-.53.91-.35,1.21-.69.62-.68-.04-1.59.09-3.59.03-.45.1-1.35.54-2.34.21-.46.91-2.05,2.52-2.74.78-.33,1.51-.31,2.96-.27,1.13.03,2.39.24,2.48.25.79.12,1.09.22,2.22.47,2.23.5,3.35.76,4.2.76,1.03,0,1.89-.17,2.85-.37.76-.15,1.19-.29,2.53-.58.73-.16,1.32-.28,1.71-.35,1.93.36,2.41.82,2.46,1.18.16,1.2-4.13,2.91-6.4,3-1.1.04-2.4-.07-2.4-.07-.39-.03-.83-.08-1.42-.18-.43-.08-.6-.13-1.22-.26-.27-.06-.68-.15-1.19-.21-.64-.08-6.36-.73-8.85,2.73-.93,1.29-1.56,3.37-.93,4.16.14.17.52.51.63,1.09.08.42-.06.53.04.88.2.71.97.98.9,1.15Z" />
        <path class="cls-1" d="M310.53,445.81c-2.38,1.54-4.85,1.49-5.86.32-.48-.56-.85-1.5-.51-2.21.57-1.19,1.73-1.94,2.72-2.54.85-.51,1.79-1.02,3.12-1.3,3.31-.69,7.1.63,7.15,1.77.01.33-.26.68-.54.75-.56.14-1.3-.83-1.95-1.24-.03-.02-.11-.1-.25-.15-.05-.02-.23-.1-.42-.06-.2.04-.22.17-.4.27-.43.24-.95-.17-1.4-.05-.15.04-.26.09-.58.18-.12.03-.25.06-.46.1-.11.02-.48.08-.85.33-.25.17-.74.57-.65.83.1.29.79.06,1.36.55.05.04.37.33.45.75.11.59-.27,1.25-.94,1.68Z" />
        <path class="cls-1" d="M314.6,443.63c.04-.23.05-.57-.11-.91-.35-.72-1.21-.86-1.38-.88-.48-.08-.91.04-.91.04-.43.11-.55.3-.77.23-.26-.09-.45-.48-.36-.83.05-.19.19-.32.27-.37,2.27.18,3.78.89,3.85,1.7.02.18-.02.54-.59,1.03Z" />
        <path class="cls-1" d="M312.81,444.66c-.05-.28-.17-.8-.56-1.32-.11-.15-.32-.41-.67-.64-.1-.07-.82-.51-1.69-.4-.18.02-.3.06-.32.02-.04-.09.44-.57,1-.65.52-.08.94.21,1.75.81.77.56,1.13.85,1.15,1.26,0,.15-.04.49-.65.92Z" />
        <path class="cls-1" d="M301.32,442.48c-1.6-1.14-2.22-3.14-1.58-4.72.78-1.95,3.37-3.01,5.64-1.92-.32,0-2.2.02-3.53,1.5-.76.85-.98,1.79-1.04,2.15-.27,1.5.32,2.66.51,3Z" />
      </g>
      <g>
        <path class="cls-1" d="M290.46,450.16c.05.11.4-.05,1.01-.01.48.03.85.17,1.1.27.69.26.69.45,1.17.52.43.06.82-.03.98-.08.2-.05.41-.13.61-.24,0,0,.39-.22.7-.6.4-.49.91-1.56.53-2.57-.24-.63-.72-.99-1.15-1.31-.7-.53-.91-.35-1.21-.69-.62-.68.04-1.59-.09-3.59-.03-.45-.1-1.35-.54-2.34-.21-.46-.91-2.05-2.52-2.74-.78-.33-1.51-.31-2.96-.27-1.13.03-2.39.24-2.48.25-.79.12-1.09.22-2.22.47-2.23.5-3.35.76-4.2.76-1.03,0-1.89-.17-2.85-.37-.76-.15-1.19-.29-2.53-.58-.73-.16-1.32-.28-1.71-.35-1.93.36-2.41.82-2.46,1.18-.16,1.2,4.13,2.91,6.4,3,1.1.04,2.4-.07,2.4-.07.39-.03.83-.08,1.42-.18.43-.08.6-.13,1.22-.26.27-.06.68-.15,1.19-.21.64-.08,6.36-.73,8.85,2.73.93,1.29,1.56,3.37.93,4.16-.14.17-.52.51-.63,1.09-.08.42.06.53-.04.88-.2.71-.97.98-.9,1.15Z" />
        <path class="cls-1" d="M284.53,445.8c2.38,1.54,4.85,1.49,5.86.32.48-.56.85-1.5.51-2.21-.57-1.19-1.73-1.94-2.72-2.54-.85-.51-1.79-1.02-3.12-1.3-3.31-.69-7.1.63-7.15,1.77-.01.33.26.68.54.75.56.14,1.3-.83,1.95-1.24.03-.02.11-.1.25-.15.05-.02.23-.1.42-.06.2.04.22.17.4.27.43.24.95-.17,1.4-.05.15.04.26.09.58.18.12.03.25.06.46.1.11.02.48.08.85.33.25.17.74.57.65.83-.1.29-.79.06-1.36.55-.05.04-.37.33-.45.75-.11.59.27,1.25.94,1.68Z" />
        <path class="cls-1" d="M280.46,443.63c-.04-.23-.05-.57.11-.91.35-.72,1.21-.86,1.38-.88.48-.08.91.04.91.04.43.11.55.3.77.23.26-.09.45-.48.36-.83-.05-.19-.19-.32-.27-.37-2.27.18-3.78.89-3.85,1.7-.02.18.02.54.59,1.03Z" />
        <path class="cls-1" d="M282.25,444.65c.05-.28.17-.8.56-1.32.11-.15.32-.41.67-.64.1-.07.82-.51,1.69-.4.18.02.3.06.32.02.04-.09-.44-.57-1-.65-.52-.08-.94.21-1.75.81-.77.56-1.13.85-1.15,1.26,0,.15.04.49.65.92Z" />
        <path class="cls-1" d="M293.74,442.48c1.6-1.14,2.22-3.14,1.58-4.72-.78-1.95-3.37-3.01-5.64-1.92.32,0,2.2.02,3.53,1.5.76.85.98,1.79,1.04,2.15.27,1.5-.32,2.66-.51,3Z" />
      </g>
    </g>
    <g>
      <g>
        <path class="cls-1" d="M338.31,415.92c.11-.05-.05-.4-.01-1.01.03-.48.17-.85.27-1.1.26-.69.45-.69.52-1.17.06-.43-.03-.82-.08-.98-.05-.2-.13-.41-.24-.61,0,0-.22-.39-.6-.7-.49-.4-1.56-.91-2.57-.53-.63.24-.99.72-1.31,1.15-.53.7-.35.91-.69,1.21-.68.62-1.59-.04-3.59.09-.45.03-1.35.1-2.34.54-.46.21-2.05.91-2.74,2.52-.33.78-.31,1.51-.27,2.96.03,1.13.24,2.39.25,2.48.12.79.22,1.09.47,2.22.5,2.23.76,3.35.76,4.2,0,1.03-.17,1.89-.37,2.85-.15.76-.29,1.19-.58,2.53-.16.73-.28,1.32-.35,1.71.36,1.93.82,2.41,1.18,2.46,1.2.16,2.91-4.13,3-6.4.04-1.1-.07-2.4-.07-2.4-.03-.39-.08-.83-.18-1.42-.08-.43-.13-.6-.26-1.22-.06-.27-.15-.68-.21-1.19-.08-.64-.73-6.36,2.73-8.85,1.29-.93,3.37-1.56,4.16-.93.17.14.51.52,1.09.63.42.08.53-.06.88.04.71.2.98.97,1.15.9Z" />
        <path class="cls-1" d="M333.96,421.85c1.54-2.38,1.49-4.85.32-5.86-.56-.48-1.5-.85-2.21-.51-1.19.57-1.94,1.73-2.54,2.72-.51.85-1.02,1.79-1.3,3.12-.69,3.31.63,7.1,1.77,7.15.33.01.68-.26.75-.54.14-.56-.83-1.3-1.24-1.95-.02-.03-.1-.11-.15-.25-.02-.05-.1-.23-.06-.42.04-.2.17-.22.27-.4.24-.43-.17-.95-.05-1.4.04-.15.09-.26.18-.58.03-.12.06-.25.1-.46.02-.11.08-.48.33-.85.17-.25.57-.74.83-.65.29.1.06.79.55,1.36.04.05.33.37.75.45.59.11,1.25-.27,1.68-.94Z" />
        <path class="cls-1" d="M331.79,425.92c-.23.04-.57.05-.91-.11-.72-.35-.86-1.21-.88-1.38-.08-.48.04-.91.04-.91.11-.43.3-.55.23-.77-.09-.26-.48-.45-.83-.36-.19.05-.32.19-.37.27.18,2.27.89,3.78,1.7,3.85.18.02.54-.02,1.03-.59Z" />
        <path class="cls-1" d="M332.81,424.12c-.28-.05-.8-.17-1.32-.56-.15-.11-.41-.32-.64-.67-.07-.1-.51-.82-.4-1.69.02-.18.06-.3.02-.32-.09-.04-.57.44-.65,1-.08.52.21.94.81,1.75.56.77.85,1.13,1.26,1.15.15,0,.49-.04.92-.65Z" />
        <path class="cls-1" d="M330.64,412.64c-1.14-1.6-3.14-2.22-4.72-1.58-1.95.78-3.01,3.37-1.92,5.64,0-.32.02-2.2,1.5-3.53.85-.76,1.79-.98,2.15-1.04,1.5-.27,2.66.32,3,.51Z" />
      </g>
      <g>
        <path class="cls-1" d="M338.31,401.78c.11.05-.05.4-.01,1.01.03.48.17.85.27,1.1.26.69.45.69.52,1.17.06.43-.03.82-.08.98-.05.2-.13.41-.24.61,0,0-.22.39-.6.7-.49.4-1.56.91-2.57.53-.63-.24-.99-.72-1.31-1.15-.53-.7-.35-.91-.69-1.21-.68-.62-1.59.04-3.59-.09-.45-.03-1.35-.1-2.34-.54-.46-.21-2.05-.91-2.74-2.52-.33-.78-.31-1.51-.27-2.96.03-1.13.24-2.39.25-2.48.12-.79.22-1.09.47-2.22.5-2.23.76-3.35.76-4.2,0-1.03-.17-1.89-.37-2.85-.15-.76-.29-1.19-.58-2.53-.16-.73-.28-1.32-.35-1.71.36-1.93.82-2.41,1.18-2.46,1.2-.16,2.91,4.13,3,6.4.04,1.1-.07,2.4-.07,2.4-.03.39-.08.83-.18,1.42-.08.43-.13.6-.26,1.22-.06.27-.15.68-.21,1.19-.08.64-.73,6.36,2.73,8.85,1.29.93,3.37,1.56,4.16.93.17-.14.51-.52,1.09-.63.42-.08.53.06.88-.04.71-.2.98-.97,1.15-.9Z" />
        <path class="cls-1" d="M333.95,395.85c1.54,2.38,1.49,4.85.32,5.86-.56.48-1.5.85-2.21.51-1.19-.57-1.94-1.73-2.54-2.72-.51-.85-1.02-1.79-1.3-3.12-.69-3.31.63-7.1,1.77-7.15.33-.01.68.26.75.54.14.56-.83,1.3-1.24,1.95-.02.03-.1.11-.15.25-.02.05-.1.23-.06.42.04.2.17.22.27.4.24.43-.17.95-.05,1.4.04.15.09.26.18.58.03.12.06.25.1.46.02.11.08.48.33.85.17.25.57.74.83.65.29-.1.06-.79.55-1.36.04-.05.33-.37.75-.45.59-.11,1.25.27,1.68.94Z" />
        <path class="cls-1" d="M331.78,391.78c-.23-.04-.57-.05-.91.11-.72.35-.86,1.21-.88,1.38-.08.48.04.91.04.91.11.43.3.55.23.77-.09.26-.48.45-.83.36-.19-.05-.32-.19-.37-.27.18-2.27.89-3.78,1.7-3.85.18-.02.54.02,1.03.59Z" />
        <path class="cls-1" d="M332.8,393.57c-.28.05-.8.17-1.32.56-.15.11-.41.32-.64.67-.07.1-.51.82-.4,1.69.02.18.06.3.02.32-.09.04-.57-.44-.65-1-.08-.52.21-.94.81-1.75.56-.77.85-1.13,1.26-1.15.15,0,.49.04.92.65Z" />
        <path class="cls-1" d="M330.63,405.06c-1.14,1.6-3.14,2.22-4.72,1.58-1.95-.78-3.01-3.37-1.92-5.64,0,.32.02,2.2,1.5,3.53.85.76,1.79.98,2.15,1.04,1.5.27,2.66-.32,3-.51Z" />
      </g>
    </g>
    <g>
      <g>
        <path class="cls-1" d="M303.76,368.52c-.05-.11-.4.05-1.01.01-.48-.03-.85-.17-1.1-.27-.69-.26-.69-.45-1.17-.52-.43-.06-.82.03-.98.08-.2.05-.41.13-.61.24,0,0-.39.22-.7.6-.4.49-.91,1.56-.53,2.57.24.63.72.99,1.15,1.31.7.53.91.35,1.21.69.62.68-.04,1.59.09,3.59.03.45.1,1.35.54,2.34.21.46.91,2.05,2.52,2.74.78.33,1.51.31,2.96.27,1.13-.03,2.39-.24,2.48-.25.79-.12,1.09-.22,2.22-.47,2.23-.5,3.35-.76,4.2-.76,1.03,0,1.89.17,2.85.37.76.15,1.19.29,2.53.58.73.16,1.32.28,1.71.35,1.93-.36,2.41-.82,2.46-1.18.16-1.2-4.13-2.91-6.4-3-1.1-.04-2.4.07-2.4.07-.39.03-.83.08-1.42.18-.43.08-.6.13-1.22.26-.27.06-.68.15-1.19.21-.64.08-6.36.73-8.85-2.73-.93-1.29-1.56-3.37-.93-4.16.14-.17.52-.51.63-1.09.08-.42-.06-.53.04-.88.2-.71.97-.98.9-1.15Z" />
        <path class="cls-1" d="M309.69,372.87c-2.38-1.54-4.85-1.49-5.86-.32-.48.56-.85,1.5-.51,2.21.57,1.19,1.73,1.94,2.72,2.54.85.51,1.79,1.02,3.12,1.3,3.31.69,7.1-.63,7.15-1.77.01-.33-.26-.68-.54-.75-.56-.14-1.3.83-1.95,1.24-.03.02-.11.1-.25.15-.05.02-.23.1-.42.06-.2-.04-.22-.17-.4-.27-.43-.24-.95.17-1.4.05-.15-.04-.26-.09-.58-.18-.12-.03-.25-.06-.46-.1-.11-.02-.48-.08-.85-.33-.25-.17-.74-.57-.65-.83.1-.29.79-.06,1.36-.55.05-.04.37-.33.45-.75.11-.59-.27-1.25-.94-1.68Z" />
        <path class="cls-1" d="M313.76,375.04c.04.23.05.57-.11.91-.35.72-1.21.86-1.38.88-.48.08-.91-.04-.91-.04-.43-.11-.55-.3-.77-.23-.26.09-.45.48-.36.83.05.19.19.32.27.37,2.27-.18,3.78-.89,3.85-1.7.02-.18-.02-.54-.59-1.03Z" />
        <path class="cls-1" d="M311.97,374.02c-.05.28-.17.8-.56,1.32-.11.15-.32.41-.67.64-.1.07-.82.51-1.69.4-.18-.02-.3-.06-.32-.02-.04.09.44.57,1,.65.52.08.94-.21,1.75-.81.77-.56,1.13-.85,1.15-1.26,0-.15-.04-.49-.65-.92Z" />
        <path class="cls-1" d="M300.49,376.19c-1.6,1.14-2.22,3.14-1.58,4.72.78,1.95,3.37,3.01,5.64,1.92-.32,0-2.2-.02-3.53-1.5-.76-.85-.98-1.79-1.04-2.15-.27-1.5.32-2.66.51-3Z" />
      </g>
      <g>
        <path class="cls-1" d="M289.63,368.52c.05-.11.4.05,1.01.01.48-.03.85-.17,1.1-.27.69-.26.69-.45,1.17-.52.43-.06.82.03.98.08.2.05.41.13.61.24,0,0,.39.22.7.6.4.49.91,1.56.53,2.57-.24.63-.72.99-1.15,1.31-.7.53-.91.35-1.21.69-.62.68.04,1.59-.09,3.59-.03.45-.1,1.35-.54,2.34-.21.46-.91,2.05-2.52,2.74-.78.33-1.51.31-2.96.27-1.13-.03-2.39-.24-2.48-.25-.79-.12-1.09-.22-2.22-.47-2.23-.5-3.35-.76-4.2-.76-1.03,0-1.89.17-2.85.37-.76.15-1.19.29-2.53.58-.73.16-1.32.28-1.71.35-1.93-.36-2.41-.82-2.46-1.18-.16-1.2,4.13-2.91,6.4-3,1.1-.04,2.4.07,2.4.07.39.03.83.08,1.42.18.43.08.6.13,1.22.26.27.06.68.15,1.19.21.64.08,6.36.73,8.85-2.73.93-1.29,1.56-3.37.93-4.16-.14-.17-.52-.51-.63-1.09-.08-.42.06-.53-.04-.88-.2-.71-.97-.98-.9-1.15Z" />
        <path class="cls-1" d="M283.7,372.88c2.38-1.54,4.85-1.49,5.86-.32.48.56.85,1.5.51,2.21-.57,1.19-1.73,1.94-2.72,2.54-.85.51-1.79,1.02-3.12,1.3-3.31.69-7.1-.63-7.15-1.77-.01-.33.26-.68.54-.75.56-.14,1.3.83,1.95,1.24.03.02.11.1.25.15.05.02.23.1.42.06.2-.04.22-.17.4-.27.43-.24.95.17,1.4.05.15-.04.26-.09.58-.18.12-.03.25-.06.46-.1.11-.02.48-.08.85-.33.25-.17.74-.57.65-.83-.1-.29-.79-.06-1.36-.55-.05-.04-.37-.33-.45-.75-.11-.59.27-1.25.94-1.68Z" />
        <path class="cls-1" d="M279.63,375.05c-.04.23-.05.57.11.91.35.72,1.21.86,1.38.88.48.08.91-.04.91-.04.43-.11.55-.3.77-.23.26.09.45.48.36.83-.05.19-.19.32-.27.37-2.27-.18-3.78-.89-3.85-1.7-.02-.18.02-.54.59-1.03Z" />
        <path class="cls-1" d="M281.42,374.03c.05.28.17.8.56,1.32.11.15.32.41.67.64.1.07.82.51,1.69.4.18-.02.3-.06.32-.02.04.09-.44.57-1,.65-.52.08-.94-.21-1.75-.81-.77-.56-1.13-.85-1.15-1.26,0-.15.04-.49.65-.92Z" />
        <path class="cls-1" d="M292.91,376.2c1.6,1.14,2.22,3.14,1.58,4.72-.78,1.95-3.37,3.01-5.64,1.92.32,0,2.2-.02,3.53-1.5.76-.85.98-1.79,1.04-2.15.27-1.5-.32-2.66-.51-3Z" />
      </g>
    </g>
    <g>
      <g>
        <path class="cls-1" d="M256.24,415.93c-.11-.05.05-.4.01-1.01-.03-.48-.17-.85-.27-1.1-.26-.69-.45-.69-.52-1.17-.06-.43.03-.82.08-.98.05-.2.13-.41.24-.61,0,0,.22-.39.6-.7.49-.4,1.56-.91,2.57-.53.63.24.99.72,1.31,1.15.53.7.35.91.69,1.21.68.62,1.59-.04,3.59.09.45.03,1.35.1,2.34.54.46.21,2.05.91,2.74,2.52.33.78.31,1.51.27,2.96-.03,1.13-.24,2.39-.25,2.48-.12.79-.22,1.09-.47,2.22-.5,2.23-.76,3.35-.76,4.2,0,1.03.17,1.89.37,2.85.15.76.29,1.19.58,2.53.16.73.28,1.32.35,1.71-.36,1.93-.82,2.41-1.18,2.46-1.2.16-2.91-4.13-3-6.4-.04-1.1.07-2.4.07-2.4.03-.39.08-.83.18-1.42.08-.43.13-.6.26-1.22.06-.27.15-.68.21-1.19.08-.64.73-6.36-2.73-8.85-1.29-.93-3.37-1.56-4.16-.93-.17.14-.51.52-1.09.63-.42.08-.53-.06-.88.04-.71.2-.98.97-1.15.9Z" />
        <path class="cls-1" d="M260.6,421.86c-1.54-2.38-1.49-4.85-.32-5.86.56-.48,1.5-.85,2.21-.51,1.19.57,1.94,1.73,2.54,2.72.51.85,1.02,1.79,1.3,3.12.69,3.31-.63,7.1-1.77,7.15-.33.01-.68-.26-.75-.54-.14-.56.83-1.3,1.24-1.95.02-.03.1-.11.15-.25.02-.05.1-.23.06-.42-.04-.2-.17-.22-.27-.4-.24-.43.17-.95.05-1.4-.04-.15-.09-.26-.18-.58-.03-.12-.06-.25-.1-.46-.02-.11-.08-.48-.33-.85-.17-.25-.57-.74-.83-.65-.29.1-.06.79-.55,1.36-.04.05-.33.37-.75.45-.59.11-1.25-.27-1.68-.94Z" />
        <path class="cls-1" d="M262.77,425.93c.23.04.57.05.91-.11.72-.35.86-1.21.88-1.38.08-.48-.04-.91-.04-.91-.11-.43-.3-.55-.23-.77.09-.26.48-.45.83-.36.19.05.32.19.37.27-.18,2.27-.89,3.78-1.7,3.85-.18.02-.54-.02-1.03-.59Z" />
        <path class="cls-1" d="M261.75,424.14c.28-.05.8-.17,1.32-.56.15-.11.41-.32.64-.67.07-.1.51-.82.4-1.69-.02-.18-.06-.3-.02-.32.09-.04.57.44.65,1,.08.52-.21.94-.81,1.75-.56.77-.85,1.13-1.26,1.15-.15,0-.49-.04-.92-.65Z" />
        <path class="cls-1" d="M263.92,412.65c1.14-1.6,3.14-2.22,4.72-1.58,1.95.78,3.01,3.37,1.92,5.64,0-.32-.02-2.2-1.5-3.53-.85-.76-1.79-.98-2.15-1.04-1.5-.27-2.66.32-3,.51Z" />
      </g>
      <g>
        <path class="cls-1" d="M256.25,401.79c-.11.05.05.4.01,1.01-.03.48-.17.85-.27,1.1-.26.69-.45.69-.52,1.17-.06.43.03.82.08.98.05.2.13.41.24.61,0,0,.22.39.6.7.49.4,1.56.91,2.57.53.63-.24.99-.72,1.31-1.15.53-.7.35-.91.69-1.21.68-.62,1.59.04,3.59-.09.45-.03,1.35-.1,2.34-.54.46-.21,2.05-.91,2.74-2.52.33-.78.31-1.51.27-2.96-.03-1.13-.24-2.39-.25-2.48-.12-.79-.22-1.09-.47-2.22-.5-2.23-.76-3.35-.76-4.2,0-1.03.17-1.89.37-2.85.15-.76.29-1.19.58-2.53.16-.73.28-1.32.35-1.71-.36-1.93-.82-2.41-1.18-2.46-1.2-.16-2.91,4.13-3,6.4-.04,1.1.07,2.4.07,2.4.03.39.08.83.18,1.42.08.43.13.6.26,1.22.06.27.15.68.21,1.19.08.64.73,6.36-2.73,8.85-1.29.93-3.37,1.56-4.16.93-.17-.14-.51-.52-1.09-.63-.42-.08-.53.06-.88-.04-.71-.2-.98-.97-1.15-.9Z" />
        <path class="cls-1" d="M260.6,395.86c-1.54,2.38-1.49,4.85-.32,5.86.56.48,1.5.85,2.21.51,1.19-.57,1.94-1.73,2.54-2.72.51-.85,1.02-1.79,1.3-3.12.69-3.31-.63-7.1-1.77-7.15-.33-.01-.68.26-.75.54-.14.56.83,1.3,1.24,1.95.02.03.1.11.15.25.02.05.1.23.06.42-.04.2-.17.22-.27.4-.24.43.17.95.05,1.4-.04.15-.09.26-.18.58-.03.12-.06.25-.1.46-.02.11-.08.48-.33.85-.17.25-.57.74-.83.65-.29-.1-.06-.79-.55-1.36-.04-.05-.33-.37-.75-.45-.59-.11-1.25.27-1.68.94Z" />
        <path class="cls-1" d="M262.78,391.79c.23-.04.57-.05.91.11.72.35.86,1.21.88,1.38.08.48-.04.91-.04.91-.11.43-.3.55-.23.77.09.26.48.45.83.36.19-.05.32-.19.37-.27-.18-2.27-.89-3.78-1.7-3.85-.18-.02-.54.02-1.03.59Z" />
        <path class="cls-1" d="M261.75,393.58c.28.05.8.17,1.32.56.15.11.41.32.64.67.07.1.51.82.4,1.69-.02.18-.06.3-.02.32.09.04.57-.44.65-1,.08-.52-.21-.94-.81-1.75-.56-.77-.85-1.13-1.26-1.15-.15,0-.49.04-.92.65Z" />
        <path class="cls-1" d="M263.93,405.07c1.14,1.6,3.14,2.22,4.72,1.58,1.95-.78,3.01-3.37,1.92-5.64,0,.32-.02,2.2-1.5,3.53-.85.76-1.79.98-2.15,1.04-1.5.27-2.66-.32-3-.51Z" />
      </g>
    </g>
  </g>
  <g>
    <path d="M132.89,396.94h1.76c-.28,3.19.69,6.67.31,9.83-.21,1.75-2.07.92-2.07.57v-10.4Z" />
    <path d="M289.05,556.04v-1.76c1.37.38,10.45-.67,10.84-.29.12.12.05,2.05-.44,2.05h-10.4Z" />
    <path d="M201.32,524.69c.52-.12,7.85,5.29,8.89,6-.68.64-.55,1.62-1.6,1.05-2.76-1.52-5.49-3.91-8.2-5.58-.15-.2.75-1.43.91-1.47Z" />
    <path d="M281.43,240.78c.06.06.03,1.66-.03,1.73-.34.4-9.04.91-10.34,1.22-.19-.04-.43-1.1-.46-1.36-.11-.97,2.27-.62,3.07-.7,1.03-.1,7.5-1.17,7.76-.88Z" />
    <path d="M232.79,545.8c-.06.47-.31,1.82-.97,1.71l-9.54-4.5.58-1.31c.5-.36,8.57,3.82,9.94,4.1Z" />
    <path d="M386.51,275.66c.52-.11,7.24,5.88,8.26,6.57-.18.38-.63,1.23-1.01,1.3-.55.11-6.92-5.59-8.04-6.27-.69-.38.41-1.52.79-1.61Z" />
    <path d="M436.31,444.73c.26-.05,1.53.42,1.55.7l-3.24,9.33c-.21.95-1.89.22-1.93-.23.58-1.14,3.11-9.69,3.62-9.8Z" />
    <path d="M223.39,534.1c.27.38-.41,2.06-1.15,1.6l-8.49-4.72c-.67-.54.31-1.19.3-1.9l9.34,5.02Z" />
    <path d="M430.55,471.38c.17.23-.08.79-.21,1.07-1.31,2.82-3.47,5.76-4.89,8.55l-1.29-.59c-.15-.4-.02-.76.13-1.13,1.09-2.67,3.48-5.51,4.68-8.22,0-.44,1.53.24,1.59.32Z" />
    <path d="M153.69,328.38l5-9.35c.35-.25,2.09.41,1.62,1.16l-4.72,8.49c-.54.68-1.19-.32-1.9-.3Z" />
    <path d="M443.75,418.92l-1.51,10.07c-.24.76-1.99.74-2-.22l1.75-10.14,1.76.3Z" />
    <path d="M136.11,421.55h-1.76s-1.19-10.37-1.19-10.37c.02-.41,2.18-.89,2.07.26l.88,10.11Z" />
    <path d="M417.53,495.69c.49.49,1.34.97.89,1.75l-6.45,7.55c-.24.02-1.25-.71-1.27-.95-.03-.54,5.94-7.38,6.83-8.35Z" />
    <path d="M423.51,315.51l5.3,9.36-1.74.58-5.18-8.76c-.19-.5,1.34-1.37,1.62-1.17Z" />
    <path d="M394.38,510.92c.27,0,1.57,1.45.75,1.92l-7.05,6.14c-.48.54-1.85-.65-1.62-1.03l7.92-7.02Z" />
    <path d="M138.45,434.74l-1.76.3-2-10.18c-.04-.9,1.69-.96,1.95-.18l1.81,10.06Z" />
    <path d="M151.62,344.8c.46.51-2.97,8.86-3.23,10.22l-1.73-.28,3.24-9.78c.03-.64,1.63-.25,1.72-.16Z" />
    <path d="M299.89,557.5v1.76c-3.54-.22-7.02.39-10.55.29v-2.05h10.55Z" />
    <path d="M449.61,392.25h1.76s.31,10.38.31,10.38l-1.77.46c.08-.29-.3-.63-.3-.73v-10.11Z" />
    <path d="M248.03,544.03c.11.15-.41,1.94-1.01,1.76l-9.52-3.24c-.12-.14.03-1.96.7-1.74,1.17.66,9.53,2.81,9.84,3.22Z" />
    <path d="M404.06,296.22c.51.03,5.67,6.83,6.75,7.55.35.36-.42,1.17-.75,1.33-.58.3-1.23-.63-1.61-1.04-1.93-2.06-3.56-4.46-5.58-6.45-.46-.51.86-1.42,1.19-1.4Z" />
    <path d="M149.86,341.25c-.32.23-1.8-.33-1.7-.95l4.09-9.26c.54-.12,1.77.29,1.7.96l-4.09,9.26Z" />
    <path d="M337.24,254.03l9.54,3.3c.47.29.07,1.28-.16,1.61-.3.43-.34.16-.65.08-3.04-.76-6.1-2.35-9.17-3.16-.65-.32.03-1.8.43-1.84Z" />
    <path d="M370.49,270.65c-.19.14-.62-.03-.86-.14-2.92-1.33-5.76-3.61-8.8-4.83.26-.43.44-1.09.74-1.46.4-.5.28-.16.58-.01,2.84,1.4,5.5,3.17,8.34,4.56.87.06.15,1.77,0,1.88Z" />
    <path d="M377.13,265.13c.61-.13,7.86,5.15,8.87,5.97-.35.27-.57.98-.84,1.19-.42.32-7.86-5.23-8.96-5.73-.21-.28.6-1.36.94-1.43Z" />
    <path d="M189.75,517.92c-.23-.33.64-1.49,1-1.7l8.34,6.86c-.49.49-.97,1.34-1.75.89l-7.6-6.04Z" />
    <path d="M188.7,518.84c.51,0,6.75,5.85,7.93,6.43.44.79-.4,1.25-.89,1.76l-7.92-6.43c-.57-.45.68-1.75.89-1.75Z" />
    <path d="M197.31,280.65c.09.07.88,1.45.34,1.6-2.4,1.87-4.75,4.59-7.19,6.3-.87.61-1.2-.42-1.49-1.18,2.44-1.85,4.65-4.31,7.05-6.15.27-.21,1.01-.76,1.29-.57Z" />
    <path d="M419.47,493.58c-.2-.27.05-.75.19-1.05,1.16-2.49,3.96-5.11,5.2-7.7.87-.88,2.05.48,1.39,1.38-1.94,2.06-3.39,5.73-5.21,7.69-.4.44-1.37-.06-1.56-.33Z" />
    <path d="M321.24,250.19c.12.19.06.96.04,1.29-.03.46.13.48-.44.44-3.06-.2-6.51-1.3-9.62-1.52-.74-.17-.67-1.85-.02-1.97,1.22.44,9.75,1.32,10.05,1.76Z" />
    <path d="M194.6,278.01c.46-.1,1.33,1.05,1.15,1.45l-7.33,6.46c-.58.7-1.82-.62-1.49-1.19l7.67-6.72Z" />
    <path d="M170.37,494.77c-.05.08-1.44.78-1.71.59-.33-1.39-5.84-7.75-5.84-8.32,0-.29,1.02-1.16,1.53-1.01.46.14,5.2,6.93,5.7,7.8.14.24.48.72.32.95Z" />
    <path d="M411.99,491.6c.35-.08,1.58.81,1.58,1.01,0,.5-5.78,6.55-6.28,7.78-.79.72-1.36-.15-1.91-.75l6.61-8.04Z" />
    <path d="M175.07,494.51s.06.46.29.73c.82.96,6.44,6.84,6.44,7.33,0,.29-1.47,1.57-1.91.75l-6.15-7.36c-.42-.51.99-1.69,1.33-1.45Z" />
    <path d="M246.85,547.26c.08.57-.27,1.75-.96,1.7l-9.58-3.18.31-1.74c.52-.45,8.86,3.01,10.23,3.22Z" />
    <path d="M178.85,299.7c.3.43-.44,1.31-.72,1.7-1.73,2.39-4.06,4.64-5.83,7.03-.6-.67-1.67-.58-1.03-1.59,1.67-2.61,4.44-4.98,6.15-7.63.16-.28,1.39.43,1.43.49Z" />
    <path d="M436.43,459.06c.32.42-3.92,8.39-4.26,9.67-.13.41-1.54-.25-1.59-.32-.37-.5,3.85-8.6,4.09-9.94l1.75.59Z" />
    <path d="M233.39,260.99l-.59-1.76,9.82-3.78c.4.28.85,1.07.71,1.54-.17.58-8.66,3.49-9.94,3.99Z" />
    <path d="M374.31,263.05l-.59,1.75c-3.17-1.48-6.43-3.25-9.35-5.17-.13-.38.41-1.52.7-1.54.91-.07,7.57,4.75,9.23,4.95Z" />
    <path d="M172.59,294.7c.49.49,1.34.97.89,1.75l-6.16,7.35c-.28.52-1.54-.46-1.56-.75-.03-.54,5.98-7.34,6.83-8.35Z" />
    <path d="M352.33,541.97c.17.12.59,1.9-.17,2.02l-9.49,3.54c.06-.67-.63-1.41,0-1.9,1.3-.21,9.25-3.97,9.67-3.66Z" />
    <path d="M137.57,369.4l-1.5,10.07c-.04.62-1.9.58-2.01.48-.37-.35,1.72-8.71,1.51-10.06.25-.75,1.36-.45,2-.48Z" />
    <path d="M442,363.25l-2.87-10.12c.04-.36,1.83-1.12,1.93-.22l2.66,9.37c.05.8-1.22.64-1.71.97Z" />
    <polygon points="135.52 383.17 134.94 393.72 132.89 393.72 133.78 383.18 135.52 383.17" />
    <path d="M374.31,269.49c-.2-.29.78-1.47,1.02-1.75,2.22,2.08,6.09,3.57,8.21,5.56.81.76.01,1.93-.82,1.72l-8.41-5.53Z" />
    <path d="M182,284.74c.37-.08,1.54.98,1.15,1.45-1.1.68-6.82,7.32-7.34,7.32-.12,0-1.17-.91-.89-1.45.36-.71,6.59-7.2,7.08-7.31Z" />
    <path d="M399.21,516.19s.54,1.02.56,1.08c.19.77-6.53,5.83-7.43,6.83-.53.92-1.62-.95-1.49-1.18,2.36-1.75,4.45-4.12,6.76-5.85.29-.22,1.33-1.07,1.6-.88Z" />
    <path d="M138.71,383.51c.57.81-.69,8.91-.54,10.51h-1.76s.63-10.36.63-10.36c.08-.71,1.47-.43,1.68-.15Z" />
    <path d="M446.95,419.52c.37.43-1.66,9.15-1.44,10.53-1.8.18-1.86-.28-1.76-1.9.17-2.81,1.36-6.04,1.47-8.94.3.02,1.67.25,1.73.32Z" />
    <path d="M446.41,405.76c.41-.35,2.07.03,1.76,1-.25,1.93-.48,3.93-.61,5.86-.05.83.24,3.48-.27,3.83s-1.8.22-1.77-.58c.55-1.33.34-9.64.89-10.11Z" />
    <path d="M388.56,273.03c.29-.06.96.53,1.26.74,1.87,1.34,4.81,3.68,6.48,5.24.83.78.33,1.71-.48,1.89-.51.11-6.98-5.84-8.18-6.42-.22-.28.64-1.39.93-1.45Z" />
    <path d="M447.84,365.01c-.04,1.49,2.29,9.88,1.73,10.51-.34.38-1.43.48-1.72-.41-.4-1.2-1.77-7.96-1.77-9.09,0-1.2.77-1.07,1.76-1Z" />
    <path d="M446.38,376.13l-1.75.31-2.05-10.55c.57-.09,1.54-.64,1.92-.01l1.88,10.25Z" />
    <path d="M141.68,434.15l-1.58.02-2.16-10.14c.69-.54,1.69-1.08,1.98.03.82,3.19,1.18,6.83,1.77,10.1Z" />
    <path d="M361.42,258.36l-9.37-4.25c-.63-.37,0-1.94.6-1.79l9.08,4.13c.68.54-.32,1.19-.3,1.9Z" />
    <path d="M396.45,513.56c.45-.1,1.3,1.25,1.18,1.46l-7.33,6.46c-.55.7-1.81-.57-1.49-1.19l7.65-6.73Z" />
    <path d="M184.35,287.09c.37-.08,1.54.98,1.15,1.45-2.41,1.69-4.49,5.49-6.75,7.05-.83.57-1.77-.63-1.49-1.19,1.44-.8,6.17-7.11,7.09-7.31Z" />
    <path d="M408.48,506.54c.32-.07,1.27.9,1.27,1.01s-1.1,1.38-1.3,1.62c-1.01,1.16-4.47,4.84-5.56,5.58-1,.67-1.93-.33-1.49-1.19,1.22-.81,6.31-6.85,7.08-7.02Z" />
    <path d="M218.69,266.6c.14.1.93,1.45.33,1.57-1.2.45-8.59,5.45-9.05,5.11-.21-.15-.93-1.57-.18-1.74,2.49-1.32,4.98-3.3,7.47-4.54.35-.18,1.09-.63,1.43-.39Z" />
    <path d="M406.1,503.89l1.31,1.31c-2.68,2.3-4.67,5.41-7.47,7.48l-1.31-1.04,7.46-7.76Z" />
    <path d="M229.55,259.21l-9.26,4.38c-.41.2-.86-1.07-.94-1.33-.16-.57.08-.31.34-.45,2.86-1.61,5.98-2.8,8.91-4.3.63-.1,1.18,1.38.95,1.7Z" />
    <path d="M241.86,252.51c.1.09.49,1.69-.16,1.71l-9.11,3.51c-.62.2-1.05-1.66-.97-1.72.05-.03.58-.03.87-.15,2.33-.96,5.66-2.53,7.98-3.16.33-.09,1.2-.36,1.4-.19Z" />
    <path d="M392.44,284.47c.17.25-.49,1.67-.56,1.72-.27.19-1.14-.55-1.43-.76-2.37-1.67-4.42-3.84-6.79-5.53-.53-.59.4-2.13,1.2-1.48l7.58,6.04Z" />
    <path d="M163.8,305.53l1.19.87v.6c-1.94,2.38-3.41,5.53-5.32,7.88-.77.95-1.48.25-1.85-.66l5.97-8.69Z" />
    <path d="M450.49,420.09l-1.76,10.55c-.3-.02-1.67-.25-1.73-.32-.35-.4,1.43-9.21,1.71-10.4.51-.38,1.22.11,1.78.17Z" />
    <path d="M299.89,550.76v1.76c-2.39.07-4.8-.09-7.19-.01-.99.03-2.18.59-3.17.26-.86-.28-.48-2.01-.04-2.01h10.4Z" />
    <path d="M436.15,335.98l-4.36-8.98c-.56-.5,1.09-1.24,1.27-1.22.52.03,4.03,8.2,4.8,9.25.1.63-1.39,1.18-1.7.96Z" />
    <path d="M253.89,245.17c.08.1.47,1.79,0,1.91-1.33.06-9.54,3.08-9.96,2.78-.12-.08-.56-1.73-.01-1.91,1.31.07,9.65-3.19,9.96-2.78Z" />
    <path d="M143.14,450.85l3.78,9.82c-.65.56-1.47,1.05-1.96.23-1.5-2.53-2.06-6.66-3.56-9.33l1.74-.72Z" />
    <path d="M446.97,361.77c-.05.08-1.63.56-1.78.14l-2.84-9.65c.04-.45,1.73-1.18,1.94-.23.06,1.27,2.97,9.34,2.68,9.75Z" />
    <path d="M192.27,275.67c.8-.21,1.71.88.99,1.6l-6.78,5.82c-.77.79-1.67.26-1.9-.71l7.68-6.71Z" />
    <path d="M364.62,536.43c.13.09.45,1.5.3,1.71-.05.07-1.28.39-1.64.56-1.97.92-4.96,2.87-6.82,3.43-1.35.41-1.76-.31-1.18-1.48,2.6-.91,5.69-3.35,8.2-4.11.31-.09.91-.28,1.15-.11Z" />
    <path d="M420.02,314.02l-5.75-8.19c-.21-.61.78-2.01,1.6-.99,1.93,2.38,3.61,5.26,5.5,7.71.36.55-1,1.72-1.35,1.47Z" />
    <path d="M441.11,366.18l2.07,10.38c-.02.2-1.92.82-2.01-.03l-1.82-9.89,1.77-.46Z" />
    <path d="M158.37,330.72c-.2.14-1.93-.69-1.41-1.25l5.08-9,1.19.87.09.39-4.95,8.99Z" />
    <path d="M425.9,469.33c.32-.23,1.8.33,1.7.96l-4.69,8.51c-.44.95-1.9.09-1.68-.78l4.67-8.69Z" />
    <path d="M152.81,473.41l-1.76.59c-.77-2.9-3.45-6.06-4.27-8.78-.35-1.14.95-1.78,1.48-1.18l4.55,9.38Z" />
    <path d="M439.35,338.34l3.46,9.3c.48,1.25-.69,1.08-1.69,1.25l-3.47-9.58c-.37-.39,1.6-1.04,1.71-.97Z" />
    <path d="M433.19,340.99c-.02,1.4,3.83,9.52,3.53,9.95-.08.11-1.73.56-1.91,0-.25-1.37-3.78-9.01-3.34-9.65.09-.13,1.57-.44,1.72-.31Z" />
    <path d="M249.21,549.87l.45-1.76c3.06,1.06,6.63,1.36,9.65,2.35,1.16.38.66,1.21.02,1.99l-10.12-2.59Z" />
    <path d="M442.87,392.25h1.76c.07,2.49-.09,5-.01,7.48.03.87.65,2.35.18,3.08-.37.56-1.92.27-1.92-.16v-10.4Z" />
    <path d="M324.5,249.27c-.11-.07.17-1.63.32-1.73.35-.24,7.23,1.53,8.24,1.82.4.12,2.21.56,2.24.93.02.25-.48,1.46-.96,1.32l-9.84-2.34Z" />
    <path d="M327.4,555.42c-.29.43-8.89,1.49-10.09,2.02l-.28-.22-.44-1.47,10.11-2.06c.77-.08.95,1.35.69,1.73Z" />
    <path d="M258.59,252.78l-.3-1.74,10.08-2.03c.56.63,1.12,1.78,0,2.01-3.23.67-6.55,1.13-9.79,1.76Z" />
    <path d="M325.97,546.95l.3,1.76c-1.28.19-10.09,2.34-10.52,2.03-.14-.1-.43-1.58-.31-1.73l10.54-2.06Z" />
    <polygon points="141.38 396.94 141.68 407.49 139.92 407.49 139.62 396.94 141.38 396.94" />
    <path d="M420.58,317.26l5.3,9.36-1.75.59-5.25-8.94c.21-.38,1.38-1.23,1.71-1.01Z" />
    <path d="M143.98,370.61c.46.65-1.33,9.04-1.45,10.48-.53.09-1.54.15-1.71-.45l1.49-9.87c.06-.72,1.47-.44,1.67-.16Z" />
    <path d="M273.81,549.6c.13.15-.16,1.63-.31,1.73-.44.3-9.18-1.49-10.4-1.72l.17-1.78,10.54,1.77Z" />
    <path d="M139.33,437.67c-.02,1.45,3.01,9.66,2.61,10.23-.1.15-1.58.43-1.73.31-.31-3.04-2.31-6.64-2.62-9.55-.12-1.08.74-.77,1.73-.99Z" />
    <path d="M281.73,244.29v1.76s-10.37.9-10.37.9c-1.26-2.04.7-1.82,2.35-2.04,1.02-.13,7.74-.9,8.03-.62Z" />
    <path d="M375.19,528.2l-8.97,5.25c-.52.18-1.15-1.42-.96-1.7l8.91-5.29,1.02,1.74Z" />
    <path d="M451.37,406.02c.41.41-.75,9.47-.59,10.84h-1.76s.59-10.84.59-10.84h1.76Z" />
    <path d="M159.99,472.54c.51.04,4.51,7.79,5.3,8.77.27.84-.96,1.63-1.77.58-1.73-2.21-2.96-5.6-4.73-7.89-.44-.51,1.01-1.48,1.21-1.46Z" />
    <path d="M149.58,448.51l3.53,9.54c0,.74-1.04.82-1.61,1.02l-3.63-9.59c-.04-.7,1.14-1.03,1.71-.97Z" />
    <path d="M199.15,527.66c.3-.21.93.1,1.23.29l7.51,5.09c.63.51-.16,1.79-.96,1.57l-8.29-5.52c-.29-.16.43-1.38.5-1.43Z" />
    <path d="M313.37,552.81v1.75s-10.55,1.19-10.55,1.19c.21-.61-.59-1.8.18-2.01l10.36-.92Z" />
    <polygon points="140.79 369.99 139.33 380.53 137.57 380.54 139.04 369.69 140.79 369.99" />
    <path d="M143.14,422.72c-.11,1.77,2.31,9.56,1.63,10.57-.28.42-1.15.26-1.63.27.02-3.2-1.59-6.76-1.76-9.83-.07-1.17.71-.62,1.76-1.02Z" />
    <path d="M220.19,539.93c.18.25-.44,1.85-.96,1.71-2.58-1.67-6.07-2.94-8.51-4.69-.92-.66-.07-1.85.78-1.68l8.7,4.66Z" />
    <path d="M351.14,539.07c.13.09.44,1.57.31,1.72l-9.95,3.53-.26-1.73c2.88-.88,5.91-2.61,8.75-3.41.31-.09.9-.29,1.15-.12Z" />
    <path d="M267.65,244.28l-10.54,1.77v-1.75c2.97-.11,6.44-1.56,9.27-1.75,1.39-.09,1.36.43,1.27,1.73Z" />
    <path d="M142.55,436.8l2.63,9.55c.3.98-.94.98-1.74.98-.26-3.19-2.33-6.79-2.64-9.83-.07-.7,1.11-.7,1.74-.7Z" />
    <polygon points="451.08 389.03 449.32 389.03 448.45 378.5 449.77 378.26 450.16 378.67 451.08 389.03" />
    <path d="M348.24,254.26c-.31.5-.22,1.85-.98,1.72-2.51-1.48-6.7-1.81-9.07-3.24-.69-.41-.5-1.44-.18-1.67.66-.47,8.8,2.96,10.23,3.2Z" />
    <path d="M200.52,521.42c-.32.24-1.1-.17-1.41-.41-.77-.89-7.33-5.66-7.33-6.14,0-.2,1.3-1.45,1.75-.89l7.49,6.31c.08.13-.45,1.09-.5,1.13Z" />
    <path d="M340.59,550.2c.12.11.52,1.7-.17,1.68l-9.75,2.68-.29-1.73c1.4-.13,9.66-3.12,10.21-2.63Z" />
    <path d="M295.21,243.71v1.76c-3.49.51-7.03.23-10.55.3v-1.76s10.55-.29,10.55-.29Z" />
    <path d="M157.06,474.31c.51.04,4.51,7.75,5.37,8.69.27.74-1.01,1.6-1.56.96l-5.1-8.4c-.15-.43,1.13-1.26,1.29-1.25Z" />
    <polygon points="303.11 558.97 303.11 557.21 313.24 556.1 313.52 556.32 313.9 557.66 313.23 558.09 303.11 558.97" />
    <path d="M295.2,240.48v1.76c-2.58.11-5.2-.14-7.78-.01-.7.04-1.34.3-2.04.32-1.33.03-.56-.87-.73-2.06h10.55Z" />
    <path d="M285.1,247.22h9.96c.41,0,.82,1.44-.04,1.72-1.28.41-6.36-.02-8.17.03-.83.02-2.02.81-2.2-.43-.07-.53,0-1.01.45-1.31Z" />
    <path d="M216.08,533.79c.22.31-.33,1.62-.74,1.72-.56.13-2.85-1.63-3.63-1.74l1.02-1.72,3.36,1.75Z" />
    <path d="M410.55,498.93c.66-.17,1.41.56,1.23,1.23-.05.18-2.27,2.79-2.46,2.79-.1,0-1.41-.85-1.31-1.25.04-.18,2.29-2.7,2.54-2.77Z" />
    <path d="M446.39,398.7c.05-.06,1.23-.04,1.48.13.59.39.13,3.43.28,4.27h-1.76v-4.4Z" />
    <path d="M174.19,301.13c-.24.17-1.72-.87-1.74-1.02-.02-.22,2.32-3.08,2.72-3.04,2.42.23-.02,2.52-.69,3.34-.22.26-.26.7-.29.72Z" />
    <path d="M268.25,245.76c.06.06.05,1.59-.03,1.72-.11.16-2.76.65-3.25.73-1.2.18-.76-.95-.81-1.86l4.1-.59Z" />
    <path d="M436.72,346.26l1.75-.59c-.08.64,1.53,3.56,1.34,3.82-1.66,2.28-2.74-2.06-3.1-3.23Z" />
    <path d="M320.08,551.66c.13.09.44,1.57.31,1.73s-3.85.75-4.07.56c-.14-.13-.4-1.34-.04-1.58.3-.2,3.6-.84,3.79-.71Z" />
    <path d="M146.36,449.68l1.2,3.94c-.03.17-1.13.45-1.31.42-.37-.07-1.68-3.41-1.63-3.6.08-.35,1.62-.85,1.75-.75Z" />
    <path d="M372.52,266.01c.25.36-.36,1.82-.95,1.69-.16-.04-2.71-1.47-2.83-1.58-.6-.56-.1-1.41.44-1.87l3.34,1.77Z" />
    <path d="M280.26,550.18c.09.06.16,1.51-.48,1.72-.45.15-3.35-.07-3.61-.26-.12-.09-.15-1.5.47-1.71.38-.13,3.48.15,3.62.25Z" />
    <polygon points="427.34 328.67 428.83 332.31 427.49 333.04 425.58 329.42 427.34 328.67" />
    <path d="M448.15,392.25v3.81c-1.85.25-2-.1-2.07-1.9-.07-1.9.1-2.06,2.07-1.92Z" />
    <path d="M182,294.41c.36-.08,1.34.89,1.26,1.26-.06.26-2.42,2.57-2.73,2.51-.25-.06-1.12-.94-1.05-1.26l2.51-2.51Z" />
    <path d="M404.09,286.8c.3-.07,2.67,2.24,2.73,2.51.07.32-.79,1.21-1.05,1.26-.3.07-2.67-2.24-2.73-2.51-.07-.32.79-1.21,1.05-1.26Z" />
    <path d="M162.48,313.15c.24-.17,1.73.88,1.74,1.02.02.2-1.99,3.08-2.42,3.05-2.54-.2.51-3.04.69-4.07Z" />
    <path d="M401.75,289.14c.3-.07,2.67,2.24,2.73,2.51.07.32-.79,1.21-1.05,1.26-.3.07-2.67-2.24-2.73-2.51-.07-.32.79-1.21,1.05-1.26Z" />
    <path d="M183.47,504.49c.3-.07,2.67,2.24,2.73,2.51.07.32-.79,1.21-1.05,1.26-.3.07-2.67-2.24-2.73-2.51-.07-.32.79-1.21,1.05-1.26Z" />
    <path d="M202.66,274.14c-.13-.09-.66-1.14-.5-1.43s2.73-2.21,3.11-1.92c.15.12.85,1.16.74,1.34-.25.41-2.91,2.32-3.35,2.01Z" />
    <path d="M442.87,439.72l-.88,3.8-1.74-.31c.34-1.79.09-4.74,2.63-3.5Z" />
    <path d="M203.46,268.06s.58.98.59,1.04c.1.41-2.82,2.5-3.2,2.31-.28-.14-.88-1.03-.74-1.34.2-.45,2.9-2.32,3.35-2.01Z" />
    <path d="M422.05,486.58c-.29.2-1.66-.68-1.68-1.01-.01-.22,1.89-3.01,2.14-3.03.17,0,.89.49,1.05.67.71.8-1.4,2.32-1.51,3.37Z" />
    <path d="M248.31,250.46l.31,1.74-3.8.87-.29-1.73c.68-.05,3.41-1.2,3.78-.89Z" />
    <path d="M350.29,257.17c-.11-.14.4-1.66.74-1.74.24-.05,3.23,1.24,3.31,1.63.06.28-.44,1.56-.69,1.58l-3.37-1.47Z" />
    <path d="M142.56,356.21c.08-.06,1.67.46,1.73.76s-.84,3.54-1.28,3.57c-.11,0-.92-.28-1.04-.37-.48-.37.43-3.83.59-3.96Z" />
    <path d="M335.35,546.37l-.29-2.05c1.8.13,4.1-2.18,3.98.89l-3.68,1.16Z" />
    <path d="M431.73,331l-1.73.28c.01-.77-1.6-2.89-1.17-3.47.05-.06,1.34-.57,1.45-.49.39.29,1.69,3.32,1.45,3.67Z" />
    <path d="M154.01,472.51l-1.49-3.34c.06-.27,1.33-.77,1.59-.71.2.04,1.65,3.13,1.61,3.31-.09.41-1.4.96-1.71.74Z" />
    <path d="M139,417.2c.47.31.21,3.05.62,3.77-.5-.08-1.14.39-1.58.28s-.82-3.32-.75-3.61c.13-.51,1.37-.66,1.7-.44Z" />
    <path d="M375.77,274.17c-.15.11-3.07-1.64-3.18-1.79-.25-.35.19-2.02,1.34-1.49.27.13,2.23,1.41,2.3,1.53.25.39-.33,1.67-.46,1.76Z" />
    <path d="M383.02,528.54c.66-.16,1.4.55,1.22,1.23-.06.25-2.58,2.2-2.76,2.2-.28,0-1.16-1.02-1.01-1.53.05-.16,2.29-1.84,2.54-1.9Z" />
    <path d="M231.33,539.92l.74-1.76c1.46.87,4.75,1.04,2.63,3.19l-3.37-1.43Z" />
    <rect x="136.4" y="396.94" width="1.76" height="4.1" />
    <path d="M352.89,259.85c.19.26-.15,1.72-.44,1.74-.31.03-2.56-.91-2.96-1.13-1.03-.56-.39-.91.09-1.84.37-.03,3.2,1.08,3.31,1.23Z" />
    <path d="M308.68,241.36v1.76c-.91-.06-1.88.09-2.79,0-1.94-.18-1.08-.51-1.02-2.06l3.81.29Z" />
    <polygon points="443.46 379.07 443.74 382.87 441.99 383.17 441.7 379.07 443.46 379.07" />
    <path d="M233.66,544.3c-.35.25-3.14-1.07-3.66-1.44l.48-1.45c.36-.26,3.08,1.15,3.66,1.44l-.48,1.45Z" />
    <path d="M439.65,438.84l-.88,3.81c-.07.11-1.63-.16-1.73-.32-.14-.2.52-3.22.71-3.5.38-.56,1.25.16,1.91,0Z" />
    <path d="M446.09,440.61l-.87,3.8c-2.89-.19-1.12-2.22-.86-4.08l1.73.29Z" />
    <path d="M308.39,246.64l-3.81-.29v-1.76s3.54.13,3.54.13c.46.31.24,1.39.28,1.92Z" />
    <path d="M403.76,501.55c.22,0,1.13,1.02,1,1.55-.05.17-1.62,1.82-1.86,1.98-.89.6-1.81-.17-1.59-.99.04-.17,2.28-2.54,2.46-2.54Z" />
    <path d="M178.5,509.48c.61-.16,3.01,2.26,3.01,2.46,0,.26-1.06,1.25-1.75.89-.82-.43-3.13-2.87-1.27-3.35Z" />
    <path d="M379.19,522.95c2.92,1.3-.43,2.44-1.77,3.48-2.36-1.78.63-2.16,1.77-3.48Z" />
    <path d="M379.04,529.04c-.06-.04-.64-1.18-.62-1.26.04-.18,2.88-2.26,3.06-2.22.14.03,1.03,1.26.9,1.47-.25.41-2.91,2.32-3.35,2.01Z" />
    <path d="M336.23,549.59c-.08-.11-.35-1.54-.17-1.77.15-.2,3.27-1.15,3.41-1.04.24.19.68,1.37.45,1.65l-3.69,1.16Z" />
    <path d="M279.97,553.4c.08,2.48-.02,1.82-1.61,1.76-.65-.02-2.29.25-2.48-.47-.52-2.04,2.91-1.09,4.09-1.28Z" />
    <path d="M437.59,353.29l.87,3.8-1.74.31-.86-3.35c.09-.42,1.29-.7,1.73-.76Z" />
    <path d="M422.68,311.96l-1.75-2.82,1.29-1.27,2.14,3.08c-.02.33-1.4,1.2-1.68,1.01Z" />
    <path d="M206.64,273.63c.75-.18,1.53.67,1.12,1.43-.35.64-3.21,2.63-3.65.97-.17-.64,1.99-2.27,2.53-2.4Z" />
    <path d="M166.85,315.81c.27.38-1.64,2.88-2.03,3.36l-1.47-.91,2.05-2.95c.18-.23,1.4.43,1.45.49Z" />
    <path d="M161.46,487.78l2.14,3.06c-.01.24-1.03.97-1.27.95-.29-.02-2.09-2.47-2.16-2.77-.12-.56.92-.98,1.29-1.25Z" />
    <path d="M141.96,387.26c-.09.12-1.5.15-1.71-.47-.16-.47.03-3.09.28-3.3s1.51-.1,1.69.45c.14.42-.1,3.1-.26,3.32Z" />
    <path d="M146.64,361.18l-1.73-.29.87-3.8c2.89.19,1.13,2.2.86,4.08Z" />
    <polygon points="141.09 355.93 140.06 359.45 139.79 359.65 138.45 359.44 139.05 355.63 141.09 355.93" />
    <path d="M151.05,330.14l-1.47,3.51-1.75-.59,1.46-3.39c.48-.35,1.17.52,1.76.47Z" />
    <path d="M157.65,481.94c.26,0,3.28,3.83.83,4.04-.41.04-2.05-2.47-2.12-2.79-.08-.37,1.2-1.24,1.29-1.24Z" />
    <polygon points="249.2 253.67 249.5 255.43 245.69 256.3 245.39 254.55 249.2 253.67" />
    <path d="M308.1,248.1v1.76c-2.02-.18-4.34.93-3.81-2.05l3.81.29Z" />
    <path d="M156.82,467c.52-.05,1.72,2.33,1.81,2.82.17.86-1.03,1.69-1.68.78-.64-.9-2.03-3.43-.13-3.59Z" />
    <path d="M275.28,250.15l-3.81.29c-.55-2.84,1.48-1.69,3.38-2.28.6.06.43,1.5.43,1.98Z" />
    <polygon points="430.57 464.04 429.1 467.55 427.34 466.96 428.8 463.58 430.57 464.04" />
    <path d="M432.22,472.57c.41-.08,1.31.46,1.29.98,0,.14-1.22,2.38-1.33,2.5-.62.66-2.01-.13-1.88-.69.06-.27,1.62-2.73,1.92-2.79Z" />
    <path d="M156.88,332.81c.27.37-1.01,3.36-1.16,3.47-.28.2-1.4-.26-1.61-.56-.18-.25,1.15-3.24,1.34-3.39.13-.1,1.39.42,1.44.48Z" />
    <path d="M435.15,466.4c.39-.11,1.52.4,1.54.7.01.14-1.08,2.47-1.17,2.61-.6.87-1.92.18-1.96-.25-.03-.38,1.21-2.95,1.59-3.06Z" />
    <path d="M416.65,312.04c.29.02,2.11,2.39,2.17,2.76s-1.2,1.26-1.29,1.27c-.19,0-2.15-2.89-2.14-3.08.01-.24,1.03-.97,1.27-.95Z" />
    <path d="M154.28,323.99c.14.11-1.57,2.96-1.76,3.09-.45.28-1.36-.07-1.63-.45-.14-.19,1.42-2.95,1.63-3.11.22-.16,1.58.33,1.77.47Z" />
    <path d="M425.8,314.06c.41-.08.52-.04.81.26.15.15,1.59,2.34,1.59,2.49,0,.2-1.06.97-1.34.99-.46.04-2.13-2.84-2.12-3.05s.81-.64,1.06-.69Z" />
    <path d="M444.6,405.76c.11.13.1,3.19-.1,3.5-.32.5-1.81.13-1.92-.02s.66-3.09.3-3.8l1.73.32Z" />
    <path d="M142.56,416.86l.28,3.8c-.43-.12-1.05.25-1.32.23-.68-.05-.81-3.36-.72-4.03h1.76Z" />
    <path d="M224.61,257.46l-.48-1.45,3.39-1.75c-.05.59.81,1.29.47,1.77-.23.32-3.06,1.66-3.37,1.44Z" />
    <path d="M446.64,378.81c.5.33.29,3.06.33,3.77h-1.76s-.29-3.81-.29-3.81c.44.08,1.43-.16,1.72.04Z" />
    <path d="M254.19,545.78c.05.06-.39,1.39-.44,1.47-.39.61-2.84-.56-3.66-.6l.29-1.75,3.81.88Z" />
    <path d="M181.08,506.82c.19,0,2.72,2.34,2.76,2.52.07.32-.79,1.2-1.04,1.26-.3.07-2.67-2.25-2.73-2.51-.07-.32.91-1.28,1.01-1.28Z" />
    <path d="M363.37,261.31c.62-.18,2.53,1.11,3.2,1.44l-.9,1.76c-.52-.82-2.53-1.16-2.95-1.75-.28-.38.28-1.34.65-1.45Z" />
    <path d="M148.38,446.13c-.12.18-1.65.43-1.72.33.06-1.06-.5-1.99-.68-3-.2-1.1.79-.65,1.56-1.1.07.84,1.3,3.12.85,3.78Z" />
    <polygon points="437.3 343.32 435.56 343.61 434.38 340.1 436.13 339.51 437.3 343.32" />
    <polygon points="279.68 556.91 279.68 558.67 275.88 558.37 275.87 556.62 279.68 556.91" />
    <path d="M252.43,552.23l-.46,1.78c-1.76-.46-4.81-.17-2.92-2.61l3.38.84Z" />
    <path d="M334.47,253.08l-.47,1.78c-1.56-.26-4.62-.21-3.17-2.39l3.64.61Z" />
    <path d="M157.5,317.84c.15.19-1.34,3.19-1.75,3.38-.11.05-1.42-.4-1.47-.46-.15-.19,1.34-3.19,1.75-3.38.11-.05,1.42.4,1.47.46Z" />
    <path d="M156.01,479.54l-1.45.48c-.32-.51-1.82-2.69-1.62-3.11.12-.25,1.03-.89,1.34-.74.37.18,2.02,2.97,1.73,3.37Z" />
    <path d="M170.06,306.08c-2.81-.35-1.07-1.92.08-3.28.61-.72,1.19-.38,1.58.4.47.95-1.5,1.92-1.66,2.89Z" />
    <path d="M419.61,480.76c.44-.1,1.28.66,1.58,1.01-.89.51-1.6,3.05-2.72,2.75-1.79-.47.92-3.71,1.15-3.76Z" />
    <path d="M342.66,248.7l-.29,1.74c-.11.14-2.72-.69-3.09-.86-1.1-.51-.45-.82.06-1.8l3.32.92Z" />
    <path d="M239.24,548.13c.08.06-.32,1.63-.76,1.73-.37.08-3.24-.84-3.28-1.28s.4-1.3.96-1.35c.19-.02,2.95.8,3.08.9Z" />
    <path d="M241,251.03l-3.51,1.17-.59-1.75c1.95-.23,3.71-2.69,4.1.58Z" />
    <path d="M141.68,390.49c.14.14.2,3.55-.48,3.78-2.5.83-.96-2.45-1.28-3.78h1.76Z" />
    <path d="M348.82,252.79c-.15.11-3.27-1-3.39-1.16-.3-.4.11-1.41.45-1.65.13-.09,2.95.82,3.11,1.03.25.34-.04,1.68-.17,1.77Z" />
    <path d="M233.83,251.65c.3.03.85,1.41.6,1.73-.18.23-3.08,1.29-3.41,1.04-.19-.15-.57-1.17-.44-1.35.12-.17,3.08-1.44,3.25-1.42Z" />
    <path d="M313.08,549.59s.04,1.04-.04,1.28c-.16.51-3.64.92-3.77.77-.06-.06-.05-1.59.04-1.72.25-.37,3.63-.46,3.77-.33Z" />
    <path d="M242.18,549.3c.15-.11,3.27,1,3.39,1.16.3.4-.11,1.41-.45,1.65-.13.09-2.95-.82-3.11-1.03-.25-.34.04-1.68.17-1.77Z" />
    <path d="M353.82,539.32l-.48-1.45c.74-.34,2.7-1.77,3.4-1.33,2.08,1.32-2.58,3.02-2.91,2.78Z" />
    <path d="M356.46,543.75l3.06-1.45c.54.46,1.04,1.31.44,1.87-.2.19-2.6,1.33-2.76,1.3-.41-.09-.96-1.41-.74-1.72Z" />
    <path d="M399.36,291.47l2.78,2.78c-.3.23-.75.94-1.06,1.01-.21.05-2.62-1.88-2.72-2.24-.18-.7.58-1.11,1-1.55Z" />
    <path d="M218.45,535.54c.3-.22,3.2,1.36,3.38,1.74.15.31-.5,1.22-.74,1.34-.27.13-2.93-1.26-3.1-1.62-.06-.13.41-1.42.47-1.46Z" />
    <path d="M335.91,246.66l-.29,1.73c-1.76-.46-4.39-.1-3.2-2.63l3.49.9Z" />
    <path d="M261.51,248.98c-1.2-.2-4.68,1.62-3.78-.99.19-.55,2.76-.91,3.3-.73.67.22.48,1.14.48,1.72Z" />
    <path d="M353.51,545.19c.13.09.42,1.43.17,1.77-.13.18-3.29,1.31-3.39,1.16l-.29-1.75,3.51-1.18Z" />
    <path d="M431.74,323.1c-.06.04-1.3.55-1.37.56-.45.04-2.31-3.07-2.15-3.18.38-.26,1.36-.72,1.76-.46.18.12,1.89,2.98,1.75,3.09Z" />
    <path d="M306.02,551.91c-.05.06-1.31.29-1.58.32-1.76.16-2.24.2-2.2-1.76.89.28,3.4-.94,3.77.19.08.25.12,1.12.01,1.25Z" />
    <path d="M428.71,478.71c.39-.11,1.51.39,1.54.7.01.15-1.23,2.31-1.47,2.6-.68.83-1.76.1-1.73-.54,0-.23,1.43-2.7,1.67-2.77Z" />
    <path d="M166.78,483.99c.37-.03,2.01,2.16,2.1,2.52.2.8-.91,1.67-1.67.77s-2.58-3.11-.43-3.3Z" />
    <path d="M415.88,494.26c.6.84-1.61,2.31-1.75,3.14-.47.37-1.71-.78-1.71-.99,0-.14,1.49-1.74,1.75-2.06.22-.27.26-.7.29-.72.13-.1,1.36.55,1.42.63Z" />
    <path d="M211.37,529.04c-.67.46-2.61-1.72-3.48-1.73.28-.57.66-1.63,1.47-1.35.21.07,2.41,1.52,2.5,1.64.2.27-.38,1.35-.49,1.43Z" />
    <path d="M394.42,286.8c.41-.09,3.87,2.9,1.66,3.47-.58.15-2.63-1.85-2.71-2.21-.07-.32.79-1.21,1.05-1.26Z" />
    <path d="M231.02,262.14l-3.06,1.45c-.55-.47-1.04-1.31-.44-1.87.14-.13,2.61-1.34,2.76-1.31.38.08.96,1.42.74,1.73Z" />
    <path d="M347.04,547.86c.15.1.44,1.57.31,1.72-.12.14-3.23,1.04-3.48.87s-.44-1.22-.04-1.59c.32-.3,2.86-1.23,3.21-.99Z" />
    <path d="M145.49,342.74l-1.18,3.51-1.75-.6c.57-1.72.56-4.02,2.93-2.91Z" />
    <path d="M322.43,243.44c.2.24.1,1.52-.45,1.7-.34.11-2.12-.17-2.58-.28-1.28-.29-.34-1.06-.45-2.04.59.29,3.28.36,3.49.61Z" />
    <polygon points="145.78 364.42 144.92 367.81 143.14 367.64 144.03 364.13 145.78 364.42" />
    <path d="M326.52,550.5c.18.12.43,1.65.33,1.72-.12.09-2.5.42-2.93.47-1.25.15-1.07-1.51-.61-1.8.21-.13,3.03-.51,3.21-.39Z" />
    <path d="M203.35,521.78c.17,0,2.56,1.81,2.65,2.02.14.31-.46,1.2-.74,1.34s-2.86-1.56-2.92-1.81c-.08-.35.77-1.55,1-1.56Z" />
    <path d="M148.57,456.17c.22.02,1.69,2.98,1.02,3.62-1.36,1.31-2.37-1.71-2.35-2.66.01-.53.99-1,1.33-.97Z" />
    <path d="M370.19,533.2l.48,1.45c-.48.26-2.82,1.94-3.09,1.75-.11-.08-.73-1.4-.47-1.77.2-.28,2.73-1.68,3.07-1.44Z" />
    <path d="M169.66,498.95c.19,0,2.13,2.27,2.17,2.48.07.3-.77,1.2-1.04,1.26-.24.05-2.41-2.31-2.45-2.49-.09-.4,1.21-1.25,1.31-1.25Z" />
    <path d="M301.36,244.29s.04,1.03-.04,1.28c-.22.69-1.8.54-2.45.48-1.95-.18-.94-.48-1.02-2.05l3.52.29Z" />
    <path d="M439.65,460.53l-1.45,3.09-1.77-.46,1.46-3.09c.48-.35,1.17.52,1.77.47Z" />
    <path d="M371.95,536.13l.48,1.45-3.09,1.75c-1.52-1.99.88-2.87,2.61-3.21Z" />
    <path d="M413.72,297.04l2.49,2.78-1.36,1c-.43.1-1.81-2.14-2.44-2.46l1.31-1.31Z" />
    <path d="M437.59,456.41c-.29.21-1.63-.34-1.73-.75-.03-.13.8-2.36.91-2.55.55-.95,1.9-.15,1.93.23.01.16-.98,2.99-1.12,3.08Z" />
    <path d="M286.71,553.98v1.76c-2.01-.12-4,.82-3.52-2.05l3.52.29Z" />
    <path d="M441.68,454.1c.18.27-.71,3.38-.86,3.49-.12.09-1.47-.36-1.63-.58-.1-.13.64-3.12.77-3.23.15-.13,1.63.18,1.72.31Z" />
    <path d="M262.39,553.1l.3-1.75c.73.08,3.26.11,3.48.76.86,2.54-2.56.91-3.78.99Z" />
    <path d="M141.66,367.05l-1.74-.29.88-3.51c2.83.23,1.23,1.96.86,3.8Z" />
    <path d="M301.36,242.83c-.06.07-.98-.27-1.31-.3-1.94-.14-2.47.75-2.2-1.76l3.53.14c.45.16.05,1.83-.01,1.92Z" />
    <path d="M382.23,520.59s.36-.04.55-.18c.34-.26,1.84-1.53,1.98-1.57.43-.1,1.23.97,1.21,1.3-.01.24-2.54,2.18-2.72,2.19-.1,0-1.2-1.49-1.02-1.74Z" />
    <path d="M446.97,437.37l-1.75-.29c.42-1.28.13-4.12,1.98-3.29,1.19.54-.2,2.51-.23,3.58Z" />
    <path d="M216.93,263.67s.58.98.6,1.04c.13.5-2.74,2.11-2.9,2.02-.34-.21-1.06-1.23-.75-1.64.21-.29,2.69-1.67,3.05-1.42Z" />
    <path d="M138.43,366.16l-1.73-.29c.44-1.77.18-4.63,2.58-2.78l-.85,3.07Z" />
    <path d="M265.58,555.18c.17.2-.05,1.32.03,1.73l-3.52-.29c.01-.51-.19-1.89.46-2.02.15-.03,2.93.46,3.03.58Z" />
    <path d="M151.05,342.15c-.15-.19,1.52-4.67,2.8-2.64.26.41-.78,2.9-1.03,3.1-.23.18-1.72-.39-1.77-.46Z" />
    <polygon points="286.42 557.21 286.41 559.26 282.9 558.97 282.9 557.21 286.42 557.21" />
    <path d="M215.18,260.74c.11.08.7,1.17.49,1.43s-2.94,1.87-3.09,1.75l-.58-1.74c.76-.07,2.6-1.85,3.17-1.45Z" />
    <path d="M441.11,432.11c.16.11-.47,3.37-.6,3.48-.15.13-1.21.05-1.46-.11-.67-.43.34-3.57.73-3.6.07,0,1.27.18,1.33.22Z" />
    <path d="M145.76,435.93l.88,3.03c-.09.42-1.29.7-1.74.76l-.87-3.5,1.73-.29Z" />
    <polygon points="148.71 343.91 147.5 347.1 145.78 346.84 146.94 343.45 148.71 343.91" />
    <path d="M186.36,511.8l2.48,2.49c-1.56,2.25-2.43-.03-3.8-1.17l1.31-1.31Z" />
    <path d="M411.12,299.39c.58-.13,1.77,2.15,2.45,2.47l-1.31,1.31-2.18-2.52c-.07-.3.77-1.2,1.04-1.26Z" />
    <path d="M183.78,514.46c.86-.23,2.02,1.66,2.72,2.17l-1.31,1.31-2.48-2.49c.32-.26.7-.9,1.07-1Z" />
    <path d="M396.76,284.45c.31-.07,2.38,1.96,2.43,2.22.07.32-.79,1.21-1.05,1.26-.31.07-2.38-1.96-2.43-2.22-.07-.32.79-1.21,1.05-1.26Z" />
    <path d="M379.18,274.78c.42-.12,2.69,1.37,2.91,1.74.17.29-.49,1.19-.75,1.34-.22.13-2.65-1.32-2.81-1.63-.21-.41.23-1.33.64-1.45Z" />
    <path d="M199.14,280.88s-.57-.99-.58-1.04c-.11-.44,2.28-2.34,2.89-2.01.2.1.87,1.09.86,1.2-.02.19-2.78,2.13-3.17,1.86Z" />
    <path d="M398.54,506.84c.66-.17,1.41.56,1.23,1.23-.08.32-2.11,2.3-2.42,2.23-.16-.04-1.05-.93-1.05-1.01,0-.17,1.95-2.38,2.24-2.46Z" />
    <path d="M200.27,276.51l-2.78,1.71c-.24-.01-.97-1.03-.95-1.27s2.54-2.18,2.72-2.19c.1,0,1.2,1.49,1.02,1.74Z" />
    <path d="M195.3,275.64l-.88-1.75,2.62-1.65c2.72,1.08-.45,2.56-1.74,3.4Z" />
    <path d="M166.02,497.42l-1.77-2.77c0-.08,1.23-.97,1.31-.97.23,0,2.17,2.56,2.17,2.73,0,.25-1.39,1.22-1.7,1Z" />
    <path d="M257.13,548.4l.29-1.73c1.77.44,4.63.18,2.78,2.58l-3.07-.85Z" />
    <path d="M259.16,553.99l-.29,1.75c-1.7-.43-4.79-.25-2.79-2.58l3.09.83Z" />
    <path d="M314.54,247.52c-.1.13-3.09-.49-3.18-.63s-.1-1.66-.04-1.72c.13-.14,2.9.23,3.23.43.42.25.1,1.77-.01,1.91Z" />
    <path d="M321.87,246.64v1.76c-1.74-.1-4.41.39-3.51-2.04l3.51.28Z" />
    <path d="M388.86,524.42c.55-.09,1.08.96.85,1.43-.19.4-2.17,1.88-2.62,1.75-.41-.12-.84-1.02-.64-1.44.17-.35,2.04-1.68,2.41-1.74Z" />
    <path d="M224.58,265.37l-3.03,1.21-.73-1.35c1.48-.94,3.73-2.84,3.76.13Z" />
    <path d="M171.53,489.85c.13,1.05,1.86,1.94,1.36,2.9-.93,1.8-3.05-1.4-3.02-1.91.02-.35,1.17-1.3,1.66-.99Z" />
    <path d="M384.31,523.25c.08-.12,2.31-1.51,2.46-1.51.36,0,1.31.9,1.31,1.04,0,.2-2.5,2.15-2.78,2.13-.36-.03-1.3-1.19-.99-1.66Z" />
    <path d="M443.74,436.49l-1.74-.3c.42-1.73.24-4.76,2.59-2.78l-.85,3.08Z" />
    <path d="M327.12,253.06c-.43.38-2.79-.63-3.49-.56l.31-1.74c.23-.2,3.37.52,3.47,1.04.01.07-.23,1.23-.28,1.27Z" />
    <path d="M439.64,360.33l.82,3.08c-.04.37-1.29.68-1.69.72l-.88-3.5,1.74-.3Z" />
    <path d="M444.34,412.76l-.29,3.52h-1.76s.13-3.24.13-3.24c.31-.46,1.39-.24,1.92-.27Z" />
    <path d="M221.07,257.48l.59,1.75c-.93,0-2.43,1.55-3.23,1.05-1.91-1.21,1.64-2.56,2.64-2.8Z" />
    <path d="M147.81,336.61c.34.46-1.21,4.8-2.78,2.62-.1-.14,1.15-2.97,1.33-3.1.11-.08,1.41.42,1.45.49Z" />
    <path d="M328.86,244.91c.21.31.08,1.57-.44,1.71-.15.04-2.91-.48-3.03-.58-.11-.08-.15-1.52.47-1.72.42-.14,2.87.39,3,.59Z" />
    <path d="M209.02,264.55c.14.1.71,1.16.5,1.43-.08.1-1.96,1.24-2.2,1.33-1.1.43-1.08-.37-1.36-1.34.56-.34,2.51-1.81,3.05-1.42Z" />
    <path d="M188.42,509.45c.28-.07,2.77,2.3,2.77,2.49,0,.07-.9.97-1.06,1.01-.22.05-2.7-1.98-2.7-2.18,0-.08.9-1.3.98-1.32Z" />
    <path d="M412.96,306.43l1.78,2.77c-.72.41-1.14,1.05-1.92.46-.11-.08-1.57-2.08-1.57-2.22,0-.26,1.39-1.22,1.7-1Z" />
    <path d="M283.48,552.23v-1.76c.79.15,3.19-.4,3.48.48.82,2.45-2.25,1.01-3.48,1.28Z" />
    <path d="M433.19,457.61c.18.25-.85,2.88-1.15,3.07-.45.28-1.37-.08-1.64-.45-.1-.14,1.15-2.97,1.33-3.1l1.45.48Z" />
    <path d="M419.98,305.49c-.04.06-1.18.64-1.26.62-.16-.04-1.97-2.53-1.92-2.76l1.32-1.04c.37.61,2.29,2.58,1.87,3.18Z" />
    <path d="M375.49,535.53l-.58-1.74,2.75-1.48c1.97,1.77-.68,2.61-2.17,3.22Z" />
    <path d="M301.07,247.51c.06.05.04,1.31-.04,1.57-.25.81-.98.21-1.57.19-1.93-.08-2.08.57-1.91-1.76h3.52Z" />
    <path d="M282.02,247.51c.06.06.04,1.65-.03,1.73-.05.06-1.32.3-1.58.32-1.98.17-2.08.27-1.91-1.76l3.52-.29Z" />
    <path d="M366.1,539.34c.08.06.44,1.49.27,1.72-.09.13-2.66,1.26-2.9,1.08-.3-.21-.76-1.33-.56-1.61.1-.14,2.98-1.34,3.2-1.19Z" />
    <path d="M269.15,557.48l.28-1.73c.75.29,2.94.05,3.18.76.8,2.38-2.27,1.25-3.46.97Z" />
    <path d="M186.94,289.42c.1,0,1.06.93.99,1.26-.08.37-1.98,2.54-2.16,2.54l-1.31-1.31,2.49-2.48Z" />
    <path d="M172.04,496.87c.46-.1,2.4,2.2,2.4,2.47,0,.12-.84.97-1.01,1-.31.07-2.38-1.96-2.43-2.22-.07-.32.79-1.2,1.05-1.26Z" />
    <path d="M211.41,268.9c-.24.17-2.63,1.45-2.79,1.48-.48.08-.99-1.25-.99-1.33.02-.27,2.36-1.53,2.75-1.89l1.02,1.74Z" />
    <path d="M360.26,536.1c-.23-.17-.38-1.23-.04-1.62.21-.24,2.55-1.26,2.67-1.17,2.19,1.58-2.18,3.12-2.63,2.79Z" />
    <path d="M315.12,243.99c-.12.16-2.87-.22-3.22-.42-.47-.27-.07-1.32.16-1.63s2.65.14,3.08.46c.27.2.02,1.53-.03,1.59Z" />
    <path d="M142.83,349.49c.37.41-.84,2.82-.87,3.5l-1.76-.59c.19-.66.75-3.07,1.35-3.18.07-.01,1.23.22,1.28.26Z" />
    <path d="M444.02,447.36c.13.19,0,.66-.04.92-.34,1.78-.63,2.69-2.57,1.98l.89-3.21c.15-.13,1.63.18,1.72.31Z" />
    <path d="M373.73,532.6l-.59-1.75c1.26-.07,3.06-2.63,3.48-.38.18.98-2.01,1.92-2.89,2.13Z" />
    <rect x="136.4" y="403.97" width="1.76" height="3.52" />
    <path d="M409.47,291.76s.06.46.29.73c.45.52,1.39,1.1,1.49,1.77.06.41-.86.92-1.1.98-.43.1-2.06-1.69-2.1-2.21-.04-.44,1.06-1.52,1.42-1.27Z" />
    <path d="M439.94,449.68l-1.75-.59c.84-1.58.54-4.44,2.9-2.5l-1.14,3.09Z" />
    <path d="M146.06,350.66c.14.16-.05.89-.12,1.17-.39,1.64-.75,2.55-2.51,1.74l.88-3.22,1.74.31Z" />
    <polygon points="176.98 502.13 179.18 504.62 177.86 505.93 175.67 503.44 176.98 502.13" />
    <path d="M273.23,552.81c.1.08.14,1.51-.48,1.72-.38.13-2.85-.13-3.03-.26-.11-.08-.15-1.52.47-1.72.14-.05,2.92.17,3.04.26Z" />
    <path d="M174.78,504.47s.07.46.29.72c.32.37,1.39,1.21,1.46,1.51.07.32-.79,1.2-1.05,1.26-.55.12-2.1-1.83-2.17-2.49-.06-.51,1.32-1.11,1.47-1Z" />
    <path d="M407.13,297.62s-.06-.46-.29-.73c-.32-.37-1.39-1.22-1.46-1.51-.07-.32.79-1.2,1.05-1.26.46-.1,2.08,1.77,2.12,2.23s-1.06,1.52-1.42,1.27Z" />
    <path d="M254.77,248.39c.07.1.35,1.54.17,1.77-.23.3-3.01,1-3.1.87l-.3-1.76,3.22-.88Z" />
    <path d="M169.41,309.67c.39-.07,1.33.44,1.25.93-.06.38-1.57,2.49-1.87,2.49-.08,0-1.3-.89-1.31-.97-.02-.21,1.54-2.38,1.93-2.45Z" />
    <path d="M151.34,462.28c.12.09,1.19,2.61,1.15,2.75-.09.41-1.15.82-1.56.78-.16-.01-1.44-2.82-1.35-2.95l1.75-.59Z" />
    <path d="M399.11,282.11c.16-.04,2.39,1.77,2.44,1.92.21.67-.62,1.16-1.01,1.57l-2.48-2.48c.3-.23.75-.94,1.06-1.01Z" />
    <path d="M355.89,263.31c-.19-.26.15-1.72.44-1.75.41-.03,2.99,1.12,3.01,1.33.03.38-.45,1.3-.99,1.35-.3.03-2.38-.82-2.46-.93Z" />
    <path d="M444.3,389.57c-.16.22-1.3.52-1.58.06-.08-.13-.5-2.81-.42-2.93.12-.17,1.59-.52,1.91-.03.19.3.23,2.7.09,2.9Z" />
    <path d="M138.45,410.42l.3,3.22c-1.56.05-1.88.34-2.06-1.31-.21-1.96-.22-2.1,1.76-1.91Z" />
    <path d="M228.1,538.46c-.07.09-1.72-.88-2.06-1.03-.68-.31-1.18.17-.74-1.04.27-.76.55-.97,1.34-.74.28.08,1.8.88,1.92,1.04.16.22-.33,1.58-.47,1.77Z" />
    <path d="M432.07,334.58c.07-.1,1.14-.72,1.43-.5.24.18,1.44,2.65,1.33,2.81-1.48,2.04-3.11-1.82-2.76-2.31Z" />
    <polygon points="447.56 386.1 447.85 389.32 446.1 389.62 445.8 386.1 447.56 386.1" />
    <path d="M331.53,545.49c.12.09.42,1.45.17,1.78-.15.2-2.63.89-2.82.74-.21-.17-.66-1.52-.58-1.64l3.22-.88Z" />
    <path d="M415.32,490.4c-2.23-.35-1.41-1.88-.29-3.08.68-.72,1.8-.11,1.77.59-.03.75-1.42,1.64-1.48,2.49Z" />
    <path d="M255.94,253.66c-.11.08-2.61.61-2.75.57-.51-.13-.59-1.15-.49-1.56s2.45-.75,2.94-1.06l.29,2.05Z" />
    <path d="M152.52,461.4c.06-.04,1.3-.55,1.37-.56.6-.06,1.8,2.32,1.43,2.9-.17.27-1,.71-1.34.46-.13-.09-1.59-2.71-1.46-2.8Z" />
    <path d="M430.56,335.41c.12.09,1.19,2.61,1.15,2.75-.09.41-1.15.82-1.56.78-.14-.01-1.29-2.38-1.28-2.52.02-.35,1.42-1.21,1.69-1.02Z" />
    <path d="M227.21,539.65l-.28,1.74c-.11.15-3.12-1.04-3.22-1.18-.12-.16.26-.99.44-1.17.87-.88,2.11.48,3.06.61Z" />
    <path d="M164.86,310.47c-.35-.51.81-1.66,1.15-2.16.18-.26.25-.71.28-.74.28-.2,1.47.78,1.75,1.02l-1.75,2.37c-.18.25-1.38-.43-1.43-.5Z" />
    <path d="M360.53,259.55l-.28,1.74c-.11.15-3.12-1.04-3.22-1.18-.12-.16.26-.99.44-1.17.87-.88,2.11.48,3.06.61Z" />
    <path d="M141.97,413.35h-1.76s-.29-3.22-.29-3.22c2.73-.44,2,1.21,2.05,3.22Z" />
    <path d="M418.23,492.13c-.35.24-1.75-.6-1.75-.72,0-.42,1.71-2.74,1.92-2.74.08,0,1.08.81,1.31.99l-1.48,2.47Z" />
    <path d="M329.52,549.63c.19-.27,2.41-.6,2.89-.92l.57,1.62c-.02.28-2.79,1.05-3.04,1-.5-.1-.64-1.39-.42-1.7Z" />
  </g>
  <path class="cls-1" d="M290.77,175.76c-3.75-17.1-21.05-22.63-23.31-23.31-10.43-3.14-19.42-.22-21.71.59-9.71,3.44-11.1,8.88-28.24,24.79-14.47,13.44-19,14.68-21.95,15.08-9.7,1.32-18.23-4.34-22.96-8.21-.6,1.33-5.98,13.73.39,23.68,8.4,13.13,31.01,12.29,33.83,6.65,1.4-2.8-3.64-5.12-3.05-10.29.3-2.64,1.9-4.56,7.18-7.95-1.39,4.22-2.56,10.71,1.24,15.69,3.95,5.18,10.77,5.4,11.77,5.42,9.19.17,14.48-7.71,14.84-8.27-3.27-.56-8.06-2.05-10.53-6.07-2.56-4.16-1.39-8.98.73-17.21,0,0,.76-.43,2.29-1.28-1.94,3.41-2.81,6.87-2.38,10.14.52,3.95,3.14,9.54,8.41,11.54,5.64,2.13,12.91-.39,17.85-6.61-1.19,0-4.89-.17-8.39-2.85-3.79-2.9-4.84-6.82-5.09-7.93,1.23-2.76,2.64-5.67,4.29-8.68,1.06-1.93,2.13-3.73,3.21-5.47,1.89-1.02,3.47-1.86,4.83-2.55-2.61,2.82-4.76,6.39-5.39,10.66-.24,1.6-.92,6.2,1.77,10.34,3.88,5.97,13.1,8.4,20.01,5.01,7.35-3.61,11.07-13.29,7.54-22.22-5.61,6.72-11.46,9.95-14.28,8.3-2.72-1.6-2.19-7.51-2.13-8.14.3-3.36,1.64-5.93,2.89-7.8,5.28-1.29,10.01-2.13,14.44.28,7.68,4.18,8.46,14.81,8.58,16.86.6,10.26-5.26,17.79-7.27,20.16,8.87-7.66,12.99-19.32,10.58-30.35Z" />
  <path class="cls-1" d="M292.81,175.76c3.75-17.1,21.05-22.63,23.31-23.31,10.43-3.14,19.42-.22,21.71.59,9.71,3.44,11.1,8.88,28.24,24.79,14.47,13.44,19,14.68,21.95,15.08,9.7,1.32,18.23-4.34,22.96-8.21.6,1.33,5.98,13.73-.39,23.68-8.4,13.13-31.01,12.29-33.83,6.65-1.4-2.8,3.64-5.12,3.05-10.29-.3-2.64-1.9-4.56-7.18-7.95,1.39,4.22,2.56,10.71-1.24,15.69-3.95,5.18-10.77,5.4-11.77,5.42-9.19.17-14.48-7.71-14.84-8.27,3.27-.56,8.06-2.05,10.53-6.07,2.56-4.16,1.39-8.98-.73-17.21,0,0-.76-.43-2.29-1.28,1.94,3.41,2.81,6.87,2.38,10.14-.52,3.95-3.14,9.54-8.41,11.54-5.64,2.13-12.91-.39-17.85-6.61,1.19,0,4.89-.17,8.39-2.85,3.79-2.9,4.84-6.82,5.09-7.93-1.23-2.76-2.64-5.67-4.29-8.68-1.06-1.93-2.13-3.73-3.21-5.47-1.89-1.02-3.47-1.86-4.83-2.55,2.61,2.82,4.76,6.39,5.39,10.66.24,1.6.92,6.2-1.77,10.34-3.88,5.97-13.1,8.4-20.01,5.01-7.35-3.61-11.07-13.29-7.54-22.22,5.61,6.72,11.46,9.95,14.28,8.3,2.72-1.6,2.19-7.51,2.13-8.14-.3-3.36-1.64-5.93-2.89-7.8-5.28-1.29-10.01-2.13-14.44.28-7.68,4.18-8.46,14.81-8.58,16.86-.6,10.26,5.26,17.79,7.27,20.16-8.87-7.66-12.99-19.32-10.58-30.35Z" />
  <g>
    <path class="cls-1" d="M293.46,641.68c-3.75,17.1-21.05,22.63-23.31,23.31-10.43,3.14-19.42.22-21.71-.59-9.71-3.44-11.1-8.88-28.24-24.79-14.47-13.44-19-14.68-21.95-15.08-9.7-1.32-18.23,4.34-22.96,8.21-.6-1.33-5.98-13.73.39-23.68,8.4-13.13,31.01-12.29,33.83-6.65,1.4,2.8-3.64,5.12-3.05,10.29.3,2.64,1.9,4.56,7.18,7.95-1.39-4.22-2.56-10.71,1.24-15.69,3.95-5.18,10.77-5.4,11.77-5.42,9.19-.17,14.48,7.71,14.84,8.27-3.27.56-8.06,2.05-10.53,6.07-2.56,4.16-1.39,8.98.73,17.21,0,0,.76.43,2.29,1.28-1.94-3.41-2.81-6.87-2.38-10.14.52-3.95,3.14-9.54,8.41-11.54,5.64-2.13,12.91.39,17.85,6.61-1.19,0-4.89.17-8.39,2.85-3.79,2.9-4.84,6.82-5.09,7.93,1.23,2.76,2.64,5.67,4.29,8.68,1.06,1.93,2.13,3.73,3.21,5.47,1.89,1.02,3.47,1.86,4.83,2.55-2.61-2.82-4.76-6.39-5.39-10.66-.24-1.6-.92-6.2,1.77-10.34,3.88-5.97,13.1-8.4,20.01-5.01,7.35,3.61,11.07,13.29,7.54,22.22-5.61-6.72-11.46-9.95-14.28-8.3-2.72,1.6-2.19,7.51-2.13,8.14.3,3.36,1.64,5.93,2.89,7.8,5.28,1.29,10.01,2.13,14.44-.28,7.68-4.18,8.46-14.81,8.58-16.86.6-10.26-5.26-17.79-7.27-20.16,8.87,7.66,12.99,19.32,10.58,30.35Z" />
    <path class="cls-1" d="M295.51,641.68c3.75,17.1,21.05,22.63,23.31,23.31,10.43,3.14,19.42.22,21.71-.59,9.71-3.44,11.1-8.88,28.24-24.79,14.47-13.44,19-14.68,21.95-15.08,9.7-1.32,18.23,4.34,22.96,8.21.6-1.33,5.98-13.73-.39-23.68-8.4-13.13-31.01-12.29-33.83-6.65-1.4,2.8,3.64,5.12,3.05,10.29-.3,2.64-1.9,4.56-7.18,7.95,1.39-4.22,2.56-10.71-1.24-15.69-3.95-5.18-10.77-5.4-11.77-5.42-9.19-.17-14.48,7.71-14.84,8.27,3.27.56,8.06,2.05,10.53,6.07,2.56,4.16,1.39,8.98-.73,17.21,0,0-.76.43-2.29,1.28,1.94-3.41,2.81-6.87,2.38-10.14-.52-3.95-3.14-9.54-8.41-11.54-5.64-2.13-12.91.39-17.85,6.61,1.19,0,4.89.17,8.39,2.85,3.79,2.9,4.84,6.82,5.09,7.93-1.23,2.76-2.64,5.67-4.29,8.68-1.06,1.93-2.13,3.73-3.21,5.47-1.89,1.02-3.47,1.86-4.83,2.55,2.61-2.82,4.76-6.39,5.39-10.66.24-1.6.92-6.2-1.77-10.34-3.88-5.97-13.1-8.4-20.01-5.01-7.35,3.61-11.07,13.29-7.54,22.22,5.61-6.72,11.46-9.95,14.28-8.3,2.72,1.6,2.19,7.51,2.13,8.14-.3,3.36-1.64,5.93-2.89,7.8-5.28,1.29-10.01,2.13-14.44-.28-7.68-4.18-8.46-14.81-8.58-16.86-.6-10.26,5.26-17.79,7.27-20.16-8.87,7.66-12.99,19.32-10.58,30.35Z" />
  </g>
  <g>
    <path class="cls-1" d="M525.07,407.92c17.1,3.75,22.63,21.05,23.31,23.31,3.14,10.43.22,19.42-.59,21.71-3.44,9.71-8.88,11.1-24.79,28.24-13.44,14.47-14.68,19-15.08,21.95-1.32,9.7,4.34,18.23,8.21,22.96-1.33.6-13.73,5.98-23.68-.39-13.13-8.4-12.29-31.01-6.65-33.83,2.8-1.4,5.12,3.64,10.29,3.05,2.64-.3,4.56-1.9,7.95-7.18-4.22,1.39-10.71,2.56-15.69-1.24-5.18-3.95-5.4-10.77-5.42-11.77-.17-9.19,7.71-14.48,8.27-14.84.56,3.27,2.05,8.06,6.07,10.53,4.16,2.56,8.98,1.39,17.21-.73,0,0,.43-.76,1.28-2.29-3.41,1.94-6.87,2.81-10.14,2.38-3.95-.52-9.54-3.14-11.54-8.41-2.13-5.64.39-12.91,6.61-17.85,0,1.19.17,4.89,2.85,8.39,2.9,3.79,6.82,4.84,7.93,5.09,2.76-1.23,5.67-2.64,8.68-4.29,1.93-1.06,3.73-2.13,5.47-3.21,1.02-1.89,1.86-3.47,2.55-4.83-2.82,2.61-6.39,4.76-10.66,5.39-1.6.24-6.2.92-10.34-1.77-5.97-3.88-8.4-13.1-5.01-20.01,3.61-7.35,13.29-11.07,22.22-7.54-6.72,5.61-9.95,11.46-8.3,14.28,1.6,2.72,7.51,2.19,8.14,2.13,3.36-.3,5.93-1.64,7.8-2.89,1.29-5.28,2.13-10.01-.28-14.44-4.18-7.68-14.81-8.46-16.86-8.58-10.26-.6-17.79,5.26-20.16,7.27,7.66-8.87,19.32-12.99,30.35-10.58Z" />
    <path class="cls-1" d="M525.07,405.88c17.1-3.75,22.63-21.05,23.31-23.31,3.14-10.43.22-19.42-.59-21.71-3.44-9.71-8.88-11.1-24.79-28.24-13.44-14.47-14.68-19-15.08-21.95-1.32-9.7,4.34-18.23,8.21-22.96-1.33-.6-13.73-5.98-23.68.39-13.13,8.4-12.29,31.01-6.65,33.83,2.8,1.4,5.12-3.64,10.29-3.05,2.64.3,4.56,1.9,7.95,7.18-4.22-1.39-10.71-2.56-15.69,1.24-5.18,3.95-5.4,10.77-5.42,11.77-.17,9.19,7.71,14.48,8.27,14.84.56-3.27,2.05-8.06,6.07-10.53,4.16-2.56,8.98-1.39,17.21.73,0,0,.43.76,1.28,2.29-3.41-1.94-6.87-2.81-10.14-2.38-3.95.52-9.54,3.14-11.54,8.41-2.13,5.64.39,12.91,6.61,17.85,0-1.19.17-4.89,2.85-8.39,2.9-3.79,6.82-4.84,7.93-5.09,2.76,1.23,5.67,2.64,8.68,4.29,1.93,1.06,3.73,2.13,5.47,3.21,1.02,1.89,1.86,3.47,2.55,4.83-2.82-2.61-6.39-4.76-10.66-5.39-1.6-.24-6.2-.92-10.34,1.77-5.97,3.88-8.4,13.1-5.01,20.01,3.61,7.35,13.29,11.07,22.22,7.54-6.72-5.61-9.95-11.46-8.3-14.28,1.6-2.72,7.51-2.19,8.14-2.13,3.36.3,5.93,1.64,7.8,2.89,1.29,5.28,2.13,10.01-.28,14.44-4.18,7.68-14.81,8.46-16.86,8.58-10.26.6-17.79-5.26-20.16-7.27,7.66,8.87,19.32,12.99,30.35,10.58Z" />
  </g>
  <g>
    <path class="cls-1" d="M63.64,407.91c-17.1,3.75-22.63,21.05-23.31,23.31-3.14,10.43-.22,19.42.59,21.71,3.44,9.71,8.88,11.1,24.79,28.24,13.44,14.47,14.68,19,15.08,21.95,1.32,9.7-4.34,18.23-8.21,22.96,1.33.6,13.73,5.98,23.68-.39,13.13-8.4,12.29-31.01,6.65-33.83-2.8-1.4-5.12,3.64-10.29,3.05-2.64-.3-4.56-1.9-7.95-7.18,4.22,1.39,10.71,2.56,15.69-1.24,5.18-3.95,5.4-10.77,5.42-11.77.17-9.19-7.71-14.48-8.27-14.84-.56,3.27-2.05,8.06-6.07,10.53-4.16,2.56-8.98,1.39-17.21-.73,0,0-.43-.76-1.28-2.29,3.41,1.94,6.87,2.81,10.14,2.38,3.95-.52,9.54-3.14,11.54-8.41,2.13-5.64-.39-12.91-6.61-17.85,0,1.19-.17,4.89-2.85,8.39-2.9,3.79-6.82,4.84-7.93,5.09-2.76-1.23-5.67-2.64-8.68-4.29-1.93-1.06-3.73-2.13-5.47-3.21-1.02-1.89-1.86-3.47-2.55-4.83,2.82,2.61,6.39,4.76,10.66,5.39,1.6.24,6.2.92,10.34-1.77,5.97-3.88,8.4-13.1,5.01-20.01-3.61-7.35-13.29-11.07-22.22-7.54,6.72,5.61,9.95,11.46,8.3,14.28-1.6,2.72-7.51,2.19-8.14,2.13-3.36-.3-5.93-1.64-7.8-2.89-1.29-5.28-2.13-10.01.28-14.44,4.18-7.68,14.81-8.46,16.86-8.58,10.26-.6,17.79,5.26,20.16,7.27-7.66-8.87-19.32-12.99-30.35-10.58Z" />
    <path class="cls-1" d="M63.64,405.86c-17.1-3.75-22.63-21.05-23.31-23.31-3.14-10.43-.22-19.42.59-21.71,3.44-9.71,8.88-11.1,24.79-28.24,13.44-14.47,14.68-19,15.08-21.95,1.32-9.7-4.34-18.23-8.21-22.96,1.33-.6,13.73-5.98,23.68.39,13.13,8.4,12.29,31.01,6.65,33.83-2.8,1.4-5.12-3.64-10.29-3.05-2.64.3-4.56,1.9-7.95,7.18,4.22-1.39,10.71-2.56,15.69,1.24,5.18,3.95,5.4,10.77,5.42,11.77.17,9.19-7.71,14.48-8.27,14.84-.56-3.27-2.05-8.06-6.07-10.53-4.16-2.56-8.98-1.39-17.21.73,0,0-.43.76-1.28,2.29,3.41-1.94,6.87-2.81,10.14-2.38,3.95.52,9.54,3.14,11.54,8.41,2.13,5.64-.39,12.91-6.61,17.85,0-1.19-.17-4.89-2.85-8.39-2.9-3.79-6.82-4.84-7.93-5.09-2.76,1.23-5.67,2.64-8.68,4.29-1.93,1.06-3.73,2.13-5.47,3.21-1.02,1.89-1.86,3.47-2.55,4.83,2.82-2.61,6.39-4.76,10.66-5.39,1.6-.24,6.2-.92,10.34,1.77,5.97,3.88,8.4,13.1,5.01,20.01-3.61,7.35-13.29,11.07-22.22,7.54,6.72-5.61,9.95-11.46,8.3-14.28-1.6-2.72-7.51-2.19-8.14-2.13-3.36.3-5.93,1.64-7.8,2.89-1.29,5.28-2.13,10.01.28,14.44,4.18,7.68,14.81,8.46,16.86,8.58,10.26.6,17.79-5.26,20.16-7.27-7.66,8.87-19.32,12.99-30.35,10.58Z" />
  </g>
</svg>