<?xml version="1.0" encoding="UTF-8"?>
<svg id="_千佛" data-name="千佛" xmlns="http://www.w3.org/2000/svg" viewBox="0 0 595.28 841.89">
  <defs>
    <style>
      .cls-1 {
        fill: #221714;
      }

      .cls-2 {
        fill: none;
        stroke: #221714;
        stroke-miterlimit: 10;
        stroke-width: 4.78px;
      }
    </style>
  </defs>
  <g>
    <path class="cls-1" d="M240.89,374.72c.44-11.19,5-18.19,12.86-25.71,4.65-4.58,9.5-8.92,14.59-13.01,3.91-3.06,7.15-5.78,10.19-9.51,7.66-8.77,14.49-22.16,11.47-33.86-.82-3.12-2.28-6.53-4.31-8.7-6.94-7.83-19.81-5.59-26.91,1.23-8.96,7.81-14.08,18.36-17.56,29.82-3.78,11.76-6.56,23.21-5.77,35.35.04,1.08.26,3.28.39,4.35.51,4.73,1.55,8.44,2.68,13.5,2.12,10.58,2.68,21.19.68,31.94-4.96,22.71-26.92,34.33-48.04,23.3-18.96-9.94-24.61-33.33-15.28-51.9.55-1.19,1.23-2.48,1.86-3.62,1.82-3.62,4.79-6.73,7.28-9.77,2.76-3.35,6.11-7.74,8.78-11.22,7.42-9.23,13.51-19.49,15.18-31.27,1.02-6.98,1.3-14.26-1.02-20.96-3.02-9.07-9.54-17.29-18.76-20.36-5.17-1.82-10.55-1.81-15.78.11-5.34,2.05-11.05,5.02-15.75,8.66-6.41,5.03-13.44,9.69-20.68,13.54-6.11,3.58-14.04,3.63-20.63,1.21-4.99-1.75-8.93-5.87-10.93-10.69-1.4-2.99-1.99-6.36-2.58-9.51-.68-3.1-1.82-6.11-3.34-8.96,1.9,2.61,3.45,5.52,4.51,8.63,1.84,6.47,4.86,13.53,11.47,16.22,4.6,1.8,10.32,1.81,14.93.25,2.63-1.08,5.26-2.97,7.69-4.64,5.24-3.69,9.97-7.53,14.71-11.92,5.17-4.61,10.82-8.12,17.28-11.15,18.75-8.37,39.28,3.01,47.48,20.68,7.71,15.66,5.61,35.65-1.5,51.11-4.17,9.29-10.72,17.35-16.62,25.44-2.55,3.65-5.83,6.98-8.13,10.71-4.48,7.71-6.65,17.27-2.58,25.5,2.86,6.64,9.24,11.36,16.28,12.39,8.27,1.47,15.16-4.11,18.12-11.51,1.37-3.68,1.73-7.55,1.92-11.72.18-5.82-.09-11.73-1.27-17.45-1.16-5.23-2.62-11.9-2.91-17.61-1.1-14.59,2.42-29.61,7.38-42.96,2.19-6.29,4.87-12.83,8.64-18.84,6.4-9.88,15.04-19.31,26.8-22.81,19.76-5.32,35.52,6.87,36.11,27.16-.14,13.66-7.37,25.6-16.6,34.66-5.77,6.03-13.08,9.91-19.62,14.81-6.31,4.78-12.95,9.39-17.61,15.77-2.59,3.99-4.22,8.57-5.07,13.29h0Z"/>
    <path class="cls-1" d="M99.47,268.7c4-1.21,7.87-2.63,11.54-4.24,1.92-.86,3.95-1.95,6.09-2.49,7.4-1.72,15.45,1.17,20.7,6.5,9.07,9.54,9.55,23.84,9.5,36.15-.02,1.9-.18,4.41-.29,6.32-.1,2.54.25,5.26.57,7.75.63,4.7,1.95,8.47,4.46,12.13,1.96,2.84,4.29,5.31,7.25,6.92,5.2,2.77,11.99,3.39,16.84-.33,3.43-2.56,5.41-6.68,6.47-10.84,1.71-6.57-.49-13.94-5.86-18.71-2.91-2.67-6.45-4.73-10.23-6.14,18.4-.81,30.29,15.73,25.03,33.39-4.67,17.28-23.41,23.62-38.95,16.12-7.15-3.36-12.57-9.51-16.16-16.35-3.44-6.87-4.34-13.9-4.44-21.19-.09-3.3.57-6.6.86-9.77.37-4.76.81-9.69.65-14.4-.17-8.74-2.22-16.92-10.84-20.46-3.53-1.63-6.49-1.05-10.53-.45-4.25.52-8.5.54-12.67.08h0Z"/>
  </g>
  <g>
    <path class="cls-1" d="M350.62,342.9c4.12,2.6,7.78,6.06,10.52,10.16,4.26,7.1,5.7,15.41,7.54,23.35,1.43,6.1,1.95,12.88,3.48,18.8,3.15,11.19,9.38,22.76,19.45,28.93,4.42,2.55,10.37,3.92,15.25,2.94,10.25-2.09,14.75-14.36,12.39-23.92-2.29-11.67-8.86-21.38-17.05-30.12-4.34-4.72-8.53-9.11-13.08-12.93-5.67-4.79-11.86-8.71-18.61-11.58-4.36-1.92-8.08-2.88-13.03-4.43-6.72-2.13-13.06-5.25-19.11-8.89-4.65-2.84-9.44-6.37-13.09-10.83-9.56-11.81-11.12-28.77-1.01-40.88,13.31-16.75,38.45-18.08,54.07-3.91,4.36,3.84,7.62,8.29,10.46,13.18,2.58,4.56,3.76,9.66,5.82,14.39.89,2.22,2.71,6.64,3.63,8.84,2.37,5.75,4.62,11.02,8,16.07,6.29,9.49,15.52,17.35,26.2,21.25,10.31,3.36,22.65,2.35,30.96-5.01,4.16-3.57,6.84-8.23,7.79-13.72.9-5.65,1.18-12.07.38-17.97-1.15-8.07-1.68-16.48-1.39-24.68-.07-5.29,2.22-10.62,5.59-14.71,4.24-5.68,11.34-8.92,18.41-7.88,3.29.28,6.5,1.46,9.53,2.52,3.02.96,6.2,1.48,9.43,1.58-4.78.65-9.79-.35-14.43-1.41-5.14-.78-10.86-.5-15.08,2.82-4.96,4.14-8.35,10.58-7.82,17.13.39,7.92,1.53,15.58,3.29,23.36.73,3.24,1.14,6.87,1.23,10.26.3,6.87.04,14.54-3.29,21.03-7.81,15.79-26.03,22.29-42.72,19.57-15.83-2.66-30.26-13.53-39.37-26.4-5.96-8.25-9.66-17.96-13.73-27.11-1.88-4.03-3.13-8.53-5.21-12.39-5.95-10.41-15.72-17.15-27.96-14.55-6.56,1.52-12.85,6.71-14.69,13.19-1.59,5.42.52,11.33,3.88,15.73,2.5,3.03,5.67,5.27,9.19,7.53,4.95,3.07,10.2,5.78,15.75,7.63,4.25,1.39,9.89,3.05,14.31,5.17,7.98,3.61,15.48,8.6,21.94,14.36,5.23,4.58,9.75,9.74,13.97,14.63,4.35,5.04,8.67,10.63,12,16.9,5.35,10.48,9.2,22.68,6.36,34.61-5.23,19.74-23.75,27.34-41.58,17.69-11.78-6.97-18.47-19.16-21.72-31.71-2.33-8.01-2.04-16.28-3.02-24.4-.99-7.85-1.65-15.91-4.85-23.14-2.16-4.24-5.32-7.94-8.98-11.04h0Z"/>
    <path class="cls-1" d="M513.14,273.44c-.95,4.07-1.65,8.13-2.1,12.12-.22,2.09-.29,4.4-.89,6.52-2.21,7.27-8.74,12.8-15.98,14.68-12.79,3.08-25.42-3.65-36.06-9.85-1.64-.96-3.73-2.36-5.33-3.41-2.15-1.35-4.68-2.42-7-3.38-4.39-1.81-8.31-2.55-12.74-2.2-3.44.28-6.75,1.06-9.62,2.82-5,3.12-8.93,8.69-8.14,14.75.5,4.25,3.08,8.03,6.15,11.03,4.83,4.77,12.32,6.54,19.14,4.28,3.77-1.19,7.32-3.22,10.43-5.79-10.37,19.6-35.45,17.48-45.99-1.17-7.07-12.43-1.36-27.99,10.08-35.64,6.48-4.52,14.52-6.13,22.24-5.82,7.67.46,14.21,3.19,20.58,6.75,2.91,1.57,5.44,3.79,8.03,5.63,2.32,1.61,5,3.42,7.31,4.92,8.53,5.37,18.97,10.75,27.97,3.68,3.17-2.24,4.16-5.1,5.65-8.9,1.68-3.94,3.78-7.63,6.26-11.01h0Z"/>
  </g>
  <g>
    <path class="cls-1" d="M322.35,453.88c-4.32,2.27-9.14,3.71-14.06,4.03-8.28.13-16.2-2.77-23.99-5.15-6-1.82-12.12-4.75-18.02-6.39-11.31-2.87-24.36-3.26-34.77,2.38-4.42,2.55-8.58,7.02-10.17,11.74-3.31,9.93,5.06,19.95,14.52,22.69,11.25,3.86,22.94,3.02,34.61.3,6.26-1.39,12.15-2.83,17.74-4.86,6.98-2.51,13.47-5.92,19.33-10.33,3.84-2.81,6.53-5.56,10.35-9.07,5.21-4.75,11.08-8.69,17.25-12.1,4.79-2.61,10.24-4.99,15.92-5.92,10.16-1.56,21.64,1.13,29.06,8.82,6,6.05,8.9,14.36,9.29,22.59.92,16.37-10.64,32.08-26.09,36.93-6.56,2.13-13.11,2.81-19.89,2.3-5.63-.88-11.2-1.95-16.82-2.63-5.23-.65-11-1.56-16.06-1.8-9.46-.43-18.97,1.28-27.45,5.42-16.43,6.7-28.42,26.78-19.07,43.51,2.88,4.99,7.6,8.19,12.63,11.33,2.58,1.64,5.08,2.92,7.98,4.11,7.56,3.04,15.11,6.79,22.06,11.14,6.9,3.97,11.18,12.02,11.64,19.9.27,6.15-3.06,11.81-7.35,15.95-3.72,3.21-7.22,6.3-9.75,10.59,1.82-4.47,5.2-8.3,8.44-11.79,3.25-4.06,5.86-9.16,5.1-14.47-1.1-6.37-4.98-12.52-10.92-15.34-7.05-3.63-14.26-6.46-21.87-8.83-3.17-.99-6.52-2.45-9.5-4.06-6.09-3.17-12.61-7.24-16.56-13.36-9.77-14.66-6.29-33.69,4.41-46.79,10.22-12.37,26.85-19.44,42.55-20.9,10.13-1.04,20.39.61,30.34,1.67,4.43.38,8.95,1.56,13.34,1.68,11.99.05,22.72-5.04,26.58-16.94,1.96-6.44.62-14.48-4.07-19.32-3.9-4.08-10.07-5.21-15.56-4.5-3.88.65-7.4,2.28-11.11,4.19-5.13,2.75-10.11,5.94-14.48,9.83-3.33,2.99-7.59,7.04-11.63,9.81-7.12,5.11-15.19,9.1-23.41,11.83-6.58,2.24-13.31,3.58-19.66,4.79-6.54,1.24-13.54,2.2-20.64,1.94-11.75-.61-24.25-3.37-33.15-11.8-14.48-14.4-11.8-34.24,5.47-44.85,11.93-6.71,25.83-6.42,38.32-2.95,8.11,1.98,15.12,6.38,22.64,9.59,7.3,3.07,14.6,6.52,22.46,7.37,4.75.24,9.53-.64,14.05-2.26h0Z"/>
    <path class="cls-1" d="M301.24,629.35c-3.05-2.86-6.21-5.5-9.44-7.87-1.7-1.23-3.66-2.45-5.2-4.03-6.1-6.54-7.1-16.88-3.39-24.85,5.08-10.57,15.5-17.1,25.23-22.64,1.65-.93,3.91-2.05,5.62-2.91,2.25-1.19,4.43-2.84,6.43-4.37,3.76-2.89,6.36-5.93,8.28-9.93,1.48-3.12,2.46-6.37,2.36-9.74-.18-6.26-3.48-12.75-9.66-14.81-6.93-1.98-14.88-.06-20.07,5.27-5.2,5.27-6.36,14.02-5.07,21.3-2.27-3.53-3.77-7.7-4.12-12.18-1.42-15.6,13-27.41,28.13-27.07,14.3.09,24.91,12.82,25.83,26.55.67,7.87-1.95,15.64-6.08,22.17-4.23,6.41-9.87,10.71-16.13,14.45-2.81,1.73-6,2.81-8.89,4.14-4.31,2.06-8.8,4.14-12.8,6.64-7.48,4.52-13.55,10.38-12.3,19.62.35,3.87,2.33,6.15,4.88,9.34,2.57,3.42,4.71,7.09,6.41,10.93h0Z"/>
  </g>
  <g>
    <g>
      <g>
        <path class="cls-1" d="M75.74,523.19c2.85-.36,7.22-.7,12.48-.2,11.77,1.12,14.36,5.16,23.56,4.92,7.86-.2,13.94-3.34,17.03-4.99,5.26-2.79,8.96-6.13,11.27-8.55-.77,3.2-3.1,10.89-10.27,16.6-8.81,7.02-21.56,8.37-30.11,4.08-4.1-2.06-4.97-4.28-11.59-7.56-4.98-2.47-9.43-3.67-12.38-4.3Z"/>
        <path class="cls-1" d="M223,531.13c1.63-7.84-1.02-15.67-6.23-21.57-5.19-6.1-11.86-10.57-18.67-14.99,2.92-.86,10.3-2.56,16.85,1.1,9.57,5.36,14.01,20.3,8.06,35.45Z"/>
        <path class="cls-1" d="M140.09,514.37c2.02,1.83,10.68,9.25,23.59,9.02,11.62-.21,19.33-6.48,21.97-8.69,8.9-7.47,11.64-16.85,12.44-20.13,2.13,11.03-2.63,23.33-11.4,30.58-7.4,6.07-17.43,9.97-27.08,8.02-9.37-1.81-17.73-9.38-19.53-18.8Z"/>
      </g>
      <g>
        <path class="cls-1" d="M75.74,523.19c1.74-2.29,4.22-5.91,6.42-10.71,4.91-10.75,2.72-15.01,7.51-22.86,4.1-6.71,9.87-10.4,12.83-12.26,5.05-3.16,9.79-4.7,13.04-5.49-3.15-.94-10.98-2.76-19.51.6-10.49,4.12-18.03,14.49-18.59,24.04-.27,4.58,1.22,6.45.76,13.82-.35,5.54-1.54,10-2.46,12.87Z"/>
        <path class="cls-1" d="M142.49,391.69c7.6,2.51,13.06,8.72,15.56,16.18,2.69,7.55,3.22,15.55,3.64,23.67,2.2-2.1,7.37-7.64,7.47-15.14.15-10.96-10.57-22.28-26.67-24.71Z"/>
        <path class="cls-1" d="M115.54,471.87c-.57-2.66-2.67-13.87,3.98-24.94,5.99-9.96,15.28-13.5,18.51-14.68,10.92-3.98,20.41-1.66,23.65-.71-8.48-7.36-21.52-9.39-32.18-5.42-8.96,3.37-17.35,10.11-20.48,19.44-3.11,9.02-.74,20.04,6.51,26.31Z"/>
      </g>
    </g>
    <g>
      <g>
        <path class="cls-1" d="M56.74,534.16c3.74-7.05,6.21-14.83,5.91-22.76-.1-4.12-1.59-7.86-1.55-12.16.32-17.53,15.73-33.05,33.12-33.95,4.19-.27,8.4.09,12.33,1.29-4.1-.12-8.13.19-11.99,1.09-13.24,2.67-24.46,13.15-27.95,26.16-1.49,4.76-.66,9.42-.14,14.35.47,9.55-3.39,19.05-9.74,25.98h0Z"/>
        <path class="cls-1" d="M106.55,466.58c-8.24-7.12-10.93-19.63-7.4-29.88,5.03-14.53,21.1-24.31,36.13-24.36,8.72-.06,17.32,2.99,23.69,8.44-11.12-5.51-23.64-6.41-34.9-1.8-8.8,3.76-17.17,10.21-20.87,19.22-3.83,9.26-2.42,20.1,3.35,28.39h0Z"/>
      </g>
      <g>
        <path class="cls-1" d="M56.74,534.16c8.16-1.77,17-.88,24.55,2.98,3.64,1.68,6.73,4.88,10.15,6.68,13.81,6.85,31.74,2.3,41.82-9.11,2.72-2.89,5-6.23,6.94-9.84-.93,4.01-2.72,7.84-5.05,11.33-9.48,14.58-30.67,20.29-45.98,11.68-3.73-2.14-6.23-5.27-9.76-7.41-6.73-4.22-14.69-5.99-22.68-6.3h0Z"/>
        <path class="cls-1" d="M140.2,524.86c4.29,9.14,12.97,15.79,22.91,17.1,9.65,1.3,19.42-2.72,27.08-8.46,9.62-7.45,15.11-18.75,15.89-31.13,2.42,12.52-2.99,26.5-12.94,34.73-8.4,6.9-19.79,11.33-30.76,9.11-10.64-2.06-20.13-10.65-22.18-21.35h0Z"/>
      </g>
    </g>
  </g>
  <g>
    <g>
      <g>
        <path class="cls-1" d="M303.64,130.34c1.11,2.65,3,6.61,6.07,10.91,6.86,9.63,11.65,9.86,16.04,17.94,3.76,6.9,4.07,13.74,4.2,17.24.21,5.95-.83,10.82-1.77,14.04,2.39-2.26,7.88-8.13,9.24-17.2,1.68-11.14-3.53-22.86-11.53-28.12-3.83-2.52-6.19-2.17-12.34-6.25-4.63-3.07-7.9-6.33-9.91-8.57Z"/>
        <path class="cls-1" d="M384.15,253.9c-5.97,5.33-14.08,6.95-21.8,5.39-7.88-1.45-15.08-4.99-22.32-8.68.72,2.96,2.93,10.2,9.38,14.04,9.42,5.61,24.58,1.98,34.73-10.75Z"/>
        <path class="cls-1" d="M328.19,190.48c2.59.84,13.35,4.62,19.61,15.92,5.63,10.17,4.05,19.98,3.46,23.37-2.02,11.45-8.77,18.51-11.21,20.84,10.62-3.67,18.89-13.94,20.78-25.16,1.56-9.45-.08-20.08-6.59-27.46-6.26-7.21-16.98-10.66-26.04-7.51Z"/>
      </g>
      <g>
        <path class="cls-1" d="M303.64,130.34c-1.11,2.65-3,6.61-6.07,10.91-6.86,9.63-11.65,9.86-16.04,17.94-3.76,6.9-4.07,13.74-4.2,17.24-.21,5.95.83,10.82,1.77,14.04-2.39-2.26-7.88-8.13-9.24-17.2-1.68-11.14,3.53-22.86,11.53-28.12,3.83-2.52,6.19-2.17,12.34-6.25,4.63-3.07,7.9-6.33,9.91-8.57Z"/>
        <path class="cls-1" d="M223.14,253.9c5.97,5.33,14.08,6.95,21.8,5.39,7.88-1.45,15.08-4.99,22.32-8.68-.72,2.96-2.93,10.2-9.38,14.04-9.42,5.61-24.58,1.98-34.73-10.75Z"/>
        <path class="cls-1" d="M279.1,190.48c-2.59.84-13.35,4.62-19.61,15.92-5.63,10.17-4.05,19.98-3.46,23.37,2.02,11.45,8.77,18.51,11.21,20.84-10.62-3.67-18.89-13.94-20.78-25.16-1.56-9.45.08-20.08,6.59-27.46,6.26-7.21,16.98-10.66,26.04-7.51Z"/>
      </g>
    </g>
    <g>
      <g>
        <path class="cls-1" d="M303.64,108.41c-2.83,8.97-9.13,17.06-17.63,21.42-4.54,2.02-8.96,3.61-12.36,7.29-9.52,9.53-12.98,24.48-8.68,37.29,1.15,3.8,2.9,7.44,5.05,10.93-3.01-2.81-5.42-6.27-7.28-10.03-7.91-15.52-2.18-36.62,12.84-45.66,3.71-2.18,7.69-2.76,11.31-4.73,7.01-3.71,12.51-9.73,16.75-16.5h0Z"/>
        <path class="cls-1" d="M270.03,185.34c-10.06-.86-20.16,3.34-26.26,11.29-5.95,7.71-7.36,18.18-6.21,27.68,1.64,12.05,8.68,22.45,19.01,29.33-7.9-2.8-14.84-8.72-19.15-16.3-8-13.99-6.95-34.62,5.37-45.85,7.23-6.52,18.01-9.36,27.24-6.15h0Z"/>
      </g>
      <g>
        <path class="cls-1" d="M303.64,108.41c4.26,6.76,9.77,12.77,16.79,16.49,3.62,1.98,7.58,2.59,11.3,4.75,15.11,8.95,20.76,30.16,12.88,45.66-1.86,3.76-4.28,7.23-7.29,10.04,2.15-3.49,3.9-7.14,5.05-10.93,4.85-14.43-.18-32.24-13.02-40.77-3.26-2.06-7.59-3.13-10.86-5.45-7.11-4.61-12.31-11.83-14.85-19.77h0Z"/>
        <path class="cls-1" d="M337.33,185.34c9.23-3.21,20-.38,27.24,6.15,12.33,11.24,13.37,31.86,5.37,45.85-4.31,7.58-11.25,13.5-19.15,16.3,10.33-6.87,17.37-17.27,19.01-29.33,1.15-9.5-.26-19.97-6.21-27.68-6.1-7.95-16.19-12.15-26.26-11.29h0Z"/>
      </g>
    </g>
  </g>
  <g>
    <g>
      <g>
        <path class="cls-1" d="M528.55,524.88c-2.85-.36-7.22-.7-12.48-.2-11.77,1.12-14.36,5.16-23.56,4.92-7.86-.2-13.94-3.34-17.03-4.99-5.26-2.79-8.96-6.13-11.27-8.55.77,3.2,3.1,10.89,10.27,16.6,8.81,7.02,21.56,8.37,30.11,4.08,4.1-2.06,4.97-4.28,11.59-7.56,4.98-2.47,9.43-3.67,12.38-4.3Z"/>
        <path class="cls-1" d="M381.29,532.82c-1.63-7.84,1.02-15.67,6.23-21.57,5.19-6.1,11.86-10.57,18.67-14.99-2.92-.86-10.3-2.56-16.85,1.1-9.57,5.36-14.01,20.3-8.06,35.45Z"/>
        <path class="cls-1" d="M464.2,516.07c-2.02,1.83-10.68,9.25-23.59,9.02-11.62-.21-19.33-6.48-21.97-8.69-8.9-7.47-11.64-16.85-12.44-20.13-2.13,11.03,2.63,23.33,11.4,30.58,7.4,6.07,17.43,9.97,27.08,8.02,9.37-1.81,17.73-9.38,19.53-18.8Z"/>
      </g>
      <g>
        <path class="cls-1" d="M528.55,524.88c-1.74-2.29-4.22-5.91-6.42-10.71-4.91-10.75-2.72-15.01-7.51-22.86-4.1-6.71-9.87-10.4-12.83-12.26-5.05-3.16-9.79-4.7-13.04-5.49,3.15-.94,10.98-2.76,19.51.6,10.49,4.12,18.03,14.49,18.59,24.04.27,4.58-1.22,6.45-.76,13.82.35,5.54,1.54,10,2.46,12.87Z"/>
        <path class="cls-1" d="M461.8,393.38c-7.6,2.51-13.06,8.72-15.56,16.18-2.69,7.55-3.22,15.55-3.64,23.67-2.2-2.1-7.37-7.64-7.47-15.14-.15-10.96,10.57-22.28,26.67-24.71Z"/>
        <path class="cls-1" d="M488.75,473.56c.57-2.66,2.67-13.87-3.98-24.94-5.99-9.96-15.28-13.5-18.51-14.68-10.92-3.98-20.41-1.66-23.65-.71,8.48-7.36,21.52-9.39,32.18-5.42,8.96,3.37,17.35,10.11,20.48,19.44,3.11,9.02.74,20.04-6.51,26.31Z"/>
      </g>
    </g>
    <g>
      <g>
        <path class="cls-1" d="M547.55,535.85c-6.35-6.94-10.21-16.44-9.74-25.98.52-4.93,1.35-9.59-.14-14.35-3.49-13.01-14.71-23.48-27.95-26.16-3.86-.9-7.89-1.21-11.99-1.09,3.93-1.2,8.14-1.56,12.33-1.29,17.39.91,32.8,16.42,33.12,33.95.03,4.3-1.46,8.04-1.55,12.16-.3,7.93,2.17,15.7,5.91,22.76h0Z"/>
        <path class="cls-1" d="M497.74,468.27c5.78-8.29,7.18-19.13,3.35-28.39-3.7-9.01-12.07-15.46-20.87-19.22-11.26-4.6-23.79-3.71-34.9,1.8,6.37-5.44,14.97-8.49,23.69-8.44,15.02.05,31.1,9.83,36.13,24.36,3.54,10.24.84,22.76-7.4,29.88h0Z"/>
      </g>
      <g>
        <path class="cls-1" d="M547.55,535.85c-7.99.31-15.95,2.08-22.68,6.3-3.52,2.14-6.03,5.27-9.76,7.41-15.3,8.61-36.5,2.9-45.98-11.68-2.33-3.49-4.12-7.32-5.05-11.33,1.94,3.61,4.23,6.95,6.94,9.84,10.08,11.41,28.01,15.96,41.82,9.11,3.42-1.8,6.51-5,10.15-6.68,7.55-3.85,16.39-4.74,24.55-2.98h0Z"/>
        <path class="cls-1" d="M464.09,526.56c-1.63,8.46-7.95,15.74-15.85,19.29-16.43,7.55-36.81-2.19-45.49-17.05-4.41-7.52-6.07-16.5-4.54-24.73.79,12.38,6.27,23.68,15.89,31.13,7.65,5.74,17.43,9.76,27.08,8.46,9.93-1.31,18.62-7.95,22.91-17.1h0Z"/>
      </g>
    </g>
  </g>
  <g>
    <g>
      <path class="cls-1" d="M497.74,228.03c1.1-2.94,2.23-5.95,2.5-9.85.09-1.25.06-2.21-.8-8.32-1.43-10.28-2.08-12.81-.97-16.35.79-2.51,2.08-4.32,2.92-5.36-2.26,1.83-3.97,3.69-5.27,5.44,2.1-3.56,4.28-4.91,5.27-5.44,1.88-1.01,3.68-1.34,4.88-1.45-1.51-.66-4.25-1.58-7.27-.83-4.83,1.19-7.37,5.85-9.31,9.41-1.15,2.11-2.01,4.74-3.72,9.98-1.36,4.14-2.07,6.77-2.41,7.89-1.67,5.49-6.4,14.73-15.32,20.01-8.22,4.86-16.71,4.42-21.18,4.19-7.2-.37-8.97-2.25-16.28-3.07-8.4-.94-15.63.46-20.84,2.03,7.78-1.64,13.63-.55,16.83.34,4.12,1.14,7.55,2.99,9.34,3.96,5.49,2.99,6.17,4.63,10.21,6.51,4.75,2.21,9.01,2.36,12.04,2.46,4.07.14,11.57.4,18.71-4.18,7.8-5.01,10.64-12.89,12.01-16.72,1.21-3.38,1.82-6.57,2.31-10.48,0,0,0,0,0,0,.02,1.16.04,3.01-.06,4.72-.1,1.66-.41,6-2.47,10.73-1.9,4.37-4.45,7.11-6.18,8.94-4.63,4.89-9.76,7.66-13.58,9.22,3.49-.07,9.69-.76,15.47-4.82,4.62-3.24,7.17-7.37,9.09-10.46,2.22-3.59,3.39-6.67,4.07-8.48Z"/>
      <path class="cls-1" d="M375.92,157.7c1.99-2.42,4.04-4.91,7.28-7.09,1.04-.7,1.89-1.15,7.6-3.47,9.62-3.9,12.14-4.61,14.65-7.34,1.78-1.93,2.7-3.96,3.18-5.21-.45,2.87-1.21,5.28-2.08,7.28,2.03-3.6,2.11-6.17,2.08-7.28-.07-2.14-.68-3.85-1.18-4.96,1.33.98,3.49,2.89,4.36,5.88,1.39,4.78-1.38,9.31-3.5,12.77-1.26,2.05-3.1,4.11-6.78,8.22-2.91,3.25-4.82,5.18-5.62,6.03-3.92,4.19-9.56,12.9-9.66,23.27-.1,9.55,4.53,16.68,6.96,20.43,3.92,6.05,6.43,6.65,10.79,12.57,5.02,6.81,7.42,13.77,8.67,19.06-2.47-7.56-6.33-12.08-8.7-14.41-3.05-2.99-6.36-5.04-8.1-6.1-5.33-3.26-7.09-3.03-10.74-5.59-4.29-3.01-6.55-6.62-8.15-9.19-2.16-3.45-6.13-9.82-5.73-18.3.44-9.26,5.84-15.66,8.47-18.76,2.32-2.74,4.78-4.86,7.92-7.24,0,0,0,0,0,0-1.02.57-2.63,1.47-4.06,2.41-1.39.92-4.99,3.35-8.06,7.5-2.83,3.83-3.93,7.41-4.65,9.82-1.92,6.46-1.75,12.28-1.2,16.37-1.69-3.06-4.18-8.77-3.56-15.81.5-5.62,2.79-9.9,4.52-13.1,2-3.71,4.08-6.27,5.31-7.77Z"/>
    </g>
    <g>
      <path class="cls-1" d="M109.79,222.86c-1.1-2.94-2.23-5.95-2.5-9.85-.09-1.25-.06-2.21.8-8.32,1.43-10.28,2.08-12.81.97-16.35-.79-2.51-2.08-4.32-2.92-5.36,2.26,1.83,3.97,3.69,5.27,5.44-2.1-3.56-4.28-4.91-5.27-5.44-1.88-1.01-3.68-1.34-4.88-1.45,1.51-.66,4.25-1.58,7.27-.83,4.83,1.19,7.37,5.85,9.31,9.41,1.15,2.11,2.01,4.74,3.72,9.98,1.36,4.14,2.07,6.77,2.41,7.89,1.67,5.49,6.4,14.73,15.32,20.01,8.22,4.86,16.71,4.42,21.18,4.19,7.2-.37,8.97-2.25,16.28-3.07,8.4-.94,15.63.46,20.84,2.03-7.78-1.64-13.63-.55-16.83.34-4.12,1.14-7.55,2.99-9.34,3.96-5.49,2.99-6.17,4.63-10.21,6.51-4.75,2.21-9.01,2.36-12.04,2.46-4.07.14-11.57.4-18.71-4.18-7.8-5.01-10.64-12.89-12.01-16.72-1.21-3.38-1.82-6.57-2.31-10.48,0,0,0,0,0,0-.02,1.16-.04,3.01.06,4.72.1,1.66.41,6,2.47,10.73,1.9,4.37,4.45,7.11,6.18,8.94,4.63,4.89,9.76,7.66,13.58,9.22-3.49-.07-9.69-.76-15.47-4.82-4.62-3.24-7.17-7.37-9.09-10.46-2.22-3.59-3.39-6.67-4.07-8.48Z"/>
      <path class="cls-1" d="M231.6,152.53c-1.99-2.42-4.04-4.91-7.28-7.09-1.04-.7-1.89-1.15-7.6-3.47-9.62-3.9-12.14-4.61-14.65-7.34-1.78-1.93-2.7-3.96-3.18-5.21.45,2.87,1.21,5.28,2.08,7.28-2.03-3.6-2.11-6.17-2.08-7.28.07-2.14.68-3.85,1.18-4.96-1.33.98-3.49,2.89-4.36,5.88-1.39,4.78,1.38,9.31,3.5,12.77,1.26,2.05,3.1,4.11,6.78,8.22,2.91,3.25,4.82,5.18,5.62,6.03,3.92,4.19,9.56,12.9,9.66,23.27.1,9.55-4.53,16.68-6.96,20.43-3.92,6.05-6.43,6.65-10.79,12.57-5.02,6.81-7.42,13.77-8.67,19.06,2.47-7.56,6.33-12.08,8.7-14.41,3.05-2.99,6.36-5.04,8.1-6.1,5.33-3.26,7.09-3.03,10.74-5.59,4.29-3.01,6.55-6.62,8.15-9.19,2.16-3.45,6.13-9.82,5.73-18.3-.44-9.26-5.84-15.66-8.47-18.76-2.32-2.74-4.78-4.86-7.92-7.24,0,0,0,0,0,0,1.02.57,2.63,1.47,4.06,2.41,1.39.92,4.99,3.35,8.06,7.5,2.83,3.83,3.93,7.41,4.65,9.82,1.92,6.46,1.75,12.28,1.2,16.37,1.69-3.06,4.18-8.77,3.56-15.81-.5-5.62-2.79-9.9-4.52-13.1-2-3.71-4.08-6.27-5.31-7.77Z"/>
    </g>
  </g>
  <g>
    <g>
      <path class="cls-1" d="M542.2,451.15c3.09-.51,6.27-1.04,9.78-2.76,1.13-.55,1.94-1.06,6.8-4.85,8.19-6.38,10.06-8.21,13.68-9.01,2.56-.57,4.78-.36,6.1-.15-2.71-1.05-5.18-1.59-7.34-1.84,4.14.04,6.4,1.25,7.34,1.84,1.82,1.13,3,2.52,3.7,3.5-.18-1.64-.76-4.47-2.91-6.71-3.44-3.59-8.76-3.46-12.8-3.36-2.41.06-5.11.63-10.51,1.77-4.27.9-6.89,1.59-8.03,1.85-5.59,1.3-15.95,1.82-24.99-3.27-8.32-4.69-12.18-12.26-14.22-16.25-3.28-6.42-2.54-8.89-5.49-15.63-3.39-7.75-8.22-13.31-12.17-17.03,5.31,5.92,7.29,11.52,8.12,14.74,1.07,4.14,1.18,8.03,1.24,10.07.16,6.25-.92,7.66-.53,12.1.46,5.22,2.46,8.98,3.88,11.66,1.91,3.59,5.44,10.22,12.98,14.11,8.24,4.25,16.48,2.77,20.48,2.05,3.53-.64,6.6-1.71,10.23-3.24,0,0,0,0,0,0-1,.6-2.58,1.54-4.12,2.31-1.49.74-5.4,2.65-10.53,3.23-4.74.54-8.39-.3-10.83-.88-6.55-1.57-11.51-4.63-14.78-7.15,1.81,2.99,5.5,8.01,11.91,10.99,5.12,2.38,9.97,2.53,13.61,2.64,4.21.13,7.47-.4,9.38-.71Z"/>
      <path class="cls-1" d="M542.2,310.49c3.09.51,6.27,1.04,9.78,2.76,1.13.55,1.94,1.06,6.8,4.85,8.19,6.38,10.06,8.21,13.68,9.01,2.56.57,4.78.36,6.1.15-2.71,1.05-5.18,1.59-7.34,1.84,4.14-.04,6.4-1.25,7.34-1.84,1.82-1.13,3-2.52,3.7-3.5-.18,1.64-.76,4.47-2.91,6.71-3.44,3.59-8.76,3.46-12.8,3.36-2.41-.06-5.11-.63-10.51-1.77-4.27-.9-6.89-1.59-8.03-1.85-5.59-1.3-15.95-1.82-24.99,3.27-8.32,4.69-12.18,12.26-14.22,16.25-3.28,6.42-2.54,8.89-5.49,15.63-3.39,7.75-8.22,13.31-12.17,17.03,5.31-5.92,7.29-11.52,8.12-14.74,1.07-4.14,1.18-8.03,1.24-10.07.16-6.25-.92-7.66-.53-12.1.46-5.22,2.46-8.98,3.88-11.66,1.91-3.59,5.44-10.22,12.98-14.11,8.24-4.25,16.48-2.77,20.48-2.05,3.53.64,6.6,1.71,10.23,3.24,0,0,0,0,0,0-1-.6-2.58-1.54-4.12-2.31-1.49-.74-5.4-2.65-10.53-3.23-4.74-.54-8.39.3-10.83.88-6.55,1.57-11.51,4.63-14.78,7.15,1.81-2.99,5.5-8.01,11.91-10.99,5.12-2.38,9.97-2.53,13.61-2.64,4.21-.13,7.47.4,9.38.71Z"/>
    </g>
    <g>
      <path class="cls-1" d="M465.72,573.26c1.1,2.94,2.23,5.95,2.5,9.85.09,1.25.06,2.21-.8,8.32-1.43,10.28-2.08,12.81-.97,16.35.79,2.51,2.08,4.32,2.92,5.36-2.26-1.83-3.97-3.69-5.27-5.44,2.1,3.56,4.28,4.91,5.27,5.44,1.88,1.01,3.68,1.34,4.88,1.45-1.51.66-4.25,1.58-7.27.83-4.83-1.19-7.37-5.85-9.31-9.41-1.15-2.11-2.01-4.74-3.72-9.98-1.36-4.14-2.07-6.77-2.41-7.89-1.67-5.49-6.4-14.73-15.32-20.01-8.22-4.86-16.71-4.42-21.18-4.19-7.2.37-8.97,2.25-16.28,3.07-8.4.94-15.63-.46-20.84-2.03,7.78,1.64,13.63.55,16.83-.34,4.12-1.14,7.55-2.99,9.34-3.96,5.49-2.99,6.17-4.63,10.21-6.51,4.75-2.21,9.01-2.36,12.04-2.46,4.07-.14,11.57-.4,18.71,4.18,7.8,5.01,10.64,12.89,12.01,16.72,1.21,3.38,1.82,6.57,2.31,10.48,0,0,0,0,0,0,.02-1.16.04-3.01-.06-4.72-.1-1.66-.41-6-2.47-10.73-1.9-4.37-4.45-7.11-6.18-8.94-4.63-4.89-9.76-7.66-13.58-9.22,3.49.07,9.69.76,15.47,4.82,4.62,3.24,7.17,7.37,9.09,10.46,2.22,3.59,3.39,6.67,4.07,8.48Z"/>
      <path class="cls-1" d="M343.9,643.59c1.99,2.42,4.04,4.91,7.28,7.09,1.04.7,1.89,1.15,7.6,3.47,9.62,3.9,12.14,4.61,14.65,7.34,1.78,1.93,2.7,3.96,3.18,5.21-.45-2.87-1.21-5.28-2.08-7.28,2.03,3.6,2.11,6.17,2.08,7.28-.07,2.14-.68,3.85-1.18,4.96,1.33-.98,3.49-2.89,4.36-5.88,1.39-4.78-1.38-9.31-3.5-12.77-1.26-2.05-3.1-4.11-6.78-8.22-2.91-3.25-4.82-5.18-5.62-6.03-3.92-4.19-9.56-12.9-9.66-23.27-.1-9.55,4.53-16.68,6.96-20.43,3.92-6.05,6.43-6.65,10.79-12.57,5.02-6.81,7.42-13.77,8.67-19.06-2.47,7.56-6.33,12.08-8.7,14.41-3.05,2.99-6.36,5.04-8.1,6.1-5.33,3.26-7.09,3.03-10.74,5.59-4.29,3.01-6.55,6.62-8.15,9.19-2.16,3.45-6.13,9.82-5.73,18.3.44,9.26,5.84,15.66,8.47,18.76,2.32,2.74,4.78,4.86,7.92,7.24,0,0,0,0,0,0-1.02-.57-2.63-1.47-4.06-2.41-1.39-.92-4.99-3.35-8.06-7.5-2.83-3.83-3.93-7.41-4.65-9.82-1.92-6.46-1.75-12.28-1.2-16.37-1.69,3.06-4.18,8.77-3.56,15.81.5,5.62,2.79,9.9,4.52,13.1,2,3.71,4.08,6.27,5.31,7.77Z"/>
    </g>
  </g>
  <g>
    <g>
      <path class="cls-1" d="M59.9,442.98c-3.09-.51-6.27-1.04-9.78-2.76-1.13-.55-1.94-1.06-6.8-4.85-8.19-6.38-10.06-8.21-13.68-9.01-2.56-.57-4.78-.36-6.1-.15,2.71-1.05,5.18-1.59,7.34-1.84-4.14.04-6.4,1.25-7.34,1.84-1.82,1.13-3,2.52-3.7,3.5.18-1.64.76-4.47,2.91-6.71,3.44-3.59,8.76-3.46,12.8-3.36,2.41.06,5.11.63,10.51,1.77,4.27.9,6.89,1.59,8.03,1.85,5.59,1.3,15.95,1.82,24.99-3.27,8.32-4.69,12.18-12.26,14.22-16.25,3.28-6.42,2.54-8.89,5.49-15.63,3.39-7.75,8.22-13.31,12.17-17.03-5.31,5.92-7.29,11.52-8.12,14.74-1.07,4.14-1.18,8.03-1.24,10.07-.16,6.25.92,7.66.53,12.1-.46,5.22-2.46,8.98-3.88,11.66-1.91,3.59-5.44,10.22-12.98,14.11-8.24,4.25-16.48,2.77-20.48,2.05-3.53-.64-6.6-1.71-10.23-3.24,0,0,0,0,0,0,1,.6,2.58,1.54,4.12,2.31,1.49.74,5.4,2.65,10.53,3.23,4.74.54,8.39-.3,10.83-.88,6.55-1.57,11.51-4.63,14.78-7.15-1.81,2.99-5.5,8.01-11.91,10.99-5.12,2.38-9.97,2.53-13.61,2.64-4.21.13-7.47-.4-9.38-.71Z"/>
      <path class="cls-1" d="M59.9,302.32c-3.09.51-6.27,1.04-9.78,2.76-1.13.55-1.94,1.06-6.8,4.85-8.19,6.38-10.06,8.21-13.68,9.01-2.56.57-4.78.36-6.1.15,2.71,1.05,5.18,1.59,7.34,1.84-4.14-.04-6.4-1.25-7.34-1.84-1.82-1.13-3-2.52-3.7-3.5.18,1.64.76,4.47,2.91,6.71,3.44,3.59,8.76,3.46,12.8,3.36,2.41-.06,5.11-.63,10.51-1.77,4.27-.9,6.89-1.59,8.03-1.85,5.59-1.3,15.95-1.82,24.99,3.27,8.32,4.69,12.18,12.26,14.22,16.25,3.28,6.42,2.54,8.89,5.49,15.63,3.39,7.75,8.22,13.31,12.17,17.03-5.31-5.92-7.29-11.52-8.12-14.74-1.07-4.14-1.18-8.03-1.24-10.07-.16-6.25.92-7.66.53-12.1-.46-5.22-2.46-8.98-3.88-11.66-1.91-3.59-5.44-10.22-12.98-14.11-8.24-4.25-16.48-2.77-20.48-2.05-3.53.64-6.6,1.71-10.23,3.24,0,0,0,0,0,0,1-.6,2.58-1.54,4.12-2.31,1.49-.74,5.4-2.65,10.53-3.23,4.74-.54,8.39.3,10.83.88,6.55,1.57,11.51,4.63,14.78,7.15-1.81-2.99-5.5-8.01-11.91-10.99-5.12-2.38-9.97-2.53-13.61-2.64-4.21-.13-7.47.4-9.38.71Z"/>
    </g>
    <g>
      <path class="cls-1" d="M245.6,642.86c-1.99,2.42-4.04,4.91-7.28,7.09-1.04.7-1.89,1.15-7.6,3.47-9.62,3.9-12.14,4.61-14.65,7.34-1.78,1.93-2.7,3.96-3.18,5.21.45-2.87,1.21-5.28,2.08-7.28-2.03,3.6-2.11,6.17-2.08,7.28.07,2.14.68,3.85,1.18,4.96-1.33-.98-3.49-2.89-4.36-5.88-1.39-4.78,1.38-9.31,3.5-12.77,1.26-2.05,3.1-4.11,6.78-8.22,2.91-3.25,4.82-5.18,5.62-6.03,3.92-4.19,9.56-12.9,9.66-23.27.1-9.55-4.53-16.68-6.96-20.43-3.92-6.05-6.43-6.65-10.79-12.57-5.02-6.81-7.42-13.77-8.67-19.06,2.47,7.56,6.33,12.08,8.7,14.41,3.05,2.99,6.36,5.04,8.1,6.1,5.33,3.26,7.09,3.03,10.74,5.59,4.29,3.01,6.55,6.62,8.15,9.19,2.16,3.45,6.13,9.82,5.73,18.3-.44,9.26-5.84,15.66-8.47,18.76-2.32,2.74-4.78,4.86-7.92,7.24,0,0,0,0,0,0,1.02-.57,2.63-1.47,4.06-2.41,1.39-.92,4.99-3.35,8.06-7.5,2.83-3.83,3.93-7.41,4.65-9.82,1.92-6.46,1.75-12.28,1.2-16.37,1.69,3.06,4.18,8.77,3.56,15.81-.5,5.62-2.79,9.9-4.52,13.1-2,3.71-4.08,6.27-5.31,7.77Z"/>
      <path class="cls-1" d="M123.79,572.54c-1.1,2.94-2.23,5.95-2.5,9.85-.09,1.25-.06,2.21.8,8.32,1.43,10.28,2.08,12.81.97,16.35-.79,2.51-2.08,4.32-2.92,5.36,2.26-1.83,3.97-3.69,5.27-5.44-2.1,3.56-4.28,4.91-5.27,5.44-1.88,1.01-3.68,1.34-4.88,1.45,1.51.66,4.25,1.58,7.27.83,4.83-1.19,7.37-5.85,9.31-9.41,1.15-2.11,2.01-4.74,3.72-9.98,1.36-4.14,2.07-6.77,2.41-7.89,1.67-5.49,6.4-14.73,15.32-20.01,8.22-4.86,16.71-4.42,21.18-4.19,7.2.37,8.97,2.25,16.28,3.07,8.4.94,15.63-.46,20.84-2.03-7.78,1.64-13.63.55-16.83-.34-4.12-1.14-7.55-2.99-9.34-3.96-5.49-2.99-6.17-4.63-10.21-6.51-4.75-2.21-9.01-2.36-12.04-2.46-4.07-.14-11.57-.4-18.71,4.18-7.8,5.01-10.64,12.89-12.01,16.72-1.21,3.38-1.82,6.57-2.31,10.48,0,0,0,0,0,0-.02-1.16-.04-3.01.06-4.72.1-1.66.41-6,2.47-10.73,1.9-4.37,4.45-7.11,6.18-8.94,4.63-4.89,9.76-7.66,13.58-9.22-3.49.07-9.69.76-15.47,4.82-4.62,3.24-7.17,7.37-9.09,10.46-2.22,3.59-3.39,6.67-4.07,8.48Z"/>
    </g>
  </g>
  <g>
    <path d="M251.12,390.36h.6c-.1,1.09.24,2.28.1,3.36-.07.6-.7.32-.7.2v-3.55Z"/>
    <path d="M304.43,444.68v-.6c.47.13,3.57-.23,3.7-.1.04.04.02.7-.15.7h-3.55Z"/>
    <path d="M274.48,433.97c.18-.04,2.68,1.8,3.03,2.05-.23.22-.19.55-.55.36-.94-.52-1.87-1.33-2.8-1.91-.05-.07.26-.49.31-.5Z"/>
    <path d="M301.83,337.05s.01.57-.01.59c-.12.14-3.09.31-3.53.42-.07-.01-.15-.38-.16-.47-.04-.33.77-.21,1.05-.24.35-.04,2.56-.4,2.65-.3Z"/>
    <path d="M285.22,441.18c-.02.16-.11.62-.33.58l-3.26-1.54.2-.45c.17-.12,2.93,1.3,3.39,1.4Z"/>
    <path d="M337.7,348.96c.18-.04,2.47,2.01,2.82,2.24-.06.13-.21.42-.34.44-.19.04-2.36-1.91-2.74-2.14-.23-.13.14-.52.27-.55Z"/>
    <path d="M354.7,406.68c.09-.02.52.14.53.24l-1.11,3.19c-.07.33-.65.07-.66-.08.2-.39,1.06-3.31,1.24-3.35Z"/>
    <path d="M282.01,437.19c.09.13-.14.7-.39.55l-2.9-1.61c-.23-.18.11-.41.1-.65l3.19,1.71Z"/>
    <path d="M352.73,415.78c.06.08-.03.27-.07.36-.45.96-1.18,1.97-1.67,2.92l-.44-.2c-.05-.14,0-.26.04-.38.37-.91,1.19-1.88,1.6-2.81,0-.15.52.08.54.11Z"/>
    <path d="M258.22,366.96l1.71-3.19c.12-.08.71.14.55.4l-1.61,2.9c-.18.23-.41-.11-.65-.1Z"/>
    <path d="M357.24,397.87l-.51,3.44c-.08.26-.68.25-.68-.08l.6-3.46.6.1Z"/>
    <path d="M252.22,398.77h-.6s-.41-3.54-.41-3.54c0-.14.75-.3.71.09l.3,3.45Z"/>
    <path d="M348.29,424.07c.17.17.46.33.3.6l-2.2,2.58c-.08,0-.43-.24-.43-.33-.01-.18,2.03-2.52,2.33-2.85Z"/>
    <path d="M350.33,362.56l1.81,3.19-.59.2-1.77-2.99c-.06-.17.46-.47.55-.4Z"/>
    <path d="M340.39,429.28c.09,0,.54.49.26.65l-2.41,2.1c-.17.19-.63-.22-.55-.35l2.7-2.4Z"/>
    <path d="M253.02,403.27l-.6.1-.68-3.48c-.01-.31.58-.33.67-.06l.62,3.43Z"/>
    <path d="M257.51,372.56c.16.18-1.01,3.03-1.1,3.49l-.59-.1,1.11-3.34c.01-.22.56-.09.59-.05Z"/>
    <path d="M308.13,445.18v.6c-1.21-.07-2.4.13-3.6.1v-.7h3.6Z"/>
    <path d="M359.24,388.76h.6s.11,3.54.11,3.54l-.6.16c.03-.1-.1-.22-.1-.25v-3.45Z"/>
    <path d="M290.43,440.58c.04.05-.14.66-.35.6l-3.25-1.11s0-.67.24-.59c.4.22,3.25.96,3.36,1.1Z"/>
    <path d="M343.69,355.98c.17.01,1.94,2.33,2.3,2.58.12.12-.14.4-.26.46-.2.1-.42-.21-.55-.35-.66-.7-1.21-1.52-1.9-2.2-.16-.17.29-.48.41-.48Z"/>
    <path d="M256.91,371.35c-.11.08-.61-.11-.58-.33l1.4-3.16c.18-.04.6.1.58.33l-1.4,3.16Z"/>
    <path d="M320.88,341.57l3.26,1.13c.16.1.02.44-.05.55-.1.15-.12.05-.22.03-1.04-.26-2.08-.8-3.13-1.08-.22-.11,0-.62.15-.63Z"/>
    <path d="M332.23,347.25c-.07.05-.21-.01-.29-.05-1-.45-1.97-1.23-3-1.65.09-.15.15-.37.25-.5.14-.17.09-.05.2,0,.97.48,1.88,1.08,2.85,1.56.3.02.05.61,0,.64Z"/>
    <path d="M334.5,345.36c.21-.04,2.68,1.76,3.03,2.04-.12.09-.19.33-.29.41-.14.11-2.68-1.79-3.06-1.95-.07-.1.2-.47.32-.49Z"/>
    <path d="M270.53,431.66c-.08-.11.22-.51.34-.58l2.85,2.34c-.17.17-.33.46-.6.3l-2.59-2.06Z"/>
    <path d="M270.17,431.98c.17,0,2.3,2,2.71,2.19.15.27-.14.43-.31.6l-2.7-2.2c-.2-.15.23-.6.3-.6Z"/>
    <path d="M273.11,350.66s.3.5.12.55c-.82.64-1.62,1.57-2.46,2.15-.3.21-.41-.14-.51-.4.83-.63,1.59-1.47,2.41-2.1.09-.07.35-.26.44-.19Z"/>
    <path d="M348.95,423.36c-.07-.09.02-.26.06-.36.4-.85,1.35-1.75,1.77-2.63.3-.3.7.16.47.47-.66.7-1.16,1.96-1.78,2.63-.14.15-.47-.02-.53-.11Z"/>
    <path d="M315.42,340.26c.04.06.02.33.01.44,0,.16.04.16-.15.15-1.04-.07-2.22-.44-3.28-.52-.25-.06-.23-.63,0-.67.42.15,3.33.45,3.43.6Z"/>
    <path d="M272.18,349.76c.16-.04.45.36.39.49l-2.5,2.2c-.2.24-.62-.21-.51-.41l2.62-2.29Z"/>
    <path d="M263.91,423.76s-.49.27-.58.2c-.11-.48-1.99-2.64-1.99-2.84,0-.1.35-.4.52-.34.16.05,1.78,2.37,1.95,2.66.05.08.16.25.11.32Z"/>
    <path d="M346.4,422.68c.12-.03.54.28.54.34,0,.17-1.97,2.24-2.14,2.66-.27.24-.46-.05-.65-.26l2.26-2.74Z"/>
    <path d="M265.52,423.67s.02.16.1.25c.28.33,2.2,2.34,2.2,2.5,0,.1-.5.54-.65.26l-2.1-2.51c-.14-.17.34-.58.45-.49Z"/>
    <path d="M290.02,441.68c.03.19-.09.6-.33.58l-3.27-1.09.11-.6c.18-.15,3.03,1.03,3.49,1.1Z"/>
    <path d="M266.81,357.17c.1.15-.15.45-.25.58-.59.81-1.39,1.59-1.99,2.4-.21-.23-.57-.2-.35-.54.57-.89,1.52-1.7,2.1-2.61.05-.1.47.15.49.17Z"/>
    <path d="M354.74,411.57c.11.14-1.34,2.86-1.45,3.3-.04.14-.52-.09-.54-.11-.13-.17,1.31-2.94,1.4-3.39l.6.2Z"/>
    <path d="M285.43,343.95l-.2-.6,3.35-1.29c.14.1.29.37.24.53-.06.2-2.96,1.19-3.39,1.36Z"/>
    <path d="M333.54,344.65l-.2.6c-1.08-.51-2.2-1.11-3.19-1.76-.04-.13.14-.52.24-.52.31-.02,2.58,1.62,3.15,1.69Z"/>
    <path d="M264.67,355.46c.17.17.46.33.3.6l-2.1,2.51c-.1.18-.53-.16-.53-.26-.01-.18,2.04-2.51,2.33-2.85Z"/>
    <path d="M326.03,439.88c.06.04.2.65-.06.69l-3.24,1.21c.02-.23-.22-.48,0-.65.44-.07,3.16-1.35,3.3-1.25Z"/>
    <path d="M252.72,380.96l-.51,3.44c-.01.21-.65.2-.69.16-.13-.12.59-2.97.52-3.43.08-.26.46-.15.68-.17Z"/>
    <path d="M356.64,378.86l-.98-3.46c.01-.12.63-.38.66-.07l.91,3.2c.02.27-.42.22-.59.33Z"/>
    <polygon points="252.02 385.66 251.82 389.26 251.12 389.26 251.42 385.67 252.02 385.66"/>
    <path d="M333.54,346.85c-.07-.1.27-.5.35-.6.76.71,2.08,1.22,2.8,1.9.28.26,0,.66-.28.59l-2.87-1.89Z"/>
    <path d="M267.88,352.06c.13-.03.53.34.39.49-.38.23-2.33,2.5-2.51,2.5-.04,0-.4-.31-.3-.5.12-.24,2.25-2.46,2.42-2.5Z"/>
    <path d="M342.03,431.08s.18.35.19.37c.06.26-2.23,1.99-2.54,2.33-.18.31-.55-.32-.51-.4.8-.6,1.52-1.41,2.31-2,.1-.08.45-.37.54-.3Z"/>
    <path d="M253.1,385.78c.19.28-.24,3.04-.19,3.59h-.6s.21-3.54.21-3.54c.03-.24.5-.15.57-.05Z"/>
    <path d="M358.33,398.07c.13.15-.57,3.12-.49,3.59-.61.06-.63-.1-.6-.65.06-.96.46-2.06.5-3.05.1,0,.57.08.59.11Z"/>
    <path d="M358.15,393.37c.14-.12.71.01.6.34-.09.66-.17,1.34-.21,2-.02.28.08,1.19-.09,1.31s-.61.08-.6-.2c.19-.46.12-3.29.3-3.45Z"/>
    <path d="M338.4,348.06c.1-.02.33.18.43.25.64.46,1.64,1.26,2.21,1.79.28.27.11.58-.17.65-.17.04-2.38-1.99-2.79-2.19-.07-.1.22-.47.32-.49Z"/>
    <path d="M358.64,379.46c-.02.51.78,3.37.59,3.59-.11.13-.49.16-.59-.14-.14-.41-.6-2.72-.61-3.1,0-.41.26-.36.6-.34Z"/>
    <path d="M358.14,383.26l-.6.1-.7-3.6c.2-.03.52-.22.65,0l.64,3.5Z"/>
    <path d="M254.12,403.07h-.54s-.74-3.46-.74-3.46c.23-.18.58-.37.68,0,.28,1.09.4,2.33.6,3.45Z"/>
    <path d="M329.13,343.05l-3.2-1.45c-.22-.13,0-.66.2-.61l3.1,1.41c.23.18-.11.41-.1.65Z"/>
    <path d="M341.09,430.18c.15-.03.44.43.4.5l-2.5,2.21c-.19.24-.62-.19-.51-.41l2.61-2.3Z"/>
    <path d="M268.68,352.86c.13-.03.53.34.39.49-.82.58-1.53,1.87-2.3,2.41-.28.19-.61-.22-.51-.41.49-.27,2.11-2.43,2.42-2.49Z"/>
    <path d="M345.2,427.78c.11-.02.43.31.43.34s-.37.47-.44.55c-.35.4-1.53,1.65-1.9,1.9-.34.23-.66-.11-.51-.4.42-.28,2.15-2.34,2.42-2.4Z"/>
    <path d="M280.41,345.87s.32.49.11.53c-.41.15-2.93,1.86-3.09,1.74-.07-.05-.32-.54-.06-.6.85-.45,1.7-1.13,2.55-1.55.12-.06.37-.22.49-.13Z"/>
    <path d="M344.39,426.87l.45.45c-.91.78-1.6,1.85-2.55,2.55l-.45-.35,2.55-2.65Z"/>
    <path d="M284.12,343.34l-3.16,1.49c-.14.07-.3-.36-.32-.45-.06-.19.03-.11.11-.16.98-.55,2.04-.96,3.04-1.47.21-.03.4.47.33.58Z"/>
    <path d="M288.32,341.06s.17.58-.05.58l-3.11,1.2c-.21.07-.36-.57-.33-.59.02-.01.2-.01.3-.05.8-.33,1.93-.86,2.72-1.08.11-.03.41-.12.48-.06Z"/>
    <path d="M339.73,351.97c.06.09-.17.57-.19.59-.09.06-.39-.19-.49-.26-.81-.57-1.51-1.31-2.32-1.89-.18-.2.14-.73.41-.5l2.59,2.06Z"/>
    <path d="M261.67,359.16l.41.3v.21c-.66.81-1.17,1.89-1.82,2.69-.26.33-.5.09-.63-.22l2.04-2.97Z"/>
    <path d="M359.54,398.27l-.6,3.6c-.1,0-.57-.08-.59-.11-.12-.14.49-3.15.58-3.55.17-.13.42.04.61.06Z"/>
    <path d="M308.13,442.88v.6c-.82.02-1.64-.03-2.46,0-.34.01-.74.2-1.08.09-.29-.1-.16-.69-.01-.69h3.55Z"/>
    <path d="M354.65,369.55l-1.49-3.07c-.19-.17.37-.42.43-.42.18.01,1.38,2.8,1.64,3.16.03.21-.47.4-.58.33Z"/>
    <path d="M292.43,338.55s.16.61,0,.65c-.45.02-3.26,1.05-3.4.95-.04-.03-.19-.59,0-.65.45.03,3.3-1.09,3.4-.95Z"/>
    <path d="M254.62,408.77l1.29,3.35c-.22.19-.5.36-.67.08-.51-.87-.7-2.27-1.22-3.18l.59-.25Z"/>
    <path d="M358.34,378.36s-.56.19-.61.05l-.97-3.3c.01-.15.59-.4.66-.08.02.43,1.01,3.19.91,3.33Z"/>
    <path d="M271.39,348.96c.27-.07.58.3.34.55l-2.31,1.99c-.26.27-.57.09-.65-.24l2.62-2.29Z"/>
    <path d="M330.23,437.98s.15.51.1.58c-.02.02-.44.13-.56.19-.67.31-1.69.98-2.33,1.17-.46.14-.6-.1-.4-.5.89-.31,1.94-1.14,2.8-1.4.11-.03.31-.09.39-.04Z"/>
    <path d="M349.14,362.06l-1.96-2.8c-.07-.21.27-.69.55-.34.66.81,1.23,1.8,1.88,2.63.12.19-.34.59-.46.5Z"/>
    <path d="M356.34,379.86l.71,3.54c0,.07-.65.28-.69-.01l-.62-3.38.6-.16Z"/>
    <path d="M259.82,367.76c-.07.05-.66-.24-.48-.43l1.73-3.07.41.3.03.13-1.69,3.07Z"/>
    <path d="M351.15,415.08c.11-.08.62.11.58.33l-1.6,2.91c-.15.32-.65.03-.57-.26l1.59-2.97Z"/>
    <path d="M257.92,416.47l-.6.2c-.26-.99-1.18-2.07-1.46-3-.12-.39.32-.61.51-.4l1.55,3.2Z"/>
    <path d="M355.74,370.36l1.18,3.17c.16.43-.24.37-.58.43l-1.19-3.27c-.13-.13.55-.36.58-.33Z"/>
    <path d="M353.64,371.26c0,.48,1.31,3.25,1.2,3.4-.03.04-.59.19-.65,0-.09-.47-1.29-3.08-1.14-3.29.03-.05.54-.15.59-.11Z"/>
    <path d="M290.83,442.57l.15-.6c1.04.36,2.26.46,3.3.8.39.13.23.41,0,.68l-3.45-.88Z"/>
    <path d="M356.94,388.76h.6c.02.85-.03,1.71,0,2.56,0,.3.22.8.06,1.05-.12.19-.66.09-.66-.06v-3.55Z"/>
    <path d="M316.53,339.95s.06-.56.11-.59c.12-.08,2.47.52,2.81.62.14.04.75.19.76.32,0,.09-.16.5-.33.45l-3.36-.8Z"/>
    <path d="M317.52,444.46c-.1.15-3.03.51-3.44.69l-.1-.07-.15-.5,3.45-.7c.26-.03.33.46.24.59Z"/>
    <path d="M294.03,341.15l-.1-.59,3.44-.69c.19.21.38.61,0,.69-1.1.23-2.24.38-3.34.6Z"/>
    <path d="M317.03,441.58l.1.6c-.44.07-3.44.8-3.59.69-.05-.03-.15-.54-.11-.59l3.6-.7Z"/>
    <polygon points="254.02 390.36 254.12 393.96 253.52 393.96 253.42 390.36 254.02 390.36"/>
    <path d="M349.33,363.16l1.81,3.19-.6.2-1.79-3.05c.07-.13.47-.42.58-.34Z"/>
    <path d="M254.9,381.38c.16.22-.45,3.09-.49,3.58-.18.03-.53.05-.58-.15l.51-3.37c.02-.25.5-.15.57-.05Z"/>
    <path d="M299.22,442.48s-.06.56-.11.59c-.15.1-3.13-.51-3.55-.59l.06-.61,3.6.6Z"/>
    <path d="M253.32,404.27c0,.5,1.03,3.3.89,3.49-.04.05-.54.15-.59.11-.11-1.04-.79-2.27-.9-3.26-.04-.37.25-.26.59-.34Z"/>
    <path d="M301.93,338.25v.6s-3.54.31-3.54.31c-.43-.7.24-.62.8-.7.35-.05,2.64-.31,2.74-.21Z"/>
    <path d="M333.84,435.17l-3.06,1.79c-.18.06-.39-.48-.33-.58l3.04-1.81.35.59Z"/>
    <path d="M359.84,393.46c.14.14-.26,3.23-.2,3.7h-.6s.2-3.7.2-3.7h.6Z"/>
    <path d="M260.37,416.17c.17.01,1.54,2.66,1.81,3,.09.29-.33.56-.61.2-.59-.76-1.01-1.91-1.62-2.69-.15-.17.34-.5.41-.5Z"/>
    <path d="M256.82,407.97l1.2,3.26c0,.25-.36.28-.55.35l-1.24-3.27c-.01-.24.39-.35.58-.33Z"/>
    <path d="M273.74,434.99c.1-.07.32.03.42.1l2.56,1.74c.21.17-.05.61-.33.53l-2.83-1.89c-.1-.06.15-.47.17-.49Z"/>
    <path d="M312.73,443.58v.6s-3.6.4-3.6.4c.07-.21-.2-.62.06-.69l3.54-.31Z"/>
    <polygon points="253.81 381.16 253.32 384.76 252.72 384.76 253.22 381.06 253.81 381.16"/>
    <path d="M254.62,399.17c-.04.61.79,3.26.56,3.61-.1.14-.39.09-.56.09,0-1.09-.54-2.31-.6-3.35-.02-.4.24-.21.6-.35Z"/>
    <path d="M280.92,439.18c.06.09-.15.63-.33.58-.88-.57-2.07-1-2.91-1.6-.31-.23-.03-.63.27-.57l2.97,1.59Z"/>
    <path d="M325.63,438.88s.15.54.11.59l-3.4,1.2-.09-.59c.98-.3,2.02-.89,2.99-1.16.11-.03.31-.1.39-.04Z"/>
    <path d="M297.12,338.25l-3.6.6v-.6c1.01-.04,2.2-.53,3.16-.6.48-.03.46.15.43.59Z"/>
    <path d="M254.41,403.97l.9,3.26c.1.33-.32.34-.59.34-.09-1.09-.8-2.32-.9-3.36-.02-.24.38-.24.59-.24Z"/>
    <polygon points="359.74 387.66 359.14 387.66 358.85 384.07 359.3 383.99 359.43 384.13 359.74 387.66"/>
    <path d="M324.64,341.65c-.11.17-.08.63-.33.59-.86-.51-2.29-.62-3.1-1.11-.23-.14-.17-.49-.06-.57.22-.16,3,1.01,3.49,1.09Z"/>
    <path d="M274.21,432.86c-.11.08-.37-.06-.48-.14-.26-.3-2.5-1.93-2.5-2.1,0-.07.44-.5.6-.3l2.56,2.15s-.16.37-.17.39Z"/>
    <path d="M322.02,442.69s.18.58-.06.57l-3.33.91-.1-.59c.48-.05,3.3-1.07,3.49-.9Z"/>
    <path d="M306.53,338.05v.6c-1.19.17-2.4.08-3.6.1v-.6s3.6-.1,3.6-.1Z"/>
    <path d="M259.37,416.78c.17.01,1.54,2.64,1.83,2.97.09.25-.34.55-.53.33l-1.74-2.87c-.05-.15.39-.43.44-.43Z"/>
    <polygon points="309.23 445.68 309.23 445.08 312.69 444.7 312.78 444.77 312.91 445.23 312.68 445.38 309.23 445.68"/>
    <path d="M306.53,336.95v.6c-.88.04-1.78-.05-2.66,0-.24.01-.46.1-.69.11-.45.01-.19-.3-.25-.7h3.6Z"/>
    <path d="M303.08,339.25h3.4c.14,0,.28.49-.01.59-.44.14-2.17,0-2.79,0-.28,0-.69.28-.75-.15-.03-.18,0-.35.15-.45Z"/>
    <path d="M279.52,437.08c.07.1-.11.55-.25.59-.19.04-.97-.56-1.24-.59l.35-.59,1.15.6Z"/>
    <path d="M345.91,425.18c.22-.06.48.19.42.42-.02.06-.78.95-.84.95-.03,0-.48-.29-.45-.43.01-.06.78-.92.87-.94Z"/>
    <path d="M358.14,390.96s.42-.01.51.04c.2.13.04,1.17.09,1.46h-.6v-1.5Z"/>
    <path d="M265.22,357.65c-.08.06-.59-.3-.59-.35,0-.08.79-1.05.93-1.04.82.08,0,.86-.23,1.14-.07.09-.09.24-.1.25Z"/>
    <path d="M297.33,338.75s.02.54-.01.59c-.04.05-.94.22-1.11.25-.41.06-.26-.32-.28-.63l1.4-.2Z"/>
    <path d="M354.84,373.06l.6-.2c-.03.22.52,1.22.46,1.3-.57.78-.93-.7-1.06-1.1Z"/>
    <path d="M315.02,443.18s.15.54.11.59-1.32.26-1.39.19c-.05-.04-.14-.46-.01-.54.1-.07,1.23-.29,1.29-.24Z"/>
    <path d="M255.72,408.37l.41,1.34c0,.06-.39.15-.45.14-.13-.02-.57-1.16-.56-1.23.03-.12.55-.29.6-.26Z"/>
    <path d="M332.92,345.67c.09.12-.12.62-.32.58-.05-.01-.93-.5-.97-.54-.21-.19-.04-.48.15-.64l1.14.6Z"/>
    <path d="M301.43,442.68s.05.51-.16.59c-.15.05-1.14-.02-1.23-.09-.04-.03-.05-.51.16-.58.13-.04,1.19.05,1.24.09Z"/>
    <polygon points="351.64 367.06 352.15 368.3 351.69 368.55 351.04 367.31 351.64 367.06"/>
    <path d="M358.74,388.76v1.3c-.63.08-.68-.03-.71-.65-.02-.65.03-.7.71-.65Z"/>
    <path d="M267.88,355.36c.12-.03.46.3.43.43-.02.09-.83.88-.93.86-.09-.02-.38-.32-.36-.43l.86-.86Z"/>
    <path d="M343.7,352.76c.1-.02.91.77.93.86.02.11-.27.41-.36.43-.1.02-.91-.77-.93-.86-.02-.11.27-.41.36-.43Z"/>
    <path d="M261.22,361.76c.08-.06.59.3.59.35,0,.07-.68,1.05-.83,1.04-.87-.07.17-1.04.23-1.39Z"/>
    <path d="M342.9,353.56c.1-.02.91.77.93.86.02.11-.27.41-.36.43-.1.02-.91-.77-.93-.86-.02-.11.27-.41.36-.43Z"/>
    <path d="M268.38,427.08c.1-.02.91.77.93.86.02.11-.27.41-.36.43-.1.02-.91-.77-.93-.86-.02-.11.27-.41.36-.43Z"/>
    <path d="M274.93,348.44s-.22-.39-.17-.49.93-.75,1.06-.65c.05.04.29.4.25.46-.09.14-.99.79-1.14.69Z"/>
    <path d="M356.94,404.97l-.3,1.3-.6-.1c.12-.61.03-1.62.9-1.19Z"/>
    <path d="M275.21,346.37s.2.34.2.36c.03.14-.96.85-1.09.79-.1-.05-.3-.35-.25-.46.07-.16.99-.79,1.14-.69Z"/>
    <path d="M349.83,420.97c-.1.07-.57-.23-.57-.34,0-.07.64-1.03.73-1.03.06,0,.3.17.36.23.24.27-.48.79-.52,1.15Z"/>
    <path d="M290.52,340.36l.11.6-1.3.3-.1-.59c.23-.02,1.17-.41,1.29-.3Z"/>
    <path d="M325.34,342.65s.14-.57.25-.59c.08-.02,1.1.42,1.13.56.02.1-.15.53-.24.54l-1.15-.5Z"/>
    <path d="M254.42,376.46s.57.16.59.26-.29,1.21-.44,1.22c-.04,0-.32-.1-.36-.13-.16-.13.15-1.31.2-1.35Z"/>
    <path d="M320.23,441.38l-.1-.7c.62.04,1.4-.74,1.36.3l-1.26.4Z"/>
    <path d="M353.14,367.85l-.59.1c0-.26-.54-.99-.4-1.18.02-.02.46-.19.5-.17.13.1.58,1.13.49,1.25Z"/>
    <path d="M258.33,416.16l-.51-1.14c.02-.09.45-.26.54-.24.07.01.56,1.07.55,1.13-.03.14-.48.33-.59.25Z"/>
    <path d="M253.2,397.28c.16.11.07,1.04.21,1.29-.17-.03-.39.13-.54.09s-.28-1.13-.26-1.23c.04-.17.47-.23.58-.15Z"/>
    <path d="M334.03,348.45c-.05.04-1.05-.56-1.09-.61-.08-.12.06-.69.46-.51.09.04.76.48.79.52.08.13-.11.57-.16.6Z"/>
    <path d="M336.51,435.29c.23-.06.48.19.42.42-.02.08-.88.75-.94.75-.09,0-.4-.35-.34-.52.02-.05.78-.63.87-.65Z"/>
    <path d="M284.72,439.17l.25-.6c.5.3,1.62.35.9,1.09l-1.15-.49Z"/>
    <rect x="252.32" y="390.36" width=".6" height="1.4"/>
    <path d="M326.22,343.56c.06.09-.05.59-.15.6-.11,0-.87-.31-1.01-.38-.35-.19-.13-.31.03-.63.13-.01,1.09.37,1.13.42Z"/>
    <path d="M311.13,337.25v.6c-.31-.02-.64.03-.95,0-.66-.06-.37-.18-.35-.7l1.3.1Z"/>
    <polygon points="357.14 384.26 357.24 385.56 356.64 385.66 356.54 384.26 357.14 384.26"/>
    <path d="M285.52,440.67c-.12.09-1.07-.36-1.25-.49l.16-.5c.12-.09,1.05.39,1.25.49l-.16.5Z"/>
    <path d="M355.84,404.67l-.3,1.3s-.55-.06-.59-.11c-.05-.07.18-1.1.24-1.19.13-.19.43.05.65,0Z"/>
    <path d="M358.04,405.27l-.3,1.3c-.99-.06-.38-.76-.29-1.39l.59.1Z"/>
    <path d="M311.03,339.05l-1.3-.1v-.6s1.21.04,1.21.04c.16.1.08.48.09.66Z"/>
    <path d="M343.59,426.07c.07,0,.39.35.34.53-.02.06-.55.62-.64.67-.3.2-.62-.06-.54-.34.02-.06.78-.87.84-.87Z"/>
    <path d="M266.69,428.78c.21-.05,1.03.77,1.03.84,0,.09-.36.43-.6.3-.28-.15-1.07-.98-.43-1.14Z"/>
    <path d="M335.2,433.38c1,.44-.15.83-.6,1.19-.81-.61.22-.74.6-1.19Z"/>
    <path d="M335.15,435.46s-.22-.4-.21-.43c.01-.06.98-.77,1.05-.76.05.01.35.43.31.5-.09.14-.99.79-1.14.69Z"/>
    <path d="M320.53,442.48s-.12-.53-.06-.6c.05-.07,1.11-.39,1.16-.35.08.07.23.47.15.56l-1.26.4Z"/>
    <path d="M301.33,443.78c.03.85,0,.62-.55.6-.22,0-.78.08-.85-.16-.18-.7.99-.37,1.39-.44Z"/>
    <path d="M355.14,375.46l.3,1.3-.6.1-.29-1.14c.03-.14.44-.24.59-.26Z"/>
    <path d="M350.05,361.35l-.6-.96.44-.43.73,1.05c0,.11-.48.41-.57.34Z"/>
    <path d="M276.3,348.27c.25-.06.52.23.38.49-.12.22-1.1.9-1.24.33-.06-.22.68-.78.86-.82Z"/>
    <path d="M262.71,362.67c.09.13-.56.98-.69,1.15l-.5-.31.7-1.01c.06-.08.48.15.49.17Z"/>
    <path d="M260.87,421.38l.73,1.05c0,.08-.35.33-.43.33-.1,0-.71-.84-.74-.94-.04-.19.31-.34.44-.43Z"/>
    <path d="M254.21,387.06s-.51.05-.58-.16c-.05-.16.01-1.06.09-1.13s.52-.03.58.15c.05.14-.03,1.06-.09,1.13Z"/>
    <path d="M255.81,378.15l-.59-.1.3-1.3c.99.06.39.75.29,1.39Z"/>
    <polygon points="253.92 376.36 253.57 377.57 253.47 377.63 253.02 377.56 253.22 376.26 253.92 376.36"/>
    <path d="M257.32,367.56l-.5,1.2-.6-.2.5-1.16c.16-.12.4.18.6.16Z"/>
    <path d="M259.57,419.38c.09,0,1.12,1.31.28,1.38-.14.01-.7-.84-.72-.95-.03-.12.41-.42.44-.42Z"/>
    <polygon points="290.82 341.45 290.93 342.05 289.63 342.35 289.53 341.75 290.82 341.45"/>
    <path d="M310.93,339.55v.6c-.69-.06-1.48.32-1.3-.7l1.3.1Z"/>
    <path d="M259.29,414.28c.18-.02.59.8.62.96.06.29-.35.58-.57.26s-.69-1.17-.05-1.23Z"/>
    <path d="M299.73,340.25l-1.3.1c-.19-.97.51-.58,1.15-.78.2.02.15.51.15.68Z"/>
    <polygon points="352.74 413.27 352.24 414.47 351.64 414.27 352.14 413.11 352.74 413.27"/>
    <path d="M353.3,416.18c.14-.03.45.16.44.33,0,.05-.42.81-.45.85-.21.22-.69-.05-.64-.24.02-.09.55-.93.65-.95Z"/>
    <path d="M259.31,368.47c.09.13-.34,1.15-.4,1.18-.1.07-.48-.09-.55-.19-.06-.09.39-1.11.46-1.16.04-.03.48.14.49.16Z"/>
    <path d="M354.31,414.08c.13-.04.52.13.53.24,0,.05-.37.84-.4.89-.2.3-.65.06-.67-.09-.01-.13.41-1.01.54-1.05Z"/>
    <path d="M347.99,361.38c.1,0,.72.82.74.94s-.41.43-.44.43c-.06,0-.74-.99-.73-1.05,0-.08.35-.33.43-.33Z"/>
    <path d="M258.42,365.46s-.53,1.01-.6,1.05c-.15.1-.46-.02-.56-.15-.05-.06.48-1.01.56-1.06.07-.05.54.11.6.16Z"/>
    <path d="M351.11,362.07c.14-.03.18-.01.28.09.05.05.54.8.54.85,0,.07-.36.33-.46.34-.16.01-.73-.97-.72-1.04s.27-.22.36-.23Z"/>
    <path d="M357.53,393.37s.04,1.09-.03,1.2c-.11.17-.62.04-.66,0s.22-1.06.1-1.3l.59.11Z"/>
    <path d="M254.42,397.16l.1,1.3c-.15-.04-.36.09-.45.08-.23-.02-.28-1.15-.25-1.38h.6Z"/>
    <path d="M282.43,342.75l-.16-.5,1.16-.6c-.02.2.28.44.16.6-.08.11-1.04.57-1.15.49Z"/>
    <path d="M358.23,384.17c.17.11.1,1.05.11,1.29h-.6s-.1-1.3-.1-1.3c.15.03.49-.05.59.01Z"/>
    <path d="M292.53,441.18s-.13.47-.15.5c-.13.21-.97-.19-1.25-.21l.1-.6,1.3.3Z"/>
    <path d="M267.57,427.87c.06,0,.93.8.94.86.02.11-.27.41-.36.43-.1.02-.91-.77-.93-.86-.02-.11.31-.44.34-.44Z"/>
    <path d="M329.8,344.06c.21-.06.86.38,1.09.49l-.31.6c-.18-.28-.86-.4-1.01-.6-.09-.13.09-.46.22-.49Z"/>
    <path d="M256.41,407.16c-.04.06-.56.15-.59.11.02-.36-.17-.68-.23-1.02-.07-.38.27-.22.53-.38.02.29.44,1.06.29,1.29Z"/>
    <polygon points="355.04 372.06 354.45 372.16 354.04 370.96 354.64 370.76 355.04 372.06"/>
    <polygon points="301.23 444.98 301.23 445.58 299.93 445.47 299.93 444.88 301.23 444.98"/>
    <path d="M291.93,443.38l-.16.61c-.6-.16-1.64-.06-1-.89l1.15.29Z"/>
    <path d="M319.93,341.25l-.16.61c-.53-.09-1.58-.07-1.08-.81l1.24.21Z"/>
    <path d="M259.52,363.36c.05.07-.46,1.09-.6,1.16-.04.02-.49-.14-.5-.16-.05-.07.46-1.09.6-1.16.04-.02.49.14.5.16Z"/>
    <path d="M259.01,418.56l-.5.17c-.11-.18-.62-.92-.55-1.06.04-.09.35-.31.46-.25.13.06.69,1.02.59,1.15Z"/>
    <path d="M263.81,359.34c-.96-.12-.36-.66.03-1.12.21-.25.41-.13.54.14.16.32-.51.66-.57.99Z"/>
    <path d="M349,418.98c.15-.04.44.23.54.34-.31.17-.55,1.04-.93.94-.61-.16.32-1.27.39-1.28Z"/>
    <path d="M322.73,339.76l-.1.6s-.93-.23-1.06-.29c-.38-.17-.15-.28.02-.62l1.13.31Z"/>
    <path d="M287.43,441.98s-.11.56-.26.59c-.13.03-1.11-.29-1.12-.44s.14-.44.33-.46c.07,0,1.01.27,1.05.31Z"/>
    <path d="M288.03,340.55l-1.2.4-.2-.6c.67-.08,1.27-.92,1.4.2Z"/>
    <path d="M254.12,388.16s.07,1.21-.16,1.29c-.85.28-.33-.83-.44-1.29h.6Z"/>
    <path d="M324.83,341.15s-1.12-.34-1.16-.4c-.1-.14.04-.48.15-.56.05-.03,1.01.28,1.06.35.08.12-.01.57-.06.61Z"/>
    <path d="M285.58,340.76c.1,0,.29.48.21.59-.06.08-1.05.44-1.16.35-.06-.05-.2-.4-.15-.46.04-.06,1.05-.49,1.11-.48Z"/>
    <path d="M312.63,442.48s.01.35-.01.44c-.06.17-1.24.32-1.29.26-.02-.02-.02-.54.01-.59.08-.13,1.24-.16,1.29-.11Z"/>
    <path d="M288.43,442.38s1.12.34,1.16.4c.1.14-.04.48-.15.56-.05.03-1.01-.28-1.06-.35-.08-.12.01-.57.06-.61Z"/>
    <path d="M326.54,438.97l-.16-.5c.25-.12.92-.6,1.16-.45.71.45-.88,1.03-.99.95Z"/>
    <path d="M327.44,440.48l1.05-.5c.18.16.35.45.15.64-.07.06-.89.45-.94.44-.14-.03-.33-.48-.25-.59Z"/>
    <path d="M342.09,354.36l.95.95c-.1.08-.26.32-.36.34-.07.02-.9-.64-.93-.76-.06-.24.2-.38.34-.53Z"/>
    <path d="M280.33,437.68c.1-.07,1.09.47,1.15.59.05.11-.17.42-.25.46-.09.04-1-.43-1.06-.55-.02-.04.14-.48.16-.5Z"/>
    <path d="M320.43,339.06l-.1.59c-.6-.16-1.5-.04-1.09-.9l1.19.31Z"/>
    <path d="M295.03,339.85c-.41-.07-1.6.55-1.29-.34.06-.19.94-.31,1.13-.25.23.08.16.39.16.59Z"/>
    <path d="M326.43,440.98s.14.49.06.61c-.04.06-1.12.45-1.16.39l-.1-.6,1.2-.4Z"/>
    <path d="M353.14,365.16s-.44.19-.47.19c-.15.01-.79-1.05-.73-1.09.13-.09.46-.25.6-.16.06.04.65,1.02.6,1.05Z"/>
    <path d="M310.22,443.27s-.45.1-.54.11c-.6.05-.76.07-.75-.6.3.09,1.16-.32,1.29.06.03.08.04.38,0,.43Z"/>
    <path d="M352.11,418.28c.13-.04.52.13.52.24,0,.05-.42.79-.5.89-.23.28-.6.03-.59-.18,0-.08.49-.92.57-.94Z"/>
    <path d="M262.69,420.08c.13-.01.69.74.72.86.07.27-.31.57-.57.26s-.88-1.06-.15-1.13Z"/>
    <path d="M347.73,423.59c.2.29-.55.79-.6,1.07-.16.13-.58-.27-.58-.34,0-.05.51-.59.6-.7.07-.09.09-.24.1-.25.05-.03.46.19.48.21Z"/>
    <path d="M277.91,435.46c-.23.16-.89-.59-1.19-.59.1-.19.22-.56.5-.46.07.03.82.52.85.56.07.09-.13.46-.17.49Z"/>
    <path d="M340.4,352.76c.14-.03,1.32.99.57,1.18-.2.05-.9-.63-.93-.75-.02-.11.27-.41.36-.43Z"/>
    <path d="M284.62,344.34l-1.05.5c-.19-.16-.35-.45-.15-.64.05-.04.89-.46.94-.45.13.03.33.49.25.59Z"/>
    <path d="M324.23,441.88c.05.03.15.54.1.59-.04.05-1.1.36-1.19.3s-.15-.42-.01-.54c.11-.1.98-.42,1.09-.34Z"/>
    <path d="M255.42,371.86l-.4,1.2-.6-.2c.19-.59.19-1.37,1-.99Z"/>
    <path d="M315.82,337.96c.07.08.04.52-.15.58-.11.04-.72-.06-.88-.09-.44-.1-.12-.36-.15-.7.2.1,1.12.12,1.19.21Z"/>
    <polygon points="255.52 379.26 255.22 380.42 254.62 380.36 254.92 379.16 255.52 379.26"/>
    <path d="M317.22,442.79c.06.04.15.56.11.59-.04.03-.86.14-1,.16-.43.05-.37-.52-.21-.62.07-.05,1.03-.18,1.09-.13Z"/>
    <path d="M275.17,432.98c.06,0,.87.62.91.69.05.11-.16.41-.25.46s-.98-.53-1-.62c-.03-.12.26-.53.34-.53Z"/>
    <path d="M256.47,410.58c.08,0,.58,1.02.35,1.24-.47.45-.81-.58-.8-.91,0-.18.34-.34.45-.33Z"/>
    <path d="M332.13,436.88l.17.5c-.17.09-.96.66-1.06.6-.04-.03-.25-.48-.16-.6.07-.1.93-.57,1.05-.49Z"/>
    <path d="M263.67,425.19c.07,0,.73.77.74.85.02.1-.26.41-.36.43-.08.02-.82-.79-.83-.85-.03-.14.41-.43.45-.43Z"/>
    <path d="M308.63,338.25s.01.35-.01.44c-.08.24-.61.19-.84.17-.67-.06-.32-.16-.35-.7l1.2.1Z"/>
    <path d="M355.84,412.07l-.5,1.06-.6-.16.5-1.06c.16-.12.4.18.6.16Z"/>
    <path d="M332.73,437.88l.16.5-1.06.6c-.52-.68.3-.98.89-1.09Z"/>
    <path d="M346.99,356.26l.85.95-.46.34c-.15.03-.62-.73-.83-.84l.45-.45Z"/>
    <path d="M355.14,410.67c-.1.07-.56-.11-.59-.26-.01-.05.27-.81.31-.87.19-.33.65-.05.66.08,0,.06-.34,1.02-.38,1.05Z"/>
    <path d="M303.63,443.98v.6c-.69-.04-1.37.28-1.2-.7l1.2.1Z"/>
    <path d="M356.53,409.88c.06.09-.24,1.15-.29,1.19-.04.03-.5-.12-.56-.2-.03-.04.22-1.06.26-1.1.05-.05.56.06.59.11Z"/>
    <path d="M295.33,443.68l.1-.6c.25.03,1.11.04,1.19.26.29.87-.87.31-1.29.34Z"/>
    <path d="M254.11,380.16l-.6-.1.3-1.2c.97.08.42.67.29,1.3Z"/>
    <path d="M308.63,337.75s-.34-.09-.45-.1c-.66-.05-.84.26-.75-.6l1.21.05c.16.06.02.63,0,.66Z"/>
    <path d="M336.24,432.58s.12-.01.19-.06c.12-.09.63-.52.68-.53.15-.03.42.33.41.44,0,.08-.87.75-.93.75-.04,0-.41-.51-.35-.6Z"/>
    <path d="M358.34,404.17l-.6-.1c.14-.44.04-1.41.67-1.12.41.18-.07.86-.08,1.22Z"/>
    <path d="M279.81,344.87s.2.33.2.35c.04.17-.94.72-.99.69-.12-.07-.36-.42-.26-.56.07-.1.92-.57,1.04-.48Z"/>
    <path d="M253.01,379.85l-.59-.1c.15-.6.06-1.58.88-.95l-.29,1.05Z"/>
    <path d="M296.42,444.39c.06.07-.02.45,0,.59l-1.2-.1c0-.17-.07-.65.16-.69.05,0,1,.16,1.03.2Z"/>
    <path d="M257.32,371.66c-.05-.07.52-1.59.96-.9.09.14-.27.99-.35,1.06-.08.06-.59-.13-.6-.16Z"/>
    <polygon points="303.53 445.08 303.53 445.78 302.33 445.68 302.33 445.08 303.53 445.08"/>
    <path d="M279.21,343.86s.24.4.17.49-1,.64-1.06.6l-.2-.59c.26-.02.89-.63,1.08-.49Z"/>
    <path d="M356.34,402.37c.05.04-.16,1.15-.21,1.19-.05.04-.41.02-.5-.04-.23-.15.11-1.22.25-1.23.02,0,.43.06.45.08Z"/>
    <path d="M255.51,403.67l.3,1.04c-.03.14-.44.24-.59.26l-.3-1.2.59-.1Z"/>
    <polygon points="256.52 372.26 256.11 373.35 255.52 373.26 255.91 372.1 256.52 372.26"/>
    <path d="M269.37,429.57l.85.85c-.53.77-.83-.01-1.3-.4l.45-.45Z"/>
    <path d="M346.1,357.06c.2-.04.6.73.84.84l-.45.45-.74-.86c-.02-.1.26-.41.36-.43Z"/>
    <path d="M268.49,430.48c.29-.08.69.57.93.74l-.45.45-.85-.85c.11-.09.24-.31.37-.34Z"/>
    <path d="M341.2,351.96c.11-.02.81.67.83.76.02.11-.27.41-.36.43-.11.02-.81-.67-.83-.76-.02-.11.27-.41.36-.43Z"/>
    <path d="M335.2,348.66c.14-.04.92.47.99.59.06.1-.17.41-.25.46-.07.04-.9-.45-.96-.56-.07-.14.08-.45.22-.49Z"/>
    <path d="M273.73,350.74s-.19-.34-.2-.36c-.04-.15.78-.8.99-.69.07.04.3.37.29.41,0,.06-.95.73-1.08.64Z"/>
    <path d="M341.81,427.88c.22-.06.48.19.42.42-.03.11-.72.79-.83.76-.06-.01-.36-.32-.36-.34,0-.06.67-.81.76-.84Z"/>
    <path d="M274.12,349.25l-.95.58c-.08,0-.33-.35-.33-.43s.87-.75.93-.75c.04,0,.41.51.35.6Z"/>
    <path d="M272.42,348.95l-.3-.6.9-.56c.93.37-.15.87-.59,1.16Z"/>
    <path d="M262.43,424.66l-.61-.94s.42-.33.45-.33c.08,0,.74.87.74.93,0,.09-.48.42-.58.34Z"/>
    <path d="M293.53,442.07l.1-.59c.6.15,1.58.06.95.88l-1.05-.29Z"/>
    <path d="M294.23,443.98l-.1.6c-.58-.15-1.63-.09-.95-.88l1.05.28Z"/>
    <path d="M313.13,339.35s-1.06-.17-1.09-.21-.03-.57-.01-.59c.05-.05.99.08,1.1.15.14.09.04.6,0,.65Z"/>
    <path d="M315.63,339.05v.6c-.59-.03-1.51.13-1.2-.7l1.2.1Z"/>
    <path d="M338.5,433.88c.19-.03.37.33.29.49-.07.14-.74.64-.89.6-.14-.04-.29-.35-.22-.49.06-.12.7-.57.82-.59Z"/>
    <path d="M282.42,345.45l-1.04.41-.25-.46c.5-.32,1.27-.97,1.28.04Z"/>
    <path d="M264.31,422.08c.04.36.63.66.46.99-.32.61-1.04-.48-1.03-.65,0-.12.4-.44.57-.34Z"/>
    <path d="M336.95,433.48s.79-.51.84-.52c.12,0,.45.31.45.35,0,.07-.85.73-.95.73-.12,0-.44-.41-.34-.57Z"/>
    <path d="M357.24,403.86l-.59-.1c.14-.59.08-1.63.89-.95l-.29,1.05Z"/>
    <path d="M317.42,341.24c-.15.13-.95-.22-1.19-.19l.1-.6c.08-.07,1.15.18,1.18.35,0,.02-.08.42-.1.43Z"/>
    <path d="M355.84,377.86l.28,1.05c-.01.13-.44.23-.58.25l-.3-1.2.59-.1Z"/>
    <path d="M357.44,395.76l-.1,1.2h-.6s.04-1.11.04-1.11c.1-.16.48-.08.66-.09Z"/>
    <path d="M281.22,342.75l.2.6c-.32,0-.83.53-1.1.36-.65-.41.56-.87.9-.96Z"/>
    <path d="M256.21,369.77c.12.16-.41,1.64-.95.89-.03-.05.39-1.01.46-1.06.04-.03.48.14.5.17Z"/>
    <path d="M318.02,338.46c.07.11.03.54-.15.58-.05.01-.99-.16-1.04-.2-.04-.03-.05-.52.16-.59.14-.05.98.13,1.02.2Z"/>
    <path d="M277.11,345.17s.24.4.17.49c-.03.04-.67.42-.75.45-.38.15-.37-.13-.46-.46.19-.12.86-.62,1.04-.48Z"/>
    <path d="M270.07,428.77c.1-.02.95.79.95.85,0,.02-.31.33-.36.34-.07.02-.92-.68-.92-.74,0-.03.31-.44.34-.45Z"/>
    <path d="M346.73,359.46l.61.94c-.25.14-.39.36-.66.16-.04-.03-.54-.71-.53-.76,0-.09.48-.42.58-.34Z"/>
    <path d="M302.53,443.38v-.6c.27.05,1.09-.14,1.19.16.28.84-.77.35-1.19.44Z"/>
    <path d="M353.64,411.08c.06.08-.29.98-.39,1.05-.15.1-.47-.03-.56-.15-.03-.05.39-1.01.46-1.06l.5.16Z"/>
    <path d="M349.13,359.14s-.4.22-.43.21c-.06-.01-.67-.86-.66-.94l.45-.36c.13.21.78.88.64,1.09Z"/>
    <path d="M333.94,437.67l-.2-.59.94-.51c.67.6-.23.89-.74,1.1Z"/>
    <path d="M308.53,339.35s.01.45-.01.54c-.08.28-.33.07-.53.06-.66-.03-.71.2-.65-.6h1.2Z"/>
    <path d="M302.03,339.35s.01.56,0,.59c-.02.02-.45.1-.54.11-.67.06-.71.09-.65-.6l1.2-.1Z"/>
    <path d="M330.73,438.98s.15.51.09.59c-.03.04-.91.43-.99.37-.1-.07-.26-.45-.19-.55.03-.05,1.02-.46,1.09-.4Z"/>
    <path d="M297.63,445.17l.1-.59c.26.1,1,.02,1.08.26.27.81-.77.43-1.18.33Z"/>
    <path d="M269.57,353.66s.36.32.34.43c-.03.13-.68.87-.74.87l-.45-.45.85-.85Z"/>
    <path d="M264.48,424.48c.16-.03.82.75.82.84,0,.04-.29.33-.35.34-.11.02-.81-.67-.83-.76-.02-.11.27-.41.36-.43Z"/>
    <path d="M277.92,346.65c-.08.06-.9.49-.95.5-.16.03-.34-.43-.34-.45,0-.09.81-.52.94-.65l.35.6Z"/>
    <path d="M328.74,437.87c-.08-.06-.13-.42-.02-.55.07-.08.87-.43.91-.4.75.54-.74,1.07-.9.95Z"/>
    <path d="M313.33,338.15c-.04.06-.98-.07-1.1-.14-.16-.09-.02-.45.06-.56s.91.05,1.05.16c.09.07,0,.52,0,.54Z"/>
    <path d="M254.51,374.16c.13.14-.29.96-.3,1.2l-.6-.2c.06-.23.26-1.05.46-1.08.03,0,.42.07.44.09Z"/>
    <path d="M357.33,407.58c.05.07,0,.23-.01.32-.12.61-.22.92-.88.68l.3-1.1c.05-.05.56.06.59.11Z"/>
    <path d="M333.34,436.67l-.2-.6c.43-.02,1.04-.9,1.19-.13.06.34-.69.66-.99.73Z"/>
    <rect x="252.32" y="392.76" width=".6" height="1.2"/>
    <path d="M345.54,354.45s.02.16.1.25c.15.18.47.38.51.6.02.14-.29.31-.37.33-.15.04-.7-.58-.72-.75-.01-.15.36-.52.49-.43Z"/>
    <path d="M355.94,408.37l-.6-.2c.29-.54.18-1.51.99-.85l-.39,1.05Z"/>
    <path d="M255.61,374.56c.05.06-.02.3-.04.4-.13.56-.26.87-.86.59l.3-1.1.6.11Z"/>
    <polygon points="266.17 426.27 266.92 427.12 266.47 427.57 265.72 426.72 266.17 426.27"/>
    <path d="M299.03,443.58s.05.52-.16.59c-.13.04-.97-.04-1.03-.09-.04-.03-.05-.52.16-.59.05-.02,1,.06,1.04.09Z"/>
    <path d="M265.42,427.07s.02.16.1.25c.11.13.47.41.5.51.02.11-.27.41-.36.43-.19.04-.72-.63-.74-.85-.02-.17.45-.38.5-.34Z"/>
    <path d="M344.74,356.45s-.02-.16-.1-.25c-.11-.13-.47-.41-.5-.51-.02-.11.27-.41.36-.43.16-.03.71.6.72.76s-.36.52-.49.43Z"/>
    <path d="M292.73,339.65s.12.53.06.6c-.08.1-1.03.34-1.06.3l-.1-.6,1.1-.3Z"/>
    <path d="M263.58,360.57c.13-.02.45.15.43.32-.02.13-.53.85-.64.85-.03,0-.44-.3-.45-.33,0-.07.52-.81.66-.84Z"/>
    <path d="M257.42,412.67s.41.89.39.94c-.03.14-.39.28-.53.27-.06,0-.49-.96-.46-1.01l.6-.2Z"/>
    <path d="M342,351.16c.05-.01.82.6.83.66.07.23-.21.4-.34.54l-.85-.85c.1-.08.26-.32.36-.34Z"/>
    <path d="M327.25,344.74c-.06-.09.05-.59.15-.6.14-.01,1.02.38,1.03.45.01.13-.15.44-.34.46-.1,0-.81-.28-.84-.32Z"/>
    <path d="M357.43,387.85c-.05.08-.44.18-.54.02-.03-.04-.17-.96-.14-1,.04-.06.54-.18.65,0,.07.1.08.92.03.99Z"/>
    <path d="M253.02,394.96l.1,1.1c-.53.02-.64.12-.7-.45-.07-.67-.08-.72.6-.65Z"/>
    <path d="M283.62,438.68s-.59-.3-.7-.35c-.23-.11-.4.06-.25-.36.09-.26.19-.33.46-.25.1.03.62.3.66.36.05.07-.11.54-.16.6Z"/>
    <path d="M353.26,369.07s.39-.25.49-.17c.08.06.49.91.45.96-.5.7-1.06-.62-.94-.79Z"/>
    <polygon points="358.54 386.66 358.64 387.76 358.04 387.86 357.94 386.66 358.54 386.66"/>
    <path d="M318.93,441.08s.14.49.06.61c-.05.07-.9.3-.96.25-.07-.06-.23-.52-.2-.56l1.1-.3Z"/>
    <path d="M347.54,422.27c-.76-.12-.48-.64-.1-1.05.23-.25.61-.04.61.2,0,.26-.48.56-.51.85Z"/>
    <path d="M293.13,341.45s-.89.21-.94.2c-.17-.04-.2-.39-.17-.53s.84-.25,1-.36l.1.7Z"/>
    <path d="M257.82,412.37s.44-.19.47-.19c.21-.02.61.79.49.99-.06.09-.34.24-.46.16-.04-.03-.54-.92-.5-.96Z"/>
    <path d="M352.74,369.36s.41.89.39.94c-.03.14-.39.28-.53.27-.05,0-.44-.81-.44-.86,0-.12.49-.41.58-.35Z"/>
    <path d="M283.32,439.08l-.1.59c-.04.05-1.06-.35-1.1-.4-.04-.05.09-.34.15-.4.3-.3.72.17,1.05.21Z"/>
    <path d="M262.03,360.84c-.12-.17.28-.57.39-.74.06-.09.08-.24.1-.25.1-.07.5.27.6.35l-.6.81c-.06.09-.47-.15-.49-.17Z"/>
    <path d="M328.83,343.46l-.1.59c-.04.05-1.06-.35-1.1-.4-.04-.05.09-.34.15-.4.3-.3.72.17,1.05.21Z"/>
    <path d="M254.22,395.97h-.6s-.1-1.1-.1-1.1c.93-.15.68.41.7,1.1Z"/>
    <path d="M348.53,422.86c-.12.08-.6-.2-.6-.25,0-.14.58-.93.66-.93.03,0,.37.28.45.34l-.51.84Z"/>
    <path d="M318.25,442.49c.06-.09.82-.2.99-.31l.2.55c0,.1-.95.36-1.04.34-.17-.03-.22-.48-.14-.58Z"/>
  </g>
  <circle class="cls-2" cx="305.55" cy="391.06" r="42.9"/>
</svg>